%TF.GenerationSoftware,KiCad,Pcbnew,8.0.6*%
%TF.CreationDate,2025-10-30T18:54:05+01:00*%
%TF.ProjectId,top_PCB,746f705f-5043-4422-9e6b-696361645f70,rev?*%
%TF.SameCoordinates,Original*%
%TF.FileFunction,Legend,Top*%
%TF.FilePolarity,Positive*%
%FSLAX46Y46*%
G04 Gerber Fmt 4.6, Leading zero omitted, Abs format (unit mm)*
G04 Created by KiCad (PCBNEW 8.0.6) date 2025-10-30 18:54:05*
%MOMM*%
%LPD*%
G01*
G04 APERTURE LIST*
%ADD10C,0.200000*%
%ADD11C,0.150000*%
%ADD12C,0.100000*%
%ADD13C,0.120000*%
%ADD14C,0.127000*%
G04 APERTURE END LIST*
D10*
X20451482Y-67342438D02*
X20356244Y-67294819D01*
X20356244Y-67294819D02*
X20213387Y-67294819D01*
X20213387Y-67294819D02*
X20070530Y-67342438D01*
X20070530Y-67342438D02*
X19975292Y-67437676D01*
X19975292Y-67437676D02*
X19927673Y-67532914D01*
X19927673Y-67532914D02*
X19880054Y-67723390D01*
X19880054Y-67723390D02*
X19880054Y-67866247D01*
X19880054Y-67866247D02*
X19927673Y-68056723D01*
X19927673Y-68056723D02*
X19975292Y-68151961D01*
X19975292Y-68151961D02*
X20070530Y-68247200D01*
X20070530Y-68247200D02*
X20213387Y-68294819D01*
X20213387Y-68294819D02*
X20308625Y-68294819D01*
X20308625Y-68294819D02*
X20451482Y-68247200D01*
X20451482Y-68247200D02*
X20499101Y-68199580D01*
X20499101Y-68199580D02*
X20499101Y-67866247D01*
X20499101Y-67866247D02*
X20308625Y-67866247D01*
X20927673Y-68294819D02*
X20927673Y-67294819D01*
X20927673Y-67294819D02*
X21499101Y-68294819D01*
X21499101Y-68294819D02*
X21499101Y-67294819D01*
X21975292Y-68294819D02*
X21975292Y-67294819D01*
X21975292Y-67294819D02*
X22213387Y-67294819D01*
X22213387Y-67294819D02*
X22356244Y-67342438D01*
X22356244Y-67342438D02*
X22451482Y-67437676D01*
X22451482Y-67437676D02*
X22499101Y-67532914D01*
X22499101Y-67532914D02*
X22546720Y-67723390D01*
X22546720Y-67723390D02*
X22546720Y-67866247D01*
X22546720Y-67866247D02*
X22499101Y-68056723D01*
X22499101Y-68056723D02*
X22451482Y-68151961D01*
X22451482Y-68151961D02*
X22356244Y-68247200D01*
X22356244Y-68247200D02*
X22213387Y-68294819D01*
X22213387Y-68294819D02*
X21975292Y-68294819D01*
X17559063Y-67345619D02*
X17082873Y-67345619D01*
X17082873Y-67345619D02*
X17035254Y-67821809D01*
X17035254Y-67821809D02*
X17082873Y-67774190D01*
X17082873Y-67774190D02*
X17178111Y-67726571D01*
X17178111Y-67726571D02*
X17416206Y-67726571D01*
X17416206Y-67726571D02*
X17511444Y-67774190D01*
X17511444Y-67774190D02*
X17559063Y-67821809D01*
X17559063Y-67821809D02*
X17606682Y-67917047D01*
X17606682Y-67917047D02*
X17606682Y-68155142D01*
X17606682Y-68155142D02*
X17559063Y-68250380D01*
X17559063Y-68250380D02*
X17511444Y-68298000D01*
X17511444Y-68298000D02*
X17416206Y-68345619D01*
X17416206Y-68345619D02*
X17178111Y-68345619D01*
X17178111Y-68345619D02*
X17082873Y-68298000D01*
X17082873Y-68298000D02*
X17035254Y-68250380D01*
X17892397Y-67345619D02*
X18225730Y-68345619D01*
X18225730Y-68345619D02*
X18559063Y-67345619D01*
D11*
X84923333Y-72632219D02*
X84590000Y-72156028D01*
X84351905Y-72632219D02*
X84351905Y-71632219D01*
X84351905Y-71632219D02*
X84732857Y-71632219D01*
X84732857Y-71632219D02*
X84828095Y-71679838D01*
X84828095Y-71679838D02*
X84875714Y-71727457D01*
X84875714Y-71727457D02*
X84923333Y-71822695D01*
X84923333Y-71822695D02*
X84923333Y-71965552D01*
X84923333Y-71965552D02*
X84875714Y-72060790D01*
X84875714Y-72060790D02*
X84828095Y-72108409D01*
X84828095Y-72108409D02*
X84732857Y-72156028D01*
X84732857Y-72156028D02*
X84351905Y-72156028D01*
X85256667Y-71632219D02*
X85875714Y-71632219D01*
X85875714Y-71632219D02*
X85542381Y-72013171D01*
X85542381Y-72013171D02*
X85685238Y-72013171D01*
X85685238Y-72013171D02*
X85780476Y-72060790D01*
X85780476Y-72060790D02*
X85828095Y-72108409D01*
X85828095Y-72108409D02*
X85875714Y-72203647D01*
X85875714Y-72203647D02*
X85875714Y-72441742D01*
X85875714Y-72441742D02*
X85828095Y-72536980D01*
X85828095Y-72536980D02*
X85780476Y-72584600D01*
X85780476Y-72584600D02*
X85685238Y-72632219D01*
X85685238Y-72632219D02*
X85399524Y-72632219D01*
X85399524Y-72632219D02*
X85304286Y-72584600D01*
X85304286Y-72584600D02*
X85256667Y-72536980D01*
X47826342Y-69118780D02*
X47778723Y-69166400D01*
X47778723Y-69166400D02*
X47635866Y-69214019D01*
X47635866Y-69214019D02*
X47540628Y-69214019D01*
X47540628Y-69214019D02*
X47397771Y-69166400D01*
X47397771Y-69166400D02*
X47302533Y-69071161D01*
X47302533Y-69071161D02*
X47254914Y-68975923D01*
X47254914Y-68975923D02*
X47207295Y-68785447D01*
X47207295Y-68785447D02*
X47207295Y-68642590D01*
X47207295Y-68642590D02*
X47254914Y-68452114D01*
X47254914Y-68452114D02*
X47302533Y-68356876D01*
X47302533Y-68356876D02*
X47397771Y-68261638D01*
X47397771Y-68261638D02*
X47540628Y-68214019D01*
X47540628Y-68214019D02*
X47635866Y-68214019D01*
X47635866Y-68214019D02*
X47778723Y-68261638D01*
X47778723Y-68261638D02*
X47826342Y-68309257D01*
X48778723Y-69214019D02*
X48207295Y-69214019D01*
X48493009Y-69214019D02*
X48493009Y-68214019D01*
X48493009Y-68214019D02*
X48397771Y-68356876D01*
X48397771Y-68356876D02*
X48302533Y-68452114D01*
X48302533Y-68452114D02*
X48207295Y-68499733D01*
X49635866Y-68214019D02*
X49445390Y-68214019D01*
X49445390Y-68214019D02*
X49350152Y-68261638D01*
X49350152Y-68261638D02*
X49302533Y-68309257D01*
X49302533Y-68309257D02*
X49207295Y-68452114D01*
X49207295Y-68452114D02*
X49159676Y-68642590D01*
X49159676Y-68642590D02*
X49159676Y-69023542D01*
X49159676Y-69023542D02*
X49207295Y-69118780D01*
X49207295Y-69118780D02*
X49254914Y-69166400D01*
X49254914Y-69166400D02*
X49350152Y-69214019D01*
X49350152Y-69214019D02*
X49540628Y-69214019D01*
X49540628Y-69214019D02*
X49635866Y-69166400D01*
X49635866Y-69166400D02*
X49683485Y-69118780D01*
X49683485Y-69118780D02*
X49731104Y-69023542D01*
X49731104Y-69023542D02*
X49731104Y-68785447D01*
X49731104Y-68785447D02*
X49683485Y-68690209D01*
X49683485Y-68690209D02*
X49635866Y-68642590D01*
X49635866Y-68642590D02*
X49540628Y-68594971D01*
X49540628Y-68594971D02*
X49350152Y-68594971D01*
X49350152Y-68594971D02*
X49254914Y-68642590D01*
X49254914Y-68642590D02*
X49207295Y-68690209D01*
X49207295Y-68690209D02*
X49159676Y-68785447D01*
X92123942Y-80243980D02*
X92076323Y-80291600D01*
X92076323Y-80291600D02*
X91933466Y-80339219D01*
X91933466Y-80339219D02*
X91838228Y-80339219D01*
X91838228Y-80339219D02*
X91695371Y-80291600D01*
X91695371Y-80291600D02*
X91600133Y-80196361D01*
X91600133Y-80196361D02*
X91552514Y-80101123D01*
X91552514Y-80101123D02*
X91504895Y-79910647D01*
X91504895Y-79910647D02*
X91504895Y-79767790D01*
X91504895Y-79767790D02*
X91552514Y-79577314D01*
X91552514Y-79577314D02*
X91600133Y-79482076D01*
X91600133Y-79482076D02*
X91695371Y-79386838D01*
X91695371Y-79386838D02*
X91838228Y-79339219D01*
X91838228Y-79339219D02*
X91933466Y-79339219D01*
X91933466Y-79339219D02*
X92076323Y-79386838D01*
X92076323Y-79386838D02*
X92123942Y-79434457D01*
X93076323Y-80339219D02*
X92504895Y-80339219D01*
X92790609Y-80339219D02*
X92790609Y-79339219D01*
X92790609Y-79339219D02*
X92695371Y-79482076D01*
X92695371Y-79482076D02*
X92600133Y-79577314D01*
X92600133Y-79577314D02*
X92504895Y-79624933D01*
X93933466Y-79672552D02*
X93933466Y-80339219D01*
X93695371Y-79291600D02*
X93457276Y-80005885D01*
X93457276Y-80005885D02*
X94076323Y-80005885D01*
X42143219Y-60821304D02*
X42952742Y-60821304D01*
X42952742Y-60821304D02*
X43047980Y-60773685D01*
X43047980Y-60773685D02*
X43095600Y-60726066D01*
X43095600Y-60726066D02*
X43143219Y-60630828D01*
X43143219Y-60630828D02*
X43143219Y-60440352D01*
X43143219Y-60440352D02*
X43095600Y-60345114D01*
X43095600Y-60345114D02*
X43047980Y-60297495D01*
X43047980Y-60297495D02*
X42952742Y-60249876D01*
X42952742Y-60249876D02*
X42143219Y-60249876D01*
X42238457Y-59821304D02*
X42190838Y-59773685D01*
X42190838Y-59773685D02*
X42143219Y-59678447D01*
X42143219Y-59678447D02*
X42143219Y-59440352D01*
X42143219Y-59440352D02*
X42190838Y-59345114D01*
X42190838Y-59345114D02*
X42238457Y-59297495D01*
X42238457Y-59297495D02*
X42333695Y-59249876D01*
X42333695Y-59249876D02*
X42428933Y-59249876D01*
X42428933Y-59249876D02*
X42571790Y-59297495D01*
X42571790Y-59297495D02*
X43143219Y-59868923D01*
X43143219Y-59868923D02*
X43143219Y-59249876D01*
X82280580Y-63306057D02*
X82328200Y-63353676D01*
X82328200Y-63353676D02*
X82375819Y-63496533D01*
X82375819Y-63496533D02*
X82375819Y-63591771D01*
X82375819Y-63591771D02*
X82328200Y-63734628D01*
X82328200Y-63734628D02*
X82232961Y-63829866D01*
X82232961Y-63829866D02*
X82137723Y-63877485D01*
X82137723Y-63877485D02*
X81947247Y-63925104D01*
X81947247Y-63925104D02*
X81804390Y-63925104D01*
X81804390Y-63925104D02*
X81613914Y-63877485D01*
X81613914Y-63877485D02*
X81518676Y-63829866D01*
X81518676Y-63829866D02*
X81423438Y-63734628D01*
X81423438Y-63734628D02*
X81375819Y-63591771D01*
X81375819Y-63591771D02*
X81375819Y-63496533D01*
X81375819Y-63496533D02*
X81423438Y-63353676D01*
X81423438Y-63353676D02*
X81471057Y-63306057D01*
X82375819Y-62353676D02*
X82375819Y-62925104D01*
X82375819Y-62639390D02*
X81375819Y-62639390D01*
X81375819Y-62639390D02*
X81518676Y-62734628D01*
X81518676Y-62734628D02*
X81613914Y-62829866D01*
X81613914Y-62829866D02*
X81661533Y-62925104D01*
X82375819Y-61401295D02*
X82375819Y-61972723D01*
X82375819Y-61687009D02*
X81375819Y-61687009D01*
X81375819Y-61687009D02*
X81518676Y-61782247D01*
X81518676Y-61782247D02*
X81613914Y-61877485D01*
X81613914Y-61877485D02*
X81661533Y-61972723D01*
X58462533Y-67391580D02*
X58414914Y-67439200D01*
X58414914Y-67439200D02*
X58272057Y-67486819D01*
X58272057Y-67486819D02*
X58176819Y-67486819D01*
X58176819Y-67486819D02*
X58033962Y-67439200D01*
X58033962Y-67439200D02*
X57938724Y-67343961D01*
X57938724Y-67343961D02*
X57891105Y-67248723D01*
X57891105Y-67248723D02*
X57843486Y-67058247D01*
X57843486Y-67058247D02*
X57843486Y-66915390D01*
X57843486Y-66915390D02*
X57891105Y-66724914D01*
X57891105Y-66724914D02*
X57938724Y-66629676D01*
X57938724Y-66629676D02*
X58033962Y-66534438D01*
X58033962Y-66534438D02*
X58176819Y-66486819D01*
X58176819Y-66486819D02*
X58272057Y-66486819D01*
X58272057Y-66486819D02*
X58414914Y-66534438D01*
X58414914Y-66534438D02*
X58462533Y-66582057D01*
X59033962Y-66915390D02*
X58938724Y-66867771D01*
X58938724Y-66867771D02*
X58891105Y-66820152D01*
X58891105Y-66820152D02*
X58843486Y-66724914D01*
X58843486Y-66724914D02*
X58843486Y-66677295D01*
X58843486Y-66677295D02*
X58891105Y-66582057D01*
X58891105Y-66582057D02*
X58938724Y-66534438D01*
X58938724Y-66534438D02*
X59033962Y-66486819D01*
X59033962Y-66486819D02*
X59224438Y-66486819D01*
X59224438Y-66486819D02*
X59319676Y-66534438D01*
X59319676Y-66534438D02*
X59367295Y-66582057D01*
X59367295Y-66582057D02*
X59414914Y-66677295D01*
X59414914Y-66677295D02*
X59414914Y-66724914D01*
X59414914Y-66724914D02*
X59367295Y-66820152D01*
X59367295Y-66820152D02*
X59319676Y-66867771D01*
X59319676Y-66867771D02*
X59224438Y-66915390D01*
X59224438Y-66915390D02*
X59033962Y-66915390D01*
X59033962Y-66915390D02*
X58938724Y-66963009D01*
X58938724Y-66963009D02*
X58891105Y-67010628D01*
X58891105Y-67010628D02*
X58843486Y-67105866D01*
X58843486Y-67105866D02*
X58843486Y-67296342D01*
X58843486Y-67296342D02*
X58891105Y-67391580D01*
X58891105Y-67391580D02*
X58938724Y-67439200D01*
X58938724Y-67439200D02*
X59033962Y-67486819D01*
X59033962Y-67486819D02*
X59224438Y-67486819D01*
X59224438Y-67486819D02*
X59319676Y-67439200D01*
X59319676Y-67439200D02*
X59367295Y-67391580D01*
X59367295Y-67391580D02*
X59414914Y-67296342D01*
X59414914Y-67296342D02*
X59414914Y-67105866D01*
X59414914Y-67105866D02*
X59367295Y-67010628D01*
X59367295Y-67010628D02*
X59319676Y-66963009D01*
X59319676Y-66963009D02*
X59224438Y-66915390D01*
X87944780Y-71307057D02*
X87992400Y-71354676D01*
X87992400Y-71354676D02*
X88040019Y-71497533D01*
X88040019Y-71497533D02*
X88040019Y-71592771D01*
X88040019Y-71592771D02*
X87992400Y-71735628D01*
X87992400Y-71735628D02*
X87897161Y-71830866D01*
X87897161Y-71830866D02*
X87801923Y-71878485D01*
X87801923Y-71878485D02*
X87611447Y-71926104D01*
X87611447Y-71926104D02*
X87468590Y-71926104D01*
X87468590Y-71926104D02*
X87278114Y-71878485D01*
X87278114Y-71878485D02*
X87182876Y-71830866D01*
X87182876Y-71830866D02*
X87087638Y-71735628D01*
X87087638Y-71735628D02*
X87040019Y-71592771D01*
X87040019Y-71592771D02*
X87040019Y-71497533D01*
X87040019Y-71497533D02*
X87087638Y-71354676D01*
X87087638Y-71354676D02*
X87135257Y-71307057D01*
X87135257Y-70926104D02*
X87087638Y-70878485D01*
X87087638Y-70878485D02*
X87040019Y-70783247D01*
X87040019Y-70783247D02*
X87040019Y-70545152D01*
X87040019Y-70545152D02*
X87087638Y-70449914D01*
X87087638Y-70449914D02*
X87135257Y-70402295D01*
X87135257Y-70402295D02*
X87230495Y-70354676D01*
X87230495Y-70354676D02*
X87325733Y-70354676D01*
X87325733Y-70354676D02*
X87468590Y-70402295D01*
X87468590Y-70402295D02*
X88040019Y-70973723D01*
X88040019Y-70973723D02*
X88040019Y-70354676D01*
X88040019Y-69402295D02*
X88040019Y-69973723D01*
X88040019Y-69688009D02*
X87040019Y-69688009D01*
X87040019Y-69688009D02*
X87182876Y-69783247D01*
X87182876Y-69783247D02*
X87278114Y-69878485D01*
X87278114Y-69878485D02*
X87325733Y-69973723D01*
X85885719Y-63204933D02*
X85885719Y-63538266D01*
X86409529Y-63538266D02*
X85409529Y-63538266D01*
X85409529Y-63538266D02*
X85409529Y-63062076D01*
X85885719Y-62347790D02*
X85933338Y-62204933D01*
X85933338Y-62204933D02*
X85980957Y-62157314D01*
X85980957Y-62157314D02*
X86076195Y-62109695D01*
X86076195Y-62109695D02*
X86219052Y-62109695D01*
X86219052Y-62109695D02*
X86314290Y-62157314D01*
X86314290Y-62157314D02*
X86361910Y-62204933D01*
X86361910Y-62204933D02*
X86409529Y-62300171D01*
X86409529Y-62300171D02*
X86409529Y-62681123D01*
X86409529Y-62681123D02*
X85409529Y-62681123D01*
X85409529Y-62681123D02*
X85409529Y-62347790D01*
X85409529Y-62347790D02*
X85457148Y-62252552D01*
X85457148Y-62252552D02*
X85504767Y-62204933D01*
X85504767Y-62204933D02*
X85600005Y-62157314D01*
X85600005Y-62157314D02*
X85695243Y-62157314D01*
X85695243Y-62157314D02*
X85790481Y-62204933D01*
X85790481Y-62204933D02*
X85838100Y-62252552D01*
X85838100Y-62252552D02*
X85885719Y-62347790D01*
X85885719Y-62347790D02*
X85885719Y-62681123D01*
X86409529Y-61157314D02*
X86409529Y-61728742D01*
X86409529Y-61443028D02*
X85409529Y-61443028D01*
X85409529Y-61443028D02*
X85552386Y-61538266D01*
X85552386Y-61538266D02*
X85647624Y-61633504D01*
X85647624Y-61633504D02*
X85695243Y-61728742D01*
X64304533Y-69315619D02*
X63971200Y-68839428D01*
X63733105Y-69315619D02*
X63733105Y-68315619D01*
X63733105Y-68315619D02*
X64114057Y-68315619D01*
X64114057Y-68315619D02*
X64209295Y-68363238D01*
X64209295Y-68363238D02*
X64256914Y-68410857D01*
X64256914Y-68410857D02*
X64304533Y-68506095D01*
X64304533Y-68506095D02*
X64304533Y-68648952D01*
X64304533Y-68648952D02*
X64256914Y-68744190D01*
X64256914Y-68744190D02*
X64209295Y-68791809D01*
X64209295Y-68791809D02*
X64114057Y-68839428D01*
X64114057Y-68839428D02*
X63733105Y-68839428D01*
X64637867Y-68315619D02*
X65304533Y-68315619D01*
X65304533Y-68315619D02*
X64875962Y-69315619D01*
X89741819Y-71332457D02*
X89265628Y-71665790D01*
X89741819Y-71903885D02*
X88741819Y-71903885D01*
X88741819Y-71903885D02*
X88741819Y-71522933D01*
X88741819Y-71522933D02*
X88789438Y-71427695D01*
X88789438Y-71427695D02*
X88837057Y-71380076D01*
X88837057Y-71380076D02*
X88932295Y-71332457D01*
X88932295Y-71332457D02*
X89075152Y-71332457D01*
X89075152Y-71332457D02*
X89170390Y-71380076D01*
X89170390Y-71380076D02*
X89218009Y-71427695D01*
X89218009Y-71427695D02*
X89265628Y-71522933D01*
X89265628Y-71522933D02*
X89265628Y-71903885D01*
X89741819Y-70380076D02*
X89741819Y-70951504D01*
X89741819Y-70665790D02*
X88741819Y-70665790D01*
X88741819Y-70665790D02*
X88884676Y-70761028D01*
X88884676Y-70761028D02*
X88979914Y-70856266D01*
X88979914Y-70856266D02*
X89027533Y-70951504D01*
X89075152Y-69522933D02*
X89741819Y-69522933D01*
X88694200Y-69761028D02*
X89408485Y-69999123D01*
X89408485Y-69999123D02*
X89408485Y-69380076D01*
X50093305Y-70661819D02*
X50093305Y-69661819D01*
X50093305Y-69661819D02*
X50331400Y-69661819D01*
X50331400Y-69661819D02*
X50474257Y-69709438D01*
X50474257Y-69709438D02*
X50569495Y-69804676D01*
X50569495Y-69804676D02*
X50617114Y-69899914D01*
X50617114Y-69899914D02*
X50664733Y-70090390D01*
X50664733Y-70090390D02*
X50664733Y-70233247D01*
X50664733Y-70233247D02*
X50617114Y-70423723D01*
X50617114Y-70423723D02*
X50569495Y-70518961D01*
X50569495Y-70518961D02*
X50474257Y-70614200D01*
X50474257Y-70614200D02*
X50331400Y-70661819D01*
X50331400Y-70661819D02*
X50093305Y-70661819D01*
X50998067Y-69661819D02*
X51617114Y-69661819D01*
X51617114Y-69661819D02*
X51283781Y-70042771D01*
X51283781Y-70042771D02*
X51426638Y-70042771D01*
X51426638Y-70042771D02*
X51521876Y-70090390D01*
X51521876Y-70090390D02*
X51569495Y-70138009D01*
X51569495Y-70138009D02*
X51617114Y-70233247D01*
X51617114Y-70233247D02*
X51617114Y-70471342D01*
X51617114Y-70471342D02*
X51569495Y-70566580D01*
X51569495Y-70566580D02*
X51521876Y-70614200D01*
X51521876Y-70614200D02*
X51426638Y-70661819D01*
X51426638Y-70661819D02*
X51140924Y-70661819D01*
X51140924Y-70661819D02*
X51045686Y-70614200D01*
X51045686Y-70614200D02*
X50998067Y-70566580D01*
X55497105Y-71449219D02*
X55497105Y-70449219D01*
X55497105Y-70449219D02*
X55735200Y-70449219D01*
X55735200Y-70449219D02*
X55878057Y-70496838D01*
X55878057Y-70496838D02*
X55973295Y-70592076D01*
X55973295Y-70592076D02*
X56020914Y-70687314D01*
X56020914Y-70687314D02*
X56068533Y-70877790D01*
X56068533Y-70877790D02*
X56068533Y-71020647D01*
X56068533Y-71020647D02*
X56020914Y-71211123D01*
X56020914Y-71211123D02*
X55973295Y-71306361D01*
X55973295Y-71306361D02*
X55878057Y-71401600D01*
X55878057Y-71401600D02*
X55735200Y-71449219D01*
X55735200Y-71449219D02*
X55497105Y-71449219D01*
X56449486Y-70544457D02*
X56497105Y-70496838D01*
X56497105Y-70496838D02*
X56592343Y-70449219D01*
X56592343Y-70449219D02*
X56830438Y-70449219D01*
X56830438Y-70449219D02*
X56925676Y-70496838D01*
X56925676Y-70496838D02*
X56973295Y-70544457D01*
X56973295Y-70544457D02*
X57020914Y-70639695D01*
X57020914Y-70639695D02*
X57020914Y-70734933D01*
X57020914Y-70734933D02*
X56973295Y-70877790D01*
X56973295Y-70877790D02*
X56401867Y-71449219D01*
X56401867Y-71449219D02*
X57020914Y-71449219D01*
X85024933Y-71438419D02*
X84691600Y-70962228D01*
X84453505Y-71438419D02*
X84453505Y-70438419D01*
X84453505Y-70438419D02*
X84834457Y-70438419D01*
X84834457Y-70438419D02*
X84929695Y-70486038D01*
X84929695Y-70486038D02*
X84977314Y-70533657D01*
X84977314Y-70533657D02*
X85024933Y-70628895D01*
X85024933Y-70628895D02*
X85024933Y-70771752D01*
X85024933Y-70771752D02*
X84977314Y-70866990D01*
X84977314Y-70866990D02*
X84929695Y-70914609D01*
X84929695Y-70914609D02*
X84834457Y-70962228D01*
X84834457Y-70962228D02*
X84453505Y-70962228D01*
X85501124Y-71438419D02*
X85691600Y-71438419D01*
X85691600Y-71438419D02*
X85786838Y-71390800D01*
X85786838Y-71390800D02*
X85834457Y-71343180D01*
X85834457Y-71343180D02*
X85929695Y-71200323D01*
X85929695Y-71200323D02*
X85977314Y-71009847D01*
X85977314Y-71009847D02*
X85977314Y-70628895D01*
X85977314Y-70628895D02*
X85929695Y-70533657D01*
X85929695Y-70533657D02*
X85882076Y-70486038D01*
X85882076Y-70486038D02*
X85786838Y-70438419D01*
X85786838Y-70438419D02*
X85596362Y-70438419D01*
X85596362Y-70438419D02*
X85501124Y-70486038D01*
X85501124Y-70486038D02*
X85453505Y-70533657D01*
X85453505Y-70533657D02*
X85405886Y-70628895D01*
X85405886Y-70628895D02*
X85405886Y-70866990D01*
X85405886Y-70866990D02*
X85453505Y-70962228D01*
X85453505Y-70962228D02*
X85501124Y-71009847D01*
X85501124Y-71009847D02*
X85596362Y-71057466D01*
X85596362Y-71057466D02*
X85786838Y-71057466D01*
X85786838Y-71057466D02*
X85882076Y-71009847D01*
X85882076Y-71009847D02*
X85929695Y-70962228D01*
X85929695Y-70962228D02*
X85977314Y-70866990D01*
X84645043Y-70046380D02*
X84597424Y-70094000D01*
X84597424Y-70094000D02*
X84454567Y-70141619D01*
X84454567Y-70141619D02*
X84359329Y-70141619D01*
X84359329Y-70141619D02*
X84216472Y-70094000D01*
X84216472Y-70094000D02*
X84121234Y-69998761D01*
X84121234Y-69998761D02*
X84073615Y-69903523D01*
X84073615Y-69903523D02*
X84025996Y-69713047D01*
X84025996Y-69713047D02*
X84025996Y-69570190D01*
X84025996Y-69570190D02*
X84073615Y-69379714D01*
X84073615Y-69379714D02*
X84121234Y-69284476D01*
X84121234Y-69284476D02*
X84216472Y-69189238D01*
X84216472Y-69189238D02*
X84359329Y-69141619D01*
X84359329Y-69141619D02*
X84454567Y-69141619D01*
X84454567Y-69141619D02*
X84597424Y-69189238D01*
X84597424Y-69189238D02*
X84645043Y-69236857D01*
X85597424Y-70141619D02*
X85025996Y-70141619D01*
X85311710Y-70141619D02*
X85311710Y-69141619D01*
X85311710Y-69141619D02*
X85216472Y-69284476D01*
X85216472Y-69284476D02*
X85121234Y-69379714D01*
X85121234Y-69379714D02*
X85025996Y-69427333D01*
X44062466Y-73950019D02*
X44062466Y-74664304D01*
X44062466Y-74664304D02*
X44014847Y-74807161D01*
X44014847Y-74807161D02*
X43919609Y-74902400D01*
X43919609Y-74902400D02*
X43776752Y-74950019D01*
X43776752Y-74950019D02*
X43681514Y-74950019D01*
X45062466Y-74950019D02*
X44491038Y-74950019D01*
X44776752Y-74950019D02*
X44776752Y-73950019D01*
X44776752Y-73950019D02*
X44681514Y-74092876D01*
X44681514Y-74092876D02*
X44586276Y-74188114D01*
X44586276Y-74188114D02*
X44491038Y-74235733D01*
X77514052Y-63442380D02*
X77466433Y-63490000D01*
X77466433Y-63490000D02*
X77323576Y-63537619D01*
X77323576Y-63537619D02*
X77228338Y-63537619D01*
X77228338Y-63537619D02*
X77085481Y-63490000D01*
X77085481Y-63490000D02*
X76990243Y-63394761D01*
X76990243Y-63394761D02*
X76942624Y-63299523D01*
X76942624Y-63299523D02*
X76895005Y-63109047D01*
X76895005Y-63109047D02*
X76895005Y-62966190D01*
X76895005Y-62966190D02*
X76942624Y-62775714D01*
X76942624Y-62775714D02*
X76990243Y-62680476D01*
X76990243Y-62680476D02*
X77085481Y-62585238D01*
X77085481Y-62585238D02*
X77228338Y-62537619D01*
X77228338Y-62537619D02*
X77323576Y-62537619D01*
X77323576Y-62537619D02*
X77466433Y-62585238D01*
X77466433Y-62585238D02*
X77514052Y-62632857D01*
X77895005Y-62632857D02*
X77942624Y-62585238D01*
X77942624Y-62585238D02*
X78037862Y-62537619D01*
X78037862Y-62537619D02*
X78275957Y-62537619D01*
X78275957Y-62537619D02*
X78371195Y-62585238D01*
X78371195Y-62585238D02*
X78418814Y-62632857D01*
X78418814Y-62632857D02*
X78466433Y-62728095D01*
X78466433Y-62728095D02*
X78466433Y-62823333D01*
X78466433Y-62823333D02*
X78418814Y-62966190D01*
X78418814Y-62966190D02*
X77847386Y-63537619D01*
X77847386Y-63537619D02*
X78466433Y-63537619D01*
X78799767Y-62537619D02*
X79418814Y-62537619D01*
X79418814Y-62537619D02*
X79085481Y-62918571D01*
X79085481Y-62918571D02*
X79228338Y-62918571D01*
X79228338Y-62918571D02*
X79323576Y-62966190D01*
X79323576Y-62966190D02*
X79371195Y-63013809D01*
X79371195Y-63013809D02*
X79418814Y-63109047D01*
X79418814Y-63109047D02*
X79418814Y-63347142D01*
X79418814Y-63347142D02*
X79371195Y-63442380D01*
X79371195Y-63442380D02*
X79323576Y-63490000D01*
X79323576Y-63490000D02*
X79228338Y-63537619D01*
X79228338Y-63537619D02*
X78942624Y-63537619D01*
X78942624Y-63537619D02*
X78847386Y-63490000D01*
X78847386Y-63490000D02*
X78799767Y-63442380D01*
X79360743Y-71798980D02*
X79313124Y-71846600D01*
X79313124Y-71846600D02*
X79170267Y-71894219D01*
X79170267Y-71894219D02*
X79075029Y-71894219D01*
X79075029Y-71894219D02*
X78932172Y-71846600D01*
X78932172Y-71846600D02*
X78836934Y-71751361D01*
X78836934Y-71751361D02*
X78789315Y-71656123D01*
X78789315Y-71656123D02*
X78741696Y-71465647D01*
X78741696Y-71465647D02*
X78741696Y-71322790D01*
X78741696Y-71322790D02*
X78789315Y-71132314D01*
X78789315Y-71132314D02*
X78836934Y-71037076D01*
X78836934Y-71037076D02*
X78932172Y-70941838D01*
X78932172Y-70941838D02*
X79075029Y-70894219D01*
X79075029Y-70894219D02*
X79170267Y-70894219D01*
X79170267Y-70894219D02*
X79313124Y-70941838D01*
X79313124Y-70941838D02*
X79360743Y-70989457D01*
X79741696Y-70989457D02*
X79789315Y-70941838D01*
X79789315Y-70941838D02*
X79884553Y-70894219D01*
X79884553Y-70894219D02*
X80122648Y-70894219D01*
X80122648Y-70894219D02*
X80217886Y-70941838D01*
X80217886Y-70941838D02*
X80265505Y-70989457D01*
X80265505Y-70989457D02*
X80313124Y-71084695D01*
X80313124Y-71084695D02*
X80313124Y-71179933D01*
X80313124Y-71179933D02*
X80265505Y-71322790D01*
X80265505Y-71322790D02*
X79694077Y-71894219D01*
X79694077Y-71894219D02*
X80313124Y-71894219D01*
X79277019Y-55660657D02*
X78800828Y-55993990D01*
X79277019Y-56232085D02*
X78277019Y-56232085D01*
X78277019Y-56232085D02*
X78277019Y-55851133D01*
X78277019Y-55851133D02*
X78324638Y-55755895D01*
X78324638Y-55755895D02*
X78372257Y-55708276D01*
X78372257Y-55708276D02*
X78467495Y-55660657D01*
X78467495Y-55660657D02*
X78610352Y-55660657D01*
X78610352Y-55660657D02*
X78705590Y-55708276D01*
X78705590Y-55708276D02*
X78753209Y-55755895D01*
X78753209Y-55755895D02*
X78800828Y-55851133D01*
X78800828Y-55851133D02*
X78800828Y-56232085D01*
X79277019Y-54708276D02*
X79277019Y-55279704D01*
X79277019Y-54993990D02*
X78277019Y-54993990D01*
X78277019Y-54993990D02*
X78419876Y-55089228D01*
X78419876Y-55089228D02*
X78515114Y-55184466D01*
X78515114Y-55184466D02*
X78562733Y-55279704D01*
X78277019Y-54089228D02*
X78277019Y-53993990D01*
X78277019Y-53993990D02*
X78324638Y-53898752D01*
X78324638Y-53898752D02*
X78372257Y-53851133D01*
X78372257Y-53851133D02*
X78467495Y-53803514D01*
X78467495Y-53803514D02*
X78657971Y-53755895D01*
X78657971Y-53755895D02*
X78896066Y-53755895D01*
X78896066Y-53755895D02*
X79086542Y-53803514D01*
X79086542Y-53803514D02*
X79181780Y-53851133D01*
X79181780Y-53851133D02*
X79229400Y-53898752D01*
X79229400Y-53898752D02*
X79277019Y-53993990D01*
X79277019Y-53993990D02*
X79277019Y-54089228D01*
X79277019Y-54089228D02*
X79229400Y-54184466D01*
X79229400Y-54184466D02*
X79181780Y-54232085D01*
X79181780Y-54232085D02*
X79086542Y-54279704D01*
X79086542Y-54279704D02*
X78896066Y-54327323D01*
X78896066Y-54327323D02*
X78657971Y-54327323D01*
X78657971Y-54327323D02*
X78467495Y-54279704D01*
X78467495Y-54279704D02*
X78372257Y-54232085D01*
X78372257Y-54232085D02*
X78324638Y-54184466D01*
X78324638Y-54184466D02*
X78277019Y-54089228D01*
X77582743Y-71773580D02*
X77535124Y-71821200D01*
X77535124Y-71821200D02*
X77392267Y-71868819D01*
X77392267Y-71868819D02*
X77297029Y-71868819D01*
X77297029Y-71868819D02*
X77154172Y-71821200D01*
X77154172Y-71821200D02*
X77058934Y-71725961D01*
X77058934Y-71725961D02*
X77011315Y-71630723D01*
X77011315Y-71630723D02*
X76963696Y-71440247D01*
X76963696Y-71440247D02*
X76963696Y-71297390D01*
X76963696Y-71297390D02*
X77011315Y-71106914D01*
X77011315Y-71106914D02*
X77058934Y-71011676D01*
X77058934Y-71011676D02*
X77154172Y-70916438D01*
X77154172Y-70916438D02*
X77297029Y-70868819D01*
X77297029Y-70868819D02*
X77392267Y-70868819D01*
X77392267Y-70868819D02*
X77535124Y-70916438D01*
X77535124Y-70916438D02*
X77582743Y-70964057D01*
X77916077Y-70868819D02*
X78535124Y-70868819D01*
X78535124Y-70868819D02*
X78201791Y-71249771D01*
X78201791Y-71249771D02*
X78344648Y-71249771D01*
X78344648Y-71249771D02*
X78439886Y-71297390D01*
X78439886Y-71297390D02*
X78487505Y-71345009D01*
X78487505Y-71345009D02*
X78535124Y-71440247D01*
X78535124Y-71440247D02*
X78535124Y-71678342D01*
X78535124Y-71678342D02*
X78487505Y-71773580D01*
X78487505Y-71773580D02*
X78439886Y-71821200D01*
X78439886Y-71821200D02*
X78344648Y-71868819D01*
X78344648Y-71868819D02*
X78058934Y-71868819D01*
X78058934Y-71868819D02*
X77963696Y-71821200D01*
X77963696Y-71821200D02*
X77916077Y-71773580D01*
X88828890Y-68348457D02*
X88876510Y-68396076D01*
X88876510Y-68396076D02*
X88924129Y-68538933D01*
X88924129Y-68538933D02*
X88924129Y-68634171D01*
X88924129Y-68634171D02*
X88876510Y-68777028D01*
X88876510Y-68777028D02*
X88781271Y-68872266D01*
X88781271Y-68872266D02*
X88686033Y-68919885D01*
X88686033Y-68919885D02*
X88495557Y-68967504D01*
X88495557Y-68967504D02*
X88352700Y-68967504D01*
X88352700Y-68967504D02*
X88162224Y-68919885D01*
X88162224Y-68919885D02*
X88066986Y-68872266D01*
X88066986Y-68872266D02*
X87971748Y-68777028D01*
X87971748Y-68777028D02*
X87924129Y-68634171D01*
X87924129Y-68634171D02*
X87924129Y-68538933D01*
X87924129Y-68538933D02*
X87971748Y-68396076D01*
X87971748Y-68396076D02*
X88019367Y-68348457D01*
X88019367Y-67967504D02*
X87971748Y-67919885D01*
X87971748Y-67919885D02*
X87924129Y-67824647D01*
X87924129Y-67824647D02*
X87924129Y-67586552D01*
X87924129Y-67586552D02*
X87971748Y-67491314D01*
X87971748Y-67491314D02*
X88019367Y-67443695D01*
X88019367Y-67443695D02*
X88114605Y-67396076D01*
X88114605Y-67396076D02*
X88209843Y-67396076D01*
X88209843Y-67396076D02*
X88352700Y-67443695D01*
X88352700Y-67443695D02*
X88924129Y-68015123D01*
X88924129Y-68015123D02*
X88924129Y-67396076D01*
X87924129Y-66491314D02*
X87924129Y-66967504D01*
X87924129Y-66967504D02*
X88400319Y-67015123D01*
X88400319Y-67015123D02*
X88352700Y-66967504D01*
X88352700Y-66967504D02*
X88305081Y-66872266D01*
X88305081Y-66872266D02*
X88305081Y-66634171D01*
X88305081Y-66634171D02*
X88352700Y-66538933D01*
X88352700Y-66538933D02*
X88400319Y-66491314D01*
X88400319Y-66491314D02*
X88495557Y-66443695D01*
X88495557Y-66443695D02*
X88733652Y-66443695D01*
X88733652Y-66443695D02*
X88828890Y-66491314D01*
X88828890Y-66491314D02*
X88876510Y-66538933D01*
X88876510Y-66538933D02*
X88924129Y-66634171D01*
X88924129Y-66634171D02*
X88924129Y-66872266D01*
X88924129Y-66872266D02*
X88876510Y-66967504D01*
X88876510Y-66967504D02*
X88828890Y-67015123D01*
X107287742Y-60032519D02*
X106954409Y-59556328D01*
X106716314Y-60032519D02*
X106716314Y-59032519D01*
X106716314Y-59032519D02*
X107097266Y-59032519D01*
X107097266Y-59032519D02*
X107192504Y-59080138D01*
X107192504Y-59080138D02*
X107240123Y-59127757D01*
X107240123Y-59127757D02*
X107287742Y-59222995D01*
X107287742Y-59222995D02*
X107287742Y-59365852D01*
X107287742Y-59365852D02*
X107240123Y-59461090D01*
X107240123Y-59461090D02*
X107192504Y-59508709D01*
X107192504Y-59508709D02*
X107097266Y-59556328D01*
X107097266Y-59556328D02*
X106716314Y-59556328D01*
X108240123Y-60032519D02*
X107668695Y-60032519D01*
X107954409Y-60032519D02*
X107954409Y-59032519D01*
X107954409Y-59032519D02*
X107859171Y-59175376D01*
X107859171Y-59175376D02*
X107763933Y-59270614D01*
X107763933Y-59270614D02*
X107668695Y-59318233D01*
X109144885Y-59032519D02*
X108668695Y-59032519D01*
X108668695Y-59032519D02*
X108621076Y-59508709D01*
X108621076Y-59508709D02*
X108668695Y-59461090D01*
X108668695Y-59461090D02*
X108763933Y-59413471D01*
X108763933Y-59413471D02*
X109002028Y-59413471D01*
X109002028Y-59413471D02*
X109097266Y-59461090D01*
X109097266Y-59461090D02*
X109144885Y-59508709D01*
X109144885Y-59508709D02*
X109192504Y-59603947D01*
X109192504Y-59603947D02*
X109192504Y-59842042D01*
X109192504Y-59842042D02*
X109144885Y-59937280D01*
X109144885Y-59937280D02*
X109097266Y-59984900D01*
X109097266Y-59984900D02*
X109002028Y-60032519D01*
X109002028Y-60032519D02*
X108763933Y-60032519D01*
X108763933Y-60032519D02*
X108668695Y-59984900D01*
X108668695Y-59984900D02*
X108621076Y-59937280D01*
D12*
X71993890Y-58536295D02*
X71184367Y-58536295D01*
X71184367Y-58536295D02*
X71089129Y-58583914D01*
X71089129Y-58583914D02*
X71041510Y-58631533D01*
X71041510Y-58631533D02*
X70993890Y-58726771D01*
X70993890Y-58726771D02*
X70993890Y-58917247D01*
X70993890Y-58917247D02*
X71041510Y-59012485D01*
X71041510Y-59012485D02*
X71089129Y-59060104D01*
X71089129Y-59060104D02*
X71184367Y-59107723D01*
X71184367Y-59107723D02*
X71993890Y-59107723D01*
X71993890Y-59488676D02*
X71993890Y-60155342D01*
X71993890Y-60155342D02*
X70993890Y-59726771D01*
D11*
X28796433Y-76408580D02*
X28748814Y-76456200D01*
X28748814Y-76456200D02*
X28605957Y-76503819D01*
X28605957Y-76503819D02*
X28510719Y-76503819D01*
X28510719Y-76503819D02*
X28367862Y-76456200D01*
X28367862Y-76456200D02*
X28272624Y-76360961D01*
X28272624Y-76360961D02*
X28225005Y-76265723D01*
X28225005Y-76265723D02*
X28177386Y-76075247D01*
X28177386Y-76075247D02*
X28177386Y-75932390D01*
X28177386Y-75932390D02*
X28225005Y-75741914D01*
X28225005Y-75741914D02*
X28272624Y-75646676D01*
X28272624Y-75646676D02*
X28367862Y-75551438D01*
X28367862Y-75551438D02*
X28510719Y-75503819D01*
X28510719Y-75503819D02*
X28605957Y-75503819D01*
X28605957Y-75503819D02*
X28748814Y-75551438D01*
X28748814Y-75551438D02*
X28796433Y-75599057D01*
X29653576Y-75837152D02*
X29653576Y-76503819D01*
X29415481Y-75456200D02*
X29177386Y-76170485D01*
X29177386Y-76170485D02*
X29796433Y-76170485D01*
X89202942Y-80294780D02*
X89155323Y-80342400D01*
X89155323Y-80342400D02*
X89012466Y-80390019D01*
X89012466Y-80390019D02*
X88917228Y-80390019D01*
X88917228Y-80390019D02*
X88774371Y-80342400D01*
X88774371Y-80342400D02*
X88679133Y-80247161D01*
X88679133Y-80247161D02*
X88631514Y-80151923D01*
X88631514Y-80151923D02*
X88583895Y-79961447D01*
X88583895Y-79961447D02*
X88583895Y-79818590D01*
X88583895Y-79818590D02*
X88631514Y-79628114D01*
X88631514Y-79628114D02*
X88679133Y-79532876D01*
X88679133Y-79532876D02*
X88774371Y-79437638D01*
X88774371Y-79437638D02*
X88917228Y-79390019D01*
X88917228Y-79390019D02*
X89012466Y-79390019D01*
X89012466Y-79390019D02*
X89155323Y-79437638D01*
X89155323Y-79437638D02*
X89202942Y-79485257D01*
X90155323Y-80390019D02*
X89583895Y-80390019D01*
X89869609Y-80390019D02*
X89869609Y-79390019D01*
X89869609Y-79390019D02*
X89774371Y-79532876D01*
X89774371Y-79532876D02*
X89679133Y-79628114D01*
X89679133Y-79628114D02*
X89583895Y-79675733D01*
X90488657Y-79390019D02*
X91107704Y-79390019D01*
X91107704Y-79390019D02*
X90774371Y-79770971D01*
X90774371Y-79770971D02*
X90917228Y-79770971D01*
X90917228Y-79770971D02*
X91012466Y-79818590D01*
X91012466Y-79818590D02*
X91060085Y-79866209D01*
X91060085Y-79866209D02*
X91107704Y-79961447D01*
X91107704Y-79961447D02*
X91107704Y-80199542D01*
X91107704Y-80199542D02*
X91060085Y-80294780D01*
X91060085Y-80294780D02*
X91012466Y-80342400D01*
X91012466Y-80342400D02*
X90917228Y-80390019D01*
X90917228Y-80390019D02*
X90631514Y-80390019D01*
X90631514Y-80390019D02*
X90536276Y-80342400D01*
X90536276Y-80342400D02*
X90488657Y-80294780D01*
X72189666Y-79745619D02*
X72189666Y-80459904D01*
X72189666Y-80459904D02*
X72142047Y-80602761D01*
X72142047Y-80602761D02*
X72046809Y-80698000D01*
X72046809Y-80698000D02*
X71903952Y-80745619D01*
X71903952Y-80745619D02*
X71808714Y-80745619D01*
X72570619Y-79745619D02*
X73189666Y-79745619D01*
X73189666Y-79745619D02*
X72856333Y-80126571D01*
X72856333Y-80126571D02*
X72999190Y-80126571D01*
X72999190Y-80126571D02*
X73094428Y-80174190D01*
X73094428Y-80174190D02*
X73142047Y-80221809D01*
X73142047Y-80221809D02*
X73189666Y-80317047D01*
X73189666Y-80317047D02*
X73189666Y-80555142D01*
X73189666Y-80555142D02*
X73142047Y-80650380D01*
X73142047Y-80650380D02*
X73094428Y-80698000D01*
X73094428Y-80698000D02*
X72999190Y-80745619D01*
X72999190Y-80745619D02*
X72713476Y-80745619D01*
X72713476Y-80745619D02*
X72618238Y-80698000D01*
X72618238Y-80698000D02*
X72570619Y-80650380D01*
X29114761Y-78020057D02*
X29019523Y-77972438D01*
X29019523Y-77972438D02*
X28924285Y-77877200D01*
X28924285Y-77877200D02*
X28781428Y-77734342D01*
X28781428Y-77734342D02*
X28686190Y-77686723D01*
X28686190Y-77686723D02*
X28590952Y-77686723D01*
X28638571Y-77924819D02*
X28543333Y-77877200D01*
X28543333Y-77877200D02*
X28448095Y-77781961D01*
X28448095Y-77781961D02*
X28400476Y-77591485D01*
X28400476Y-77591485D02*
X28400476Y-77258152D01*
X28400476Y-77258152D02*
X28448095Y-77067676D01*
X28448095Y-77067676D02*
X28543333Y-76972438D01*
X28543333Y-76972438D02*
X28638571Y-76924819D01*
X28638571Y-76924819D02*
X28829047Y-76924819D01*
X28829047Y-76924819D02*
X28924285Y-76972438D01*
X28924285Y-76972438D02*
X29019523Y-77067676D01*
X29019523Y-77067676D02*
X29067142Y-77258152D01*
X29067142Y-77258152D02*
X29067142Y-77591485D01*
X29067142Y-77591485D02*
X29019523Y-77781961D01*
X29019523Y-77781961D02*
X28924285Y-77877200D01*
X28924285Y-77877200D02*
X28829047Y-77924819D01*
X28829047Y-77924819D02*
X28638571Y-77924819D01*
X30019523Y-77924819D02*
X29448095Y-77924819D01*
X29733809Y-77924819D02*
X29733809Y-76924819D01*
X29733809Y-76924819D02*
X29638571Y-77067676D01*
X29638571Y-77067676D02*
X29543333Y-77162914D01*
X29543333Y-77162914D02*
X29448095Y-77210533D01*
X33734819Y-76056257D02*
X33258628Y-76389590D01*
X33734819Y-76627685D02*
X32734819Y-76627685D01*
X32734819Y-76627685D02*
X32734819Y-76246733D01*
X32734819Y-76246733D02*
X32782438Y-76151495D01*
X32782438Y-76151495D02*
X32830057Y-76103876D01*
X32830057Y-76103876D02*
X32925295Y-76056257D01*
X32925295Y-76056257D02*
X33068152Y-76056257D01*
X33068152Y-76056257D02*
X33163390Y-76103876D01*
X33163390Y-76103876D02*
X33211009Y-76151495D01*
X33211009Y-76151495D02*
X33258628Y-76246733D01*
X33258628Y-76246733D02*
X33258628Y-76627685D01*
X33734819Y-75103876D02*
X33734819Y-75675304D01*
X33734819Y-75389590D02*
X32734819Y-75389590D01*
X32734819Y-75389590D02*
X32877676Y-75484828D01*
X32877676Y-75484828D02*
X32972914Y-75580066D01*
X32972914Y-75580066D02*
X33020533Y-75675304D01*
X32734819Y-74770542D02*
X32734819Y-74151495D01*
X32734819Y-74151495D02*
X33115771Y-74484828D01*
X33115771Y-74484828D02*
X33115771Y-74341971D01*
X33115771Y-74341971D02*
X33163390Y-74246733D01*
X33163390Y-74246733D02*
X33211009Y-74199114D01*
X33211009Y-74199114D02*
X33306247Y-74151495D01*
X33306247Y-74151495D02*
X33544342Y-74151495D01*
X33544342Y-74151495D02*
X33639580Y-74199114D01*
X33639580Y-74199114D02*
X33687200Y-74246733D01*
X33687200Y-74246733D02*
X33734819Y-74341971D01*
X33734819Y-74341971D02*
X33734819Y-74627685D01*
X33734819Y-74627685D02*
X33687200Y-74722923D01*
X33687200Y-74722923D02*
X33639580Y-74770542D01*
D12*
X63486666Y-70259019D02*
X63486666Y-70973304D01*
X63486666Y-70973304D02*
X63439047Y-71116161D01*
X63439047Y-71116161D02*
X63343809Y-71211400D01*
X63343809Y-71211400D02*
X63200952Y-71259019D01*
X63200952Y-71259019D02*
X63105714Y-71259019D01*
X63915238Y-70354257D02*
X63962857Y-70306638D01*
X63962857Y-70306638D02*
X64058095Y-70259019D01*
X64058095Y-70259019D02*
X64296190Y-70259019D01*
X64296190Y-70259019D02*
X64391428Y-70306638D01*
X64391428Y-70306638D02*
X64439047Y-70354257D01*
X64439047Y-70354257D02*
X64486666Y-70449495D01*
X64486666Y-70449495D02*
X64486666Y-70544733D01*
X64486666Y-70544733D02*
X64439047Y-70687590D01*
X64439047Y-70687590D02*
X63867619Y-71259019D01*
X63867619Y-71259019D02*
X64486666Y-71259019D01*
D11*
X82889543Y-70319419D02*
X82556210Y-69843228D01*
X82318115Y-70319419D02*
X82318115Y-69319419D01*
X82318115Y-69319419D02*
X82699067Y-69319419D01*
X82699067Y-69319419D02*
X82794305Y-69367038D01*
X82794305Y-69367038D02*
X82841924Y-69414657D01*
X82841924Y-69414657D02*
X82889543Y-69509895D01*
X82889543Y-69509895D02*
X82889543Y-69652752D01*
X82889543Y-69652752D02*
X82841924Y-69747990D01*
X82841924Y-69747990D02*
X82794305Y-69795609D01*
X82794305Y-69795609D02*
X82699067Y-69843228D01*
X82699067Y-69843228D02*
X82318115Y-69843228D01*
X83841924Y-70319419D02*
X83270496Y-70319419D01*
X83556210Y-70319419D02*
X83556210Y-69319419D01*
X83556210Y-69319419D02*
X83460972Y-69462276D01*
X83460972Y-69462276D02*
X83365734Y-69557514D01*
X83365734Y-69557514D02*
X83270496Y-69605133D01*
X75058186Y-68004495D02*
X75058186Y-68652114D01*
X75058186Y-68652114D02*
X75096281Y-68728304D01*
X75096281Y-68728304D02*
X75134376Y-68766400D01*
X75134376Y-68766400D02*
X75210567Y-68804495D01*
X75210567Y-68804495D02*
X75362948Y-68804495D01*
X75362948Y-68804495D02*
X75439138Y-68766400D01*
X75439138Y-68766400D02*
X75477233Y-68728304D01*
X75477233Y-68728304D02*
X75515329Y-68652114D01*
X75515329Y-68652114D02*
X75515329Y-68004495D01*
X76239138Y-68271161D02*
X76239138Y-68804495D01*
X76048662Y-67966400D02*
X75858185Y-68537828D01*
X75858185Y-68537828D02*
X76353424Y-68537828D01*
X35592942Y-77899419D02*
X35259609Y-77423228D01*
X35021514Y-77899419D02*
X35021514Y-76899419D01*
X35021514Y-76899419D02*
X35402466Y-76899419D01*
X35402466Y-76899419D02*
X35497704Y-76947038D01*
X35497704Y-76947038D02*
X35545323Y-76994657D01*
X35545323Y-76994657D02*
X35592942Y-77089895D01*
X35592942Y-77089895D02*
X35592942Y-77232752D01*
X35592942Y-77232752D02*
X35545323Y-77327990D01*
X35545323Y-77327990D02*
X35497704Y-77375609D01*
X35497704Y-77375609D02*
X35402466Y-77423228D01*
X35402466Y-77423228D02*
X35021514Y-77423228D01*
X36545323Y-77899419D02*
X35973895Y-77899419D01*
X36259609Y-77899419D02*
X36259609Y-76899419D01*
X36259609Y-76899419D02*
X36164371Y-77042276D01*
X36164371Y-77042276D02*
X36069133Y-77137514D01*
X36069133Y-77137514D02*
X35973895Y-77185133D01*
X37497704Y-77899419D02*
X36926276Y-77899419D01*
X37211990Y-77899419D02*
X37211990Y-76899419D01*
X37211990Y-76899419D02*
X37116752Y-77042276D01*
X37116752Y-77042276D02*
X37021514Y-77137514D01*
X37021514Y-77137514D02*
X36926276Y-77185133D01*
X109370542Y-57993580D02*
X109322923Y-58041200D01*
X109322923Y-58041200D02*
X109180066Y-58088819D01*
X109180066Y-58088819D02*
X109084828Y-58088819D01*
X109084828Y-58088819D02*
X108941971Y-58041200D01*
X108941971Y-58041200D02*
X108846733Y-57945961D01*
X108846733Y-57945961D02*
X108799114Y-57850723D01*
X108799114Y-57850723D02*
X108751495Y-57660247D01*
X108751495Y-57660247D02*
X108751495Y-57517390D01*
X108751495Y-57517390D02*
X108799114Y-57326914D01*
X108799114Y-57326914D02*
X108846733Y-57231676D01*
X108846733Y-57231676D02*
X108941971Y-57136438D01*
X108941971Y-57136438D02*
X109084828Y-57088819D01*
X109084828Y-57088819D02*
X109180066Y-57088819D01*
X109180066Y-57088819D02*
X109322923Y-57136438D01*
X109322923Y-57136438D02*
X109370542Y-57184057D01*
X109751495Y-57184057D02*
X109799114Y-57136438D01*
X109799114Y-57136438D02*
X109894352Y-57088819D01*
X109894352Y-57088819D02*
X110132447Y-57088819D01*
X110132447Y-57088819D02*
X110227685Y-57136438D01*
X110227685Y-57136438D02*
X110275304Y-57184057D01*
X110275304Y-57184057D02*
X110322923Y-57279295D01*
X110322923Y-57279295D02*
X110322923Y-57374533D01*
X110322923Y-57374533D02*
X110275304Y-57517390D01*
X110275304Y-57517390D02*
X109703876Y-58088819D01*
X109703876Y-58088819D02*
X110322923Y-58088819D01*
X110703876Y-57184057D02*
X110751495Y-57136438D01*
X110751495Y-57136438D02*
X110846733Y-57088819D01*
X110846733Y-57088819D02*
X111084828Y-57088819D01*
X111084828Y-57088819D02*
X111180066Y-57136438D01*
X111180066Y-57136438D02*
X111227685Y-57184057D01*
X111227685Y-57184057D02*
X111275304Y-57279295D01*
X111275304Y-57279295D02*
X111275304Y-57374533D01*
X111275304Y-57374533D02*
X111227685Y-57517390D01*
X111227685Y-57517390D02*
X110656257Y-58088819D01*
X110656257Y-58088819D02*
X111275304Y-58088819D01*
X50857009Y-21006075D02*
X50857009Y-20672742D01*
X51380819Y-20529885D02*
X51380819Y-21006075D01*
X51380819Y-21006075D02*
X50380819Y-21006075D01*
X50380819Y-21006075D02*
X50380819Y-20529885D01*
X51380819Y-19577504D02*
X51380819Y-20148932D01*
X51380819Y-19863218D02*
X50380819Y-19863218D01*
X50380819Y-19863218D02*
X50523676Y-19958456D01*
X50523676Y-19958456D02*
X50618914Y-20053694D01*
X50618914Y-20053694D02*
X50666533Y-20148932D01*
X53861619Y-25542666D02*
X53385428Y-25875999D01*
X53861619Y-26114094D02*
X52861619Y-26114094D01*
X52861619Y-26114094D02*
X52861619Y-25733142D01*
X52861619Y-25733142D02*
X52909238Y-25637904D01*
X52909238Y-25637904D02*
X52956857Y-25590285D01*
X52956857Y-25590285D02*
X53052095Y-25542666D01*
X53052095Y-25542666D02*
X53194952Y-25542666D01*
X53194952Y-25542666D02*
X53290190Y-25590285D01*
X53290190Y-25590285D02*
X53337809Y-25637904D01*
X53337809Y-25637904D02*
X53385428Y-25733142D01*
X53385428Y-25733142D02*
X53385428Y-26114094D01*
X53290190Y-24971237D02*
X53242571Y-25066475D01*
X53242571Y-25066475D02*
X53194952Y-25114094D01*
X53194952Y-25114094D02*
X53099714Y-25161713D01*
X53099714Y-25161713D02*
X53052095Y-25161713D01*
X53052095Y-25161713D02*
X52956857Y-25114094D01*
X52956857Y-25114094D02*
X52909238Y-25066475D01*
X52909238Y-25066475D02*
X52861619Y-24971237D01*
X52861619Y-24971237D02*
X52861619Y-24780761D01*
X52861619Y-24780761D02*
X52909238Y-24685523D01*
X52909238Y-24685523D02*
X52956857Y-24637904D01*
X52956857Y-24637904D02*
X53052095Y-24590285D01*
X53052095Y-24590285D02*
X53099714Y-24590285D01*
X53099714Y-24590285D02*
X53194952Y-24637904D01*
X53194952Y-24637904D02*
X53242571Y-24685523D01*
X53242571Y-24685523D02*
X53290190Y-24780761D01*
X53290190Y-24780761D02*
X53290190Y-24971237D01*
X53290190Y-24971237D02*
X53337809Y-25066475D01*
X53337809Y-25066475D02*
X53385428Y-25114094D01*
X53385428Y-25114094D02*
X53480666Y-25161713D01*
X53480666Y-25161713D02*
X53671142Y-25161713D01*
X53671142Y-25161713D02*
X53766380Y-25114094D01*
X53766380Y-25114094D02*
X53814000Y-25066475D01*
X53814000Y-25066475D02*
X53861619Y-24971237D01*
X53861619Y-24971237D02*
X53861619Y-24780761D01*
X53861619Y-24780761D02*
X53814000Y-24685523D01*
X53814000Y-24685523D02*
X53766380Y-24637904D01*
X53766380Y-24637904D02*
X53671142Y-24590285D01*
X53671142Y-24590285D02*
X53480666Y-24590285D01*
X53480666Y-24590285D02*
X53385428Y-24637904D01*
X53385428Y-24637904D02*
X53337809Y-24685523D01*
X53337809Y-24685523D02*
X53290190Y-24780761D01*
X109370542Y-61905180D02*
X109322923Y-61952800D01*
X109322923Y-61952800D02*
X109180066Y-62000419D01*
X109180066Y-62000419D02*
X109084828Y-62000419D01*
X109084828Y-62000419D02*
X108941971Y-61952800D01*
X108941971Y-61952800D02*
X108846733Y-61857561D01*
X108846733Y-61857561D02*
X108799114Y-61762323D01*
X108799114Y-61762323D02*
X108751495Y-61571847D01*
X108751495Y-61571847D02*
X108751495Y-61428990D01*
X108751495Y-61428990D02*
X108799114Y-61238514D01*
X108799114Y-61238514D02*
X108846733Y-61143276D01*
X108846733Y-61143276D02*
X108941971Y-61048038D01*
X108941971Y-61048038D02*
X109084828Y-61000419D01*
X109084828Y-61000419D02*
X109180066Y-61000419D01*
X109180066Y-61000419D02*
X109322923Y-61048038D01*
X109322923Y-61048038D02*
X109370542Y-61095657D01*
X110322923Y-62000419D02*
X109751495Y-62000419D01*
X110037209Y-62000419D02*
X110037209Y-61000419D01*
X110037209Y-61000419D02*
X109941971Y-61143276D01*
X109941971Y-61143276D02*
X109846733Y-61238514D01*
X109846733Y-61238514D02*
X109751495Y-61286133D01*
X111227685Y-61000419D02*
X110751495Y-61000419D01*
X110751495Y-61000419D02*
X110703876Y-61476609D01*
X110703876Y-61476609D02*
X110751495Y-61428990D01*
X110751495Y-61428990D02*
X110846733Y-61381371D01*
X110846733Y-61381371D02*
X111084828Y-61381371D01*
X111084828Y-61381371D02*
X111180066Y-61428990D01*
X111180066Y-61428990D02*
X111227685Y-61476609D01*
X111227685Y-61476609D02*
X111275304Y-61571847D01*
X111275304Y-61571847D02*
X111275304Y-61809942D01*
X111275304Y-61809942D02*
X111227685Y-61905180D01*
X111227685Y-61905180D02*
X111180066Y-61952800D01*
X111180066Y-61952800D02*
X111084828Y-62000419D01*
X111084828Y-62000419D02*
X110846733Y-62000419D01*
X110846733Y-62000419D02*
X110751495Y-61952800D01*
X110751495Y-61952800D02*
X110703876Y-61905180D01*
X68306695Y-59146219D02*
X68306695Y-59955742D01*
X68306695Y-59955742D02*
X68354314Y-60050980D01*
X68354314Y-60050980D02*
X68401933Y-60098600D01*
X68401933Y-60098600D02*
X68497171Y-60146219D01*
X68497171Y-60146219D02*
X68687647Y-60146219D01*
X68687647Y-60146219D02*
X68782885Y-60098600D01*
X68782885Y-60098600D02*
X68830504Y-60050980D01*
X68830504Y-60050980D02*
X68878123Y-59955742D01*
X68878123Y-59955742D02*
X68878123Y-59146219D01*
X69830504Y-59146219D02*
X69354314Y-59146219D01*
X69354314Y-59146219D02*
X69306695Y-59622409D01*
X69306695Y-59622409D02*
X69354314Y-59574790D01*
X69354314Y-59574790D02*
X69449552Y-59527171D01*
X69449552Y-59527171D02*
X69687647Y-59527171D01*
X69687647Y-59527171D02*
X69782885Y-59574790D01*
X69782885Y-59574790D02*
X69830504Y-59622409D01*
X69830504Y-59622409D02*
X69878123Y-59717647D01*
X69878123Y-59717647D02*
X69878123Y-59955742D01*
X69878123Y-59955742D02*
X69830504Y-60050980D01*
X69830504Y-60050980D02*
X69782885Y-60098600D01*
X69782885Y-60098600D02*
X69687647Y-60146219D01*
X69687647Y-60146219D02*
X69449552Y-60146219D01*
X69449552Y-60146219D02*
X69354314Y-60098600D01*
X69354314Y-60098600D02*
X69306695Y-60050980D01*
X58013942Y-27767580D02*
X57966323Y-27815200D01*
X57966323Y-27815200D02*
X57823466Y-27862819D01*
X57823466Y-27862819D02*
X57728228Y-27862819D01*
X57728228Y-27862819D02*
X57585371Y-27815200D01*
X57585371Y-27815200D02*
X57490133Y-27719961D01*
X57490133Y-27719961D02*
X57442514Y-27624723D01*
X57442514Y-27624723D02*
X57394895Y-27434247D01*
X57394895Y-27434247D02*
X57394895Y-27291390D01*
X57394895Y-27291390D02*
X57442514Y-27100914D01*
X57442514Y-27100914D02*
X57490133Y-27005676D01*
X57490133Y-27005676D02*
X57585371Y-26910438D01*
X57585371Y-26910438D02*
X57728228Y-26862819D01*
X57728228Y-26862819D02*
X57823466Y-26862819D01*
X57823466Y-26862819D02*
X57966323Y-26910438D01*
X57966323Y-26910438D02*
X58013942Y-26958057D01*
X58394895Y-26958057D02*
X58442514Y-26910438D01*
X58442514Y-26910438D02*
X58537752Y-26862819D01*
X58537752Y-26862819D02*
X58775847Y-26862819D01*
X58775847Y-26862819D02*
X58871085Y-26910438D01*
X58871085Y-26910438D02*
X58918704Y-26958057D01*
X58918704Y-26958057D02*
X58966323Y-27053295D01*
X58966323Y-27053295D02*
X58966323Y-27148533D01*
X58966323Y-27148533D02*
X58918704Y-27291390D01*
X58918704Y-27291390D02*
X58347276Y-27862819D01*
X58347276Y-27862819D02*
X58966323Y-27862819D01*
X59585371Y-26862819D02*
X59680609Y-26862819D01*
X59680609Y-26862819D02*
X59775847Y-26910438D01*
X59775847Y-26910438D02*
X59823466Y-26958057D01*
X59823466Y-26958057D02*
X59871085Y-27053295D01*
X59871085Y-27053295D02*
X59918704Y-27243771D01*
X59918704Y-27243771D02*
X59918704Y-27481866D01*
X59918704Y-27481866D02*
X59871085Y-27672342D01*
X59871085Y-27672342D02*
X59823466Y-27767580D01*
X59823466Y-27767580D02*
X59775847Y-27815200D01*
X59775847Y-27815200D02*
X59680609Y-27862819D01*
X59680609Y-27862819D02*
X59585371Y-27862819D01*
X59585371Y-27862819D02*
X59490133Y-27815200D01*
X59490133Y-27815200D02*
X59442514Y-27767580D01*
X59442514Y-27767580D02*
X59394895Y-27672342D01*
X59394895Y-27672342D02*
X59347276Y-27481866D01*
X59347276Y-27481866D02*
X59347276Y-27243771D01*
X59347276Y-27243771D02*
X59394895Y-27053295D01*
X59394895Y-27053295D02*
X59442514Y-26958057D01*
X59442514Y-26958057D02*
X59490133Y-26910438D01*
X59490133Y-26910438D02*
X59585371Y-26862819D01*
X99132704Y-53813666D02*
X99132704Y-53337476D01*
X99418419Y-53908904D02*
X98418419Y-53575571D01*
X98418419Y-53575571D02*
X99418419Y-53242238D01*
X98894609Y-52908904D02*
X98894609Y-52575571D01*
X99418419Y-52432714D02*
X99418419Y-52908904D01*
X99418419Y-52908904D02*
X98418419Y-52908904D01*
X98418419Y-52908904D02*
X98418419Y-52432714D01*
X99418419Y-51480333D02*
X99418419Y-52051761D01*
X99418419Y-51766047D02*
X98418419Y-51766047D01*
X98418419Y-51766047D02*
X98561276Y-51861285D01*
X98561276Y-51861285D02*
X98656514Y-51956523D01*
X98656514Y-51956523D02*
X98704133Y-52051761D01*
X47826342Y-65689780D02*
X47778723Y-65737400D01*
X47778723Y-65737400D02*
X47635866Y-65785019D01*
X47635866Y-65785019D02*
X47540628Y-65785019D01*
X47540628Y-65785019D02*
X47397771Y-65737400D01*
X47397771Y-65737400D02*
X47302533Y-65642161D01*
X47302533Y-65642161D02*
X47254914Y-65546923D01*
X47254914Y-65546923D02*
X47207295Y-65356447D01*
X47207295Y-65356447D02*
X47207295Y-65213590D01*
X47207295Y-65213590D02*
X47254914Y-65023114D01*
X47254914Y-65023114D02*
X47302533Y-64927876D01*
X47302533Y-64927876D02*
X47397771Y-64832638D01*
X47397771Y-64832638D02*
X47540628Y-64785019D01*
X47540628Y-64785019D02*
X47635866Y-64785019D01*
X47635866Y-64785019D02*
X47778723Y-64832638D01*
X47778723Y-64832638D02*
X47826342Y-64880257D01*
X48778723Y-65785019D02*
X48207295Y-65785019D01*
X48493009Y-65785019D02*
X48493009Y-64785019D01*
X48493009Y-64785019D02*
X48397771Y-64927876D01*
X48397771Y-64927876D02*
X48302533Y-65023114D01*
X48302533Y-65023114D02*
X48207295Y-65070733D01*
X49350152Y-65213590D02*
X49254914Y-65165971D01*
X49254914Y-65165971D02*
X49207295Y-65118352D01*
X49207295Y-65118352D02*
X49159676Y-65023114D01*
X49159676Y-65023114D02*
X49159676Y-64975495D01*
X49159676Y-64975495D02*
X49207295Y-64880257D01*
X49207295Y-64880257D02*
X49254914Y-64832638D01*
X49254914Y-64832638D02*
X49350152Y-64785019D01*
X49350152Y-64785019D02*
X49540628Y-64785019D01*
X49540628Y-64785019D02*
X49635866Y-64832638D01*
X49635866Y-64832638D02*
X49683485Y-64880257D01*
X49683485Y-64880257D02*
X49731104Y-64975495D01*
X49731104Y-64975495D02*
X49731104Y-65023114D01*
X49731104Y-65023114D02*
X49683485Y-65118352D01*
X49683485Y-65118352D02*
X49635866Y-65165971D01*
X49635866Y-65165971D02*
X49540628Y-65213590D01*
X49540628Y-65213590D02*
X49350152Y-65213590D01*
X49350152Y-65213590D02*
X49254914Y-65261209D01*
X49254914Y-65261209D02*
X49207295Y-65308828D01*
X49207295Y-65308828D02*
X49159676Y-65404066D01*
X49159676Y-65404066D02*
X49159676Y-65594542D01*
X49159676Y-65594542D02*
X49207295Y-65689780D01*
X49207295Y-65689780D02*
X49254914Y-65737400D01*
X49254914Y-65737400D02*
X49350152Y-65785019D01*
X49350152Y-65785019D02*
X49540628Y-65785019D01*
X49540628Y-65785019D02*
X49635866Y-65737400D01*
X49635866Y-65737400D02*
X49683485Y-65689780D01*
X49683485Y-65689780D02*
X49731104Y-65594542D01*
X49731104Y-65594542D02*
X49731104Y-65404066D01*
X49731104Y-65404066D02*
X49683485Y-65308828D01*
X49683485Y-65308828D02*
X49635866Y-65261209D01*
X49635866Y-65261209D02*
X49540628Y-65213590D01*
X59935733Y-69474380D02*
X59888114Y-69522000D01*
X59888114Y-69522000D02*
X59745257Y-69569619D01*
X59745257Y-69569619D02*
X59650019Y-69569619D01*
X59650019Y-69569619D02*
X59507162Y-69522000D01*
X59507162Y-69522000D02*
X59411924Y-69426761D01*
X59411924Y-69426761D02*
X59364305Y-69331523D01*
X59364305Y-69331523D02*
X59316686Y-69141047D01*
X59316686Y-69141047D02*
X59316686Y-68998190D01*
X59316686Y-68998190D02*
X59364305Y-68807714D01*
X59364305Y-68807714D02*
X59411924Y-68712476D01*
X59411924Y-68712476D02*
X59507162Y-68617238D01*
X59507162Y-68617238D02*
X59650019Y-68569619D01*
X59650019Y-68569619D02*
X59745257Y-68569619D01*
X59745257Y-68569619D02*
X59888114Y-68617238D01*
X59888114Y-68617238D02*
X59935733Y-68664857D01*
X60792876Y-68569619D02*
X60602400Y-68569619D01*
X60602400Y-68569619D02*
X60507162Y-68617238D01*
X60507162Y-68617238D02*
X60459543Y-68664857D01*
X60459543Y-68664857D02*
X60364305Y-68807714D01*
X60364305Y-68807714D02*
X60316686Y-68998190D01*
X60316686Y-68998190D02*
X60316686Y-69379142D01*
X60316686Y-69379142D02*
X60364305Y-69474380D01*
X60364305Y-69474380D02*
X60411924Y-69522000D01*
X60411924Y-69522000D02*
X60507162Y-69569619D01*
X60507162Y-69569619D02*
X60697638Y-69569619D01*
X60697638Y-69569619D02*
X60792876Y-69522000D01*
X60792876Y-69522000D02*
X60840495Y-69474380D01*
X60840495Y-69474380D02*
X60888114Y-69379142D01*
X60888114Y-69379142D02*
X60888114Y-69141047D01*
X60888114Y-69141047D02*
X60840495Y-69045809D01*
X60840495Y-69045809D02*
X60792876Y-68998190D01*
X60792876Y-68998190D02*
X60697638Y-68950571D01*
X60697638Y-68950571D02*
X60507162Y-68950571D01*
X60507162Y-68950571D02*
X60411924Y-68998190D01*
X60411924Y-68998190D02*
X60364305Y-69045809D01*
X60364305Y-69045809D02*
X60316686Y-69141047D01*
X74129443Y-70294019D02*
X73796110Y-69817828D01*
X73558015Y-70294019D02*
X73558015Y-69294019D01*
X73558015Y-69294019D02*
X73938967Y-69294019D01*
X73938967Y-69294019D02*
X74034205Y-69341638D01*
X74034205Y-69341638D02*
X74081824Y-69389257D01*
X74081824Y-69389257D02*
X74129443Y-69484495D01*
X74129443Y-69484495D02*
X74129443Y-69627352D01*
X74129443Y-69627352D02*
X74081824Y-69722590D01*
X74081824Y-69722590D02*
X74034205Y-69770209D01*
X74034205Y-69770209D02*
X73938967Y-69817828D01*
X73938967Y-69817828D02*
X73558015Y-69817828D01*
X74510396Y-69389257D02*
X74558015Y-69341638D01*
X74558015Y-69341638D02*
X74653253Y-69294019D01*
X74653253Y-69294019D02*
X74891348Y-69294019D01*
X74891348Y-69294019D02*
X74986586Y-69341638D01*
X74986586Y-69341638D02*
X75034205Y-69389257D01*
X75034205Y-69389257D02*
X75081824Y-69484495D01*
X75081824Y-69484495D02*
X75081824Y-69579733D01*
X75081824Y-69579733D02*
X75034205Y-69722590D01*
X75034205Y-69722590D02*
X74462777Y-70294019D01*
X74462777Y-70294019D02*
X75081824Y-70294019D01*
X58063642Y-23703580D02*
X58016023Y-23751200D01*
X58016023Y-23751200D02*
X57873166Y-23798819D01*
X57873166Y-23798819D02*
X57777928Y-23798819D01*
X57777928Y-23798819D02*
X57635071Y-23751200D01*
X57635071Y-23751200D02*
X57539833Y-23655961D01*
X57539833Y-23655961D02*
X57492214Y-23560723D01*
X57492214Y-23560723D02*
X57444595Y-23370247D01*
X57444595Y-23370247D02*
X57444595Y-23227390D01*
X57444595Y-23227390D02*
X57492214Y-23036914D01*
X57492214Y-23036914D02*
X57539833Y-22941676D01*
X57539833Y-22941676D02*
X57635071Y-22846438D01*
X57635071Y-22846438D02*
X57777928Y-22798819D01*
X57777928Y-22798819D02*
X57873166Y-22798819D01*
X57873166Y-22798819D02*
X58016023Y-22846438D01*
X58016023Y-22846438D02*
X58063642Y-22894057D01*
X59016023Y-23798819D02*
X58444595Y-23798819D01*
X58730309Y-23798819D02*
X58730309Y-22798819D01*
X58730309Y-22798819D02*
X58635071Y-22941676D01*
X58635071Y-22941676D02*
X58539833Y-23036914D01*
X58539833Y-23036914D02*
X58444595Y-23084533D01*
X59492214Y-23798819D02*
X59682690Y-23798819D01*
X59682690Y-23798819D02*
X59777928Y-23751200D01*
X59777928Y-23751200D02*
X59825547Y-23703580D01*
X59825547Y-23703580D02*
X59920785Y-23560723D01*
X59920785Y-23560723D02*
X59968404Y-23370247D01*
X59968404Y-23370247D02*
X59968404Y-22989295D01*
X59968404Y-22989295D02*
X59920785Y-22894057D01*
X59920785Y-22894057D02*
X59873166Y-22846438D01*
X59873166Y-22846438D02*
X59777928Y-22798819D01*
X59777928Y-22798819D02*
X59587452Y-22798819D01*
X59587452Y-22798819D02*
X59492214Y-22846438D01*
X59492214Y-22846438D02*
X59444595Y-22894057D01*
X59444595Y-22894057D02*
X59396976Y-22989295D01*
X59396976Y-22989295D02*
X59396976Y-23227390D01*
X59396976Y-23227390D02*
X59444595Y-23322628D01*
X59444595Y-23322628D02*
X59492214Y-23370247D01*
X59492214Y-23370247D02*
X59587452Y-23417866D01*
X59587452Y-23417866D02*
X59777928Y-23417866D01*
X59777928Y-23417866D02*
X59873166Y-23370247D01*
X59873166Y-23370247D02*
X59920785Y-23322628D01*
X59920785Y-23322628D02*
X59968404Y-23227390D01*
D12*
X17030066Y-69954219D02*
X17030066Y-70668504D01*
X17030066Y-70668504D02*
X16982447Y-70811361D01*
X16982447Y-70811361D02*
X16887209Y-70906600D01*
X16887209Y-70906600D02*
X16744352Y-70954219D01*
X16744352Y-70954219D02*
X16649114Y-70954219D01*
X17934828Y-70287552D02*
X17934828Y-70954219D01*
X17696733Y-69906600D02*
X17458638Y-70620885D01*
X17458638Y-70620885D02*
X18077685Y-70620885D01*
D11*
X71340333Y-70718980D02*
X71292714Y-70766600D01*
X71292714Y-70766600D02*
X71149857Y-70814219D01*
X71149857Y-70814219D02*
X71054619Y-70814219D01*
X71054619Y-70814219D02*
X70911762Y-70766600D01*
X70911762Y-70766600D02*
X70816524Y-70671361D01*
X70816524Y-70671361D02*
X70768905Y-70576123D01*
X70768905Y-70576123D02*
X70721286Y-70385647D01*
X70721286Y-70385647D02*
X70721286Y-70242790D01*
X70721286Y-70242790D02*
X70768905Y-70052314D01*
X70768905Y-70052314D02*
X70816524Y-69957076D01*
X70816524Y-69957076D02*
X70911762Y-69861838D01*
X70911762Y-69861838D02*
X71054619Y-69814219D01*
X71054619Y-69814219D02*
X71149857Y-69814219D01*
X71149857Y-69814219D02*
X71292714Y-69861838D01*
X71292714Y-69861838D02*
X71340333Y-69909457D01*
X71673667Y-69814219D02*
X72340333Y-69814219D01*
X72340333Y-69814219D02*
X71911762Y-70814219D01*
X56169105Y-22328219D02*
X56169105Y-21328219D01*
X56169105Y-21328219D02*
X56407200Y-21328219D01*
X56407200Y-21328219D02*
X56550057Y-21375838D01*
X56550057Y-21375838D02*
X56645295Y-21471076D01*
X56645295Y-21471076D02*
X56692914Y-21566314D01*
X56692914Y-21566314D02*
X56740533Y-21756790D01*
X56740533Y-21756790D02*
X56740533Y-21899647D01*
X56740533Y-21899647D02*
X56692914Y-22090123D01*
X56692914Y-22090123D02*
X56645295Y-22185361D01*
X56645295Y-22185361D02*
X56550057Y-22280600D01*
X56550057Y-22280600D02*
X56407200Y-22328219D01*
X56407200Y-22328219D02*
X56169105Y-22328219D01*
X57597676Y-21661552D02*
X57597676Y-22328219D01*
X57359581Y-21280600D02*
X57121486Y-21994885D01*
X57121486Y-21994885D02*
X57740533Y-21994885D01*
X58437133Y-65715180D02*
X58389514Y-65762800D01*
X58389514Y-65762800D02*
X58246657Y-65810419D01*
X58246657Y-65810419D02*
X58151419Y-65810419D01*
X58151419Y-65810419D02*
X58008562Y-65762800D01*
X58008562Y-65762800D02*
X57913324Y-65667561D01*
X57913324Y-65667561D02*
X57865705Y-65572323D01*
X57865705Y-65572323D02*
X57818086Y-65381847D01*
X57818086Y-65381847D02*
X57818086Y-65238990D01*
X57818086Y-65238990D02*
X57865705Y-65048514D01*
X57865705Y-65048514D02*
X57913324Y-64953276D01*
X57913324Y-64953276D02*
X58008562Y-64858038D01*
X58008562Y-64858038D02*
X58151419Y-64810419D01*
X58151419Y-64810419D02*
X58246657Y-64810419D01*
X58246657Y-64810419D02*
X58389514Y-64858038D01*
X58389514Y-64858038D02*
X58437133Y-64905657D01*
X58913324Y-65810419D02*
X59103800Y-65810419D01*
X59103800Y-65810419D02*
X59199038Y-65762800D01*
X59199038Y-65762800D02*
X59246657Y-65715180D01*
X59246657Y-65715180D02*
X59341895Y-65572323D01*
X59341895Y-65572323D02*
X59389514Y-65381847D01*
X59389514Y-65381847D02*
X59389514Y-65000895D01*
X59389514Y-65000895D02*
X59341895Y-64905657D01*
X59341895Y-64905657D02*
X59294276Y-64858038D01*
X59294276Y-64858038D02*
X59199038Y-64810419D01*
X59199038Y-64810419D02*
X59008562Y-64810419D01*
X59008562Y-64810419D02*
X58913324Y-64858038D01*
X58913324Y-64858038D02*
X58865705Y-64905657D01*
X58865705Y-64905657D02*
X58818086Y-65000895D01*
X58818086Y-65000895D02*
X58818086Y-65238990D01*
X58818086Y-65238990D02*
X58865705Y-65334228D01*
X58865705Y-65334228D02*
X58913324Y-65381847D01*
X58913324Y-65381847D02*
X59008562Y-65429466D01*
X59008562Y-65429466D02*
X59199038Y-65429466D01*
X59199038Y-65429466D02*
X59294276Y-65381847D01*
X59294276Y-65381847D02*
X59341895Y-65334228D01*
X59341895Y-65334228D02*
X59389514Y-65238990D01*
X58062733Y-75538619D02*
X57729400Y-75062428D01*
X57491305Y-75538619D02*
X57491305Y-74538619D01*
X57491305Y-74538619D02*
X57872257Y-74538619D01*
X57872257Y-74538619D02*
X57967495Y-74586238D01*
X57967495Y-74586238D02*
X58015114Y-74633857D01*
X58015114Y-74633857D02*
X58062733Y-74729095D01*
X58062733Y-74729095D02*
X58062733Y-74871952D01*
X58062733Y-74871952D02*
X58015114Y-74967190D01*
X58015114Y-74967190D02*
X57967495Y-75014809D01*
X57967495Y-75014809D02*
X57872257Y-75062428D01*
X57872257Y-75062428D02*
X57491305Y-75062428D01*
X58919876Y-74538619D02*
X58729400Y-74538619D01*
X58729400Y-74538619D02*
X58634162Y-74586238D01*
X58634162Y-74586238D02*
X58586543Y-74633857D01*
X58586543Y-74633857D02*
X58491305Y-74776714D01*
X58491305Y-74776714D02*
X58443686Y-74967190D01*
X58443686Y-74967190D02*
X58443686Y-75348142D01*
X58443686Y-75348142D02*
X58491305Y-75443380D01*
X58491305Y-75443380D02*
X58538924Y-75491000D01*
X58538924Y-75491000D02*
X58634162Y-75538619D01*
X58634162Y-75538619D02*
X58824638Y-75538619D01*
X58824638Y-75538619D02*
X58919876Y-75491000D01*
X58919876Y-75491000D02*
X58967495Y-75443380D01*
X58967495Y-75443380D02*
X59015114Y-75348142D01*
X59015114Y-75348142D02*
X59015114Y-75110047D01*
X59015114Y-75110047D02*
X58967495Y-75014809D01*
X58967495Y-75014809D02*
X58919876Y-74967190D01*
X58919876Y-74967190D02*
X58824638Y-74919571D01*
X58824638Y-74919571D02*
X58634162Y-74919571D01*
X58634162Y-74919571D02*
X58538924Y-74967190D01*
X58538924Y-74967190D02*
X58491305Y-75014809D01*
X58491305Y-75014809D02*
X58443686Y-75110047D01*
X25950533Y-68991780D02*
X25902914Y-69039400D01*
X25902914Y-69039400D02*
X25760057Y-69087019D01*
X25760057Y-69087019D02*
X25664819Y-69087019D01*
X25664819Y-69087019D02*
X25521962Y-69039400D01*
X25521962Y-69039400D02*
X25426724Y-68944161D01*
X25426724Y-68944161D02*
X25379105Y-68848923D01*
X25379105Y-68848923D02*
X25331486Y-68658447D01*
X25331486Y-68658447D02*
X25331486Y-68515590D01*
X25331486Y-68515590D02*
X25379105Y-68325114D01*
X25379105Y-68325114D02*
X25426724Y-68229876D01*
X25426724Y-68229876D02*
X25521962Y-68134638D01*
X25521962Y-68134638D02*
X25664819Y-68087019D01*
X25664819Y-68087019D02*
X25760057Y-68087019D01*
X25760057Y-68087019D02*
X25902914Y-68134638D01*
X25902914Y-68134638D02*
X25950533Y-68182257D01*
X26855295Y-68087019D02*
X26379105Y-68087019D01*
X26379105Y-68087019D02*
X26331486Y-68563209D01*
X26331486Y-68563209D02*
X26379105Y-68515590D01*
X26379105Y-68515590D02*
X26474343Y-68467971D01*
X26474343Y-68467971D02*
X26712438Y-68467971D01*
X26712438Y-68467971D02*
X26807676Y-68515590D01*
X26807676Y-68515590D02*
X26855295Y-68563209D01*
X26855295Y-68563209D02*
X26902914Y-68658447D01*
X26902914Y-68658447D02*
X26902914Y-68896542D01*
X26902914Y-68896542D02*
X26855295Y-68991780D01*
X26855295Y-68991780D02*
X26807676Y-69039400D01*
X26807676Y-69039400D02*
X26712438Y-69087019D01*
X26712438Y-69087019D02*
X26474343Y-69087019D01*
X26474343Y-69087019D02*
X26379105Y-69039400D01*
X26379105Y-69039400D02*
X26331486Y-68991780D01*
X84155290Y-61592057D02*
X84202910Y-61639676D01*
X84202910Y-61639676D02*
X84250529Y-61782533D01*
X84250529Y-61782533D02*
X84250529Y-61877771D01*
X84250529Y-61877771D02*
X84202910Y-62020628D01*
X84202910Y-62020628D02*
X84107671Y-62115866D01*
X84107671Y-62115866D02*
X84012433Y-62163485D01*
X84012433Y-62163485D02*
X83821957Y-62211104D01*
X83821957Y-62211104D02*
X83679100Y-62211104D01*
X83679100Y-62211104D02*
X83488624Y-62163485D01*
X83488624Y-62163485D02*
X83393386Y-62115866D01*
X83393386Y-62115866D02*
X83298148Y-62020628D01*
X83298148Y-62020628D02*
X83250529Y-61877771D01*
X83250529Y-61877771D02*
X83250529Y-61782533D01*
X83250529Y-61782533D02*
X83298148Y-61639676D01*
X83298148Y-61639676D02*
X83345767Y-61592057D01*
X84250529Y-60639676D02*
X84250529Y-61211104D01*
X84250529Y-60925390D02*
X83250529Y-60925390D01*
X83250529Y-60925390D02*
X83393386Y-61020628D01*
X83393386Y-61020628D02*
X83488624Y-61115866D01*
X83488624Y-61115866D02*
X83536243Y-61211104D01*
X83345767Y-60258723D02*
X83298148Y-60211104D01*
X83298148Y-60211104D02*
X83250529Y-60115866D01*
X83250529Y-60115866D02*
X83250529Y-59877771D01*
X83250529Y-59877771D02*
X83298148Y-59782533D01*
X83298148Y-59782533D02*
X83345767Y-59734914D01*
X83345767Y-59734914D02*
X83441005Y-59687295D01*
X83441005Y-59687295D02*
X83536243Y-59687295D01*
X83536243Y-59687295D02*
X83679100Y-59734914D01*
X83679100Y-59734914D02*
X84250529Y-60306342D01*
X84250529Y-60306342D02*
X84250529Y-59687295D01*
X47750142Y-67416980D02*
X47702523Y-67464600D01*
X47702523Y-67464600D02*
X47559666Y-67512219D01*
X47559666Y-67512219D02*
X47464428Y-67512219D01*
X47464428Y-67512219D02*
X47321571Y-67464600D01*
X47321571Y-67464600D02*
X47226333Y-67369361D01*
X47226333Y-67369361D02*
X47178714Y-67274123D01*
X47178714Y-67274123D02*
X47131095Y-67083647D01*
X47131095Y-67083647D02*
X47131095Y-66940790D01*
X47131095Y-66940790D02*
X47178714Y-66750314D01*
X47178714Y-66750314D02*
X47226333Y-66655076D01*
X47226333Y-66655076D02*
X47321571Y-66559838D01*
X47321571Y-66559838D02*
X47464428Y-66512219D01*
X47464428Y-66512219D02*
X47559666Y-66512219D01*
X47559666Y-66512219D02*
X47702523Y-66559838D01*
X47702523Y-66559838D02*
X47750142Y-66607457D01*
X48702523Y-67512219D02*
X48131095Y-67512219D01*
X48416809Y-67512219D02*
X48416809Y-66512219D01*
X48416809Y-66512219D02*
X48321571Y-66655076D01*
X48321571Y-66655076D02*
X48226333Y-66750314D01*
X48226333Y-66750314D02*
X48131095Y-66797933D01*
X49035857Y-66512219D02*
X49702523Y-66512219D01*
X49702523Y-66512219D02*
X49273952Y-67512219D01*
X80934380Y-62315457D02*
X80982000Y-62363076D01*
X80982000Y-62363076D02*
X81029619Y-62505933D01*
X81029619Y-62505933D02*
X81029619Y-62601171D01*
X81029619Y-62601171D02*
X80982000Y-62744028D01*
X80982000Y-62744028D02*
X80886761Y-62839266D01*
X80886761Y-62839266D02*
X80791523Y-62886885D01*
X80791523Y-62886885D02*
X80601047Y-62934504D01*
X80601047Y-62934504D02*
X80458190Y-62934504D01*
X80458190Y-62934504D02*
X80267714Y-62886885D01*
X80267714Y-62886885D02*
X80172476Y-62839266D01*
X80172476Y-62839266D02*
X80077238Y-62744028D01*
X80077238Y-62744028D02*
X80029619Y-62601171D01*
X80029619Y-62601171D02*
X80029619Y-62505933D01*
X80029619Y-62505933D02*
X80077238Y-62363076D01*
X80077238Y-62363076D02*
X80124857Y-62315457D01*
X80124857Y-61934504D02*
X80077238Y-61886885D01*
X80077238Y-61886885D02*
X80029619Y-61791647D01*
X80029619Y-61791647D02*
X80029619Y-61553552D01*
X80029619Y-61553552D02*
X80077238Y-61458314D01*
X80077238Y-61458314D02*
X80124857Y-61410695D01*
X80124857Y-61410695D02*
X80220095Y-61363076D01*
X80220095Y-61363076D02*
X80315333Y-61363076D01*
X80315333Y-61363076D02*
X80458190Y-61410695D01*
X80458190Y-61410695D02*
X81029619Y-61982123D01*
X81029619Y-61982123D02*
X81029619Y-61363076D01*
X80362952Y-60505933D02*
X81029619Y-60505933D01*
X79982000Y-60744028D02*
X80696285Y-60982123D01*
X80696285Y-60982123D02*
X80696285Y-60363076D01*
X51853857Y-74747238D02*
X51806238Y-74842476D01*
X51806238Y-74842476D02*
X51711000Y-74937714D01*
X51711000Y-74937714D02*
X51568142Y-75080571D01*
X51568142Y-75080571D02*
X51520523Y-75175809D01*
X51520523Y-75175809D02*
X51520523Y-75271047D01*
X51758619Y-75223428D02*
X51711000Y-75318666D01*
X51711000Y-75318666D02*
X51615761Y-75413904D01*
X51615761Y-75413904D02*
X51425285Y-75461523D01*
X51425285Y-75461523D02*
X51091952Y-75461523D01*
X51091952Y-75461523D02*
X50901476Y-75413904D01*
X50901476Y-75413904D02*
X50806238Y-75318666D01*
X50806238Y-75318666D02*
X50758619Y-75223428D01*
X50758619Y-75223428D02*
X50758619Y-75032952D01*
X50758619Y-75032952D02*
X50806238Y-74937714D01*
X50806238Y-74937714D02*
X50901476Y-74842476D01*
X50901476Y-74842476D02*
X51091952Y-74794857D01*
X51091952Y-74794857D02*
X51425285Y-74794857D01*
X51425285Y-74794857D02*
X51615761Y-74842476D01*
X51615761Y-74842476D02*
X51711000Y-74937714D01*
X51711000Y-74937714D02*
X51758619Y-75032952D01*
X51758619Y-75032952D02*
X51758619Y-75223428D01*
X50758619Y-74461523D02*
X50758619Y-73842476D01*
X50758619Y-73842476D02*
X51139571Y-74175809D01*
X51139571Y-74175809D02*
X51139571Y-74032952D01*
X51139571Y-74032952D02*
X51187190Y-73937714D01*
X51187190Y-73937714D02*
X51234809Y-73890095D01*
X51234809Y-73890095D02*
X51330047Y-73842476D01*
X51330047Y-73842476D02*
X51568142Y-73842476D01*
X51568142Y-73842476D02*
X51663380Y-73890095D01*
X51663380Y-73890095D02*
X51711000Y-73937714D01*
X51711000Y-73937714D02*
X51758619Y-74032952D01*
X51758619Y-74032952D02*
X51758619Y-74318666D01*
X51758619Y-74318666D02*
X51711000Y-74413904D01*
X51711000Y-74413904D02*
X51663380Y-74461523D01*
X77676819Y-56578857D02*
X77200628Y-56912190D01*
X77676819Y-57150285D02*
X76676819Y-57150285D01*
X76676819Y-57150285D02*
X76676819Y-56769333D01*
X76676819Y-56769333D02*
X76724438Y-56674095D01*
X76724438Y-56674095D02*
X76772057Y-56626476D01*
X76772057Y-56626476D02*
X76867295Y-56578857D01*
X76867295Y-56578857D02*
X77010152Y-56578857D01*
X77010152Y-56578857D02*
X77105390Y-56626476D01*
X77105390Y-56626476D02*
X77153009Y-56674095D01*
X77153009Y-56674095D02*
X77200628Y-56769333D01*
X77200628Y-56769333D02*
X77200628Y-57150285D01*
X77676819Y-55626476D02*
X77676819Y-56197904D01*
X77676819Y-55912190D02*
X76676819Y-55912190D01*
X76676819Y-55912190D02*
X76819676Y-56007428D01*
X76819676Y-56007428D02*
X76914914Y-56102666D01*
X76914914Y-56102666D02*
X76962533Y-56197904D01*
X76772057Y-55245523D02*
X76724438Y-55197904D01*
X76724438Y-55197904D02*
X76676819Y-55102666D01*
X76676819Y-55102666D02*
X76676819Y-54864571D01*
X76676819Y-54864571D02*
X76724438Y-54769333D01*
X76724438Y-54769333D02*
X76772057Y-54721714D01*
X76772057Y-54721714D02*
X76867295Y-54674095D01*
X76867295Y-54674095D02*
X76962533Y-54674095D01*
X76962533Y-54674095D02*
X77105390Y-54721714D01*
X77105390Y-54721714D02*
X77676819Y-55293142D01*
X77676819Y-55293142D02*
X77676819Y-54674095D01*
X91235065Y-62127325D02*
X91872486Y-62127325D01*
X91872486Y-62127325D02*
X91947476Y-62089830D01*
X91947476Y-62089830D02*
X91984972Y-62052334D01*
X91984972Y-62052334D02*
X92022467Y-61977344D01*
X92022467Y-61977344D02*
X92022467Y-61827362D01*
X92022467Y-61827362D02*
X91984972Y-61752372D01*
X91984972Y-61752372D02*
X91947476Y-61714876D01*
X91947476Y-61714876D02*
X91872486Y-61677381D01*
X91872486Y-61677381D02*
X91235065Y-61677381D01*
X91235065Y-60964970D02*
X91235065Y-61114951D01*
X91235065Y-61114951D02*
X91272560Y-61189942D01*
X91272560Y-61189942D02*
X91310056Y-61227437D01*
X91310056Y-61227437D02*
X91422542Y-61302428D01*
X91422542Y-61302428D02*
X91572523Y-61339923D01*
X91572523Y-61339923D02*
X91872486Y-61339923D01*
X91872486Y-61339923D02*
X91947476Y-61302428D01*
X91947476Y-61302428D02*
X91984972Y-61264933D01*
X91984972Y-61264933D02*
X92022467Y-61189942D01*
X92022467Y-61189942D02*
X92022467Y-61039961D01*
X92022467Y-61039961D02*
X91984972Y-60964970D01*
X91984972Y-60964970D02*
X91947476Y-60927475D01*
X91947476Y-60927475D02*
X91872486Y-60889979D01*
X91872486Y-60889979D02*
X91685009Y-60889979D01*
X91685009Y-60889979D02*
X91610018Y-60927475D01*
X91610018Y-60927475D02*
X91572523Y-60964970D01*
X91572523Y-60964970D02*
X91535028Y-61039961D01*
X91535028Y-61039961D02*
X91535028Y-61189942D01*
X91535028Y-61189942D02*
X91572523Y-61264933D01*
X91572523Y-61264933D02*
X91610018Y-61302428D01*
X91610018Y-61302428D02*
X91685009Y-61339923D01*
X98386267Y-72487253D02*
X98011314Y-72749720D01*
X98386267Y-72937197D02*
X97598865Y-72937197D01*
X97598865Y-72937197D02*
X97598865Y-72637234D01*
X97598865Y-72637234D02*
X97636360Y-72562244D01*
X97636360Y-72562244D02*
X97673856Y-72524748D01*
X97673856Y-72524748D02*
X97748846Y-72487253D01*
X97748846Y-72487253D02*
X97861332Y-72487253D01*
X97861332Y-72487253D02*
X97936323Y-72524748D01*
X97936323Y-72524748D02*
X97973818Y-72562244D01*
X97973818Y-72562244D02*
X98011314Y-72637234D01*
X98011314Y-72637234D02*
X98011314Y-72937197D01*
X98161295Y-72187290D02*
X98161295Y-71812337D01*
X98386267Y-72262281D02*
X97598865Y-71999814D01*
X97598865Y-71999814D02*
X98386267Y-71737346D01*
X98386267Y-71474879D02*
X97598865Y-71474879D01*
X98386267Y-71024935D02*
X97936323Y-71362393D01*
X97598865Y-71024935D02*
X98048809Y-71474879D01*
X97598865Y-70762468D02*
X97598865Y-70275028D01*
X97598865Y-70275028D02*
X97898828Y-70537496D01*
X97898828Y-70537496D02*
X97898828Y-70425010D01*
X97898828Y-70425010D02*
X97936323Y-70350019D01*
X97936323Y-70350019D02*
X97973818Y-70312524D01*
X97973818Y-70312524D02*
X98048809Y-70275028D01*
X98048809Y-70275028D02*
X98236286Y-70275028D01*
X98236286Y-70275028D02*
X98311276Y-70312524D01*
X98311276Y-70312524D02*
X98348772Y-70350019D01*
X98348772Y-70350019D02*
X98386267Y-70425010D01*
X98386267Y-70425010D02*
X98386267Y-70649982D01*
X98386267Y-70649982D02*
X98348772Y-70724972D01*
X98348772Y-70724972D02*
X98311276Y-70762468D01*
X98386267Y-69525121D02*
X98386267Y-69975065D01*
X98386267Y-69750093D02*
X97598865Y-69750093D01*
X97598865Y-69750093D02*
X97711351Y-69825084D01*
X97711351Y-69825084D02*
X97786342Y-69900075D01*
X97786342Y-69900075D02*
X97823837Y-69975065D01*
X97598865Y-69262654D02*
X97598865Y-68737719D01*
X97598865Y-68737719D02*
X98386267Y-69075177D01*
X97673856Y-68475251D02*
X97636360Y-68437756D01*
X97636360Y-68437756D02*
X97598865Y-68362765D01*
X97598865Y-68362765D02*
X97598865Y-68175289D01*
X97598865Y-68175289D02*
X97636360Y-68100298D01*
X97636360Y-68100298D02*
X97673856Y-68062803D01*
X97673856Y-68062803D02*
X97748846Y-68025307D01*
X97748846Y-68025307D02*
X97823837Y-68025307D01*
X97823837Y-68025307D02*
X97936323Y-68062803D01*
X97936323Y-68062803D02*
X98386267Y-68512747D01*
X98386267Y-68512747D02*
X98386267Y-68025307D01*
X28213619Y-75058304D02*
X29023142Y-75058304D01*
X29023142Y-75058304D02*
X29118380Y-75010685D01*
X29118380Y-75010685D02*
X29166000Y-74963066D01*
X29166000Y-74963066D02*
X29213619Y-74867828D01*
X29213619Y-74867828D02*
X29213619Y-74677352D01*
X29213619Y-74677352D02*
X29166000Y-74582114D01*
X29166000Y-74582114D02*
X29118380Y-74534495D01*
X29118380Y-74534495D02*
X29023142Y-74486876D01*
X29023142Y-74486876D02*
X28213619Y-74486876D01*
X28213619Y-74105923D02*
X28213619Y-73486876D01*
X28213619Y-73486876D02*
X28594571Y-73820209D01*
X28594571Y-73820209D02*
X28594571Y-73677352D01*
X28594571Y-73677352D02*
X28642190Y-73582114D01*
X28642190Y-73582114D02*
X28689809Y-73534495D01*
X28689809Y-73534495D02*
X28785047Y-73486876D01*
X28785047Y-73486876D02*
X29023142Y-73486876D01*
X29023142Y-73486876D02*
X29118380Y-73534495D01*
X29118380Y-73534495D02*
X29166000Y-73582114D01*
X29166000Y-73582114D02*
X29213619Y-73677352D01*
X29213619Y-73677352D02*
X29213619Y-73963066D01*
X29213619Y-73963066D02*
X29166000Y-74058304D01*
X29166000Y-74058304D02*
X29118380Y-74105923D01*
X29410819Y-68810094D02*
X28410819Y-68810094D01*
X28410819Y-68810094D02*
X28410819Y-68571999D01*
X28410819Y-68571999D02*
X28458438Y-68429142D01*
X28458438Y-68429142D02*
X28553676Y-68333904D01*
X28553676Y-68333904D02*
X28648914Y-68286285D01*
X28648914Y-68286285D02*
X28839390Y-68238666D01*
X28839390Y-68238666D02*
X28982247Y-68238666D01*
X28982247Y-68238666D02*
X29172723Y-68286285D01*
X29172723Y-68286285D02*
X29267961Y-68333904D01*
X29267961Y-68333904D02*
X29363200Y-68429142D01*
X29363200Y-68429142D02*
X29410819Y-68571999D01*
X29410819Y-68571999D02*
X29410819Y-68810094D01*
X29410819Y-67286285D02*
X29410819Y-67857713D01*
X29410819Y-67571999D02*
X28410819Y-67571999D01*
X28410819Y-67571999D02*
X28553676Y-67667237D01*
X28553676Y-67667237D02*
X28648914Y-67762475D01*
X28648914Y-67762475D02*
X28696533Y-67857713D01*
D13*
%TO.C,R3*%
X84081600Y-78309736D02*
X84081600Y-78763864D01*
X85551600Y-78309736D02*
X85551600Y-78763864D01*
%TO.C,C16*%
X51917467Y-68249200D02*
X51624933Y-68249200D01*
X51917467Y-69269200D02*
X51624933Y-69269200D01*
%TO.C,C14*%
X88751600Y-77121933D02*
X88751600Y-77414467D01*
X89771600Y-77121933D02*
X89771600Y-77414467D01*
D14*
%TO.C,U2*%
X46498400Y-51564400D02*
X46498400Y-50854400D01*
X46498400Y-57404400D02*
X46498400Y-58114400D01*
X56598400Y-50854400D02*
X56598400Y-51564400D01*
X56598400Y-57404400D02*
X56598400Y-58114400D01*
D10*
X46848400Y-61184400D02*
G75*
G02*
X46648400Y-61184400I-100000J0D01*
G01*
X46648400Y-61184400D02*
G75*
G02*
X46848400Y-61184400I100000J0D01*
G01*
D13*
%TO.C,C11*%
X81177510Y-65922567D02*
X81177510Y-65630033D01*
X82197510Y-65922567D02*
X82197510Y-65630033D01*
%TO.C,C8*%
X55588433Y-66522000D02*
X55880967Y-66522000D01*
X55588433Y-67542000D02*
X55880967Y-67542000D01*
%TO.C,C21*%
X87075200Y-73883867D02*
X87075200Y-73591333D01*
X88095200Y-73883867D02*
X88095200Y-73591333D01*
%TO.C,FB1*%
X85245110Y-65370336D02*
X85245110Y-65824464D01*
X86715110Y-65370336D02*
X86715110Y-65824464D01*
%TO.C,R7*%
X66961576Y-68262100D02*
X67471024Y-68262100D01*
X66961576Y-69307100D02*
X67471024Y-69307100D01*
%TO.C,R14*%
X88713700Y-74043124D02*
X88713700Y-73533676D01*
X89758700Y-74043124D02*
X89758700Y-73533676D01*
%TO.C,D3*%
X52791600Y-69802200D02*
X52791600Y-70002200D01*
%TO.C,D2*%
X54129000Y-70815000D02*
X54129000Y-70615000D01*
%TO.C,R9*%
X84081600Y-74903064D02*
X84081600Y-74448936D01*
X85551600Y-74903064D02*
X85551600Y-74448936D01*
%TO.C,C1*%
X82455643Y-67754400D02*
X82748177Y-67754400D01*
X82455643Y-68774400D02*
X82748177Y-68774400D01*
%TO.C,J1*%
X41035800Y-75285200D02*
X41035800Y-76535200D01*
X41335800Y-75585200D02*
X41335800Y-80305200D01*
X41335800Y-76895200D02*
X41945800Y-76895200D01*
X41335800Y-78195200D02*
X41945800Y-78195200D01*
X41335800Y-80305200D02*
X47455800Y-80305200D01*
X41945800Y-76195200D02*
X41945800Y-79695200D01*
X41945800Y-79695200D02*
X46845800Y-79695200D01*
X42285800Y-75285200D02*
X41035800Y-75285200D01*
X42795800Y-75385200D02*
X42795800Y-75585200D01*
X43095800Y-75385200D02*
X42795800Y-75385200D01*
X43095800Y-75485200D02*
X42795800Y-75485200D01*
X43095800Y-75585200D02*
X43095800Y-75385200D01*
X43895800Y-75585200D02*
X43895800Y-76195200D01*
X43895800Y-76195200D02*
X41945800Y-76195200D01*
X44295800Y-79195200D02*
X44495800Y-79195200D01*
X44295800Y-79695200D02*
X44295800Y-79195200D01*
X44395800Y-79695200D02*
X44395800Y-79195200D01*
X44495800Y-79195200D02*
X44495800Y-79695200D01*
X44895800Y-76195200D02*
X44895800Y-75585200D01*
X46845800Y-76195200D02*
X44895800Y-76195200D01*
X46845800Y-79695200D02*
X46845800Y-76195200D01*
X47455800Y-75585200D02*
X41335800Y-75585200D01*
X47455800Y-76895200D02*
X46845800Y-76895200D01*
X47455800Y-78195200D02*
X46845800Y-78195200D01*
X47455800Y-80305200D02*
X47455800Y-75585200D01*
%TO.C,C23*%
X77984143Y-64046000D02*
X78276677Y-64046000D01*
X77984143Y-65066000D02*
X78276677Y-65066000D01*
%TO.C,C2*%
X81997343Y-70904000D02*
X82289877Y-70904000D01*
X81997343Y-71924000D02*
X82289877Y-71924000D01*
%TO.C,FL1*%
X54332700Y-44327900D02*
X54332700Y-45527900D01*
X54332700Y-45527900D02*
X55332700Y-45527900D01*
X55332700Y-44327900D02*
X54332700Y-44327900D01*
X55332700Y-45527900D02*
X55332700Y-44327900D01*
X55332700Y-45957900D02*
X55332700Y-45677900D01*
X55612700Y-45677900D01*
X55332700Y-45957900D01*
G36*
X55332700Y-45957900D02*
G01*
X55332700Y-45677900D01*
X55612700Y-45677900D01*
X55332700Y-45957900D01*
G37*
%TO.C,R10*%
X78274300Y-58422124D02*
X78274300Y-57912676D01*
X79319300Y-58422124D02*
X79319300Y-57912676D01*
%TO.C,C3*%
X75305977Y-70904000D02*
X75013443Y-70904000D01*
X75305977Y-71924000D02*
X75013443Y-71924000D01*
%TO.C,C25*%
X85910043Y-67754400D02*
X86202577Y-67754400D01*
X85910043Y-68774400D02*
X86202577Y-68774400D01*
%TO.C,R15*%
X105594800Y-59422179D02*
X105594800Y-59757421D01*
X106354800Y-59422179D02*
X106354800Y-59757421D01*
%TO.C,C4*%
X25997433Y-75539000D02*
X26289967Y-75539000D01*
X25997433Y-76559000D02*
X26289967Y-76559000D01*
%TO.C,C13*%
X86243400Y-77357448D02*
X86243400Y-78779952D01*
X88063400Y-77357448D02*
X88063400Y-78779952D01*
D11*
%TO.C,J3*%
X73992110Y-77016600D02*
X73992110Y-75656600D01*
X73992110Y-80686600D02*
X73992110Y-79856600D01*
X83232110Y-75656600D02*
X83232110Y-77016600D01*
X83232110Y-79856600D02*
X83232110Y-80686600D01*
X83232110Y-80686600D02*
X73992110Y-80686600D01*
D13*
%TO.C,Q1*%
X32082500Y-77114000D02*
X31432500Y-77114000D01*
X32082500Y-77114000D02*
X32732500Y-77114000D01*
X32082500Y-80234000D02*
X31432500Y-80234000D01*
X32082500Y-80234000D02*
X32732500Y-80234000D01*
X33485000Y-80514000D02*
X33005000Y-80514000D01*
X33245000Y-80184000D01*
X33485000Y-80514000D01*
G36*
X33485000Y-80514000D02*
G01*
X33005000Y-80514000D01*
X33245000Y-80184000D01*
X33485000Y-80514000D01*
G37*
%TO.C,R13*%
X30490400Y-73493136D02*
X30490400Y-74947264D01*
X32310400Y-73493136D02*
X32310400Y-74947264D01*
D12*
%TO.C,J2*%
X61570000Y-80801600D02*
X61570000Y-69801600D01*
X61570000Y-80801600D02*
X70070000Y-80801600D01*
X70070000Y-69801600D02*
X61570000Y-69801600D01*
X70070000Y-80801600D02*
X70070000Y-69801600D01*
D13*
%TO.C,R1*%
X80616634Y-69316700D02*
X80107186Y-69316700D01*
X80616634Y-70361700D02*
X80107186Y-70361700D01*
D14*
%TO.C,U4*%
X80162710Y-65741000D02*
X77162710Y-65741000D01*
X80162710Y-68741000D02*
X77162710Y-68741000D01*
D12*
X80462710Y-68741000D02*
G75*
G02*
X80362710Y-68741000I-50000J0D01*
G01*
X80362710Y-68741000D02*
G75*
G02*
X80462710Y-68741000I50000J0D01*
G01*
D13*
%TO.C,R11*%
X36478864Y-78513000D02*
X36024736Y-78513000D01*
X36478864Y-79983000D02*
X36024736Y-79983000D01*
%TO.C,C22*%
X106693233Y-57149400D02*
X106985767Y-57149400D01*
X106693233Y-58169400D02*
X106985767Y-58169400D01*
D14*
%TO.C,E1*%
X51883600Y-19222000D02*
X51883600Y-16462000D01*
X53403600Y-14942000D02*
X53763600Y-14942000D01*
X53763600Y-20742000D02*
X53403600Y-20742000D01*
X55403600Y-14942000D02*
X57363600Y-14942000D01*
X57363600Y-20742000D02*
X55403600Y-20742000D01*
X58883600Y-16462000D02*
X58883600Y-19222000D01*
D10*
X51483600Y-15642000D02*
G75*
G02*
X51283600Y-15642000I-100000J0D01*
G01*
X51283600Y-15642000D02*
G75*
G02*
X51483600Y-15642000I100000J0D01*
G01*
D13*
%TO.C,R8*%
X54196800Y-25543621D02*
X54196800Y-25208379D01*
X54956800Y-25543621D02*
X54956800Y-25208379D01*
%TO.C,C15*%
X106692133Y-61035600D02*
X106984667Y-61035600D01*
X106692133Y-62055600D02*
X106984667Y-62055600D01*
%TO.C,U5*%
X64679800Y-64125200D02*
X64679800Y-62175200D01*
X64679800Y-64125200D02*
X64679800Y-66075200D01*
X69799800Y-64125200D02*
X69799800Y-62175200D01*
X69799800Y-64125200D02*
X69799800Y-66075200D01*
X70034800Y-61665200D02*
X69704800Y-61425200D01*
X70034800Y-61185200D01*
X70034800Y-61665200D01*
G36*
X70034800Y-61665200D02*
G01*
X69704800Y-61425200D01*
X70034800Y-61185200D01*
X70034800Y-61665200D01*
G37*
%TO.C,C20*%
X55309033Y-26898000D02*
X55601567Y-26898000D01*
X55309033Y-27918000D02*
X55601567Y-27918000D01*
%TO.C,AE1*%
X105713600Y-56647000D02*
X105963600Y-56147000D01*
X105963600Y-56147000D02*
X106213600Y-56647000D01*
X106213600Y-56647000D02*
X105713600Y-56647000D01*
%TO.C,C18*%
X51917467Y-64845600D02*
X51624933Y-64845600D01*
X51917467Y-65865600D02*
X51624933Y-65865600D01*
%TO.C,C6*%
X55847448Y-68230200D02*
X57269952Y-68230200D01*
X55847448Y-70050200D02*
X57269952Y-70050200D01*
%TO.C,R2*%
X76681986Y-69316700D02*
X77191434Y-69316700D01*
X76681986Y-70361700D02*
X77191434Y-70361700D01*
%TO.C,C19*%
X55309033Y-22834000D02*
X55601567Y-22834000D01*
X55309033Y-23854000D02*
X55601567Y-23854000D01*
D12*
%TO.C,J4*%
X15113400Y-80496800D02*
X15113400Y-69496800D01*
X15113400Y-80496800D02*
X23613400Y-80496800D01*
X23613400Y-69496800D02*
X15113400Y-69496800D01*
X23613400Y-80496800D02*
X23613400Y-69496800D01*
D13*
%TO.C,C7*%
X70572233Y-68274600D02*
X70864767Y-68274600D01*
X70572233Y-69294600D02*
X70864767Y-69294600D01*
%TO.C,D4*%
X54073200Y-21263400D02*
X54073200Y-22483400D01*
X54073200Y-21263400D02*
X55483200Y-21263400D01*
X54073200Y-22483400D02*
X55483200Y-22483400D01*
%TO.C,C9*%
X55588433Y-64820200D02*
X55880967Y-64820200D01*
X55588433Y-65840200D02*
X55880967Y-65840200D01*
%TO.C,R6*%
X58465864Y-72647000D02*
X58011736Y-72647000D01*
X58465864Y-74117000D02*
X58011736Y-74117000D01*
%TO.C,C5*%
X26264567Y-69595400D02*
X25972033Y-69595400D01*
X26264567Y-70615400D02*
X25972033Y-70615400D01*
%TO.C,C12*%
X82834910Y-65660552D02*
X82834910Y-64238048D01*
X84654910Y-65660552D02*
X84654910Y-64238048D01*
%TO.C,C17*%
X51917467Y-66547400D02*
X51624933Y-66547400D01*
X51917467Y-67567400D02*
X51624933Y-67567400D01*
%TO.C,C24*%
X77990133Y-61137200D02*
X78282667Y-61137200D01*
X77990133Y-62157200D02*
X78282667Y-62157200D01*
%TO.C,Q3*%
X52156800Y-73509000D02*
X52156800Y-72859000D01*
X52156800Y-73509000D02*
X52156800Y-74159000D01*
X55276800Y-73509000D02*
X55276800Y-72859000D01*
X55276800Y-73509000D02*
X55276800Y-74159000D01*
X55556800Y-72586500D02*
X55226800Y-72346500D01*
X55556800Y-72106500D01*
X55556800Y-72586500D01*
G36*
X55556800Y-72586500D02*
G01*
X55226800Y-72346500D01*
X55556800Y-72106500D01*
X55556800Y-72586500D01*
G37*
%TO.C,R12*%
X76674100Y-59389224D02*
X76674100Y-58879776D01*
X77719100Y-59389224D02*
X77719100Y-58879776D01*
D12*
%TO.C,U6*%
X91029800Y-62500000D02*
X91029800Y-64400000D01*
X91029800Y-67650000D02*
X91029800Y-71400000D01*
X91029800Y-78000000D02*
X91029800Y-76700000D01*
D14*
X91029800Y-78000000D02*
X94329800Y-78000000D01*
X94379800Y-62500000D02*
X91029800Y-62500000D01*
D12*
X98649800Y-62500000D02*
X106029800Y-62500000D01*
D14*
X102329800Y-64200000D02*
X102329800Y-65300000D01*
X102329800Y-64200000D02*
X102729800Y-64200000D01*
X102329800Y-65300000D02*
X102729800Y-65300000D01*
X102729800Y-63600000D02*
X103129800Y-63600000D01*
X102729800Y-64200000D02*
X102729800Y-63600000D01*
X102729800Y-65300000D02*
X102729800Y-64200000D01*
X102729800Y-65800000D02*
X102729800Y-65300000D01*
X103129800Y-63100000D02*
X104329800Y-63100000D01*
X103129800Y-63600000D02*
X103129800Y-63100000D01*
X103129800Y-63600000D02*
X104329800Y-63600000D01*
X103129800Y-65800000D02*
X102729800Y-65800000D01*
X103129800Y-66300000D02*
X103129800Y-65800000D01*
X104329800Y-63100000D02*
X104329800Y-63600000D01*
X104329800Y-63600000D02*
X104729800Y-63600000D01*
X104329800Y-65800000D02*
X103129800Y-65800000D01*
X104329800Y-66300000D02*
X103129800Y-66300000D01*
X104329800Y-66300000D02*
X104329800Y-65800000D01*
X104729800Y-63600000D02*
X104729800Y-65800000D01*
X104729800Y-65800000D02*
X104329800Y-65800000D01*
D12*
X106029798Y-78000000D02*
X102729800Y-78000000D01*
X106029798Y-78000000D02*
X106029798Y-76700000D01*
X106029800Y-62500000D02*
X106029798Y-64400000D01*
D14*
X104436906Y-64700000D02*
G75*
G02*
X103022694Y-64700000I-707106J0D01*
G01*
X103022694Y-64700000D02*
G75*
G02*
X104436906Y-64700000I707106J0D01*
G01*
D13*
%TO.C,U3*%
X24634500Y-73102600D02*
X24634500Y-72302600D01*
X24634500Y-73102600D02*
X24634500Y-73902600D01*
X27754500Y-73102600D02*
X27754500Y-72302600D01*
X27754500Y-73102600D02*
X27754500Y-73902600D01*
X24684500Y-74402600D02*
X24354500Y-74642600D01*
X24354500Y-74162600D01*
X24684500Y-74402600D01*
G36*
X24684500Y-74402600D02*
G01*
X24354500Y-74642600D01*
X24354500Y-74162600D01*
X24684500Y-74402600D01*
G37*
%TO.C,D1*%
X28221000Y-70066000D02*
X28221000Y-72526000D01*
X28221000Y-72526000D02*
X29691000Y-72526000D01*
X29691000Y-72526000D02*
X29691000Y-70066000D01*
%TD*%
M02*
