%TF.GenerationSoftware,KiCad,Pcbnew,8.0.6*%
%TF.CreationDate,2025-10-30T18:54:04+01:00*%
%TF.ProjectId,top_PCB,746f705f-5043-4422-9e6b-696361645f70,rev?*%
%TF.SameCoordinates,Original*%
%TF.FileFunction,Copper,L3,Inr*%
%TF.FilePolarity,Positive*%
%FSLAX46Y46*%
G04 Gerber Fmt 4.6, Leading zero omitted, Abs format (unit mm)*
G04 Created by KiCad (PCBNEW 8.0.6) date 2025-10-30 18:54:04*
%MOMM*%
%LPD*%
G01*
G04 APERTURE LIST*
G04 Aperture macros list*
%AMRoundRect*
0 Rectangle with rounded corners*
0 $1 Rounding radius*
0 $2 $3 $4 $5 $6 $7 $8 $9 X,Y pos of 4 corners*
0 Add a 4 corners polygon primitive as box body*
4,1,4,$2,$3,$4,$5,$6,$7,$8,$9,$2,$3,0*
0 Add four circle primitives for the rounded corners*
1,1,$1+$1,$2,$3*
1,1,$1+$1,$4,$5*
1,1,$1+$1,$6,$7*
1,1,$1+$1,$8,$9*
0 Add four rect primitives between the rounded corners*
20,1,$1+$1,$2,$3,$4,$5,0*
20,1,$1+$1,$4,$5,$6,$7,0*
20,1,$1+$1,$6,$7,$8,$9,0*
20,1,$1+$1,$8,$9,$2,$3,0*%
G04 Aperture macros list end*
%TA.AperFunction,ComponentPad*%
%ADD10RoundRect,0.250000X-0.350000X-0.625000X0.350000X-0.625000X0.350000X0.625000X-0.350000X0.625000X0*%
%TD*%
%TA.AperFunction,ComponentPad*%
%ADD11O,1.200000X1.750000*%
%TD*%
%TA.AperFunction,ComponentPad*%
%ADD12O,1.000000X2.200000*%
%TD*%
%TA.AperFunction,ComponentPad*%
%ADD13O,1.000000X1.800000*%
%TD*%
%TA.AperFunction,ComponentPad*%
%ADD14C,2.100000*%
%TD*%
%TA.AperFunction,ComponentPad*%
%ADD15C,0.970000*%
%TD*%
%TA.AperFunction,ViaPad*%
%ADD16C,0.600000*%
%TD*%
%TA.AperFunction,Conductor*%
%ADD17C,0.200000*%
%TD*%
%TA.AperFunction,Conductor*%
%ADD18C,0.300000*%
%TD*%
G04 APERTURE END LIST*
D10*
%TO.N,Net-(J1-Pin_1)*%
%TO.C,J1*%
X43395800Y-77395200D03*
D11*
%TO.N,Net-(J1-Pin_2)*%
X45395800Y-77395200D03*
%TD*%
D12*
%TO.N,GND2*%
%TO.C,J3*%
X74292110Y-78436600D03*
X82932110Y-78436600D03*
D13*
X74292110Y-74436600D03*
X82932110Y-74436600D03*
%TD*%
D14*
%TO.N,Net-(J2-Pin_1)*%
%TO.C,J2*%
X64070000Y-72801600D03*
X64070000Y-77801600D03*
%TO.N,Net-(J2-Pin_2)*%
X67570000Y-72801600D03*
X67570000Y-77801600D03*
%TD*%
D15*
%TO.N,GND*%
%TO.C,AE1*%
X110343600Y-55867000D03*
X101583600Y-55867000D03*
%TD*%
D14*
%TO.N,+5V*%
%TO.C,J4*%
X17613400Y-72496800D03*
X17613400Y-77496800D03*
%TO.N,GND*%
X21113400Y-72496800D03*
X21113400Y-77496800D03*
%TD*%
D16*
%TO.N,3V3OUT*%
X76288721Y-66980448D03*
X81739410Y-68264400D03*
%TO.N,V_BCKP*%
X28987400Y-70108000D03*
X52761800Y-72554000D03*
X87153400Y-76506200D03*
X77273900Y-61647200D03*
X69856000Y-68784600D03*
%TO.N,D+*%
X79618920Y-71664120D03*
X77882400Y-70867400D03*
%TO.N,Low_power_GNSS*%
X71856600Y-75626800D03*
X101326600Y-74220200D03*
%TO.N,STATUS_LED*%
X37251800Y-79248000D03*
X91268200Y-78716000D03*
%TO.N,JAM_IND*%
X96068800Y-68556000D03*
X47148400Y-55584400D03*
%TO.N,GEOFENCE*%
X47148400Y-54484400D03*
X91174800Y-67000000D03*
%TO.N,RESET_N*%
X55948400Y-59334400D03*
X94595600Y-69140200D03*
%TO.N,3D_Fix*%
X47148400Y-56684400D03*
X101019800Y-77665000D03*
%TO.N,RX*%
X105974800Y-76000000D03*
X72772110Y-61099600D03*
%TO.N,TX*%
X105974800Y-75000000D03*
X74042110Y-61099600D03*
%TO.N,RX_RS485*%
X100884400Y-72000000D03*
X69144800Y-61650200D03*
%TO.N,TX_RS485*%
X65334800Y-61650200D03*
X101149800Y-73000000D03*
%TO.N,DE*%
X95230600Y-73014000D03*
X66604800Y-61650200D03*
%TO.N,RE*%
X96018000Y-72614000D03*
X67874800Y-61650200D03*
%TO.N,GND*%
X75565000Y-19685000D03*
X43815000Y-51435000D03*
X65405000Y-19685000D03*
X45085000Y-55245000D03*
X50165000Y-47625000D03*
X78998900Y-61647200D03*
X85725000Y-29845000D03*
X90805000Y-55245000D03*
X50165000Y-62865000D03*
X19685000Y-55245000D03*
X80645000Y-45085000D03*
X45085000Y-29845000D03*
X60960000Y-45085000D03*
X104140000Y-56515000D03*
X85725000Y-50165000D03*
X56305000Y-26035000D03*
X45085000Y-52705000D03*
X57785000Y-52705000D03*
X59055000Y-50165000D03*
X45085000Y-50165000D03*
X43815000Y-46355000D03*
X45085000Y-57785000D03*
X56305000Y-40005000D03*
X52905000Y-45085000D03*
X46355000Y-47625000D03*
X57785000Y-61595000D03*
X56305000Y-28575000D03*
X52905000Y-29845000D03*
X46355000Y-62865000D03*
X57785000Y-48895000D03*
X34925000Y-50165000D03*
X40005000Y-45085000D03*
X85725000Y-40005000D03*
X56515000Y-27305000D03*
X75565000Y-29845000D03*
X52905000Y-26035000D03*
X56305000Y-42545000D03*
X43815000Y-50165000D03*
X43815000Y-47625000D03*
X56305000Y-32385000D03*
X56515000Y-46355000D03*
X34925000Y-70485000D03*
X56305000Y-22225000D03*
X24765000Y-60325000D03*
X57785000Y-46355000D03*
X56305000Y-29845000D03*
X90805000Y-45085000D03*
X52905000Y-36195000D03*
X29845000Y-55245000D03*
X43815000Y-57785000D03*
X57785000Y-56515000D03*
X53105000Y-47625000D03*
X75565000Y-40005000D03*
X59055000Y-61595000D03*
X70485000Y-34925000D03*
X52905000Y-38735000D03*
X85725000Y-19685000D03*
X24765000Y-29845000D03*
X45085000Y-19685000D03*
X53975000Y-62865000D03*
X45085000Y-53975000D03*
X56305000Y-41275000D03*
X57785000Y-55245000D03*
X29845000Y-34925000D03*
X45085000Y-56515000D03*
X34925000Y-40005000D03*
X43815000Y-55245000D03*
X59055000Y-62865000D03*
X104140000Y-60325000D03*
X43815000Y-62865000D03*
X43815000Y-59055000D03*
X104140000Y-59055000D03*
X59055000Y-53975000D03*
X43815000Y-61595000D03*
X56305000Y-37465000D03*
X19685000Y-34925000D03*
X45085000Y-59055000D03*
X46355000Y-61595000D03*
X53105000Y-46355000D03*
X52705000Y-27305000D03*
X56305000Y-43815000D03*
X29845000Y-45085000D03*
X47625000Y-46355000D03*
X59055000Y-60325000D03*
X57785000Y-47625000D03*
X59055000Y-46355000D03*
X107950000Y-56515000D03*
X52905000Y-37465000D03*
X107950000Y-59055000D03*
X75565000Y-50165000D03*
X52905000Y-28575000D03*
X104140000Y-62865000D03*
X56515000Y-62865000D03*
X57785000Y-53975000D03*
X43815000Y-60325000D03*
X47625000Y-47625000D03*
X56515000Y-23495000D03*
X52905000Y-22225000D03*
X107950000Y-60325000D03*
X45085000Y-62865000D03*
X19685000Y-24765000D03*
X56305000Y-31115000D03*
X19685000Y-65405000D03*
X52905000Y-43815000D03*
X43815000Y-48895000D03*
X40005000Y-55245000D03*
X50165000Y-46355000D03*
X48895000Y-46355000D03*
X45085000Y-40005000D03*
X59055000Y-47625000D03*
X70485000Y-55245000D03*
X24765000Y-50165000D03*
X91174800Y-66000000D03*
X51435000Y-62865000D03*
X65405000Y-29845000D03*
X59055000Y-55245000D03*
X29845000Y-24765000D03*
X48895000Y-47625000D03*
X80645000Y-55245000D03*
X65405000Y-50800000D03*
X50165000Y-61595000D03*
X70485000Y-24765000D03*
X107950000Y-64135000D03*
X52905000Y-40005000D03*
X104140000Y-57785000D03*
X51435000Y-61595000D03*
X60325000Y-24765000D03*
X34925000Y-19685000D03*
X52705000Y-23495000D03*
X95885000Y-60325000D03*
X40005000Y-24765000D03*
X80645000Y-24765000D03*
X59055000Y-56515000D03*
X45085000Y-46355000D03*
X52905000Y-42545000D03*
X24765000Y-40005000D03*
X43815000Y-53975000D03*
X52905000Y-41275000D03*
X45085000Y-60325000D03*
X56515000Y-45085000D03*
X56515000Y-47625000D03*
X57785000Y-50165000D03*
X50165000Y-24765000D03*
X56305000Y-36195000D03*
X60325000Y-65405000D03*
X90805000Y-24765000D03*
X34925000Y-29845000D03*
X56305000Y-24765000D03*
X52905000Y-31115000D03*
X59055000Y-48895000D03*
X57785000Y-60325000D03*
X59055000Y-52705000D03*
X56305000Y-34925000D03*
X52905000Y-34925000D03*
X19685000Y-45085000D03*
X104140000Y-61595000D03*
X29845000Y-65405000D03*
X71502110Y-61099600D03*
X45085000Y-47625000D03*
X51435000Y-46355000D03*
X60325000Y-34925000D03*
X57785000Y-62865000D03*
X45085000Y-48895000D03*
X52905000Y-33655000D03*
X65405000Y-40005000D03*
X95885000Y-50165000D03*
X50165000Y-34925000D03*
X56305000Y-38735000D03*
X104140000Y-64135000D03*
X107950000Y-62865000D03*
X46355000Y-46355000D03*
X24765000Y-19685000D03*
X43815000Y-52705000D03*
X52905000Y-24765000D03*
X40005000Y-65405000D03*
X45085000Y-61595000D03*
X90805000Y-34925000D03*
X111125000Y-75565000D03*
X40005000Y-34925000D03*
X56515000Y-61595000D03*
X80645000Y-34925000D03*
X34925000Y-60325000D03*
X43815000Y-56515000D03*
X45085000Y-51435000D03*
X59055000Y-51435000D03*
X52905000Y-32385000D03*
X57785000Y-51435000D03*
X56305000Y-33655000D03*
X70485000Y-45085000D03*
X53975000Y-61595000D03*
X51435000Y-47625000D03*
%TO.N,GND2*%
X81687510Y-64913800D03*
X83744910Y-63386800D03*
X84785200Y-79400400D03*
X86918810Y-68264400D03*
X75412110Y-73861600D03*
X74297210Y-71414000D03*
X81812110Y-73861600D03*
X84816600Y-75839200D03*
X78992910Y-64556000D03*
X83622800Y-71223000D03*
X83464410Y-68264400D03*
X78995475Y-66908235D03*
%TO.N,Net-(J3-VBUS1)*%
X76212110Y-73861600D03*
X85193810Y-68264400D03*
X81012110Y-73861600D03*
%TO.N,VDD2*%
X75312110Y-66689600D03*
X81687510Y-66638800D03*
X77267910Y-64556000D03*
%TD*%
D17*
%TO.N,D+*%
X79618920Y-71664120D02*
X79473830Y-71664120D01*
X78182310Y-71490200D02*
X77882400Y-71190290D01*
X77882400Y-71190290D02*
X77882400Y-70867400D01*
X79473830Y-71664120D02*
X79299910Y-71490200D01*
X79299910Y-71490200D02*
X78182310Y-71490200D01*
%TO.N,Low_power_GNSS*%
X84994400Y-74220200D02*
X101326600Y-74220200D01*
X71999400Y-75769600D02*
X83445000Y-75769600D01*
X83445000Y-75769600D02*
X84994400Y-74220200D01*
X71856600Y-75626800D02*
X71999400Y-75769600D01*
D18*
%TO.N,STATUS_LED*%
X37251800Y-79248000D02*
X38158800Y-80155000D01*
X38158800Y-80155000D02*
X89829200Y-80155000D01*
X89829200Y-80155000D02*
X91268200Y-78716000D01*
D17*
%TO.N,JAM_IND*%
X96068800Y-68556000D02*
X96119600Y-68556000D01*
D18*
X50036200Y-58472200D02*
X81290094Y-58472200D01*
X95177200Y-67664400D02*
X96068800Y-68556000D01*
X81290094Y-58472200D02*
X90482294Y-67664400D01*
X47148400Y-55584400D02*
X50036200Y-58472200D01*
X90482294Y-67664400D02*
X95177200Y-67664400D01*
%TO.N,GEOFENCE*%
X50602800Y-57938800D02*
X81463800Y-57938800D01*
X81463800Y-57938800D02*
X90525000Y-67000000D01*
X90525000Y-67000000D02*
X91174800Y-67000000D01*
X47148400Y-54484400D02*
X50602800Y-57938800D01*
%TO.N,RESET_N*%
X81445188Y-59334400D02*
X59055000Y-59334400D01*
X59055000Y-59334400D02*
X55948400Y-59334400D01*
X94595600Y-69140200D02*
X91250988Y-69140200D01*
X91250988Y-69140200D02*
X81445188Y-59334400D01*
%TO.N,3D_Fix*%
X64953800Y-76201400D02*
X60961400Y-76201400D01*
D17*
X84273600Y-77665000D02*
X82835400Y-76226800D01*
X64979200Y-76226800D02*
X64953800Y-76201400D01*
X82835400Y-76226800D02*
X64979200Y-76226800D01*
D18*
X84273600Y-77665000D02*
X101019800Y-77665000D01*
X47541294Y-56684400D02*
X47148400Y-56684400D01*
X48895000Y-64135000D02*
X48895000Y-58038106D01*
X60961400Y-76201400D02*
X48895000Y-64135000D01*
X48895000Y-58038106D02*
X47541294Y-56684400D01*
D17*
%TO.N,RX*%
X80905000Y-70372600D02*
X91051800Y-70372600D01*
X72822910Y-61150400D02*
X72822910Y-62498600D01*
X72772110Y-61099600D02*
X72822910Y-61150400D01*
X80696910Y-70372600D02*
X80905000Y-70372600D01*
X91065000Y-70359400D02*
X100334200Y-70359400D01*
X72822910Y-62498600D02*
X80696910Y-70372600D01*
X100334200Y-70359400D02*
X105974800Y-76000000D01*
X91051800Y-70372600D02*
X91065000Y-70359400D01*
%TO.N,TX*%
X105974800Y-75000000D02*
X100902400Y-69927600D01*
X97414862Y-68785600D02*
X97414862Y-69259600D01*
X98416862Y-68117600D02*
X98082862Y-68117600D01*
X74042110Y-62803400D02*
X81166310Y-69927600D01*
X81374400Y-69927600D02*
X93300200Y-69927600D01*
X96746862Y-69927600D02*
X96412862Y-69927600D01*
X100902400Y-69927600D02*
X99752862Y-69927600D01*
X74042110Y-61099600D02*
X74042110Y-62803400D01*
X81166310Y-69927600D02*
X81374400Y-69927600D01*
X96412862Y-69927600D02*
X93300200Y-69927600D01*
X99084862Y-69259600D02*
X99084862Y-68785600D01*
X99752862Y-69927600D02*
G75*
G02*
X99084900Y-69259600I38J668000D01*
G01*
X98082862Y-68117600D02*
G75*
G03*
X97414900Y-68785600I38J-668000D01*
G01*
X99084862Y-68785600D02*
G75*
G03*
X98416862Y-68117638I-667962J0D01*
G01*
X97414862Y-69259600D02*
G75*
G02*
X96746862Y-69927562I-667962J0D01*
G01*
%TO.N,RX_RS485*%
X98189200Y-72014000D02*
X98189200Y-72702000D01*
X100437600Y-72014000D02*
X100870400Y-72014000D01*
X97781200Y-71054000D02*
X97917200Y-71054000D01*
X80879600Y-72010400D02*
X82753981Y-72010400D01*
X78796800Y-69927600D02*
X80879600Y-72010400D01*
X99821200Y-72014000D02*
X99957200Y-72014000D01*
X98189200Y-71326000D02*
X98189200Y-71742000D01*
X99141200Y-71054000D02*
X99277200Y-71054000D01*
X69144800Y-63120400D02*
X75952000Y-69927600D01*
X98461200Y-72974000D02*
X98597200Y-72974000D01*
X98869200Y-71742000D02*
X98869200Y-71326000D01*
X97509200Y-71742000D02*
X97509200Y-71326000D01*
X82753981Y-72010400D02*
X82757581Y-72014000D01*
X98869200Y-72014000D02*
X98869200Y-71742000D01*
X69144800Y-61650200D02*
X69144800Y-63120400D01*
X99549200Y-71326000D02*
X99549200Y-71742000D01*
X75952000Y-69927600D02*
X78796800Y-69927600D01*
X99957200Y-72014000D02*
X100437600Y-72014000D01*
X100870400Y-72014000D02*
X100884400Y-72000000D01*
X98869200Y-72702000D02*
X98869200Y-72014000D01*
X82757581Y-72014000D02*
X97237200Y-72014000D01*
X98189200Y-71742000D02*
X98189200Y-72014000D01*
X97237200Y-72014000D02*
G75*
G03*
X97509200Y-71742000I0J272000D01*
G01*
X98189200Y-72702000D02*
G75*
G03*
X98461200Y-72974000I272000J0D01*
G01*
X99549200Y-71742000D02*
G75*
G03*
X99821200Y-72014000I272000J0D01*
G01*
X99277200Y-71054000D02*
G75*
G02*
X99549200Y-71326000I0J-272000D01*
G01*
X98869200Y-71326000D02*
G75*
G02*
X99141200Y-71054000I272000J0D01*
G01*
X98597200Y-72974000D02*
G75*
G03*
X98869200Y-72702000I0J272000D01*
G01*
X97509200Y-71326000D02*
G75*
G02*
X97781200Y-71054000I272000J0D01*
G01*
X97917200Y-71054000D02*
G75*
G02*
X98189200Y-71326000I0J-272000D01*
G01*
%TO.N,TX_RS485*%
X94878400Y-73614000D02*
X100535800Y-73614000D01*
X100535800Y-73614000D02*
X101149800Y-73000000D01*
X94501000Y-73236600D02*
X94878400Y-73614000D01*
X75271281Y-73236600D02*
X94501000Y-73236600D01*
X65334800Y-63300119D02*
X75271281Y-73236600D01*
X65334800Y-61650200D02*
X65334800Y-63300119D01*
%TO.N,DE*%
X95230600Y-73014000D02*
X95030600Y-72814000D01*
X95030600Y-72814000D02*
X76577800Y-72814000D01*
X76577800Y-72814000D02*
X66604800Y-62841000D01*
X66604800Y-62841000D02*
X66604800Y-61650200D01*
%TO.N,RE*%
X77244600Y-72414000D02*
X67874800Y-63044200D01*
X95818000Y-72414000D02*
X77244600Y-72414000D01*
X67874800Y-63044200D02*
X67874800Y-61650200D01*
X96018000Y-72614000D02*
X95818000Y-72414000D01*
%TD*%
M02*
