M48
; DRILL file {KiCad 8.0.6} date 2025-10-30T18:54:06+0100
; FORMAT={-:-/ absolute / metric / decimal}
; #@! TF.CreationDate,2025-10-30T18:54:06+01:00
; #@! TF.GenerationSoftware,Kicad,Pcbnew,8.0.6
; #@! TF.FileFunction,Plated,1,4,PTH
FMAT,2
METRIC
; #@! TA.AperFunction,Plated,PTH,ViaDrill
T1C0.300
; #@! TA.AperFunction,Plated,PTH,ComponentDrill
T2C0.460
; #@! TA.AperFunction,Plated,PTH,ComponentDrill
T3C0.600
; #@! TA.AperFunction,Plated,PTH,ComponentDrill
T4C0.750
; #@! TA.AperFunction,Plated,PTH,ComponentDrill
T5C1.100
%
G90
G05
T1
X19.685Y-24.765
X19.685Y-34.925
X19.685Y-45.085
X19.685Y-55.245
X19.685Y-65.405
X24.765Y-19.685
X24.765Y-29.845
X24.765Y-40.005
X24.765Y-50.165
X24.765Y-60.325
X28.987Y-70.108
X29.845Y-24.765
X29.845Y-34.925
X29.845Y-45.085
X29.845Y-55.245
X29.845Y-65.405
X34.925Y-19.685
X34.925Y-29.845
X34.925Y-40.005
X34.925Y-50.165
X34.925Y-60.325
X34.925Y-70.485
X37.252Y-79.248
X40.005Y-24.765
X40.005Y-34.925
X40.005Y-45.085
X40.005Y-55.245
X40.005Y-65.405
X43.815Y-46.355
X43.815Y-47.625
X43.815Y-48.895
X43.815Y-50.165
X43.815Y-51.435
X43.815Y-52.705
X43.815Y-53.975
X43.815Y-55.245
X43.815Y-56.515
X43.815Y-57.785
X43.815Y-59.055
X43.815Y-60.325
X43.815Y-61.595
X43.815Y-62.865
X45.085Y-19.685
X45.085Y-29.845
X45.085Y-40.005
X45.085Y-46.355
X45.085Y-47.625
X45.085Y-48.895
X45.085Y-50.165
X45.085Y-51.435
X45.085Y-52.705
X45.085Y-53.975
X45.085Y-55.245
X45.085Y-56.515
X45.085Y-57.785
X45.085Y-59.055
X45.085Y-60.325
X45.085Y-61.595
X45.085Y-62.865
X46.355Y-46.355
X46.355Y-47.625
X46.355Y-61.595
X46.355Y-62.865
X47.148Y-54.484
X47.148Y-55.584
X47.148Y-56.684
X47.625Y-46.355
X47.625Y-47.625
X48.895Y-46.355
X48.895Y-47.625
X50.165Y-24.765
X50.165Y-34.925
X50.165Y-46.355
X50.165Y-47.625
X50.165Y-61.595
X50.165Y-62.865
X51.435Y-46.355
X51.435Y-47.625
X51.435Y-61.595
X51.435Y-62.865
X52.705Y-23.495
X52.705Y-27.305
X52.762Y-72.554
X52.905Y-22.225
X52.905Y-24.765
X52.905Y-26.035
X52.905Y-28.575
X52.905Y-29.845
X52.905Y-31.115
X52.905Y-32.385
X52.905Y-33.655
X52.905Y-34.925
X52.905Y-36.195
X52.905Y-37.465
X52.905Y-38.735
X52.905Y-40.005
X52.905Y-41.275
X52.905Y-42.545
X52.905Y-43.815
X52.905Y-45.085
X53.105Y-46.355
X53.105Y-47.625
X53.975Y-61.595
X53.975Y-62.865
X55.948Y-59.334
X56.305Y-22.225
X56.305Y-24.765
X56.305Y-26.035
X56.305Y-28.575
X56.305Y-29.845
X56.305Y-31.115
X56.305Y-32.385
X56.305Y-33.655
X56.305Y-34.925
X56.305Y-36.195
X56.305Y-37.465
X56.305Y-38.735
X56.305Y-40.005
X56.305Y-41.275
X56.305Y-42.545
X56.305Y-43.815
X56.515Y-23.495
X56.515Y-27.305
X56.515Y-45.085
X56.515Y-46.355
X56.515Y-47.625
X56.515Y-61.595
X56.515Y-62.865
X57.785Y-46.355
X57.785Y-47.625
X57.785Y-48.895
X57.785Y-50.165
X57.785Y-51.435
X57.785Y-52.705
X57.785Y-53.975
X57.785Y-55.245
X57.785Y-56.515
X57.785Y-60.325
X57.785Y-61.595
X57.785Y-62.865
X59.055Y-46.355
X59.055Y-47.625
X59.055Y-48.895
X59.055Y-50.165
X59.055Y-51.435
X59.055Y-52.705
X59.055Y-53.975
X59.055Y-55.245
X59.055Y-56.515
X59.055Y-60.325
X59.055Y-61.595
X59.055Y-62.865
X60.325Y-24.765
X60.325Y-34.925
X60.325Y-65.405
X60.96Y-45.085
X65.335Y-61.65
X65.405Y-19.685
X65.405Y-29.845
X65.405Y-40.005
X65.405Y-50.8
X66.605Y-61.65
X67.875Y-61.65
X69.145Y-61.65
X69.856Y-68.785
X70.485Y-24.765
X70.485Y-34.925
X70.485Y-45.085
X70.485Y-55.245
X71.502Y-61.1
X71.857Y-75.627
X72.772Y-61.1
X74.042Y-61.1
X74.297Y-71.414
X75.312Y-66.69
X75.412Y-73.862
X75.565Y-19.685
X75.565Y-29.845
X75.565Y-40.005
X75.565Y-50.165
X76.212Y-73.862
X76.289Y-66.98
X77.268Y-64.556
X77.274Y-61.647
X77.882Y-70.867
X78.993Y-64.556
X78.995Y-66.908
X78.999Y-61.647
X79.619Y-71.664
X80.645Y-24.765
X80.645Y-34.925
X80.645Y-45.085
X80.645Y-55.245
X81.012Y-73.862
X81.688Y-64.914
X81.688Y-66.639
X81.739Y-68.264
X81.812Y-73.862
X83.464Y-68.264
X83.623Y-71.223
X83.745Y-63.387
X84.785Y-79.4
X84.817Y-75.839
X85.194Y-68.264
X85.725Y-19.685
X85.725Y-29.845
X85.725Y-40.005
X85.725Y-50.165
X86.919Y-68.264
X87.153Y-76.506
X90.805Y-24.765
X90.805Y-34.925
X90.805Y-45.085
X90.805Y-55.245
X91.175Y-66.0
X91.175Y-67.0
X91.268Y-78.716
X94.596Y-69.14
X95.231Y-73.014
X95.885Y-50.165
X95.885Y-60.325
X96.018Y-72.614
X96.069Y-68.556
X100.884Y-72.0
X101.02Y-77.665
X101.15Y-73.0
X101.327Y-74.22
X104.14Y-56.515
X104.14Y-57.785
X104.14Y-59.055
X104.14Y-60.325
X104.14Y-61.595
X104.14Y-62.865
X104.14Y-64.135
X105.975Y-75.0
X105.975Y-76.0
X107.95Y-56.515
X107.95Y-59.055
X107.95Y-60.325
X107.95Y-62.865
X107.95Y-64.135
X111.125Y-75.565
T2
X101.584Y-55.867
X110.344Y-55.867
T4
X43.396Y-77.395
X45.396Y-77.395
T5
X17.613Y-72.497
X17.613Y-77.497
X21.113Y-72.497
X21.113Y-77.497
X64.07Y-72.802
X64.07Y-77.802
X67.57Y-72.802
X67.57Y-77.802
T3
G00X74.292Y-74.037
M15
G01X74.292Y-74.837
M16
G05
G00X74.292Y-77.837
M15
G01X74.292Y-79.037
M16
G05
G00X82.932Y-74.037
M15
G01X82.932Y-74.837
M16
G05
G00X82.932Y-77.837
M15
G01X82.932Y-79.037
M16
G05
M30
