%TF.GenerationSoftware,KiCad,Pcbnew,8.0.6*%
%TF.CreationDate,2025-10-30T18:54:05+01:00*%
%TF.ProjectId,top_PCB,746f705f-5043-4422-9e6b-696361645f70,rev?*%
%TF.SameCoordinates,Original*%
%TF.FileFunction,Soldermask,Top*%
%TF.FilePolarity,Negative*%
%FSLAX46Y46*%
G04 Gerber Fmt 4.6, Leading zero omitted, Abs format (unit mm)*
G04 Created by KiCad (PCBNEW 8.0.6) date 2025-10-30 18:54:05*
%MOMM*%
%LPD*%
G01*
G04 APERTURE LIST*
G04 Aperture macros list*
%AMRoundRect*
0 Rectangle with rounded corners*
0 $1 Rounding radius*
0 $2 $3 $4 $5 $6 $7 $8 $9 X,Y pos of 4 corners*
0 Add a 4 corners polygon primitive as box body*
4,1,4,$2,$3,$4,$5,$6,$7,$8,$9,$2,$3,0*
0 Add four circle primitives for the rounded corners*
1,1,$1+$1,$2,$3*
1,1,$1+$1,$4,$5*
1,1,$1+$1,$6,$7*
1,1,$1+$1,$8,$9*
0 Add four rect primitives between the rounded corners*
20,1,$1+$1,$2,$3,$4,$5,0*
20,1,$1+$1,$4,$5,$6,$7,0*
20,1,$1+$1,$6,$7,$8,$9,0*
20,1,$1+$1,$8,$9,$2,$3,0*%
G04 Aperture macros list end*
%ADD10C,0.010000*%
%ADD11RoundRect,0.250000X-0.450000X0.350000X-0.450000X-0.350000X0.450000X-0.350000X0.450000X0.350000X0*%
%ADD12RoundRect,0.237500X0.300000X0.237500X-0.300000X0.237500X-0.300000X-0.237500X0.300000X-0.237500X0*%
%ADD13RoundRect,0.237500X-0.237500X0.300000X-0.237500X-0.300000X0.237500X-0.300000X0.237500X0.300000X0*%
%ADD14O,1.004000X2.004000*%
%ADD15RoundRect,0.102000X0.400000X-0.400000X0.400000X0.400000X-0.400000X0.400000X-0.400000X-0.400000X0*%
%ADD16RoundRect,0.237500X0.237500X-0.300000X0.237500X0.300000X-0.237500X0.300000X-0.237500X-0.300000X0*%
%ADD17RoundRect,0.237500X-0.300000X-0.237500X0.300000X-0.237500X0.300000X0.237500X-0.300000X0.237500X0*%
%ADD18RoundRect,0.237500X-0.250000X-0.237500X0.250000X-0.237500X0.250000X0.237500X-0.250000X0.237500X0*%
%ADD19RoundRect,0.237500X0.237500X-0.250000X0.237500X0.250000X-0.237500X0.250000X-0.237500X-0.250000X0*%
%ADD20RoundRect,0.050000X-0.100000X0.140000X-0.100000X-0.140000X0.100000X-0.140000X0.100000X0.140000X0*%
%ADD21RoundRect,0.050000X0.100000X-0.140000X0.100000X0.140000X-0.100000X0.140000X-0.100000X-0.140000X0*%
%ADD22RoundRect,0.250000X0.450000X-0.350000X0.450000X0.350000X-0.450000X0.350000X-0.450000X-0.350000X0*%
%ADD23RoundRect,0.250000X-0.350000X-0.625000X0.350000X-0.625000X0.350000X0.625000X-0.350000X0.625000X0*%
%ADD24O,1.200000X1.750000*%
%ADD25R,0.250000X0.180000*%
%ADD26RoundRect,0.160000X-0.160000X0.197500X-0.160000X-0.197500X0.160000X-0.197500X0.160000X0.197500X0*%
%ADD27RoundRect,0.150000X-0.150000X0.300000X-0.150000X-0.300000X0.150000X-0.300000X0.150000X0.300000X0*%
%ADD28RoundRect,0.250000X-0.650000X0.412500X-0.650000X-0.412500X0.650000X-0.412500X0.650000X0.412500X0*%
%ADD29O,1.152400X2.352400*%
%ADD30O,1.152400X1.952400*%
%ADD31RoundRect,0.150000X0.587500X0.150000X-0.587500X0.150000X-0.587500X-0.150000X0.587500X-0.150000X0*%
%ADD32RoundRect,0.250000X-0.625000X0.400000X-0.625000X-0.400000X0.625000X-0.400000X0.625000X0.400000X0*%
%ADD33C,2.100000*%
%ADD34RoundRect,0.237500X0.250000X0.237500X-0.250000X0.237500X-0.250000X-0.237500X0.250000X-0.237500X0*%
%ADD35O,1.054000X0.454000*%
%ADD36RoundRect,0.102000X0.825000X1.275000X-0.825000X1.275000X-0.825000X-1.275000X0.825000X-1.275000X0*%
%ADD37RoundRect,0.250000X0.350000X0.450000X-0.350000X0.450000X-0.350000X-0.450000X0.350000X-0.450000X0*%
%ADD38RoundRect,0.102000X-0.500000X-0.500000X0.500000X-0.500000X0.500000X0.500000X-0.500000X0.500000X0*%
%ADD39RoundRect,0.160000X0.160000X-0.197500X0.160000X0.197500X-0.160000X0.197500X-0.160000X-0.197500X0*%
%ADD40RoundRect,0.150000X-0.150000X0.825000X-0.150000X-0.825000X0.150000X-0.825000X0.150000X0.825000X0*%
%ADD41R,2.290000X5.080000*%
%ADD42R,2.420000X5.080000*%
%ADD43RoundRect,0.250000X-0.412500X-0.650000X0.412500X-0.650000X0.412500X0.650000X-0.412500X0.650000X0*%
%ADD44RoundRect,0.125000X-0.125000X-0.225000X0.125000X-0.225000X0.125000X0.225000X-0.125000X0.225000X0*%
%ADD45RoundRect,0.250000X0.650000X-0.412500X0.650000X0.412500X-0.650000X0.412500X-0.650000X-0.412500X0*%
%ADD46RoundRect,0.150000X-0.150000X0.587500X-0.150000X-0.587500X0.150000X-0.587500X0.150000X0.587500X0*%
%ADD47RoundRect,0.102000X-0.900000X0.350000X-0.900000X-0.350000X0.900000X-0.350000X0.900000X0.350000X0*%
%ADD48RoundRect,0.102000X-0.350000X0.900000X-0.350000X-0.900000X0.350000X-0.900000X0.350000X0.900000X0*%
%ADD49RoundRect,0.150000X0.150000X-0.512500X0.150000X0.512500X-0.150000X0.512500X-0.150000X-0.512500X0*%
%ADD50RoundRect,0.237500X0.237500X-0.287500X0.237500X0.287500X-0.237500X0.287500X-0.237500X-0.287500X0*%
G04 APERTURE END LIST*
D10*
%TO.C,J3*%
X75770610Y-74500100D02*
X75053610Y-74500100D01*
X75053610Y-73223100D01*
X75770610Y-73223100D01*
X75770610Y-74500100D01*
G36*
X75770610Y-74500100D02*
G01*
X75053610Y-74500100D01*
X75053610Y-73223100D01*
X75770610Y-73223100D01*
X75770610Y-74500100D01*
G37*
X76570610Y-74500100D02*
X75853610Y-74500100D01*
X75853610Y-73223100D01*
X76570610Y-73223100D01*
X76570610Y-74500100D01*
G36*
X76570610Y-74500100D02*
G01*
X75853610Y-74500100D01*
X75853610Y-73223100D01*
X76570610Y-73223100D01*
X76570610Y-74500100D01*
G37*
X77074610Y-74500100D02*
X76649610Y-74500100D01*
X76649610Y-73223100D01*
X77074610Y-73223100D01*
X77074610Y-74500100D01*
G36*
X77074610Y-74500100D02*
G01*
X76649610Y-74500100D01*
X76649610Y-73223100D01*
X77074610Y-73223100D01*
X77074610Y-74500100D01*
G37*
X77574610Y-74500100D02*
X77149610Y-74500100D01*
X77149610Y-73223100D01*
X77574610Y-73223100D01*
X77574610Y-74500100D01*
G36*
X77574610Y-74500100D02*
G01*
X77149610Y-74500100D01*
X77149610Y-73223100D01*
X77574610Y-73223100D01*
X77574610Y-74500100D01*
G37*
X78074610Y-74500100D02*
X77649610Y-74500100D01*
X77649610Y-73223100D01*
X78074610Y-73223100D01*
X78074610Y-74500100D01*
G36*
X78074610Y-74500100D02*
G01*
X77649610Y-74500100D01*
X77649610Y-73223100D01*
X78074610Y-73223100D01*
X78074610Y-74500100D01*
G37*
X78574610Y-74500100D02*
X78149610Y-74500100D01*
X78149610Y-73223100D01*
X78574610Y-73223100D01*
X78574610Y-74500100D01*
G36*
X78574610Y-74500100D02*
G01*
X78149610Y-74500100D01*
X78149610Y-73223100D01*
X78574610Y-73223100D01*
X78574610Y-74500100D01*
G37*
X79074610Y-74500100D02*
X78649610Y-74500100D01*
X78649610Y-73223100D01*
X79074610Y-73223100D01*
X79074610Y-74500100D01*
G36*
X79074610Y-74500100D02*
G01*
X78649610Y-74500100D01*
X78649610Y-73223100D01*
X79074610Y-73223100D01*
X79074610Y-74500100D01*
G37*
X79574610Y-74500100D02*
X79149610Y-74500100D01*
X79149610Y-73223100D01*
X79574610Y-73223100D01*
X79574610Y-74500100D01*
G36*
X79574610Y-74500100D02*
G01*
X79149610Y-74500100D01*
X79149610Y-73223100D01*
X79574610Y-73223100D01*
X79574610Y-74500100D01*
G37*
X80074610Y-74500100D02*
X79649610Y-74500100D01*
X79649610Y-73223100D01*
X80074610Y-73223100D01*
X80074610Y-74500100D01*
G36*
X80074610Y-74500100D02*
G01*
X79649610Y-74500100D01*
X79649610Y-73223100D01*
X80074610Y-73223100D01*
X80074610Y-74500100D01*
G37*
X80574610Y-74500100D02*
X80149610Y-74500100D01*
X80149610Y-73223100D01*
X80574610Y-73223100D01*
X80574610Y-74500100D01*
G36*
X80574610Y-74500100D02*
G01*
X80149610Y-74500100D01*
X80149610Y-73223100D01*
X80574610Y-73223100D01*
X80574610Y-74500100D01*
G37*
X81370610Y-74500100D02*
X80653610Y-74500100D01*
X80653610Y-73223100D01*
X81370610Y-73223100D01*
X81370610Y-74500100D01*
G36*
X81370610Y-74500100D02*
G01*
X80653610Y-74500100D01*
X80653610Y-73223100D01*
X81370610Y-73223100D01*
X81370610Y-74500100D01*
G37*
X82170610Y-74500100D02*
X81453610Y-74500100D01*
X81453610Y-73223100D01*
X82170610Y-73223100D01*
X82170610Y-74500100D01*
G36*
X82170610Y-74500100D02*
G01*
X81453610Y-74500100D01*
X81453610Y-73223100D01*
X82170610Y-73223100D01*
X82170610Y-74500100D01*
G37*
%TD*%
D11*
%TO.C,R3*%
X84816600Y-77536800D03*
X84816600Y-79536800D03*
%TD*%
D12*
%TO.C,C16*%
X52633700Y-68759200D03*
X50908700Y-68759200D03*
%TD*%
D13*
%TO.C,C14*%
X89261600Y-76405700D03*
X89261600Y-78130700D03*
%TD*%
D14*
%TO.C,U2*%
X47148400Y-59334400D03*
X48248400Y-59334400D03*
X49348400Y-59334400D03*
X50448400Y-59334400D03*
X51548400Y-59334400D03*
X52648400Y-59334400D03*
X53748400Y-59334400D03*
X54848400Y-59334400D03*
X55948400Y-59334400D03*
X55948400Y-49634400D03*
X54848400Y-49634400D03*
X53748400Y-49634400D03*
X52648400Y-49634400D03*
X51548400Y-49634400D03*
X50448400Y-49634400D03*
X49348400Y-49634400D03*
X48248400Y-49634400D03*
X47148400Y-49634400D03*
D15*
X47148400Y-52284400D03*
X47148400Y-53384400D03*
X47148400Y-54484400D03*
X47148400Y-55584400D03*
X47148400Y-56684400D03*
X55948400Y-56684400D03*
X55948400Y-55584400D03*
X55948400Y-54484400D03*
X55948400Y-53384400D03*
X55948400Y-52284400D03*
%TD*%
D16*
%TO.C,C11*%
X81687510Y-66638800D03*
X81687510Y-64913800D03*
%TD*%
D17*
%TO.C,C8*%
X54872200Y-67032000D03*
X56597200Y-67032000D03*
%TD*%
D16*
%TO.C,C21*%
X87585200Y-74600100D03*
X87585200Y-72875100D03*
%TD*%
D11*
%TO.C,FB1*%
X85980110Y-64597400D03*
X85980110Y-66597400D03*
%TD*%
D18*
%TO.C,R7*%
X66303800Y-68784600D03*
X68128800Y-68784600D03*
%TD*%
D19*
%TO.C,R14*%
X89236200Y-74700900D03*
X89236200Y-72875900D03*
%TD*%
D20*
%TO.C,D3*%
X52431600Y-69902200D03*
X52031600Y-69902200D03*
%TD*%
D21*
%TO.C,D2*%
X54489000Y-70715000D03*
X54889000Y-70715000D03*
%TD*%
D22*
%TO.C,R9*%
X84816600Y-75676000D03*
X84816600Y-73676000D03*
%TD*%
D17*
%TO.C,C1*%
X81739410Y-68264400D03*
X83464410Y-68264400D03*
%TD*%
D23*
%TO.C,J1*%
X43395800Y-77395200D03*
D24*
X45395800Y-77395200D03*
%TD*%
D17*
%TO.C,C23*%
X77267910Y-64556000D03*
X78992910Y-64556000D03*
%TD*%
%TO.C,C2*%
X81281110Y-71414000D03*
X83006110Y-71414000D03*
%TD*%
D25*
%TO.C,FL1*%
X54832700Y-45312900D03*
X55082700Y-44927900D03*
X55082700Y-44542900D03*
X54582700Y-44542900D03*
X54582700Y-44927900D03*
%TD*%
D19*
%TO.C,R10*%
X78796800Y-59079900D03*
X78796800Y-57254900D03*
%TD*%
D12*
%TO.C,C3*%
X76022210Y-71414000D03*
X74297210Y-71414000D03*
%TD*%
D17*
%TO.C,C25*%
X85193810Y-68264400D03*
X86918810Y-68264400D03*
%TD*%
D26*
%TO.C,R15*%
X105974800Y-58992300D03*
X105974800Y-60187300D03*
%TD*%
D27*
%TO.C,U7*%
X75312110Y-61099600D03*
X74042110Y-61099600D03*
X72772110Y-61099600D03*
X71502110Y-61099600D03*
X75312110Y-66689600D03*
X74042110Y-66689600D03*
X72772110Y-66689600D03*
X71502110Y-66689600D03*
%TD*%
D17*
%TO.C,C4*%
X25281200Y-76049000D03*
X27006200Y-76049000D03*
%TD*%
D28*
%TO.C,C13*%
X87153400Y-76506200D03*
X87153400Y-79631200D03*
%TD*%
D29*
%TO.C,J3*%
X74292110Y-78436600D03*
X82932110Y-78436600D03*
D30*
X74292110Y-74436600D03*
X82932110Y-74436600D03*
%TD*%
D31*
%TO.C,Q1*%
X31145000Y-78674000D03*
X33020000Y-79624000D03*
X33020000Y-77724000D03*
%TD*%
D32*
%TO.C,R13*%
X31400400Y-72670200D03*
X31400400Y-75770200D03*
%TD*%
D33*
%TO.C,J2*%
X64070000Y-72801600D03*
X64070000Y-77801600D03*
X67570000Y-72801600D03*
X67570000Y-77801600D03*
%TD*%
D34*
%TO.C,R1*%
X81274410Y-69839200D03*
X79449410Y-69839200D03*
%TD*%
D35*
%TO.C,U4*%
X80112710Y-68366000D03*
X80112710Y-67916000D03*
X80112710Y-67466000D03*
X80112710Y-67016000D03*
X80112710Y-66566000D03*
X80112710Y-66116000D03*
X77212710Y-66116000D03*
X77212710Y-66566000D03*
X77212710Y-67016000D03*
X77212710Y-67466000D03*
X77212710Y-67916000D03*
X77212710Y-68366000D03*
D36*
X78662710Y-67241000D03*
%TD*%
D37*
%TO.C,R11*%
X37251800Y-79248000D03*
X35251800Y-79248000D03*
%TD*%
D17*
%TO.C,C22*%
X105977000Y-57659400D03*
X107702000Y-57659400D03*
%TD*%
D38*
%TO.C,E1*%
X52583600Y-15642000D03*
X54583600Y-15642000D03*
X58183600Y-15642000D03*
X52583600Y-20042000D03*
X54583600Y-20042000D03*
X58183600Y-20042000D03*
%TD*%
D39*
%TO.C,R8*%
X54576800Y-25973500D03*
X54576800Y-24778500D03*
%TD*%
D17*
%TO.C,C15*%
X105975900Y-61545600D03*
X107700900Y-61545600D03*
%TD*%
D40*
%TO.C,U5*%
X69144800Y-61650200D03*
X67874800Y-61650200D03*
X66604800Y-61650200D03*
X65334800Y-61650200D03*
X65334800Y-66600200D03*
X66604800Y-66600200D03*
X67874800Y-66600200D03*
X69144800Y-66600200D03*
%TD*%
D17*
%TO.C,C20*%
X54592800Y-27408000D03*
X56317800Y-27408000D03*
%TD*%
D41*
%TO.C,AE1*%
X105963600Y-52427000D03*
D42*
X110343600Y-52427000D03*
X101583600Y-52427000D03*
%TD*%
D12*
%TO.C,C18*%
X52633700Y-65355600D03*
X50908700Y-65355600D03*
%TD*%
D43*
%TO.C,C6*%
X54996200Y-69140200D03*
X58121200Y-69140200D03*
%TD*%
D18*
%TO.C,R2*%
X76024210Y-69839200D03*
X77849210Y-69839200D03*
%TD*%
D17*
%TO.C,C19*%
X54592800Y-23344000D03*
X56317800Y-23344000D03*
%TD*%
D33*
%TO.C,J4*%
X17613400Y-72496800D03*
X17613400Y-77496800D03*
X21113400Y-72496800D03*
X21113400Y-77496800D03*
%TD*%
D17*
%TO.C,C7*%
X69856000Y-68784600D03*
X71581000Y-68784600D03*
%TD*%
D44*
%TO.C,D4*%
X54583200Y-21873400D03*
X55383200Y-21873400D03*
%TD*%
D17*
%TO.C,C9*%
X54872200Y-65330200D03*
X56597200Y-65330200D03*
%TD*%
D37*
%TO.C,R6*%
X59238800Y-73382000D03*
X57238800Y-73382000D03*
%TD*%
D12*
%TO.C,C5*%
X26980800Y-70105400D03*
X25255800Y-70105400D03*
%TD*%
D45*
%TO.C,C12*%
X83744910Y-66511800D03*
X83744910Y-63386800D03*
%TD*%
D12*
%TO.C,C17*%
X52633700Y-67057400D03*
X50908700Y-67057400D03*
%TD*%
D17*
%TO.C,C24*%
X77273900Y-61647200D03*
X78998900Y-61647200D03*
%TD*%
D46*
%TO.C,Q3*%
X54666800Y-72571500D03*
X52766800Y-72571500D03*
X53716800Y-74446500D03*
%TD*%
D19*
%TO.C,R12*%
X77196600Y-60047000D03*
X77196600Y-58222000D03*
%TD*%
D47*
%TO.C,U6*%
X105974800Y-76000000D03*
X105974800Y-75000000D03*
X105974800Y-74000000D03*
X105974800Y-73000000D03*
X105974800Y-72000000D03*
X105974800Y-71000000D03*
X105974800Y-70000000D03*
X105974800Y-69000000D03*
X105974800Y-68000000D03*
X105974800Y-67000000D03*
X105974800Y-66000000D03*
X105974800Y-65000000D03*
D48*
X98019800Y-62865000D03*
X97019800Y-62865000D03*
X96019800Y-62865000D03*
X95019800Y-62865000D03*
D47*
X91174800Y-65000000D03*
X91174800Y-66000000D03*
X91174800Y-67000000D03*
X91174800Y-72000000D03*
X91174800Y-73000000D03*
X91174800Y-74000000D03*
X91174800Y-75000000D03*
X91174800Y-76000000D03*
D48*
X95019800Y-77665000D03*
X96019800Y-77665000D03*
X97019800Y-77665000D03*
X98019800Y-77665000D03*
X99019800Y-77665000D03*
X100019800Y-77665000D03*
X101019800Y-77665000D03*
X102019800Y-77665000D03*
%TD*%
D49*
%TO.C,U3*%
X25244500Y-74240100D03*
X26194500Y-74240100D03*
X27144500Y-74240100D03*
X27144500Y-71965100D03*
X25244500Y-71965100D03*
%TD*%
D50*
%TO.C,D1*%
X28956000Y-71741000D03*
X28956000Y-69991000D03*
%TD*%
M02*
