%TF.GenerationSoftware,KiCad,Pcbnew,8.0.6*%
%TF.CreationDate,2025-10-30T18:54:04+01:00*%
%TF.ProjectId,top_PCB,746f705f-5043-4422-9e6b-696361645f70,rev?*%
%TF.SameCoordinates,Original*%
%TF.FileFunction,Copper,L2,Inr*%
%TF.FilePolarity,Positive*%
%FSLAX46Y46*%
G04 Gerber Fmt 4.6, Leading zero omitted, Abs format (unit mm)*
G04 Created by KiCad (PCBNEW 8.0.6) date 2025-10-30 18:54:04*
%MOMM*%
%LPD*%
G01*
G04 APERTURE LIST*
G04 Aperture macros list*
%AMRoundRect*
0 Rectangle with rounded corners*
0 $1 Rounding radius*
0 $2 $3 $4 $5 $6 $7 $8 $9 X,Y pos of 4 corners*
0 Add a 4 corners polygon primitive as box body*
4,1,4,$2,$3,$4,$5,$6,$7,$8,$9,$2,$3,0*
0 Add four circle primitives for the rounded corners*
1,1,$1+$1,$2,$3*
1,1,$1+$1,$4,$5*
1,1,$1+$1,$6,$7*
1,1,$1+$1,$8,$9*
0 Add four rect primitives between the rounded corners*
20,1,$1+$1,$2,$3,$4,$5,0*
20,1,$1+$1,$4,$5,$6,$7,0*
20,1,$1+$1,$6,$7,$8,$9,0*
20,1,$1+$1,$8,$9,$2,$3,0*%
G04 Aperture macros list end*
%TA.AperFunction,ComponentPad*%
%ADD10RoundRect,0.250000X-0.350000X-0.625000X0.350000X-0.625000X0.350000X0.625000X-0.350000X0.625000X0*%
%TD*%
%TA.AperFunction,ComponentPad*%
%ADD11O,1.200000X1.750000*%
%TD*%
%TA.AperFunction,ComponentPad*%
%ADD12O,1.000000X2.200000*%
%TD*%
%TA.AperFunction,ComponentPad*%
%ADD13O,1.000000X1.800000*%
%TD*%
%TA.AperFunction,ComponentPad*%
%ADD14C,2.100000*%
%TD*%
%TA.AperFunction,ComponentPad*%
%ADD15C,0.970000*%
%TD*%
%TA.AperFunction,ViaPad*%
%ADD16C,0.600000*%
%TD*%
%TA.AperFunction,Conductor*%
%ADD17C,0.200000*%
%TD*%
%TA.AperFunction,Conductor*%
%ADD18C,0.700000*%
%TD*%
%TA.AperFunction,Conductor*%
%ADD19C,0.400000*%
%TD*%
G04 APERTURE END LIST*
D10*
%TO.N,Net-(J1-Pin_1)*%
%TO.C,J1*%
X43395800Y-77395200D03*
D11*
%TO.N,Net-(J1-Pin_2)*%
X45395800Y-77395200D03*
%TD*%
D12*
%TO.N,GND2*%
%TO.C,J3*%
X74292110Y-78436600D03*
X82932110Y-78436600D03*
D13*
X74292110Y-74436600D03*
X82932110Y-74436600D03*
%TD*%
D14*
%TO.N,Net-(J2-Pin_1)*%
%TO.C,J2*%
X64070000Y-72801600D03*
X64070000Y-77801600D03*
%TO.N,Net-(J2-Pin_2)*%
X67570000Y-72801600D03*
X67570000Y-77801600D03*
%TD*%
D15*
%TO.N,GND*%
%TO.C,AE1*%
X110343600Y-55867000D03*
X101583600Y-55867000D03*
%TD*%
D14*
%TO.N,+5V*%
%TO.C,J4*%
X17613400Y-72496800D03*
X17613400Y-77496800D03*
%TO.N,GND*%
X21113400Y-72496800D03*
X21113400Y-77496800D03*
%TD*%
D16*
%TO.N,3V3OUT*%
X76288721Y-66980448D03*
X81739410Y-68264400D03*
%TO.N,V_BCKP*%
X28987400Y-70108000D03*
X52761800Y-72554000D03*
X87153400Y-76506200D03*
X77273900Y-61647200D03*
X69856000Y-68784600D03*
%TO.N,D+*%
X79618920Y-71664120D03*
X77882400Y-70867400D03*
%TO.N,Low_power_GNSS*%
X71856600Y-75626800D03*
X101326600Y-74220200D03*
%TO.N,STATUS_LED*%
X37251800Y-79248000D03*
X91268200Y-78716000D03*
%TO.N,JAM_IND*%
X96068800Y-68556000D03*
X47148400Y-55584400D03*
%TO.N,GEOFENCE*%
X47148400Y-54484400D03*
X91174800Y-67000000D03*
%TO.N,RESET_N*%
X55948400Y-59334400D03*
X94595600Y-69140200D03*
%TO.N,3D_Fix*%
X47148400Y-56684400D03*
X101019800Y-77665000D03*
%TO.N,RX*%
X105974800Y-76000000D03*
X72772110Y-61099600D03*
%TO.N,TX*%
X105974800Y-75000000D03*
X74042110Y-61099600D03*
%TO.N,RX_RS485*%
X100884400Y-72000000D03*
X69144800Y-61650200D03*
%TO.N,TX_RS485*%
X65334800Y-61650200D03*
X101149800Y-73000000D03*
%TO.N,DE*%
X95230600Y-73014000D03*
X66604800Y-61650200D03*
%TO.N,RE*%
X96018000Y-72614000D03*
X67874800Y-61650200D03*
%TO.N,GND*%
X75565000Y-19685000D03*
X43815000Y-51435000D03*
X65405000Y-19685000D03*
X45085000Y-55245000D03*
X50165000Y-47625000D03*
X78998900Y-61647200D03*
X85725000Y-29845000D03*
X90805000Y-55245000D03*
X50165000Y-62865000D03*
X19685000Y-55245000D03*
X80645000Y-45085000D03*
X45085000Y-29845000D03*
X60960000Y-45085000D03*
X104140000Y-56515000D03*
X85725000Y-50165000D03*
X56305000Y-26035000D03*
X45085000Y-52705000D03*
X57785000Y-52705000D03*
X59055000Y-50165000D03*
X45085000Y-50165000D03*
X43815000Y-46355000D03*
X45085000Y-57785000D03*
X56305000Y-40005000D03*
X52905000Y-45085000D03*
X46355000Y-47625000D03*
X57785000Y-61595000D03*
X56305000Y-28575000D03*
X52905000Y-29845000D03*
X46355000Y-62865000D03*
X57785000Y-48895000D03*
X34925000Y-50165000D03*
X40005000Y-45085000D03*
X85725000Y-40005000D03*
X56515000Y-27305000D03*
X75565000Y-29845000D03*
X52905000Y-26035000D03*
X56305000Y-42545000D03*
X43815000Y-50165000D03*
X43815000Y-47625000D03*
X56305000Y-32385000D03*
X56515000Y-46355000D03*
X34925000Y-70485000D03*
X56305000Y-22225000D03*
X24765000Y-60325000D03*
X57785000Y-46355000D03*
X56305000Y-29845000D03*
X90805000Y-45085000D03*
X52905000Y-36195000D03*
X29845000Y-55245000D03*
X43815000Y-57785000D03*
X57785000Y-56515000D03*
X53105000Y-47625000D03*
X75565000Y-40005000D03*
X59055000Y-61595000D03*
X70485000Y-34925000D03*
X52905000Y-38735000D03*
X85725000Y-19685000D03*
X24765000Y-29845000D03*
X45085000Y-19685000D03*
X53975000Y-62865000D03*
X45085000Y-53975000D03*
X56305000Y-41275000D03*
X57785000Y-55245000D03*
X29845000Y-34925000D03*
X45085000Y-56515000D03*
X34925000Y-40005000D03*
X43815000Y-55245000D03*
X59055000Y-62865000D03*
X104140000Y-60325000D03*
X43815000Y-62865000D03*
X43815000Y-59055000D03*
X104140000Y-59055000D03*
X59055000Y-53975000D03*
X43815000Y-61595000D03*
X56305000Y-37465000D03*
X19685000Y-34925000D03*
X45085000Y-59055000D03*
X46355000Y-61595000D03*
X53105000Y-46355000D03*
X52705000Y-27305000D03*
X56305000Y-43815000D03*
X29845000Y-45085000D03*
X47625000Y-46355000D03*
X59055000Y-60325000D03*
X57785000Y-47625000D03*
X59055000Y-46355000D03*
X107950000Y-56515000D03*
X52905000Y-37465000D03*
X107950000Y-59055000D03*
X75565000Y-50165000D03*
X52905000Y-28575000D03*
X104140000Y-62865000D03*
X56515000Y-62865000D03*
X57785000Y-53975000D03*
X43815000Y-60325000D03*
X47625000Y-47625000D03*
X56515000Y-23495000D03*
X52905000Y-22225000D03*
X107950000Y-60325000D03*
X45085000Y-62865000D03*
X19685000Y-24765000D03*
X56305000Y-31115000D03*
X19685000Y-65405000D03*
X52905000Y-43815000D03*
X43815000Y-48895000D03*
X40005000Y-55245000D03*
X50165000Y-46355000D03*
X48895000Y-46355000D03*
X45085000Y-40005000D03*
X59055000Y-47625000D03*
X70485000Y-55245000D03*
X24765000Y-50165000D03*
X91174800Y-66000000D03*
X51435000Y-62865000D03*
X65405000Y-29845000D03*
X59055000Y-55245000D03*
X29845000Y-24765000D03*
X48895000Y-47625000D03*
X80645000Y-55245000D03*
X65405000Y-50800000D03*
X50165000Y-61595000D03*
X70485000Y-24765000D03*
X107950000Y-64135000D03*
X52905000Y-40005000D03*
X104140000Y-57785000D03*
X51435000Y-61595000D03*
X60325000Y-24765000D03*
X34925000Y-19685000D03*
X52705000Y-23495000D03*
X95885000Y-60325000D03*
X40005000Y-24765000D03*
X80645000Y-24765000D03*
X59055000Y-56515000D03*
X45085000Y-46355000D03*
X52905000Y-42545000D03*
X24765000Y-40005000D03*
X43815000Y-53975000D03*
X52905000Y-41275000D03*
X45085000Y-60325000D03*
X56515000Y-45085000D03*
X56515000Y-47625000D03*
X57785000Y-50165000D03*
X50165000Y-24765000D03*
X56305000Y-36195000D03*
X60325000Y-65405000D03*
X90805000Y-24765000D03*
X34925000Y-29845000D03*
X56305000Y-24765000D03*
X52905000Y-31115000D03*
X59055000Y-48895000D03*
X57785000Y-60325000D03*
X59055000Y-52705000D03*
X56305000Y-34925000D03*
X52905000Y-34925000D03*
X19685000Y-45085000D03*
X104140000Y-61595000D03*
X29845000Y-65405000D03*
X71502110Y-61099600D03*
X45085000Y-47625000D03*
X51435000Y-46355000D03*
X60325000Y-34925000D03*
X57785000Y-62865000D03*
X45085000Y-48895000D03*
X52905000Y-33655000D03*
X65405000Y-40005000D03*
X95885000Y-50165000D03*
X50165000Y-34925000D03*
X56305000Y-38735000D03*
X104140000Y-64135000D03*
X107950000Y-62865000D03*
X46355000Y-46355000D03*
X24765000Y-19685000D03*
X43815000Y-52705000D03*
X52905000Y-24765000D03*
X40005000Y-65405000D03*
X45085000Y-61595000D03*
X90805000Y-34925000D03*
X111125000Y-75565000D03*
X40005000Y-34925000D03*
X56515000Y-61595000D03*
X80645000Y-34925000D03*
X34925000Y-60325000D03*
X43815000Y-56515000D03*
X45085000Y-51435000D03*
X59055000Y-51435000D03*
X52905000Y-32385000D03*
X57785000Y-51435000D03*
X56305000Y-33655000D03*
X70485000Y-45085000D03*
X53975000Y-61595000D03*
X51435000Y-47625000D03*
%TO.N,GND2*%
X81687510Y-64913800D03*
X83744910Y-63386800D03*
X84785200Y-79400400D03*
X86918810Y-68264400D03*
X75412110Y-73861600D03*
X74297210Y-71414000D03*
X81812110Y-73861600D03*
X84816600Y-75839200D03*
X78992910Y-64556000D03*
X83622800Y-71223000D03*
X83464410Y-68264400D03*
X78995475Y-66908235D03*
%TO.N,Net-(J3-VBUS1)*%
X76212110Y-73861600D03*
X85193810Y-68264400D03*
X81012110Y-73861600D03*
%TO.N,VDD2*%
X75312110Y-66689600D03*
X81687510Y-66638800D03*
X77267910Y-64556000D03*
%TD*%
D17*
%TO.N,3V3OUT*%
X77572673Y-68264400D02*
X81739410Y-68264400D01*
X76288721Y-66980448D02*
X77572673Y-68264400D01*
D18*
%TO.N,V_BCKP*%
X76993400Y-61647200D02*
X77273900Y-61647200D01*
X52761800Y-72554000D02*
X61387600Y-72554000D01*
X51064600Y-72554000D02*
X52761800Y-72554000D01*
X28987400Y-70108000D02*
X30742600Y-70108000D01*
X61387600Y-72554000D02*
X63175800Y-70765800D01*
X86899400Y-76760200D02*
X87153400Y-76506200D01*
X67976400Y-70765800D02*
X68736386Y-70765800D01*
X63175800Y-70765800D02*
X67976400Y-70765800D01*
X67976400Y-70765800D02*
X69856000Y-68886200D01*
X74730786Y-76760200D02*
X86899400Y-76760200D01*
X69856000Y-68784600D02*
X76993400Y-61647200D01*
X69856000Y-68886200D02*
X69856000Y-68784600D01*
X68736386Y-70765800D02*
X74730786Y-76760200D01*
X33188600Y-72554000D02*
X51064600Y-72554000D01*
X30742600Y-70108000D02*
X33188600Y-72554000D01*
D19*
%TO.N,Net-(J3-VBUS1)*%
X81012110Y-73861600D02*
X81012110Y-72446100D01*
X82107160Y-71351050D02*
X85193810Y-68264400D01*
X80912410Y-72545800D02*
X79213160Y-72545800D01*
X79198960Y-72531600D02*
X77471110Y-72531600D01*
X79213160Y-72545800D02*
X79198960Y-72531600D01*
X77471110Y-72531600D02*
X76212110Y-73790600D01*
X76212110Y-73790600D02*
X76212110Y-73861600D01*
X82107160Y-71351050D02*
X80912410Y-72545800D01*
X81012110Y-72446100D02*
X82107160Y-71351050D01*
%TO.N,VDD2*%
X79888210Y-66638800D02*
X81687510Y-66638800D01*
X77267910Y-64733800D02*
X77267910Y-64556000D01*
X77805410Y-64556000D02*
X79888210Y-66638800D01*
X77267910Y-64556000D02*
X77805410Y-64556000D01*
X75312110Y-66689600D02*
X77267910Y-64733800D01*
%TD*%
%TA.AperFunction,Conductor*%
%TO.N,GND*%
G36*
X53975000Y-48514000D02*
G01*
X54215909Y-48995818D01*
X54229000Y-49051272D01*
X54229000Y-50292000D01*
X54610000Y-50673000D01*
X55118000Y-50673000D01*
X55499000Y-50292000D01*
X55499000Y-49051272D01*
X55512090Y-48995818D01*
X55753000Y-48514000D01*
X55753000Y-47625000D01*
X96104500Y-47625000D01*
X96104500Y-49670891D01*
X96138608Y-49798187D01*
X96171554Y-49855250D01*
X96204500Y-49912314D01*
X96297686Y-50005500D01*
X96411814Y-50071392D01*
X96539108Y-50105500D01*
X96670892Y-50105500D01*
X97028000Y-50105500D01*
X97028000Y-61595000D01*
X105029000Y-64516000D01*
X114104500Y-64516000D01*
X114104500Y-80180500D01*
X114084815Y-80247539D01*
X114032011Y-80293294D01*
X113980500Y-80304500D01*
X15229260Y-80304500D01*
X15162221Y-80284815D01*
X15116466Y-80232011D01*
X15105260Y-80180548D01*
X15105137Y-79860354D01*
X15104902Y-79248000D01*
X36746153Y-79248000D01*
X36766634Y-79390456D01*
X36826422Y-79521371D01*
X36826423Y-79521373D01*
X36920672Y-79630143D01*
X37041747Y-79707953D01*
X37041750Y-79707954D01*
X37041749Y-79707954D01*
X37179836Y-79748499D01*
X37179838Y-79748500D01*
X37179839Y-79748500D01*
X37323762Y-79748500D01*
X37323762Y-79748499D01*
X37454265Y-79710181D01*
X37461850Y-79707954D01*
X37461850Y-79707953D01*
X37461853Y-79707953D01*
X37582928Y-79630143D01*
X37677177Y-79521373D01*
X37736965Y-79390457D01*
X37757447Y-79248000D01*
X37736965Y-79105543D01*
X37677177Y-78974627D01*
X37582928Y-78865857D01*
X37461853Y-78788047D01*
X37461851Y-78788046D01*
X37461849Y-78788045D01*
X37461850Y-78788045D01*
X37323763Y-78747500D01*
X37323761Y-78747500D01*
X37179839Y-78747500D01*
X37179836Y-78747500D01*
X37041749Y-78788045D01*
X36920673Y-78865856D01*
X36826423Y-78974626D01*
X36826422Y-78974628D01*
X36766634Y-79105543D01*
X36746153Y-79248000D01*
X15104902Y-79248000D01*
X15104230Y-77496797D01*
X16358123Y-77496797D01*
X16358123Y-77496802D01*
X16377193Y-77714775D01*
X16377193Y-77714779D01*
X16433822Y-77926122D01*
X16433824Y-77926126D01*
X16433825Y-77926130D01*
X16439534Y-77938373D01*
X16526297Y-78124438D01*
X16551398Y-78160286D01*
X16651802Y-78303677D01*
X16806523Y-78458398D01*
X16985761Y-78583902D01*
X17184070Y-78676375D01*
X17395423Y-78733007D01*
X17578326Y-78749008D01*
X17613398Y-78752077D01*
X17613400Y-78752077D01*
X17613402Y-78752077D01*
X17641654Y-78749605D01*
X17831377Y-78733007D01*
X18042730Y-78676375D01*
X18241039Y-78583902D01*
X18420277Y-78458398D01*
X18574998Y-78303677D01*
X18700502Y-78124439D01*
X18792975Y-77926130D01*
X18849607Y-77714777D01*
X18868677Y-77496800D01*
X18849607Y-77278823D01*
X18792975Y-77067470D01*
X18700502Y-76869162D01*
X18700500Y-76869159D01*
X18700499Y-76869157D01*
X18593209Y-76715930D01*
X42595300Y-76715930D01*
X42595300Y-78074469D01*
X42598153Y-78104899D01*
X42598153Y-78104901D01*
X42642251Y-78230922D01*
X42643007Y-78233082D01*
X42723650Y-78342350D01*
X42832918Y-78422993D01*
X42875645Y-78437944D01*
X42961099Y-78467846D01*
X42991530Y-78470700D01*
X42991534Y-78470700D01*
X43800070Y-78470700D01*
X43830499Y-78467846D01*
X43830501Y-78467846D01*
X43902574Y-78442626D01*
X43958682Y-78422993D01*
X44067950Y-78342350D01*
X44148593Y-78233082D01*
X44172241Y-78165499D01*
X44193446Y-78104901D01*
X44193446Y-78104899D01*
X44196300Y-78074469D01*
X44196300Y-77041353D01*
X44595300Y-77041353D01*
X44595300Y-77749046D01*
X44626061Y-77903689D01*
X44626064Y-77903701D01*
X44686402Y-78049372D01*
X44686409Y-78049385D01*
X44774010Y-78180488D01*
X44774013Y-78180492D01*
X44885507Y-78291986D01*
X44885511Y-78291989D01*
X45016614Y-78379590D01*
X45016627Y-78379597D01*
X45162298Y-78439935D01*
X45162303Y-78439937D01*
X45302610Y-78467846D01*
X45316953Y-78470699D01*
X45316956Y-78470700D01*
X45316958Y-78470700D01*
X45474644Y-78470700D01*
X45474645Y-78470699D01*
X45629297Y-78439937D01*
X45774979Y-78379594D01*
X45906089Y-78291989D01*
X46017589Y-78180489D01*
X46105194Y-78049379D01*
X46165537Y-77903697D01*
X46185846Y-77801597D01*
X62814723Y-77801597D01*
X62814723Y-77801602D01*
X62833793Y-78019575D01*
X62833793Y-78019579D01*
X62890422Y-78230922D01*
X62890424Y-78230926D01*
X62890425Y-78230930D01*
X62924349Y-78303681D01*
X62982897Y-78429238D01*
X62992272Y-78442626D01*
X63108402Y-78608477D01*
X63263123Y-78763198D01*
X63442361Y-78888702D01*
X63640670Y-78981175D01*
X63852023Y-79037807D01*
X64034926Y-79053808D01*
X64069998Y-79056877D01*
X64070000Y-79056877D01*
X64070002Y-79056877D01*
X64098254Y-79054405D01*
X64287977Y-79037807D01*
X64499330Y-78981175D01*
X64697639Y-78888702D01*
X64876877Y-78763198D01*
X65031598Y-78608477D01*
X65157102Y-78429239D01*
X65249575Y-78230930D01*
X65306207Y-78019577D01*
X65325277Y-77801600D01*
X65325277Y-77801597D01*
X66314723Y-77801597D01*
X66314723Y-77801602D01*
X66333793Y-78019575D01*
X66333793Y-78019579D01*
X66390422Y-78230922D01*
X66390424Y-78230926D01*
X66390425Y-78230930D01*
X66424349Y-78303681D01*
X66482897Y-78429238D01*
X66492272Y-78442626D01*
X66608402Y-78608477D01*
X66763123Y-78763198D01*
X66942361Y-78888702D01*
X67140670Y-78981175D01*
X67352023Y-79037807D01*
X67534926Y-79053808D01*
X67569998Y-79056877D01*
X67570000Y-79056877D01*
X67570002Y-79056877D01*
X67598254Y-79054405D01*
X67787977Y-79037807D01*
X67999330Y-78981175D01*
X68197639Y-78888702D01*
X68376877Y-78763198D01*
X68531598Y-78608477D01*
X68657102Y-78429239D01*
X68749575Y-78230930D01*
X68806207Y-78019577D01*
X68825277Y-77801600D01*
X68806207Y-77583623D01*
X68754762Y-77391627D01*
X68749577Y-77372277D01*
X68749576Y-77372276D01*
X68749575Y-77372270D01*
X68657102Y-77173962D01*
X68657100Y-77173959D01*
X68657099Y-77173957D01*
X68531599Y-76994724D01*
X68491507Y-76954632D01*
X68376877Y-76840002D01*
X68199690Y-76715934D01*
X68197638Y-76714497D01*
X68098484Y-76668261D01*
X67999330Y-76622025D01*
X67999326Y-76622024D01*
X67999322Y-76622022D01*
X67787977Y-76565393D01*
X67570002Y-76546323D01*
X67569998Y-76546323D01*
X67424682Y-76559036D01*
X67352023Y-76565393D01*
X67352020Y-76565393D01*
X67140677Y-76622022D01*
X67140668Y-76622026D01*
X66942361Y-76714498D01*
X66942357Y-76714500D01*
X66763121Y-76840002D01*
X66608402Y-76994721D01*
X66482900Y-77173957D01*
X66482898Y-77173961D01*
X66390426Y-77372268D01*
X66390422Y-77372277D01*
X66333793Y-77583620D01*
X66333793Y-77583624D01*
X66314723Y-77801597D01*
X65325277Y-77801597D01*
X65306207Y-77583623D01*
X65254762Y-77391627D01*
X65249577Y-77372277D01*
X65249576Y-77372276D01*
X65249575Y-77372270D01*
X65157102Y-77173962D01*
X65157100Y-77173959D01*
X65157099Y-77173957D01*
X65031599Y-76994724D01*
X64991507Y-76954632D01*
X64876877Y-76840002D01*
X64699690Y-76715934D01*
X64697638Y-76714497D01*
X64598484Y-76668261D01*
X64499330Y-76622025D01*
X64499326Y-76622024D01*
X64499322Y-76622022D01*
X64287977Y-76565393D01*
X64070002Y-76546323D01*
X64069998Y-76546323D01*
X63924682Y-76559036D01*
X63852023Y-76565393D01*
X63852020Y-76565393D01*
X63640677Y-76622022D01*
X63640668Y-76622026D01*
X63442361Y-76714498D01*
X63442357Y-76714500D01*
X63263121Y-76840002D01*
X63108402Y-76994721D01*
X62982900Y-77173957D01*
X62982898Y-77173961D01*
X62890426Y-77372268D01*
X62890422Y-77372277D01*
X62833793Y-77583620D01*
X62833793Y-77583624D01*
X62814723Y-77801597D01*
X46185846Y-77801597D01*
X46196300Y-77749042D01*
X46196300Y-77041358D01*
X46196300Y-77041355D01*
X46196299Y-77041353D01*
X46165538Y-76886710D01*
X46165537Y-76886703D01*
X46158269Y-76869157D01*
X46105197Y-76741027D01*
X46105190Y-76741014D01*
X46017589Y-76609911D01*
X46017586Y-76609907D01*
X45906092Y-76498413D01*
X45906088Y-76498410D01*
X45774985Y-76410809D01*
X45774972Y-76410802D01*
X45629301Y-76350464D01*
X45629289Y-76350461D01*
X45474645Y-76319700D01*
X45474642Y-76319700D01*
X45316958Y-76319700D01*
X45316955Y-76319700D01*
X45162310Y-76350461D01*
X45162298Y-76350464D01*
X45016627Y-76410802D01*
X45016614Y-76410809D01*
X44885511Y-76498410D01*
X44885507Y-76498413D01*
X44774013Y-76609907D01*
X44774010Y-76609911D01*
X44686409Y-76741014D01*
X44686402Y-76741027D01*
X44626064Y-76886698D01*
X44626061Y-76886710D01*
X44595300Y-77041353D01*
X44196300Y-77041353D01*
X44196300Y-76715930D01*
X44193446Y-76685500D01*
X44193446Y-76685498D01*
X44156065Y-76578672D01*
X44148593Y-76557318D01*
X44067950Y-76448050D01*
X43958682Y-76367407D01*
X43958680Y-76367406D01*
X43830500Y-76322553D01*
X43800070Y-76319700D01*
X43800066Y-76319700D01*
X42991534Y-76319700D01*
X42991530Y-76319700D01*
X42961100Y-76322553D01*
X42961098Y-76322553D01*
X42832919Y-76367406D01*
X42832917Y-76367407D01*
X42723650Y-76448050D01*
X42643007Y-76557317D01*
X42643006Y-76557319D01*
X42598153Y-76685498D01*
X42598153Y-76685500D01*
X42595300Y-76715930D01*
X18593209Y-76715930D01*
X18574999Y-76689924D01*
X18507097Y-76622022D01*
X18420277Y-76535202D01*
X18275357Y-76433728D01*
X18241038Y-76409697D01*
X18114005Y-76350461D01*
X18042730Y-76317225D01*
X18042726Y-76317224D01*
X18042722Y-76317222D01*
X17831377Y-76260593D01*
X17613402Y-76241523D01*
X17613398Y-76241523D01*
X17468082Y-76254236D01*
X17395423Y-76260593D01*
X17395420Y-76260593D01*
X17184077Y-76317222D01*
X17184068Y-76317226D01*
X16985761Y-76409698D01*
X16985757Y-76409700D01*
X16806521Y-76535202D01*
X16651802Y-76689921D01*
X16526300Y-76869157D01*
X16526298Y-76869161D01*
X16433826Y-77067468D01*
X16433822Y-77067477D01*
X16377193Y-77278820D01*
X16377193Y-77278823D01*
X16374404Y-77310700D01*
X16358123Y-77496797D01*
X15104230Y-77496797D01*
X15102311Y-72496797D01*
X16358123Y-72496797D01*
X16358123Y-72496802D01*
X16377193Y-72714775D01*
X16377193Y-72714779D01*
X16433822Y-72926122D01*
X16433824Y-72926126D01*
X16433825Y-72926130D01*
X16477033Y-73018789D01*
X16526297Y-73124438D01*
X16526298Y-73124439D01*
X16651802Y-73303677D01*
X16806523Y-73458398D01*
X16985761Y-73583902D01*
X17184070Y-73676375D01*
X17395423Y-73733007D01*
X17578326Y-73749008D01*
X17613398Y-73752077D01*
X17613400Y-73752077D01*
X17613402Y-73752077D01*
X17641654Y-73749605D01*
X17831377Y-73733007D01*
X18042730Y-73676375D01*
X18241039Y-73583902D01*
X18420277Y-73458398D01*
X18574998Y-73303677D01*
X18700502Y-73124439D01*
X18792975Y-72926130D01*
X18849607Y-72714777D01*
X18867216Y-72513500D01*
X18868677Y-72496802D01*
X18868677Y-72496797D01*
X18858646Y-72382143D01*
X18849607Y-72278823D01*
X18804098Y-72108981D01*
X18792977Y-72067477D01*
X18792976Y-72067476D01*
X18792975Y-72067470D01*
X18700502Y-71869162D01*
X18700500Y-71869159D01*
X18700499Y-71869157D01*
X18574999Y-71689924D01*
X18502931Y-71617856D01*
X18420277Y-71535202D01*
X18247183Y-71414000D01*
X18241038Y-71409697D01*
X18141884Y-71363461D01*
X18042730Y-71317225D01*
X18042726Y-71317224D01*
X18042722Y-71317222D01*
X17831377Y-71260593D01*
X17613402Y-71241523D01*
X17613398Y-71241523D01*
X17521728Y-71249543D01*
X17395423Y-71260593D01*
X17395420Y-71260593D01*
X17184077Y-71317222D01*
X17184070Y-71317224D01*
X17184070Y-71317225D01*
X17179976Y-71319134D01*
X16985761Y-71409698D01*
X16985757Y-71409700D01*
X16806521Y-71535202D01*
X16651802Y-71689921D01*
X16526300Y-71869157D01*
X16526298Y-71869161D01*
X16433826Y-72067468D01*
X16433822Y-72067477D01*
X16377193Y-72278820D01*
X16377193Y-72278824D01*
X16358123Y-72496797D01*
X15102311Y-72496797D01*
X15101366Y-70035525D01*
X28436900Y-70035525D01*
X28436900Y-70180475D01*
X28468425Y-70298126D01*
X28474417Y-70320488D01*
X28546888Y-70446011D01*
X28546890Y-70446013D01*
X28546891Y-70446015D01*
X28649385Y-70548509D01*
X28649386Y-70548510D01*
X28649388Y-70548511D01*
X28774911Y-70620982D01*
X28774912Y-70620982D01*
X28774915Y-70620984D01*
X28914925Y-70658500D01*
X30463213Y-70658500D01*
X30530252Y-70678185D01*
X30550894Y-70694819D01*
X32850585Y-72994510D01*
X32920885Y-73035097D01*
X32976115Y-73066984D01*
X33116125Y-73104500D01*
X33116128Y-73104500D01*
X61460072Y-73104500D01*
X61460074Y-73104500D01*
X61460075Y-73104500D01*
X61600085Y-73066984D01*
X61655315Y-73035097D01*
X61725615Y-72994510D01*
X63367506Y-71352619D01*
X63428829Y-71319134D01*
X63455187Y-71316300D01*
X63859106Y-71316300D01*
X63926145Y-71335985D01*
X63971900Y-71388789D01*
X63981844Y-71457947D01*
X63952819Y-71521503D01*
X63894041Y-71559277D01*
X63869914Y-71563827D01*
X63852023Y-71565393D01*
X63852020Y-71565393D01*
X63640677Y-71622022D01*
X63640668Y-71622026D01*
X63442361Y-71714498D01*
X63442357Y-71714500D01*
X63263121Y-71840002D01*
X63108402Y-71994721D01*
X62982900Y-72173957D01*
X62982898Y-72173961D01*
X62890426Y-72372268D01*
X62890422Y-72372277D01*
X62833793Y-72583620D01*
X62833793Y-72583623D01*
X62814723Y-72801600D01*
X62829104Y-72965985D01*
X62833793Y-73019575D01*
X62833793Y-73019579D01*
X62890422Y-73230922D01*
X62890424Y-73230926D01*
X62890425Y-73230930D01*
X62924349Y-73303681D01*
X62982897Y-73429238D01*
X62982898Y-73429239D01*
X63108402Y-73608477D01*
X63263123Y-73763198D01*
X63442361Y-73888702D01*
X63640670Y-73981175D01*
X63852023Y-74037807D01*
X64034926Y-74053808D01*
X64069998Y-74056877D01*
X64070000Y-74056877D01*
X64070002Y-74056877D01*
X64098254Y-74054405D01*
X64287977Y-74037807D01*
X64499330Y-73981175D01*
X64697639Y-73888702D01*
X64876877Y-73763198D01*
X65031598Y-73608477D01*
X65157102Y-73429239D01*
X65249575Y-73230930D01*
X65306207Y-73019577D01*
X65325277Y-72801600D01*
X65306207Y-72583623D01*
X65264312Y-72427268D01*
X65249577Y-72372277D01*
X65249576Y-72372276D01*
X65249575Y-72372270D01*
X65157102Y-72173962D01*
X65157100Y-72173959D01*
X65157099Y-72173957D01*
X65031599Y-71994724D01*
X64974364Y-71937489D01*
X64876877Y-71840002D01*
X64738978Y-71743444D01*
X64697638Y-71714497D01*
X64589603Y-71664120D01*
X64499330Y-71622025D01*
X64499326Y-71622024D01*
X64499322Y-71622022D01*
X64287977Y-71565393D01*
X64270086Y-71563827D01*
X64205018Y-71538376D01*
X64164039Y-71481785D01*
X64160161Y-71412023D01*
X64194615Y-71351239D01*
X64256462Y-71318731D01*
X64280894Y-71316300D01*
X67359106Y-71316300D01*
X67426145Y-71335985D01*
X67471900Y-71388789D01*
X67481844Y-71457947D01*
X67452819Y-71521503D01*
X67394041Y-71559277D01*
X67369914Y-71563827D01*
X67352023Y-71565393D01*
X67352020Y-71565393D01*
X67140677Y-71622022D01*
X67140668Y-71622026D01*
X66942361Y-71714498D01*
X66942357Y-71714500D01*
X66763121Y-71840002D01*
X66608402Y-71994721D01*
X66482900Y-72173957D01*
X66482898Y-72173961D01*
X66390426Y-72372268D01*
X66390422Y-72372277D01*
X66333793Y-72583620D01*
X66333793Y-72583623D01*
X66314723Y-72801600D01*
X66329104Y-72965985D01*
X66333793Y-73019575D01*
X66333793Y-73019579D01*
X66390422Y-73230922D01*
X66390424Y-73230926D01*
X66390425Y-73230930D01*
X66424349Y-73303681D01*
X66482897Y-73429238D01*
X66482898Y-73429239D01*
X66608402Y-73608477D01*
X66763123Y-73763198D01*
X66942361Y-73888702D01*
X67140670Y-73981175D01*
X67352023Y-74037807D01*
X67534926Y-74053808D01*
X67569998Y-74056877D01*
X67570000Y-74056877D01*
X67570002Y-74056877D01*
X67598254Y-74054405D01*
X67787977Y-74037807D01*
X67999330Y-73981175D01*
X68197639Y-73888702D01*
X68376877Y-73763198D01*
X68531598Y-73608477D01*
X68657102Y-73429239D01*
X68749575Y-73230930D01*
X68806207Y-73019577D01*
X68825277Y-72801600D01*
X68806207Y-72583623D01*
X68764312Y-72427268D01*
X68749577Y-72372277D01*
X68749576Y-72372276D01*
X68749575Y-72372270D01*
X68657102Y-72173962D01*
X68657100Y-72173959D01*
X68657099Y-72173957D01*
X68531599Y-71994724D01*
X68474364Y-71937489D01*
X68376877Y-71840002D01*
X68238978Y-71743444D01*
X68197638Y-71714497D01*
X68089603Y-71664120D01*
X67999330Y-71622025D01*
X67999326Y-71622024D01*
X67999322Y-71622022D01*
X67787977Y-71565393D01*
X67770086Y-71563827D01*
X67705018Y-71538376D01*
X67664039Y-71481785D01*
X67660161Y-71412023D01*
X67694615Y-71351239D01*
X67756462Y-71318731D01*
X67780894Y-71316300D01*
X67903925Y-71316300D01*
X67903926Y-71316300D01*
X68048874Y-71316300D01*
X68456999Y-71316300D01*
X68524038Y-71335985D01*
X68544680Y-71352619D01*
X72136861Y-74944800D01*
X72170346Y-75006123D01*
X72165362Y-75075815D01*
X72123490Y-75131748D01*
X72058026Y-75156165D01*
X72014246Y-75151458D01*
X71928564Y-75126300D01*
X71928561Y-75126300D01*
X71784639Y-75126300D01*
X71784636Y-75126300D01*
X71646549Y-75166845D01*
X71525473Y-75244656D01*
X71431223Y-75353426D01*
X71431222Y-75353428D01*
X71371434Y-75484343D01*
X71350953Y-75626800D01*
X71371434Y-75769256D01*
X71403377Y-75839200D01*
X71431223Y-75900173D01*
X71525472Y-76008943D01*
X71646547Y-76086753D01*
X71646550Y-76086754D01*
X71646549Y-76086754D01*
X71784636Y-76127299D01*
X71784638Y-76127300D01*
X71784639Y-76127300D01*
X71928562Y-76127300D01*
X71928562Y-76127299D01*
X72066653Y-76086753D01*
X72187728Y-76008943D01*
X72281977Y-75900173D01*
X72341765Y-75769257D01*
X72362247Y-75626800D01*
X72341765Y-75484343D01*
X72339536Y-75476753D01*
X72339532Y-75406883D01*
X72377304Y-75348103D01*
X72440858Y-75319075D01*
X72510017Y-75329015D01*
X72546192Y-75354131D01*
X74146693Y-76954632D01*
X74180178Y-77015955D01*
X74175194Y-77085647D01*
X74133322Y-77141580D01*
X74093090Y-77159526D01*
X74093614Y-77161251D01*
X74087777Y-77163021D01*
X73960305Y-77215821D01*
X73960292Y-77215828D01*
X73845568Y-77292485D01*
X73845564Y-77292488D01*
X73747998Y-77390054D01*
X73747995Y-77390058D01*
X73671338Y-77504782D01*
X73671331Y-77504795D01*
X73618531Y-77632267D01*
X73618528Y-77632277D01*
X73591610Y-77767604D01*
X73591610Y-77767607D01*
X73591610Y-79105593D01*
X73591610Y-79105595D01*
X73591609Y-79105595D01*
X73618528Y-79240922D01*
X73618531Y-79240932D01*
X73671331Y-79368404D01*
X73671338Y-79368417D01*
X73747995Y-79483141D01*
X73747998Y-79483145D01*
X73845564Y-79580711D01*
X73845568Y-79580714D01*
X73960292Y-79657371D01*
X73960305Y-79657378D01*
X74082408Y-79707954D01*
X74087782Y-79710180D01*
X74087786Y-79710180D01*
X74087787Y-79710181D01*
X74223114Y-79737100D01*
X74223117Y-79737100D01*
X74361105Y-79737100D01*
X74452151Y-79718989D01*
X74496438Y-79710180D01*
X74623921Y-79657375D01*
X74738652Y-79580714D01*
X74836224Y-79483142D01*
X74912885Y-79368411D01*
X74965690Y-79240928D01*
X74978614Y-79175954D01*
X74992610Y-79105595D01*
X74992610Y-77767604D01*
X74965691Y-77632277D01*
X74965690Y-77632276D01*
X74965690Y-77632272D01*
X74965688Y-77632267D01*
X74912888Y-77504795D01*
X74912883Y-77504786D01*
X74912086Y-77503593D01*
X74911860Y-77502871D01*
X74910012Y-77499414D01*
X74910667Y-77499063D01*
X74891207Y-77436916D01*
X74909690Y-77369535D01*
X74961668Y-77322844D01*
X75015187Y-77310700D01*
X82209033Y-77310700D01*
X82276072Y-77330385D01*
X82321827Y-77383189D01*
X82331771Y-77452347D01*
X82313815Y-77499204D01*
X82314208Y-77499414D01*
X82312538Y-77502538D01*
X82312134Y-77503593D01*
X82311336Y-77504786D01*
X82311331Y-77504795D01*
X82258531Y-77632267D01*
X82258528Y-77632277D01*
X82231610Y-77767604D01*
X82231610Y-77767607D01*
X82231610Y-79105593D01*
X82231610Y-79105595D01*
X82231609Y-79105595D01*
X82258528Y-79240922D01*
X82258531Y-79240932D01*
X82311331Y-79368404D01*
X82311338Y-79368417D01*
X82387995Y-79483141D01*
X82387998Y-79483145D01*
X82485564Y-79580711D01*
X82485568Y-79580714D01*
X82600292Y-79657371D01*
X82600305Y-79657378D01*
X82722408Y-79707954D01*
X82727782Y-79710180D01*
X82727786Y-79710180D01*
X82727787Y-79710181D01*
X82863114Y-79737100D01*
X82863117Y-79737100D01*
X83001105Y-79737100D01*
X83092151Y-79718989D01*
X83136438Y-79710180D01*
X83263921Y-79657375D01*
X83378652Y-79580714D01*
X83476224Y-79483142D01*
X83531511Y-79400400D01*
X84279553Y-79400400D01*
X84300034Y-79542856D01*
X84359822Y-79673771D01*
X84359823Y-79673773D01*
X84454072Y-79782543D01*
X84575147Y-79860353D01*
X84575150Y-79860354D01*
X84575149Y-79860354D01*
X84713236Y-79900899D01*
X84713238Y-79900900D01*
X84713239Y-79900900D01*
X84857162Y-79900900D01*
X84857162Y-79900899D01*
X84995253Y-79860353D01*
X85116328Y-79782543D01*
X85210577Y-79673773D01*
X85270365Y-79542857D01*
X85290847Y-79400400D01*
X85270365Y-79257943D01*
X85210577Y-79127027D01*
X85116328Y-79018257D01*
X84995253Y-78940447D01*
X84995251Y-78940446D01*
X84995249Y-78940445D01*
X84995250Y-78940445D01*
X84857163Y-78899900D01*
X84857161Y-78899900D01*
X84713239Y-78899900D01*
X84713236Y-78899900D01*
X84575149Y-78940445D01*
X84454073Y-79018256D01*
X84359823Y-79127026D01*
X84359822Y-79127028D01*
X84300034Y-79257943D01*
X84279553Y-79400400D01*
X83531511Y-79400400D01*
X83552885Y-79368411D01*
X83605690Y-79240928D01*
X83618614Y-79175954D01*
X83632610Y-79105595D01*
X83632610Y-78716000D01*
X90762553Y-78716000D01*
X90783034Y-78858456D01*
X90820478Y-78940445D01*
X90842823Y-78989373D01*
X90937072Y-79098143D01*
X91058147Y-79175953D01*
X91058150Y-79175954D01*
X91058149Y-79175954D01*
X91196236Y-79216499D01*
X91196238Y-79216500D01*
X91196239Y-79216500D01*
X91340162Y-79216500D01*
X91340162Y-79216499D01*
X91478253Y-79175953D01*
X91599328Y-79098143D01*
X91693577Y-78989373D01*
X91753365Y-78858457D01*
X91773847Y-78716000D01*
X91753365Y-78573543D01*
X91693577Y-78442627D01*
X91599328Y-78333857D01*
X91478253Y-78256047D01*
X91478251Y-78256046D01*
X91478249Y-78256045D01*
X91478250Y-78256045D01*
X91340163Y-78215500D01*
X91340161Y-78215500D01*
X91196239Y-78215500D01*
X91196236Y-78215500D01*
X91058149Y-78256045D01*
X90937073Y-78333856D01*
X90842823Y-78442626D01*
X90842822Y-78442628D01*
X90783034Y-78573543D01*
X90762553Y-78716000D01*
X83632610Y-78716000D01*
X83632610Y-77767604D01*
X83612200Y-77665000D01*
X100514153Y-77665000D01*
X100534634Y-77807456D01*
X100588828Y-77926122D01*
X100594423Y-77938373D01*
X100688672Y-78047143D01*
X100809747Y-78124953D01*
X100809750Y-78124954D01*
X100809749Y-78124954D01*
X100947836Y-78165499D01*
X100947838Y-78165500D01*
X100947839Y-78165500D01*
X101091762Y-78165500D01*
X101091762Y-78165499D01*
X101229853Y-78124953D01*
X101350928Y-78047143D01*
X101445177Y-77938373D01*
X101504965Y-77807457D01*
X101525447Y-77665000D01*
X101504965Y-77522543D01*
X101445177Y-77391627D01*
X101350928Y-77282857D01*
X101229853Y-77205047D01*
X101229851Y-77205046D01*
X101229849Y-77205045D01*
X101229850Y-77205045D01*
X101091763Y-77164500D01*
X101091761Y-77164500D01*
X100947839Y-77164500D01*
X100947836Y-77164500D01*
X100809749Y-77205045D01*
X100688673Y-77282856D01*
X100688672Y-77282856D01*
X100688672Y-77282857D01*
X100680327Y-77292488D01*
X100594423Y-77391626D01*
X100594422Y-77391628D01*
X100534634Y-77522543D01*
X100514153Y-77665000D01*
X83612200Y-77665000D01*
X83605691Y-77632277D01*
X83605690Y-77632276D01*
X83605690Y-77632272D01*
X83605688Y-77632267D01*
X83552888Y-77504795D01*
X83552883Y-77504786D01*
X83552086Y-77503593D01*
X83551860Y-77502871D01*
X83550012Y-77499414D01*
X83550667Y-77499063D01*
X83531207Y-77436916D01*
X83549690Y-77369535D01*
X83601668Y-77322844D01*
X83655187Y-77310700D01*
X86971872Y-77310700D01*
X86971874Y-77310700D01*
X86971875Y-77310700D01*
X87111885Y-77273184D01*
X87237415Y-77200710D01*
X87593910Y-76844215D01*
X87666384Y-76718685D01*
X87703899Y-76578674D01*
X87703899Y-76433726D01*
X87666384Y-76293715D01*
X87593910Y-76168185D01*
X87491415Y-76065690D01*
X87365885Y-75993216D01*
X87225874Y-75955701D01*
X87080926Y-75955701D01*
X86940914Y-75993216D01*
X86815386Y-76065689D01*
X86815383Y-76065691D01*
X86707694Y-76173381D01*
X86646371Y-76206866D01*
X86620013Y-76209700D01*
X85390569Y-76209700D01*
X85323530Y-76190015D01*
X85277775Y-76137211D01*
X85267831Y-76068053D01*
X85277775Y-76034189D01*
X85296486Y-75993216D01*
X85301765Y-75981657D01*
X85322247Y-75839200D01*
X85301765Y-75696743D01*
X85241977Y-75565827D01*
X85147728Y-75457057D01*
X85026653Y-75379247D01*
X85026651Y-75379246D01*
X85026649Y-75379245D01*
X85026650Y-75379245D01*
X84888563Y-75338700D01*
X84888561Y-75338700D01*
X84744639Y-75338700D01*
X84744636Y-75338700D01*
X84606549Y-75379245D01*
X84485473Y-75457056D01*
X84485472Y-75457056D01*
X84485472Y-75457057D01*
X84485194Y-75457378D01*
X84391223Y-75565826D01*
X84391222Y-75565828D01*
X84331434Y-75696743D01*
X84310953Y-75839200D01*
X84331434Y-75981657D01*
X84331435Y-75981658D01*
X84355425Y-76034189D01*
X84365369Y-76103347D01*
X84336344Y-76166903D01*
X84277566Y-76204677D01*
X84242631Y-76209700D01*
X75010173Y-76209700D01*
X74943134Y-76190015D01*
X74922492Y-76173381D01*
X74459973Y-75710862D01*
X74426488Y-75649539D01*
X74431472Y-75579847D01*
X74473344Y-75523914D01*
X74500193Y-75508624D01*
X74623921Y-75457375D01*
X74738652Y-75380714D01*
X74836224Y-75283142D01*
X74912885Y-75168411D01*
X74965690Y-75040928D01*
X74992610Y-74905593D01*
X74992610Y-74414038D01*
X75012295Y-74346999D01*
X75065099Y-74301244D01*
X75134257Y-74291300D01*
X75183651Y-74309724D01*
X75202057Y-74321553D01*
X75202059Y-74321554D01*
X75340146Y-74362099D01*
X75340148Y-74362100D01*
X75340149Y-74362100D01*
X75484072Y-74362100D01*
X75484072Y-74362099D01*
X75622160Y-74321554D01*
X75622161Y-74321554D01*
X75640569Y-74309724D01*
X75743238Y-74243743D01*
X75743239Y-74243741D01*
X75745070Y-74242565D01*
X75812110Y-74222880D01*
X75879149Y-74242564D01*
X75879150Y-74242565D01*
X75880980Y-74243741D01*
X75880982Y-74243743D01*
X75953019Y-74290038D01*
X76002058Y-74321554D01*
X76140146Y-74362099D01*
X76140148Y-74362100D01*
X76140149Y-74362100D01*
X76284072Y-74362100D01*
X76284072Y-74362099D01*
X76422163Y-74321553D01*
X76543238Y-74243743D01*
X76637487Y-74134973D01*
X76697275Y-74004057D01*
X76713605Y-73890472D01*
X76742629Y-73826918D01*
X76748648Y-73820454D01*
X77600684Y-72968419D01*
X77662007Y-72934934D01*
X77688365Y-72932100D01*
X79091113Y-72932100D01*
X79123204Y-72936324D01*
X79160433Y-72946300D01*
X79265887Y-72946300D01*
X80487610Y-72946300D01*
X80554649Y-72965985D01*
X80600404Y-73018789D01*
X80611610Y-73070300D01*
X80611610Y-73513267D01*
X80591925Y-73580306D01*
X80591204Y-73581269D01*
X80586732Y-73588228D01*
X80526944Y-73719143D01*
X80506463Y-73861600D01*
X80526944Y-74004056D01*
X80586732Y-74134971D01*
X80586733Y-74134973D01*
X80680982Y-74243743D01*
X80802057Y-74321553D01*
X80802060Y-74321554D01*
X80802059Y-74321554D01*
X80940146Y-74362099D01*
X80940148Y-74362100D01*
X80940149Y-74362100D01*
X81084072Y-74362100D01*
X81084072Y-74362099D01*
X81222160Y-74321554D01*
X81222161Y-74321554D01*
X81240569Y-74309724D01*
X81343238Y-74243743D01*
X81343239Y-74243741D01*
X81345070Y-74242565D01*
X81412110Y-74222880D01*
X81479149Y-74242564D01*
X81479150Y-74242565D01*
X81480980Y-74243741D01*
X81480982Y-74243743D01*
X81553019Y-74290038D01*
X81602058Y-74321554D01*
X81740146Y-74362099D01*
X81740148Y-74362100D01*
X81740149Y-74362100D01*
X81884072Y-74362100D01*
X81884072Y-74362099D01*
X82022163Y-74321553D01*
X82040569Y-74309723D01*
X82107608Y-74290038D01*
X82174648Y-74309721D01*
X82220403Y-74362525D01*
X82231610Y-74414038D01*
X82231610Y-74905593D01*
X82231610Y-74905595D01*
X82231609Y-74905595D01*
X82258528Y-75040922D01*
X82258531Y-75040932D01*
X82311331Y-75168404D01*
X82311338Y-75168417D01*
X82387995Y-75283141D01*
X82387998Y-75283145D01*
X82485564Y-75380711D01*
X82485568Y-75380714D01*
X82600292Y-75457371D01*
X82600305Y-75457378D01*
X82703205Y-75500000D01*
X82727782Y-75510180D01*
X82727786Y-75510180D01*
X82727787Y-75510181D01*
X82863114Y-75537100D01*
X82863117Y-75537100D01*
X83001105Y-75537100D01*
X83098894Y-75517648D01*
X83136438Y-75510180D01*
X83263921Y-75457375D01*
X83378652Y-75380714D01*
X83476224Y-75283142D01*
X83552885Y-75168411D01*
X83605690Y-75040928D01*
X83613831Y-75000000D01*
X105469153Y-75000000D01*
X105489634Y-75142456D01*
X105536308Y-75244656D01*
X105549423Y-75273373D01*
X105643672Y-75382143D01*
X105651124Y-75386932D01*
X105664743Y-75395685D01*
X105710498Y-75448489D01*
X105720441Y-75517648D01*
X105691415Y-75581203D01*
X105664743Y-75604315D01*
X105643674Y-75617855D01*
X105549423Y-75726626D01*
X105549422Y-75726628D01*
X105489634Y-75857543D01*
X105469153Y-76000000D01*
X105489634Y-76142456D01*
X105549422Y-76273371D01*
X105549423Y-76273373D01*
X105643672Y-76382143D01*
X105764747Y-76459953D01*
X105764750Y-76459954D01*
X105764749Y-76459954D01*
X105871907Y-76491417D01*
X105895731Y-76498413D01*
X105902836Y-76500499D01*
X105902838Y-76500500D01*
X105902839Y-76500500D01*
X106046762Y-76500500D01*
X106046762Y-76500499D01*
X106184853Y-76459953D01*
X106305928Y-76382143D01*
X106400177Y-76273373D01*
X106459965Y-76142457D01*
X106480447Y-76000000D01*
X106459965Y-75857543D01*
X106400177Y-75726627D01*
X106305928Y-75617857D01*
X106305925Y-75617855D01*
X106305925Y-75617854D01*
X106284858Y-75604316D01*
X106239102Y-75551513D01*
X106229158Y-75482354D01*
X106258182Y-75418798D01*
X106284858Y-75395684D01*
X106305925Y-75382145D01*
X106305925Y-75382144D01*
X106305928Y-75382143D01*
X106400177Y-75273373D01*
X106459965Y-75142457D01*
X106480447Y-75000000D01*
X106459965Y-74857543D01*
X106400177Y-74726627D01*
X106305928Y-74617857D01*
X106184853Y-74540047D01*
X106184851Y-74540046D01*
X106184849Y-74540045D01*
X106184850Y-74540045D01*
X106046763Y-74499500D01*
X106046761Y-74499500D01*
X105902839Y-74499500D01*
X105902836Y-74499500D01*
X105764749Y-74540045D01*
X105643673Y-74617856D01*
X105549423Y-74726626D01*
X105549422Y-74726628D01*
X105489634Y-74857543D01*
X105469153Y-75000000D01*
X83613831Y-75000000D01*
X83632610Y-74905593D01*
X83632610Y-74220200D01*
X100820953Y-74220200D01*
X100841434Y-74362656D01*
X100864900Y-74414038D01*
X100901223Y-74493573D01*
X100995472Y-74602343D01*
X101116547Y-74680153D01*
X101116550Y-74680154D01*
X101116549Y-74680154D01*
X101254636Y-74720699D01*
X101254638Y-74720700D01*
X101254639Y-74720700D01*
X101398562Y-74720700D01*
X101398562Y-74720699D01*
X101536653Y-74680153D01*
X101657728Y-74602343D01*
X101751977Y-74493573D01*
X101811765Y-74362657D01*
X101832247Y-74220200D01*
X101811765Y-74077743D01*
X101751977Y-73946827D01*
X101657728Y-73838057D01*
X101536653Y-73760247D01*
X101536651Y-73760246D01*
X101536649Y-73760245D01*
X101536650Y-73760245D01*
X101398563Y-73719700D01*
X101398561Y-73719700D01*
X101337675Y-73719700D01*
X101270636Y-73700015D01*
X101247322Y-73673110D01*
X101232438Y-73705703D01*
X101173660Y-73743477D01*
X101173659Y-73743477D01*
X101116549Y-73760245D01*
X100995473Y-73838056D01*
X100901223Y-73946826D01*
X100901222Y-73946828D01*
X100841434Y-74077743D01*
X100820953Y-74220200D01*
X83632610Y-74220200D01*
X83632610Y-73967607D01*
X83632610Y-73967604D01*
X83605691Y-73832277D01*
X83605690Y-73832276D01*
X83605690Y-73832272D01*
X83577077Y-73763193D01*
X83552888Y-73704795D01*
X83552881Y-73704782D01*
X83476224Y-73590058D01*
X83476221Y-73590054D01*
X83378655Y-73492488D01*
X83378651Y-73492485D01*
X83263927Y-73415828D01*
X83263914Y-73415821D01*
X83136442Y-73363021D01*
X83136432Y-73363018D01*
X83001105Y-73336100D01*
X83001103Y-73336100D01*
X82863117Y-73336100D01*
X82863115Y-73336100D01*
X82727787Y-73363018D01*
X82727777Y-73363021D01*
X82600305Y-73415821D01*
X82600292Y-73415828D01*
X82485568Y-73492485D01*
X82402385Y-73575668D01*
X82341061Y-73609152D01*
X82271370Y-73604168D01*
X82220991Y-73569189D01*
X82201044Y-73546169D01*
X82143238Y-73479457D01*
X82022163Y-73401647D01*
X82022161Y-73401646D01*
X82022159Y-73401645D01*
X82022160Y-73401645D01*
X81884073Y-73361100D01*
X81884071Y-73361100D01*
X81740149Y-73361100D01*
X81740146Y-73361100D01*
X81602059Y-73401645D01*
X81593992Y-73405330D01*
X81593238Y-73403681D01*
X81536608Y-73420308D01*
X81469569Y-73400622D01*
X81423815Y-73347818D01*
X81412610Y-73296308D01*
X81412610Y-73014000D01*
X94724953Y-73014000D01*
X94745434Y-73156456D01*
X94798828Y-73273371D01*
X94805223Y-73287373D01*
X94899472Y-73396143D01*
X95020547Y-73473953D01*
X95020550Y-73473954D01*
X95020549Y-73473954D01*
X95158636Y-73514499D01*
X95158638Y-73514500D01*
X95158639Y-73514500D01*
X95302562Y-73514500D01*
X95302562Y-73514499D01*
X95440653Y-73473953D01*
X95561728Y-73396143D01*
X95655977Y-73287373D01*
X95715253Y-73157577D01*
X95761008Y-73104774D01*
X95828047Y-73085090D01*
X95862981Y-73090113D01*
X95946036Y-73114499D01*
X95946038Y-73114500D01*
X95946039Y-73114500D01*
X96089962Y-73114500D01*
X96089962Y-73114499D01*
X96228053Y-73073953D01*
X96349128Y-72996143D01*
X96443377Y-72887373D01*
X96503165Y-72756457D01*
X96523647Y-72614000D01*
X96503165Y-72471543D01*
X96443377Y-72340627D01*
X96349128Y-72231857D01*
X96228053Y-72154047D01*
X96228051Y-72154046D01*
X96228049Y-72154045D01*
X96228050Y-72154045D01*
X96089963Y-72113500D01*
X96089961Y-72113500D01*
X95946039Y-72113500D01*
X95946036Y-72113500D01*
X95807949Y-72154045D01*
X95686873Y-72231856D01*
X95592623Y-72340626D01*
X95592622Y-72340628D01*
X95533347Y-72470422D01*
X95487592Y-72523226D01*
X95420553Y-72542910D01*
X95385619Y-72537887D01*
X95302563Y-72513500D01*
X95302561Y-72513500D01*
X95158639Y-72513500D01*
X95158636Y-72513500D01*
X95020549Y-72554045D01*
X94899473Y-72631856D01*
X94805223Y-72740626D01*
X94805222Y-72740628D01*
X94745434Y-72871543D01*
X94724953Y-73014000D01*
X81412610Y-73014000D01*
X81412610Y-72663354D01*
X81432295Y-72596315D01*
X81448929Y-72575673D01*
X81796249Y-72228354D01*
X81882147Y-72142456D01*
X82024602Y-72000000D01*
X100378753Y-72000000D01*
X100399234Y-72142456D01*
X100440063Y-72231857D01*
X100459023Y-72273373D01*
X100553272Y-72382143D01*
X100674347Y-72459953D01*
X100713339Y-72471402D01*
X100772117Y-72509174D01*
X100801143Y-72572729D01*
X100791202Y-72641888D01*
X100772120Y-72671581D01*
X100724423Y-72726627D01*
X100724422Y-72726628D01*
X100664634Y-72857543D01*
X100644153Y-73000000D01*
X100664634Y-73142456D01*
X100705040Y-73230931D01*
X100724423Y-73273373D01*
X100818672Y-73382143D01*
X100939747Y-73459953D01*
X100939750Y-73459954D01*
X100939749Y-73459954D01*
X101077836Y-73500499D01*
X101077838Y-73500500D01*
X101138725Y-73500500D01*
X101205764Y-73520185D01*
X101229077Y-73547089D01*
X101243962Y-73514497D01*
X101302740Y-73476723D01*
X101302741Y-73476723D01*
X101359850Y-73459954D01*
X101359850Y-73459953D01*
X101359853Y-73459953D01*
X101480928Y-73382143D01*
X101575177Y-73273373D01*
X101634965Y-73142457D01*
X101655447Y-73000000D01*
X101634965Y-72857543D01*
X101575177Y-72726627D01*
X101480928Y-72617857D01*
X101359853Y-72540047D01*
X101359851Y-72540046D01*
X101359849Y-72540045D01*
X101359851Y-72540045D01*
X101320859Y-72528597D01*
X101262081Y-72490824D01*
X101233055Y-72427268D01*
X101242998Y-72358109D01*
X101262077Y-72328422D01*
X101309777Y-72273373D01*
X101369565Y-72142457D01*
X101390047Y-72000000D01*
X101369565Y-71857543D01*
X101309777Y-71726627D01*
X101215528Y-71617857D01*
X101094453Y-71540047D01*
X101094451Y-71540046D01*
X101094449Y-71540045D01*
X101094450Y-71540045D01*
X100956363Y-71499500D01*
X100956361Y-71499500D01*
X100812439Y-71499500D01*
X100812436Y-71499500D01*
X100674349Y-71540045D01*
X100553273Y-71617856D01*
X100553272Y-71617856D01*
X100553272Y-71617857D01*
X100549660Y-71622026D01*
X100459023Y-71726626D01*
X100459022Y-71726628D01*
X100399234Y-71857543D01*
X100378753Y-72000000D01*
X82024602Y-72000000D01*
X82342863Y-71681737D01*
X82342868Y-71681734D01*
X82353071Y-71671530D01*
X82353073Y-71671530D01*
X82906702Y-71117900D01*
X82968023Y-71084417D01*
X83037714Y-71089401D01*
X83093648Y-71131272D01*
X83118065Y-71196737D01*
X83117153Y-71222318D01*
X83117153Y-71222999D01*
X83137634Y-71365456D01*
X83149185Y-71390748D01*
X83197423Y-71496373D01*
X83291672Y-71605143D01*
X83412747Y-71682953D01*
X83412750Y-71682954D01*
X83412749Y-71682954D01*
X83550836Y-71723499D01*
X83550838Y-71723500D01*
X83550839Y-71723500D01*
X83694762Y-71723500D01*
X83694762Y-71723499D01*
X83817800Y-71687373D01*
X83832850Y-71682954D01*
X83832850Y-71682953D01*
X83832853Y-71682953D01*
X83953928Y-71605143D01*
X84048177Y-71496373D01*
X84107965Y-71365457D01*
X84128447Y-71223000D01*
X84107965Y-71080543D01*
X84048177Y-70949627D01*
X83953928Y-70840857D01*
X83832853Y-70763047D01*
X83832851Y-70763046D01*
X83832849Y-70763045D01*
X83832850Y-70763045D01*
X83694763Y-70722500D01*
X83694761Y-70722500D01*
X83601465Y-70722500D01*
X83534426Y-70702815D01*
X83488671Y-70650011D01*
X83478727Y-70580853D01*
X83507752Y-70517297D01*
X83513784Y-70510819D01*
X84357115Y-69667488D01*
X84884402Y-69140200D01*
X94089953Y-69140200D01*
X94110434Y-69282656D01*
X94170222Y-69413571D01*
X94170223Y-69413573D01*
X94264472Y-69522343D01*
X94385547Y-69600153D01*
X94385550Y-69600154D01*
X94385549Y-69600154D01*
X94523636Y-69640699D01*
X94523638Y-69640700D01*
X94523639Y-69640700D01*
X94667562Y-69640700D01*
X94667562Y-69640699D01*
X94805653Y-69600153D01*
X94926728Y-69522343D01*
X95020977Y-69413573D01*
X95080765Y-69282657D01*
X95101247Y-69140200D01*
X95080765Y-68997743D01*
X95020977Y-68866827D01*
X94926728Y-68758057D01*
X94805653Y-68680247D01*
X94805651Y-68680246D01*
X94805649Y-68680245D01*
X94805650Y-68680245D01*
X94667563Y-68639700D01*
X94667561Y-68639700D01*
X94523639Y-68639700D01*
X94523636Y-68639700D01*
X94385549Y-68680245D01*
X94264473Y-68758056D01*
X94170223Y-68866826D01*
X94170222Y-68866828D01*
X94110434Y-68997743D01*
X94089953Y-69140200D01*
X84884402Y-69140200D01*
X85234802Y-68789800D01*
X85287547Y-68758506D01*
X85403860Y-68724354D01*
X85403860Y-68724353D01*
X85403863Y-68724353D01*
X85524938Y-68646543D01*
X85619187Y-68537773D01*
X85678975Y-68406857D01*
X85699457Y-68264400D01*
X86413163Y-68264400D01*
X86433644Y-68406856D01*
X86478401Y-68504858D01*
X86493433Y-68537773D01*
X86587682Y-68646543D01*
X86708757Y-68724353D01*
X86708760Y-68724354D01*
X86708759Y-68724354D01*
X86846846Y-68764899D01*
X86846848Y-68764900D01*
X86846849Y-68764900D01*
X86990772Y-68764900D01*
X86990772Y-68764899D01*
X87128863Y-68724353D01*
X87249938Y-68646543D01*
X87328393Y-68556000D01*
X95563153Y-68556000D01*
X95583634Y-68698456D01*
X95613978Y-68764899D01*
X95643423Y-68829373D01*
X95737672Y-68938143D01*
X95858747Y-69015953D01*
X95858750Y-69015954D01*
X95858749Y-69015954D01*
X95996836Y-69056499D01*
X95996838Y-69056500D01*
X95996839Y-69056500D01*
X96140762Y-69056500D01*
X96140762Y-69056499D01*
X96278853Y-69015953D01*
X96399928Y-68938143D01*
X96494177Y-68829373D01*
X96553965Y-68698457D01*
X96574447Y-68556000D01*
X96553965Y-68413543D01*
X96494177Y-68282627D01*
X96399928Y-68173857D01*
X96278853Y-68096047D01*
X96278851Y-68096046D01*
X96278849Y-68096045D01*
X96278850Y-68096045D01*
X96140763Y-68055500D01*
X96140761Y-68055500D01*
X95996839Y-68055500D01*
X95996836Y-68055500D01*
X95858749Y-68096045D01*
X95737673Y-68173856D01*
X95643423Y-68282626D01*
X95643422Y-68282628D01*
X95583634Y-68413543D01*
X95563153Y-68556000D01*
X87328393Y-68556000D01*
X87344187Y-68537773D01*
X87403975Y-68406857D01*
X87424457Y-68264400D01*
X87403975Y-68121943D01*
X87344187Y-67991027D01*
X87249938Y-67882257D01*
X87128863Y-67804447D01*
X87128861Y-67804446D01*
X87128859Y-67804445D01*
X87128860Y-67804445D01*
X86990773Y-67763900D01*
X86990771Y-67763900D01*
X86846849Y-67763900D01*
X86846846Y-67763900D01*
X86708759Y-67804445D01*
X86587683Y-67882256D01*
X86493433Y-67991026D01*
X86493432Y-67991028D01*
X86433644Y-68121943D01*
X86413163Y-68264400D01*
X85699457Y-68264400D01*
X85678975Y-68121943D01*
X85619187Y-67991027D01*
X85524938Y-67882257D01*
X85403863Y-67804447D01*
X85403861Y-67804446D01*
X85403859Y-67804445D01*
X85403860Y-67804445D01*
X85265773Y-67763900D01*
X85265771Y-67763900D01*
X85121849Y-67763900D01*
X85121846Y-67763900D01*
X84983759Y-67804445D01*
X84862683Y-67882256D01*
X84768433Y-67991026D01*
X84768432Y-67991028D01*
X84708645Y-68121941D01*
X84708644Y-68121945D01*
X84704236Y-68152604D01*
X84675210Y-68216159D01*
X84669179Y-68222636D01*
X81786680Y-71105137D01*
X81786678Y-71105139D01*
X81227698Y-71664120D01*
X80782836Y-72108981D01*
X80721513Y-72142466D01*
X80695155Y-72145300D01*
X80135753Y-72145300D01*
X80068714Y-72125615D01*
X80022959Y-72072811D01*
X80013015Y-72003653D01*
X80039749Y-71945112D01*
X80039502Y-71944954D01*
X80040607Y-71943233D01*
X80042039Y-71940098D01*
X80044297Y-71937493D01*
X80104085Y-71806577D01*
X80124567Y-71664120D01*
X80104085Y-71521663D01*
X80044297Y-71390747D01*
X79950048Y-71281977D01*
X79828973Y-71204167D01*
X79828971Y-71204166D01*
X79828969Y-71204165D01*
X79828970Y-71204165D01*
X79690883Y-71163620D01*
X79690881Y-71163620D01*
X79546959Y-71163620D01*
X79546956Y-71163620D01*
X79408869Y-71204165D01*
X79287793Y-71281976D01*
X79193543Y-71390746D01*
X79193542Y-71390748D01*
X79133754Y-71521663D01*
X79113273Y-71664120D01*
X79133754Y-71806576D01*
X79162336Y-71869161D01*
X79193543Y-71937493D01*
X79193545Y-71937495D01*
X79195192Y-71940058D01*
X79196052Y-71942987D01*
X79197227Y-71945560D01*
X79196857Y-71945728D01*
X79214878Y-72007097D01*
X79195195Y-72074137D01*
X79142393Y-72119893D01*
X79090878Y-72131100D01*
X77418383Y-72131100D01*
X77316520Y-72158393D01*
X77225197Y-72211120D01*
X77225194Y-72211122D01*
X76070605Y-73365710D01*
X76017865Y-73397004D01*
X76002063Y-73401644D01*
X76002055Y-73401648D01*
X75879149Y-73480635D01*
X75812110Y-73500319D01*
X75745071Y-73480635D01*
X75734674Y-73473953D01*
X75622163Y-73401647D01*
X75622161Y-73401646D01*
X75622159Y-73401645D01*
X75622160Y-73401645D01*
X75484073Y-73361100D01*
X75484071Y-73361100D01*
X75340149Y-73361100D01*
X75340146Y-73361100D01*
X75202059Y-73401645D01*
X75080982Y-73479456D01*
X75003227Y-73569190D01*
X74944449Y-73606963D01*
X74874579Y-73606963D01*
X74821834Y-73575667D01*
X74738655Y-73492488D01*
X74738651Y-73492485D01*
X74623927Y-73415828D01*
X74623914Y-73415821D01*
X74496442Y-73363021D01*
X74496432Y-73363018D01*
X74361105Y-73336100D01*
X74361103Y-73336100D01*
X74223117Y-73336100D01*
X74223115Y-73336100D01*
X74087787Y-73363018D01*
X74087777Y-73363021D01*
X73960305Y-73415821D01*
X73960292Y-73415828D01*
X73845568Y-73492485D01*
X73845564Y-73492488D01*
X73747998Y-73590054D01*
X73747995Y-73590058D01*
X73671338Y-73704782D01*
X73671331Y-73704795D01*
X73618531Y-73832267D01*
X73618528Y-73832277D01*
X73591610Y-73967604D01*
X73591610Y-74543137D01*
X73571925Y-74610176D01*
X73519121Y-74655931D01*
X73449963Y-74665875D01*
X73386407Y-74636850D01*
X73379929Y-74630818D01*
X70163111Y-71414000D01*
X73791563Y-71414000D01*
X73812044Y-71556456D01*
X73864598Y-71671530D01*
X73871833Y-71687373D01*
X73966082Y-71796143D01*
X74087157Y-71873953D01*
X74087160Y-71873954D01*
X74087159Y-71873954D01*
X74225246Y-71914499D01*
X74225248Y-71914500D01*
X74225249Y-71914500D01*
X74369172Y-71914500D01*
X74369172Y-71914499D01*
X74507263Y-71873953D01*
X74628338Y-71796143D01*
X74722587Y-71687373D01*
X74782375Y-71556457D01*
X74802857Y-71414000D01*
X74782375Y-71271543D01*
X74722587Y-71140627D01*
X74628338Y-71031857D01*
X74507263Y-70954047D01*
X74507261Y-70954046D01*
X74507259Y-70954045D01*
X74507260Y-70954045D01*
X74369173Y-70913500D01*
X74369171Y-70913500D01*
X74225249Y-70913500D01*
X74225246Y-70913500D01*
X74087159Y-70954045D01*
X73966083Y-71031856D01*
X73871833Y-71140626D01*
X73871832Y-71140628D01*
X73812044Y-71271543D01*
X73791563Y-71414000D01*
X70163111Y-71414000D01*
X69616511Y-70867400D01*
X77376753Y-70867400D01*
X77397234Y-71009856D01*
X77431286Y-71084417D01*
X77457023Y-71140773D01*
X77551272Y-71249543D01*
X77672347Y-71327353D01*
X77672350Y-71327354D01*
X77672349Y-71327354D01*
X77753696Y-71351239D01*
X77802115Y-71365456D01*
X77810436Y-71367899D01*
X77810438Y-71367900D01*
X77810439Y-71367900D01*
X77954362Y-71367900D01*
X77954362Y-71367899D01*
X78092453Y-71327353D01*
X78213528Y-71249543D01*
X78307777Y-71140773D01*
X78367565Y-71009857D01*
X78388047Y-70867400D01*
X78367565Y-70724943D01*
X78307777Y-70594027D01*
X78213528Y-70485257D01*
X78092453Y-70407447D01*
X78092451Y-70407446D01*
X78092449Y-70407445D01*
X78092450Y-70407445D01*
X77954363Y-70366900D01*
X77954361Y-70366900D01*
X77810439Y-70366900D01*
X77810436Y-70366900D01*
X77672349Y-70407445D01*
X77551273Y-70485256D01*
X77457023Y-70594026D01*
X77457022Y-70594028D01*
X77397234Y-70724943D01*
X77376753Y-70867400D01*
X69616511Y-70867400D01*
X69222599Y-70473488D01*
X69189114Y-70412165D01*
X69194098Y-70342473D01*
X69222599Y-70298126D01*
X69750743Y-69769982D01*
X70296510Y-69224215D01*
X70368984Y-69098685D01*
X70378154Y-69064461D01*
X70410245Y-69008878D01*
X72729524Y-66689600D01*
X74806463Y-66689600D01*
X74826944Y-66832056D01*
X74863532Y-66912171D01*
X74886733Y-66962973D01*
X74980982Y-67071743D01*
X75102057Y-67149553D01*
X75102060Y-67149554D01*
X75102059Y-67149554D01*
X75240146Y-67190099D01*
X75240148Y-67190100D01*
X75240149Y-67190100D01*
X75384072Y-67190100D01*
X75384072Y-67190099D01*
X75522160Y-67149554D01*
X75522161Y-67149554D01*
X75522163Y-67149553D01*
X75628729Y-67081066D01*
X75695769Y-67061382D01*
X75762808Y-67081066D01*
X75808563Y-67133870D01*
X75834243Y-67190100D01*
X75863344Y-67253821D01*
X75957593Y-67362591D01*
X76078668Y-67440401D01*
X76078671Y-67440402D01*
X76078670Y-67440402D01*
X76145260Y-67459954D01*
X76214001Y-67480138D01*
X76216757Y-67480947D01*
X76216759Y-67480948D01*
X76312888Y-67480948D01*
X76379927Y-67500633D01*
X76400569Y-67517267D01*
X77332213Y-68448911D01*
X77388162Y-68504860D01*
X77388164Y-68504861D01*
X77388168Y-68504864D01*
X77445166Y-68537771D01*
X77456684Y-68544421D01*
X77533111Y-68564900D01*
X77612235Y-68564900D01*
X81280909Y-68564900D01*
X81347948Y-68584585D01*
X81374621Y-68607696D01*
X81408282Y-68646543D01*
X81529357Y-68724353D01*
X81529360Y-68724354D01*
X81529359Y-68724354D01*
X81667446Y-68764899D01*
X81667448Y-68764900D01*
X81667449Y-68764900D01*
X81811372Y-68764900D01*
X81811372Y-68764899D01*
X81949463Y-68724353D01*
X82070538Y-68646543D01*
X82164787Y-68537773D01*
X82224575Y-68406857D01*
X82245057Y-68264400D01*
X82958763Y-68264400D01*
X82979244Y-68406856D01*
X83024001Y-68504858D01*
X83039033Y-68537773D01*
X83133282Y-68646543D01*
X83254357Y-68724353D01*
X83254360Y-68724354D01*
X83254359Y-68724354D01*
X83392446Y-68764899D01*
X83392448Y-68764900D01*
X83392449Y-68764900D01*
X83536372Y-68764900D01*
X83536372Y-68764899D01*
X83674463Y-68724353D01*
X83795538Y-68646543D01*
X83889787Y-68537773D01*
X83949575Y-68406857D01*
X83970057Y-68264400D01*
X83949575Y-68121943D01*
X83889787Y-67991027D01*
X83795538Y-67882257D01*
X83674463Y-67804447D01*
X83674461Y-67804446D01*
X83674459Y-67804445D01*
X83674460Y-67804445D01*
X83536373Y-67763900D01*
X83536371Y-67763900D01*
X83392449Y-67763900D01*
X83392446Y-67763900D01*
X83254359Y-67804445D01*
X83133283Y-67882256D01*
X83039033Y-67991026D01*
X83039032Y-67991028D01*
X82979244Y-68121943D01*
X82958763Y-68264400D01*
X82245057Y-68264400D01*
X82224575Y-68121943D01*
X82164787Y-67991027D01*
X82070538Y-67882257D01*
X81949463Y-67804447D01*
X81949461Y-67804446D01*
X81949459Y-67804445D01*
X81949460Y-67804445D01*
X81811373Y-67763900D01*
X81811371Y-67763900D01*
X81667449Y-67763900D01*
X81667446Y-67763900D01*
X81529359Y-67804445D01*
X81408283Y-67882256D01*
X81374622Y-67921103D01*
X81315843Y-67958877D01*
X81280909Y-67963900D01*
X77748506Y-67963900D01*
X77681467Y-67944215D01*
X77660825Y-67927581D01*
X76828116Y-67094872D01*
X76794631Y-67033549D01*
X76793060Y-66989542D01*
X76794368Y-66980448D01*
X76773886Y-66837991D01*
X76714098Y-66707075D01*
X76619849Y-66598305D01*
X76498774Y-66520495D01*
X76498772Y-66520494D01*
X76498770Y-66520493D01*
X76498771Y-66520493D01*
X76352173Y-66477449D01*
X76353093Y-66474315D01*
X76304048Y-66451912D01*
X76266278Y-66393131D01*
X76266284Y-66323261D01*
X76297577Y-66270525D01*
X76429802Y-66138300D01*
X77537882Y-65030220D01*
X77599201Y-64996738D01*
X77668893Y-65001722D01*
X77713240Y-65030223D01*
X78905013Y-66221996D01*
X78938498Y-66283319D01*
X78933514Y-66353011D01*
X78891642Y-66408944D01*
X78852267Y-66428654D01*
X78785424Y-66448280D01*
X78664348Y-66526091D01*
X78570098Y-66634861D01*
X78570097Y-66634863D01*
X78510309Y-66765778D01*
X78489828Y-66908235D01*
X78510309Y-67050691D01*
X78552218Y-67142457D01*
X78570098Y-67181608D01*
X78664347Y-67290378D01*
X78785422Y-67368188D01*
X78785425Y-67368189D01*
X78785424Y-67368189D01*
X78923511Y-67408734D01*
X78923513Y-67408735D01*
X78923514Y-67408735D01*
X79067437Y-67408735D01*
X79067437Y-67408734D01*
X79205528Y-67368188D01*
X79326603Y-67290378D01*
X79420852Y-67181608D01*
X79480640Y-67050692D01*
X79480641Y-67050684D01*
X79482598Y-67044021D01*
X79520371Y-66985242D01*
X79583926Y-66956216D01*
X79653085Y-66966157D01*
X79663574Y-66971564D01*
X79733622Y-67012007D01*
X79835483Y-67039300D01*
X79940937Y-67039300D01*
X81348536Y-67039300D01*
X81415574Y-67058984D01*
X81477459Y-67098754D01*
X81615546Y-67139299D01*
X81615548Y-67139300D01*
X81615549Y-67139300D01*
X81759472Y-67139300D01*
X81759472Y-67139299D01*
X81897563Y-67098753D01*
X82018638Y-67020943D01*
X82036785Y-67000000D01*
X90669153Y-67000000D01*
X90689634Y-67142456D01*
X90711393Y-67190100D01*
X90749423Y-67273373D01*
X90843672Y-67382143D01*
X90964747Y-67459953D01*
X90964750Y-67459954D01*
X90964749Y-67459954D01*
X91102836Y-67500499D01*
X91102838Y-67500500D01*
X91102839Y-67500500D01*
X91246762Y-67500500D01*
X91246762Y-67500499D01*
X91384853Y-67459953D01*
X91505928Y-67382143D01*
X91600177Y-67273373D01*
X91659965Y-67142457D01*
X91680447Y-67000000D01*
X91659965Y-66857543D01*
X91600177Y-66726627D01*
X91505928Y-66617857D01*
X91384853Y-66540047D01*
X91384851Y-66540046D01*
X91384849Y-66540045D01*
X91384850Y-66540045D01*
X91246763Y-66499500D01*
X91246761Y-66499500D01*
X91102839Y-66499500D01*
X91102836Y-66499500D01*
X90964749Y-66540045D01*
X90843673Y-66617856D01*
X90749423Y-66726626D01*
X90749422Y-66726628D01*
X90689634Y-66857543D01*
X90669153Y-67000000D01*
X82036785Y-67000000D01*
X82112887Y-66912173D01*
X82172675Y-66781257D01*
X82193157Y-66638800D01*
X82172675Y-66496343D01*
X82112887Y-66365427D01*
X82018638Y-66256657D01*
X81897563Y-66178847D01*
X81897561Y-66178846D01*
X81897559Y-66178845D01*
X81897560Y-66178845D01*
X81759473Y-66138300D01*
X81759471Y-66138300D01*
X81615549Y-66138300D01*
X81615546Y-66138300D01*
X81477460Y-66178845D01*
X81477458Y-66178845D01*
X81415574Y-66218616D01*
X81348536Y-66238300D01*
X80105465Y-66238300D01*
X80038426Y-66218615D01*
X80017784Y-66201981D01*
X79063791Y-65247988D01*
X79030306Y-65186665D01*
X79035290Y-65116973D01*
X79077162Y-65061040D01*
X79116538Y-65041330D01*
X79202960Y-65015954D01*
X79202960Y-65015953D01*
X79202963Y-65015953D01*
X79324038Y-64938143D01*
X79345131Y-64913800D01*
X81181863Y-64913800D01*
X81202344Y-65056256D01*
X81204529Y-65061040D01*
X81262133Y-65187173D01*
X81356382Y-65295943D01*
X81477457Y-65373753D01*
X81477460Y-65373754D01*
X81477459Y-65373754D01*
X81615546Y-65414299D01*
X81615548Y-65414300D01*
X81615549Y-65414300D01*
X81759472Y-65414300D01*
X81759472Y-65414299D01*
X81897563Y-65373753D01*
X82018638Y-65295943D01*
X82112887Y-65187173D01*
X82172675Y-65056257D01*
X82193157Y-64913800D01*
X82172675Y-64771343D01*
X82112887Y-64640427D01*
X82018638Y-64531657D01*
X81897563Y-64453847D01*
X81897561Y-64453846D01*
X81897559Y-64453845D01*
X81897560Y-64453845D01*
X81759473Y-64413300D01*
X81759471Y-64413300D01*
X81615549Y-64413300D01*
X81615546Y-64413300D01*
X81477459Y-64453845D01*
X81356383Y-64531656D01*
X81262133Y-64640426D01*
X81262132Y-64640428D01*
X81202344Y-64771343D01*
X81181863Y-64913800D01*
X79345131Y-64913800D01*
X79418287Y-64829373D01*
X79478075Y-64698457D01*
X79498557Y-64556000D01*
X79478075Y-64413543D01*
X79418287Y-64282627D01*
X79324038Y-64173857D01*
X79202963Y-64096047D01*
X79202961Y-64096046D01*
X79202959Y-64096045D01*
X79202960Y-64096045D01*
X79064873Y-64055500D01*
X79064871Y-64055500D01*
X78920949Y-64055500D01*
X78920946Y-64055500D01*
X78782859Y-64096045D01*
X78661783Y-64173856D01*
X78567533Y-64282626D01*
X78567532Y-64282628D01*
X78507744Y-64413544D01*
X78505245Y-64422056D01*
X78503526Y-64421551D01*
X78478976Y-64475305D01*
X78420198Y-64513078D01*
X78350328Y-64513076D01*
X78297584Y-64481781D01*
X78051325Y-64235522D01*
X78051323Y-64235520D01*
X78005660Y-64209156D01*
X77959999Y-64182793D01*
X77909067Y-64169146D01*
X77858137Y-64155500D01*
X77858136Y-64155500D01*
X77606884Y-64155500D01*
X77539846Y-64135816D01*
X77477960Y-64096045D01*
X77339873Y-64055500D01*
X77339871Y-64055500D01*
X77195949Y-64055500D01*
X77195946Y-64055500D01*
X77057859Y-64096045D01*
X76936783Y-64173856D01*
X76842533Y-64282626D01*
X76842532Y-64282628D01*
X76782744Y-64413543D01*
X76762263Y-64556000D01*
X76762263Y-64556002D01*
X76768143Y-64596903D01*
X76758199Y-64666061D01*
X76733086Y-64702229D01*
X75271119Y-66164197D01*
X75218373Y-66195493D01*
X75102059Y-66229645D01*
X74980983Y-66307456D01*
X74886733Y-66416226D01*
X74886732Y-66416228D01*
X74826944Y-66547143D01*
X74806463Y-66689600D01*
X72729524Y-66689600D01*
X76032325Y-63386800D01*
X83239263Y-63386800D01*
X83259744Y-63529256D01*
X83319532Y-63660171D01*
X83319533Y-63660173D01*
X83413782Y-63768943D01*
X83534857Y-63846753D01*
X83534860Y-63846754D01*
X83534859Y-63846754D01*
X83672946Y-63887299D01*
X83672948Y-63887300D01*
X83672949Y-63887300D01*
X83816872Y-63887300D01*
X83816872Y-63887299D01*
X83954963Y-63846753D01*
X84076038Y-63768943D01*
X84170287Y-63660173D01*
X84230075Y-63529257D01*
X84250557Y-63386800D01*
X84230075Y-63244343D01*
X84170287Y-63113427D01*
X84076038Y-63004657D01*
X83954963Y-62926847D01*
X83954961Y-62926846D01*
X83954959Y-62926845D01*
X83954960Y-62926845D01*
X83816873Y-62886300D01*
X83816871Y-62886300D01*
X83672949Y-62886300D01*
X83672946Y-62886300D01*
X83534859Y-62926845D01*
X83413783Y-63004656D01*
X83319533Y-63113426D01*
X83319532Y-63113428D01*
X83259744Y-63244343D01*
X83239263Y-63386800D01*
X76032325Y-63386800D01*
X77185106Y-62234019D01*
X77246429Y-62200534D01*
X77272787Y-62197700D01*
X77346372Y-62197700D01*
X77346375Y-62197700D01*
X77486385Y-62160184D01*
X77611915Y-62087709D01*
X77714409Y-61985215D01*
X77786884Y-61859685D01*
X77824400Y-61719675D01*
X77824400Y-61574725D01*
X77786884Y-61434715D01*
X77753462Y-61376827D01*
X77714411Y-61309188D01*
X77714406Y-61309182D01*
X77611917Y-61206693D01*
X77611911Y-61206688D01*
X77486388Y-61134217D01*
X77486389Y-61134217D01*
X77474906Y-61131140D01*
X77346375Y-61096700D01*
X76920925Y-61096700D01*
X76815917Y-61124837D01*
X76780914Y-61134216D01*
X76655386Y-61206689D01*
X76655383Y-61206691D01*
X69415491Y-68446583D01*
X69415490Y-68446585D01*
X69359006Y-68544421D01*
X69356833Y-68548184D01*
X69356831Y-68548187D01*
X69343016Y-68572113D01*
X69343014Y-68572118D01*
X69333846Y-68606334D01*
X69301753Y-68661920D01*
X67784694Y-70178981D01*
X67723371Y-70212466D01*
X67697013Y-70215300D01*
X63103325Y-70215300D01*
X63036134Y-70233303D01*
X63036134Y-70233304D01*
X62963315Y-70252816D01*
X62963313Y-70252816D01*
X62963313Y-70252817D01*
X62837786Y-70325289D01*
X62837783Y-70325291D01*
X61195894Y-71967181D01*
X61134571Y-72000666D01*
X61108213Y-72003500D01*
X33467987Y-72003500D01*
X33400948Y-71983815D01*
X33380306Y-71967181D01*
X31080616Y-69667491D01*
X31080615Y-69667490D01*
X30955085Y-69595016D01*
X30955086Y-69595016D01*
X30920082Y-69585637D01*
X30815075Y-69557500D01*
X28914925Y-69557500D01*
X28786393Y-69591940D01*
X28774911Y-69595017D01*
X28649388Y-69667488D01*
X28649382Y-69667493D01*
X28546893Y-69769982D01*
X28546888Y-69769988D01*
X28474417Y-69895511D01*
X28474416Y-69895515D01*
X28436900Y-70035525D01*
X15101366Y-70035525D01*
X15098148Y-61650200D01*
X64829153Y-61650200D01*
X64849634Y-61792656D01*
X64880246Y-61859685D01*
X64909423Y-61923573D01*
X65003672Y-62032343D01*
X65124747Y-62110153D01*
X65124750Y-62110154D01*
X65124749Y-62110154D01*
X65262836Y-62150699D01*
X65262838Y-62150700D01*
X65262839Y-62150700D01*
X65406762Y-62150700D01*
X65406762Y-62150699D01*
X65544853Y-62110153D01*
X65665928Y-62032343D01*
X65760177Y-61923573D01*
X65819965Y-61792657D01*
X65840447Y-61650200D01*
X66099153Y-61650200D01*
X66119634Y-61792656D01*
X66150246Y-61859685D01*
X66179423Y-61923573D01*
X66273672Y-62032343D01*
X66394747Y-62110153D01*
X66394750Y-62110154D01*
X66394749Y-62110154D01*
X66532836Y-62150699D01*
X66532838Y-62150700D01*
X66532839Y-62150700D01*
X66676762Y-62150700D01*
X66676762Y-62150699D01*
X66814853Y-62110153D01*
X66935928Y-62032343D01*
X67030177Y-61923573D01*
X67089965Y-61792657D01*
X67110447Y-61650200D01*
X67369153Y-61650200D01*
X67389634Y-61792656D01*
X67420246Y-61859685D01*
X67449423Y-61923573D01*
X67543672Y-62032343D01*
X67664747Y-62110153D01*
X67664750Y-62110154D01*
X67664749Y-62110154D01*
X67802836Y-62150699D01*
X67802838Y-62150700D01*
X67802839Y-62150700D01*
X67946762Y-62150700D01*
X67946762Y-62150699D01*
X68084853Y-62110153D01*
X68205928Y-62032343D01*
X68300177Y-61923573D01*
X68359965Y-61792657D01*
X68380447Y-61650200D01*
X68639153Y-61650200D01*
X68659634Y-61792656D01*
X68690246Y-61859685D01*
X68719423Y-61923573D01*
X68813672Y-62032343D01*
X68934747Y-62110153D01*
X68934750Y-62110154D01*
X68934749Y-62110154D01*
X69072836Y-62150699D01*
X69072838Y-62150700D01*
X69072839Y-62150700D01*
X69216762Y-62150700D01*
X69216762Y-62150699D01*
X69354853Y-62110153D01*
X69475928Y-62032343D01*
X69570177Y-61923573D01*
X69629965Y-61792657D01*
X69650447Y-61650200D01*
X69629965Y-61507743D01*
X69570177Y-61376827D01*
X69475928Y-61268057D01*
X69354853Y-61190247D01*
X69354851Y-61190246D01*
X69354849Y-61190245D01*
X69354850Y-61190245D01*
X69216763Y-61149700D01*
X69216761Y-61149700D01*
X69072839Y-61149700D01*
X69072836Y-61149700D01*
X68934749Y-61190245D01*
X68813673Y-61268056D01*
X68719423Y-61376826D01*
X68719422Y-61376828D01*
X68659634Y-61507743D01*
X68639153Y-61650200D01*
X68380447Y-61650200D01*
X68359965Y-61507743D01*
X68300177Y-61376827D01*
X68205928Y-61268057D01*
X68084853Y-61190247D01*
X68084851Y-61190246D01*
X68084849Y-61190245D01*
X68084850Y-61190245D01*
X67946763Y-61149700D01*
X67946761Y-61149700D01*
X67802839Y-61149700D01*
X67802836Y-61149700D01*
X67664749Y-61190245D01*
X67543673Y-61268056D01*
X67449423Y-61376826D01*
X67449422Y-61376828D01*
X67389634Y-61507743D01*
X67369153Y-61650200D01*
X67110447Y-61650200D01*
X67089965Y-61507743D01*
X67030177Y-61376827D01*
X66935928Y-61268057D01*
X66814853Y-61190247D01*
X66814851Y-61190246D01*
X66814849Y-61190245D01*
X66814850Y-61190245D01*
X66676763Y-61149700D01*
X66676761Y-61149700D01*
X66532839Y-61149700D01*
X66532836Y-61149700D01*
X66394749Y-61190245D01*
X66273673Y-61268056D01*
X66179423Y-61376826D01*
X66179422Y-61376828D01*
X66119634Y-61507743D01*
X66099153Y-61650200D01*
X65840447Y-61650200D01*
X65819965Y-61507743D01*
X65760177Y-61376827D01*
X65665928Y-61268057D01*
X65544853Y-61190247D01*
X65544851Y-61190246D01*
X65544849Y-61190245D01*
X65544850Y-61190245D01*
X65406763Y-61149700D01*
X65406761Y-61149700D01*
X65262839Y-61149700D01*
X65262836Y-61149700D01*
X65124749Y-61190245D01*
X65003673Y-61268056D01*
X64909423Y-61376826D01*
X64909422Y-61376828D01*
X64849634Y-61507743D01*
X64829153Y-61650200D01*
X15098148Y-61650200D01*
X15097937Y-61099600D01*
X72266463Y-61099600D01*
X72286944Y-61242056D01*
X72317603Y-61309188D01*
X72346733Y-61372973D01*
X72440982Y-61481743D01*
X72562057Y-61559553D01*
X72562060Y-61559554D01*
X72562059Y-61559554D01*
X72700146Y-61600099D01*
X72700148Y-61600100D01*
X72700149Y-61600100D01*
X72844072Y-61600100D01*
X72844072Y-61600099D01*
X72982163Y-61559553D01*
X73103238Y-61481743D01*
X73197487Y-61372973D01*
X73257275Y-61242057D01*
X73277757Y-61099600D01*
X73536463Y-61099600D01*
X73556944Y-61242056D01*
X73587603Y-61309188D01*
X73616733Y-61372973D01*
X73710982Y-61481743D01*
X73832057Y-61559553D01*
X73832060Y-61559554D01*
X73832059Y-61559554D01*
X73970146Y-61600099D01*
X73970148Y-61600100D01*
X73970149Y-61600100D01*
X74114072Y-61600100D01*
X74114072Y-61600099D01*
X74252163Y-61559553D01*
X74373238Y-61481743D01*
X74467487Y-61372973D01*
X74527275Y-61242057D01*
X74547757Y-61099600D01*
X74527275Y-60957143D01*
X74467487Y-60826227D01*
X74373238Y-60717457D01*
X74252163Y-60639647D01*
X74252161Y-60639646D01*
X74252159Y-60639645D01*
X74252160Y-60639645D01*
X74114073Y-60599100D01*
X74114071Y-60599100D01*
X73970149Y-60599100D01*
X73970146Y-60599100D01*
X73832059Y-60639645D01*
X73710983Y-60717456D01*
X73616733Y-60826226D01*
X73616732Y-60826228D01*
X73556944Y-60957143D01*
X73536463Y-61099600D01*
X73277757Y-61099600D01*
X73257275Y-60957143D01*
X73197487Y-60826227D01*
X73103238Y-60717457D01*
X72982163Y-60639647D01*
X72982161Y-60639646D01*
X72982159Y-60639645D01*
X72982160Y-60639645D01*
X72844073Y-60599100D01*
X72844071Y-60599100D01*
X72700149Y-60599100D01*
X72700146Y-60599100D01*
X72562059Y-60639645D01*
X72440983Y-60717456D01*
X72346733Y-60826226D01*
X72346732Y-60826228D01*
X72286944Y-60957143D01*
X72266463Y-61099600D01*
X15097937Y-61099600D01*
X15097259Y-59334400D01*
X55442753Y-59334400D01*
X55463234Y-59476856D01*
X55523022Y-59607771D01*
X55523023Y-59607773D01*
X55617272Y-59716543D01*
X55738347Y-59794353D01*
X55738350Y-59794354D01*
X55738349Y-59794354D01*
X55876436Y-59834899D01*
X55876438Y-59834900D01*
X55876439Y-59834900D01*
X56020362Y-59834900D01*
X56020362Y-59834899D01*
X56158453Y-59794353D01*
X56279528Y-59716543D01*
X56373777Y-59607773D01*
X56433565Y-59476857D01*
X56454047Y-59334400D01*
X56433565Y-59191943D01*
X56373777Y-59061027D01*
X56279528Y-58952257D01*
X56158453Y-58874447D01*
X56158451Y-58874446D01*
X56158449Y-58874445D01*
X56158450Y-58874445D01*
X56020363Y-58833900D01*
X56020361Y-58833900D01*
X55876439Y-58833900D01*
X55876436Y-58833900D01*
X55738349Y-58874445D01*
X55617273Y-58952256D01*
X55523023Y-59061026D01*
X55523022Y-59061028D01*
X55463234Y-59191943D01*
X55442753Y-59334400D01*
X15097259Y-59334400D01*
X15095398Y-54484400D01*
X46642753Y-54484400D01*
X46663234Y-54626856D01*
X46723022Y-54757771D01*
X46723023Y-54757773D01*
X46817272Y-54866543D01*
X46817274Y-54866544D01*
X46817276Y-54866546D01*
X46916144Y-54930085D01*
X46961899Y-54982888D01*
X46971843Y-55052047D01*
X46942818Y-55115603D01*
X46916144Y-55138715D01*
X46817276Y-55202253D01*
X46817274Y-55202255D01*
X46723023Y-55311026D01*
X46723022Y-55311028D01*
X46663234Y-55441943D01*
X46642753Y-55584400D01*
X46663234Y-55726856D01*
X46723022Y-55857771D01*
X46723023Y-55857773D01*
X46817272Y-55966543D01*
X46817274Y-55966544D01*
X46817276Y-55966546D01*
X46916144Y-56030085D01*
X46961899Y-56082888D01*
X46971843Y-56152047D01*
X46942818Y-56215603D01*
X46916144Y-56238715D01*
X46817276Y-56302253D01*
X46817274Y-56302255D01*
X46723023Y-56411026D01*
X46723022Y-56411028D01*
X46663234Y-56541943D01*
X46642753Y-56684400D01*
X46663234Y-56826856D01*
X46723022Y-56957771D01*
X46723023Y-56957773D01*
X46817272Y-57066543D01*
X46938347Y-57144353D01*
X46938350Y-57144354D01*
X46938349Y-57144354D01*
X47076436Y-57184899D01*
X47076438Y-57184900D01*
X47076439Y-57184900D01*
X47220362Y-57184900D01*
X47220362Y-57184899D01*
X47358453Y-57144353D01*
X47479528Y-57066543D01*
X47573777Y-56957773D01*
X47633565Y-56826857D01*
X47654047Y-56684400D01*
X47633565Y-56541943D01*
X47573777Y-56411027D01*
X47479528Y-56302257D01*
X47380653Y-56238714D01*
X47334900Y-56185912D01*
X47324956Y-56116754D01*
X47353981Y-56053198D01*
X47380654Y-56030085D01*
X47479528Y-55966543D01*
X47573777Y-55857773D01*
X47633565Y-55726857D01*
X47654047Y-55584400D01*
X47633565Y-55441943D01*
X47573777Y-55311027D01*
X47479528Y-55202257D01*
X47380653Y-55138714D01*
X47334900Y-55085912D01*
X47324956Y-55016754D01*
X47353981Y-54953198D01*
X47380654Y-54930085D01*
X47479528Y-54866543D01*
X47573777Y-54757773D01*
X47633565Y-54626857D01*
X47654047Y-54484400D01*
X47633565Y-54341943D01*
X47573777Y-54211027D01*
X47479528Y-54102257D01*
X47358453Y-54024447D01*
X47358451Y-54024446D01*
X47358449Y-54024445D01*
X47358450Y-54024445D01*
X47220363Y-53983900D01*
X47220361Y-53983900D01*
X47076439Y-53983900D01*
X47076436Y-53983900D01*
X46938349Y-54024445D01*
X46817273Y-54102256D01*
X46723023Y-54211026D01*
X46723022Y-54211028D01*
X46663234Y-54341943D01*
X46642753Y-54484400D01*
X15095398Y-54484400D01*
X15092765Y-47625000D01*
X53975000Y-47625000D01*
X53975000Y-48514000D01*
G37*
%TD.AperFunction*%
%TD*%
%TA.AperFunction,Conductor*%
%TO.N,GND*%
G36*
X96047507Y-15125357D02*
G01*
X96093278Y-15178147D01*
X96104500Y-15229693D01*
X96104500Y-47625000D01*
X55753000Y-47625000D01*
X55753000Y-48513222D01*
X55500180Y-48513996D01*
X55499320Y-48513999D01*
X55498948Y-48514000D01*
X53975000Y-48514000D01*
X53975000Y-47625000D01*
X15092765Y-47625000D01*
X15080339Y-15254750D01*
X15099998Y-15187706D01*
X15152784Y-15141930D01*
X15204298Y-15130705D01*
X95980463Y-15105693D01*
X96047507Y-15125357D01*
G37*
%TD.AperFunction*%
%TD*%
%TA.AperFunction,Conductor*%
%TO.N,GND*%
G36*
X114047539Y-50125185D02*
G01*
X114093294Y-50177989D01*
X114104500Y-50229500D01*
X114104500Y-64516000D01*
X105029000Y-64516000D01*
X97028000Y-61595000D01*
X97028000Y-50105500D01*
X113980500Y-50105500D01*
X114047539Y-50125185D01*
G37*
%TD.AperFunction*%
%TD*%
M02*
