%TF.GenerationSoftware,KiCad,Pcbnew,8.0.6*%
%TF.CreationDate,2026-01-04T18:57:24+01:00*%
%TF.ProjectId,bottom_PCB,626f7474-6f6d-45f5-9043-422e6b696361,rev?*%
%TF.SameCoordinates,Original*%
%TF.FileFunction,Copper,L3,Inr*%
%TF.FilePolarity,Positive*%
%FSLAX46Y46*%
G04 Gerber Fmt 4.6, Leading zero omitted, Abs format (unit mm)*
G04 Created by KiCad (PCBNEW 8.0.6) date 2026-01-04 18:57:24*
%MOMM*%
%LPD*%
G01*
G04 APERTURE LIST*
G04 Aperture macros list*
%AMRoundRect*
0 Rectangle with rounded corners*
0 $1 Rounding radius*
0 $2 $3 $4 $5 $6 $7 $8 $9 X,Y pos of 4 corners*
0 Add a 4 corners polygon primitive as box body*
4,1,4,$2,$3,$4,$5,$6,$7,$8,$9,$2,$3,0*
0 Add four circle primitives for the rounded corners*
1,1,$1+$1,$2,$3*
1,1,$1+$1,$4,$5*
1,1,$1+$1,$6,$7*
1,1,$1+$1,$8,$9*
0 Add four rect primitives between the rounded corners*
20,1,$1+$1,$2,$3,$4,$5,0*
20,1,$1+$1,$4,$5,$6,$7,0*
20,1,$1+$1,$6,$7,$8,$9,0*
20,1,$1+$1,$8,$9,$2,$3,0*%
G04 Aperture macros list end*
%TA.AperFunction,ComponentPad*%
%ADD10C,5.700000*%
%TD*%
%TA.AperFunction,ComponentPad*%
%ADD11C,1.150000*%
%TD*%
%TA.AperFunction,ComponentPad*%
%ADD12C,2.100000*%
%TD*%
%TA.AperFunction,ComponentPad*%
%ADD13C,1.900000*%
%TD*%
%TA.AperFunction,ComponentPad*%
%ADD14RoundRect,0.250000X-0.625000X0.350000X-0.625000X-0.350000X0.625000X-0.350000X0.625000X0.350000X0*%
%TD*%
%TA.AperFunction,ComponentPad*%
%ADD15O,1.750000X1.200000*%
%TD*%
%TA.AperFunction,ComponentPad*%
%ADD16RoundRect,1.500000X1.500000X-1.500000X1.500000X1.500000X-1.500000X1.500000X-1.500000X-1.500000X0*%
%TD*%
%TA.AperFunction,ComponentPad*%
%ADD17C,6.000000*%
%TD*%
%TA.AperFunction,ViaPad*%
%ADD18C,0.600000*%
%TD*%
%TA.AperFunction,ViaPad*%
%ADD19C,0.900000*%
%TD*%
%TA.AperFunction,ViaPad*%
%ADD20C,1.200000*%
%TD*%
%TA.AperFunction,ViaPad*%
%ADD21C,0.500000*%
%TD*%
%TA.AperFunction,Conductor*%
%ADD22C,0.400000*%
%TD*%
%TA.AperFunction,Conductor*%
%ADD23C,0.500000*%
%TD*%
%TA.AperFunction,Conductor*%
%ADD24C,0.200000*%
%TD*%
%TA.AperFunction,Conductor*%
%ADD25C,0.600000*%
%TD*%
%TA.AperFunction,Conductor*%
%ADD26C,2.000000*%
%TD*%
G04 APERTURE END LIST*
D10*
%TO.N,N/C*%
%TO.C,REF\u002A\u002A*%
X81483200Y-89408000D03*
%TD*%
D11*
%TO.N,SYS*%
%TO.C,U5*%
X70686556Y-38497633D03*
X73226556Y-38497633D03*
%TO.N,N/C*%
X88466556Y-38497633D03*
X93546556Y-38497633D03*
%TO.N,GND3*%
X93546556Y-23257633D03*
%TO.N,+12V*%
X88466556Y-23257633D03*
%TO.N,PACK -*%
X73226556Y-23257633D03*
X70686556Y-23257633D03*
%TD*%
D12*
%TO.N,+12V*%
%TO.C,J6*%
X91543756Y-48629633D03*
X96543756Y-48629633D03*
%TO.N,GND3*%
X91543756Y-45129633D03*
X96543756Y-45129633D03*
%TD*%
D13*
%TO.N,+5V*%
%TO.C,U2*%
X18921356Y-98848033D03*
%TO.N,unconnected-(U2-3v3-Pad2)*%
X21461356Y-98848033D03*
%TO.N,GND2*%
X24001356Y-98848033D03*
%TO.N,unconnected-(U2-GND-Pad4)*%
X26541356Y-98848033D03*
%TO.N,unconnected-(U2-NRST-Pad5)*%
X29081356Y-98848033D03*
%TO.N,SCL_2*%
X31621356Y-98848033D03*
%TO.N,SDA_2*%
X34161356Y-98848033D03*
%TO.N,unconnected-(U2-PC15-Pad8)*%
X36701356Y-98848033D03*
%TO.N,RE*%
X39241356Y-98848033D03*
%TO.N,DE*%
X41781356Y-98848033D03*
%TO.N,TX*%
X44321356Y-98848033D03*
%TO.N,RX*%
X46861356Y-98848033D03*
%TO.N,unconnected-(U2-3v3-Pad13)*%
X18921356Y-83608033D03*
%TO.N,unconnected-(U2-GND-Pad14)*%
X21461356Y-83608033D03*
%TO.N,unconnected-(U2-PB3{slash}4{slash}5{slash}6-Pad15)*%
X24001356Y-83608033D03*
%TO.N,CE_2*%
X36701356Y-83608033D03*
%TO.N,INT_Interupt_2*%
X39241356Y-83608033D03*
%TO.N,ALERT_2*%
X41781356Y-83608033D03*
%TO.N,DCHG_2*%
X44321356Y-83608033D03*
%TO.N,DDSG_2*%
X46861356Y-83608033D03*
%TD*%
D14*
%TO.N,TH1_TS*%
%TO.C,J2*%
X30402156Y-54240033D03*
D15*
%TO.N,TH1_AGND*%
X30402156Y-56240033D03*
%TO.N,TH2_TS*%
X30402156Y-58240033D03*
%TO.N,BAT-*%
X30402156Y-60240033D03*
%TO.N,Probe bat 2-3*%
X30402156Y-62240033D03*
%TO.N,Probe bat 1-2*%
X30402156Y-64240033D03*
%TD*%
D11*
%TO.N,PACK -*%
%TO.C,U6*%
X70534156Y-70349233D03*
X73074156Y-70349233D03*
%TO.N,N/C*%
X88314156Y-70349233D03*
X93394156Y-70349233D03*
%TO.N,+5V*%
X93394156Y-55109233D03*
%TO.N,GND2*%
X88314156Y-55109233D03*
%TO.N,SYS*%
X73074156Y-55109233D03*
X70534156Y-55109233D03*
%TD*%
D10*
%TO.N,N/C*%
%TO.C,REF\u002A\u002A*%
X81483200Y-46908000D03*
%TD*%
D12*
%TO.N,GND2*%
%TO.C,J8*%
X91543756Y-79848833D03*
X96543756Y-79848833D03*
%TO.N,+5V*%
X91543756Y-76348833D03*
X96543756Y-76348833D03*
%TD*%
D10*
%TO.N,N/C*%
%TO.C,REF\u002A\u002A*%
X61483200Y-21908000D03*
%TD*%
D12*
%TO.N,Net-(J1-Pin_1)*%
%TO.C,J1*%
X91543756Y-101184833D03*
X96543756Y-101184833D03*
%TO.N,Net-(J1-Pin_2)*%
X91543756Y-97684833D03*
X96543756Y-97684833D03*
%TD*%
D10*
%TO.N,N/C*%
%TO.C,REF\u002A\u002A*%
X21483200Y-71908000D03*
%TD*%
D16*
%TO.N,BAT-*%
%TO.C,J4*%
X22070956Y-62265233D03*
D17*
%TO.N,BAT+*%
X22070956Y-55065233D03*
%TD*%
D18*
%TO.N,PV_POSITIVE*%
X39088956Y-40518433D03*
X27455356Y-30809033D03*
%TO.N,VAC2*%
X34364556Y-36922833D03*
X33678756Y-40555033D03*
%TO.N,PACK -*%
X48740956Y-37886933D03*
X59638100Y-38760400D03*
X40233600Y-40589200D03*
D19*
X30073600Y-39420800D03*
D18*
X61034556Y-71163133D03*
D20*
X20980400Y-20929600D03*
D18*
%TO.N,BTST1*%
X38580956Y-36299833D03*
%TO.N,SW1*%
X38479356Y-29342436D03*
X38479356Y-30042439D03*
X38479356Y-30742442D03*
D21*
X40409756Y-36110033D03*
D18*
X38479356Y-28642433D03*
D21*
X40732604Y-36674189D03*
%TO.N,SW2*%
X42435295Y-36126730D03*
D18*
X44219756Y-29963233D03*
X44219756Y-30674433D03*
D21*
X42112914Y-36688186D03*
D18*
X44219756Y-29252033D03*
X44219756Y-28540833D03*
%TO.N,BTST2*%
X44422736Y-37496596D03*
%TO.N,+3.3V*%
X36548956Y-77105633D03*
X64323556Y-78363333D03*
%TO.N,BAT*%
X35837756Y-41444033D03*
X59916956Y-57496833D03*
X47064556Y-36161933D03*
X60932956Y-47997233D03*
%TO.N,REGN*%
X35837756Y-36973633D03*
X45265906Y-40147683D03*
%TO.N,BAT-*%
X48994956Y-58360433D03*
X53591356Y-62424433D03*
D19*
X43356156Y-75073633D03*
D18*
X47166156Y-57141233D03*
X53340000Y-70053200D03*
X39952556Y-51679433D03*
X51425556Y-65878833D03*
X47826556Y-71873233D03*
X52904656Y-68012433D03*
X44372156Y-64050033D03*
X41984556Y-53181033D03*
%TO.N,GND2*%
X61034556Y-79592633D03*
X50315756Y-77839233D03*
X55179456Y-97908233D03*
X67269956Y-80783133D03*
X36447356Y-78782033D03*
X66421556Y-76546833D03*
X29132156Y-77880033D03*
X56499156Y-103496233D03*
X64323556Y-75238333D03*
%TO.N,PULLUP*%
X61034556Y-72888133D03*
X55497356Y-65929633D03*
X24155956Y-43780833D03*
X55446556Y-64050033D03*
X28524456Y-70806433D03*
X34722356Y-73803633D03*
%TO.N,Net-(D1-K)*%
X23696556Y-34178533D03*
X28535356Y-32664091D03*
%TO.N,STAT*%
X22223356Y-38904033D03*
X37615756Y-34738433D03*
%TO.N,Net-(D9-K)*%
X53465356Y-48149633D03*
X58596156Y-49978433D03*
%TO.N,RE*%
X41374956Y-101043633D03*
X53135156Y-100956233D03*
%TO.N,DE*%
X45235756Y-102226233D03*
X53135156Y-102226233D03*
%TO.N,INT*%
X44388713Y-36697318D03*
X54125756Y-72889233D03*
X53672356Y-65929633D03*
%TO.N,ACDRV1*%
X40792400Y-39827200D03*
X24763356Y-37989633D03*
%TO.N,PROG*%
X43476030Y-40460559D03*
D21*
X42316400Y-37998400D03*
D18*
%TO.N,SDA_1*%
X44016556Y-61773633D03*
X31672156Y-72940033D03*
X42845219Y-39968542D03*
%TO.N,SCL_1*%
X42080839Y-40204604D03*
X43203756Y-62170433D03*
X30402156Y-72940033D03*
%TO.N,CE_1*%
X52855756Y-72889233D03*
X43533956Y-44822233D03*
%TO.N,TH2_TS*%
X42035356Y-61662433D03*
%TO.N,TH1_TS*%
X42390956Y-50384833D03*
%TO.N,TH1_AGND*%
X41369714Y-37874594D03*
D21*
X41351200Y-37134800D03*
D18*
X50769156Y-41799633D03*
X39088956Y-42194033D03*
X40856224Y-37629776D03*
X29132156Y-72940033D03*
X36447356Y-73803633D03*
X41862401Y-37395114D03*
X43610156Y-43321733D03*
X45489756Y-43954733D03*
X50771056Y-43577633D03*
%TD*%
D22*
%TO.N,PV_POSITIVE*%
X27455356Y-30809033D02*
X30739956Y-30809033D01*
X30739956Y-30809033D02*
X39088956Y-39158033D01*
X39088956Y-39158033D02*
X39088956Y-40518433D01*
D23*
%TO.N,VAC2*%
X34364556Y-39869233D02*
X34364556Y-36922833D01*
X33678756Y-40555033D02*
X34364556Y-39869233D01*
D22*
%TO.N,+3.3V*%
X64147656Y-78539233D02*
X37982556Y-78539233D01*
X37982556Y-78539233D02*
X36548956Y-77105633D01*
X64323556Y-78363333D02*
X64147656Y-78539233D01*
D23*
%TO.N,BAT*%
X47064556Y-36161933D02*
X47064556Y-39818433D01*
X39399617Y-41444033D02*
X35837756Y-41444033D01*
D24*
X59916956Y-57496833D02*
X59944000Y-57469789D01*
X59944000Y-48986189D02*
X60932956Y-47997233D01*
D23*
X45430189Y-41452800D02*
X39408384Y-41452800D01*
X47064556Y-39818433D02*
X45430189Y-41452800D01*
X39408384Y-41452800D02*
X39399617Y-41444033D01*
D24*
X59944000Y-57469789D02*
X59944000Y-48986189D01*
D25*
%TO.N,PULLUP*%
X24155956Y-43783033D02*
X27252556Y-46879633D01*
X55497356Y-67350933D02*
X61034556Y-72888133D01*
X27252556Y-46879633D02*
X34683665Y-54310742D01*
X34683665Y-65980433D02*
X29857665Y-70806433D01*
X34683665Y-54310742D02*
X34683665Y-65980433D01*
X42289356Y-47032033D02*
X55446556Y-60189233D01*
D22*
X24155956Y-43780833D02*
X24155956Y-43783033D01*
D25*
X29857665Y-70806433D02*
X28524456Y-70806433D01*
D22*
X34683665Y-73764942D02*
X34722356Y-73803633D01*
D25*
X55446556Y-64050033D02*
X55446556Y-65878833D01*
D22*
X55446556Y-65878833D02*
X55497356Y-65929633D01*
D25*
X27404956Y-47032033D02*
X42289356Y-47032033D01*
X55446556Y-60189233D02*
X55446556Y-64050033D01*
X55497356Y-65929633D02*
X55497356Y-67350933D01*
D22*
X27252556Y-46879633D02*
X27404956Y-47032033D01*
D25*
X34683665Y-65980433D02*
X34683665Y-73764942D01*
D24*
%TO.N,Net-(D9-K)*%
X56767356Y-48149633D02*
X53465356Y-48149633D01*
X58596156Y-49978433D02*
X56767356Y-48149633D01*
D26*
%TO.N,+5V*%
X68182367Y-88078433D02*
X29190396Y-88078433D01*
X29190396Y-88078433D02*
X18921356Y-98347473D01*
X18921356Y-98347473D02*
X18921356Y-98848033D01*
X79911967Y-76348833D02*
X68182367Y-88078433D01*
X91238956Y-76348833D02*
X79911967Y-76348833D01*
D24*
%TO.N,PROG*%
X43476030Y-40460559D02*
X43476030Y-39158030D01*
X43476030Y-39158030D02*
X42316400Y-37998400D01*
%TD*%
%TA.AperFunction,Conductor*%
%TO.N,PACK -*%
G36*
X60360391Y-37356907D02*
G01*
X60396355Y-37406407D01*
X60401200Y-37437000D01*
X60401200Y-39474200D01*
X60382293Y-39532391D01*
X60332793Y-39568355D01*
X60302200Y-39573200D01*
X48248808Y-39573200D01*
X48190617Y-39554293D01*
X48154653Y-39504793D01*
X48150215Y-39483163D01*
X47965015Y-37445963D01*
X47978576Y-37386299D01*
X48024617Y-37346002D01*
X48063608Y-37338000D01*
X60302200Y-37338000D01*
X60360391Y-37356907D01*
G37*
%TD.AperFunction*%
%TD*%
%TA.AperFunction,Conductor*%
%TO.N,PACK -*%
G36*
X25514450Y-19322907D02*
G01*
X25531218Y-19338330D01*
X34436738Y-29660637D01*
X34446836Y-29674649D01*
X35285233Y-31082404D01*
X37218631Y-34328782D01*
X37232162Y-34388453D01*
X37208394Y-34444268D01*
X37190379Y-34465058D01*
X37190379Y-34465059D01*
X37130590Y-34595976D01*
X37110109Y-34738430D01*
X37110109Y-34738435D01*
X37130590Y-34880889D01*
X37190378Y-35011804D01*
X37190379Y-35011806D01*
X37284628Y-35120576D01*
X37284629Y-35120577D01*
X37405698Y-35198383D01*
X37405703Y-35198386D01*
X37512159Y-35229644D01*
X37543791Y-35238932D01*
X37543792Y-35238932D01*
X37543795Y-35238933D01*
X37543797Y-35238933D01*
X37687709Y-35238933D01*
X37687717Y-35238933D01*
X37687724Y-35238930D01*
X37689550Y-35238668D01*
X37691082Y-35238933D01*
X37694798Y-35238933D01*
X37694798Y-35239575D01*
X37749840Y-35249094D01*
X37788709Y-35286002D01*
X38162911Y-35914326D01*
X38176442Y-35973997D01*
X38157234Y-36019107D01*
X38159407Y-36020503D01*
X38155579Y-36026458D01*
X38095790Y-36157376D01*
X38075309Y-36299830D01*
X38075309Y-36299835D01*
X38095790Y-36442289D01*
X38120799Y-36497049D01*
X38155579Y-36573206D01*
X38221653Y-36649460D01*
X38249829Y-36681977D01*
X38278280Y-36700261D01*
X38370903Y-36759786D01*
X38476641Y-36790833D01*
X38508991Y-36800332D01*
X38508992Y-36800332D01*
X38508995Y-36800333D01*
X38508997Y-36800333D01*
X38634309Y-36800333D01*
X38692500Y-36819240D01*
X38719367Y-36848676D01*
X40324591Y-39544014D01*
X40338122Y-39603685D01*
X40329587Y-39635795D01*
X40307236Y-39684739D01*
X40307233Y-39684747D01*
X40286753Y-39827197D01*
X40286753Y-39827202D01*
X40307234Y-39969656D01*
X40358268Y-40081403D01*
X40367023Y-40100573D01*
X40461272Y-40209343D01*
X40461273Y-40209344D01*
X40573801Y-40281661D01*
X40582347Y-40287153D01*
X40688803Y-40318411D01*
X40720435Y-40327699D01*
X40720436Y-40327699D01*
X40720439Y-40327700D01*
X40720441Y-40327700D01*
X40735053Y-40327700D01*
X40793244Y-40346607D01*
X40820110Y-40376042D01*
X41095511Y-40838469D01*
X41103953Y-40852643D01*
X41117484Y-40912314D01*
X41093357Y-40968541D01*
X41040788Y-40999849D01*
X41018895Y-41002300D01*
X39548719Y-41002300D01*
X39490528Y-40983393D01*
X39454564Y-40933893D01*
X39454564Y-40872707D01*
X39473900Y-40838469D01*
X39485484Y-40825099D01*
X39514333Y-40791806D01*
X39574121Y-40660890D01*
X39580948Y-40613404D01*
X39594603Y-40518435D01*
X39594603Y-40518430D01*
X39574121Y-40375976D01*
X39531048Y-40281661D01*
X39514333Y-40245060D01*
X39513635Y-40244254D01*
X39513288Y-40243434D01*
X39510505Y-40239103D01*
X39511254Y-40238621D01*
X39489819Y-40187894D01*
X39489456Y-40179425D01*
X39489456Y-39105307D01*
X39489456Y-39105306D01*
X39462163Y-39003445D01*
X39462161Y-39003442D01*
X39462161Y-39003440D01*
X39409439Y-38912124D01*
X39409437Y-38912122D01*
X39409436Y-38912120D01*
X30985869Y-30488553D01*
X30985866Y-30488551D01*
X30985864Y-30488549D01*
X30894547Y-30435827D01*
X30894549Y-30435827D01*
X30855026Y-30425237D01*
X30792683Y-30408533D01*
X30792681Y-30408533D01*
X27786988Y-30408533D01*
X27733466Y-30392817D01*
X27665409Y-30349080D01*
X27665406Y-30349079D01*
X27527320Y-30308533D01*
X27527317Y-30308533D01*
X27383395Y-30308533D01*
X27383391Y-30308533D01*
X27245305Y-30349079D01*
X27245298Y-30349082D01*
X27124229Y-30426888D01*
X27029978Y-30535661D01*
X26970190Y-30666576D01*
X26949709Y-30809030D01*
X26949709Y-30809035D01*
X26970190Y-30951489D01*
X27029978Y-31082404D01*
X27029979Y-31082406D01*
X27124228Y-31191176D01*
X27124229Y-31191177D01*
X27245298Y-31268983D01*
X27245303Y-31268986D01*
X27351759Y-31300244D01*
X27383391Y-31309532D01*
X27383392Y-31309532D01*
X27383395Y-31309533D01*
X27383397Y-31309533D01*
X27527315Y-31309533D01*
X27527317Y-31309533D01*
X27665409Y-31268986D01*
X27733466Y-31225248D01*
X27786988Y-31209533D01*
X30533055Y-31209533D01*
X30591246Y-31228440D01*
X30603059Y-31238529D01*
X35703365Y-36338835D01*
X35731142Y-36393352D01*
X35721571Y-36453784D01*
X35678306Y-36497049D01*
X35661253Y-36503829D01*
X35627703Y-36513680D01*
X35627698Y-36513682D01*
X35506629Y-36591488D01*
X35412378Y-36700261D01*
X35352590Y-36831176D01*
X35332109Y-36973630D01*
X35332109Y-36973635D01*
X35352590Y-37116089D01*
X35373891Y-37162730D01*
X35412379Y-37247006D01*
X35417276Y-37252657D01*
X35506629Y-37355777D01*
X35567839Y-37395114D01*
X35627703Y-37433586D01*
X35734159Y-37464844D01*
X35765791Y-37474132D01*
X35765792Y-37474132D01*
X35765795Y-37474133D01*
X35765797Y-37474133D01*
X35909715Y-37474133D01*
X35909717Y-37474133D01*
X36047809Y-37433586D01*
X36168884Y-37355776D01*
X36263133Y-37247006D01*
X36313129Y-37137530D01*
X36354499Y-37092455D01*
X36414466Y-37080304D01*
X36470122Y-37105722D01*
X36473185Y-37108655D01*
X38659460Y-39294930D01*
X38687237Y-39349447D01*
X38688456Y-39364934D01*
X38688456Y-40179425D01*
X38669549Y-40237616D01*
X38664277Y-40244254D01*
X38663579Y-40245059D01*
X38603790Y-40375976D01*
X38583309Y-40518430D01*
X38583309Y-40518435D01*
X38603790Y-40660889D01*
X38663579Y-40791806D01*
X38696416Y-40829703D01*
X38720233Y-40886062D01*
X38706374Y-40945657D01*
X38660133Y-40985725D01*
X38621596Y-40993533D01*
X36090044Y-40993533D01*
X36054672Y-40985837D01*
X36054603Y-40986075D01*
X36051287Y-40985101D01*
X36048918Y-40984586D01*
X36047812Y-40984081D01*
X36047805Y-40984079D01*
X36028417Y-40978386D01*
X35909720Y-40943533D01*
X35909717Y-40943533D01*
X35765795Y-40943533D01*
X35765791Y-40943533D01*
X35627705Y-40984079D01*
X35627698Y-40984082D01*
X35506628Y-41061889D01*
X35505641Y-41063029D01*
X35504562Y-41063679D01*
X35501275Y-41066528D01*
X35500782Y-41065959D01*
X35453246Y-41094626D01*
X35430820Y-41097200D01*
X34088002Y-41097200D01*
X34029811Y-41078293D01*
X33993847Y-41028793D01*
X33993847Y-40967607D01*
X34013183Y-40933369D01*
X34104131Y-40828408D01*
X34104130Y-40828408D01*
X34104133Y-40828406D01*
X34148533Y-40731182D01*
X34168579Y-40702311D01*
X34725046Y-40145847D01*
X34784355Y-40043120D01*
X34808635Y-39952504D01*
X34815056Y-39928542D01*
X34815056Y-37162730D01*
X34824002Y-37121604D01*
X34849721Y-37065290D01*
X34849721Y-37065288D01*
X34849722Y-37065287D01*
X34870203Y-36922835D01*
X34870203Y-36922830D01*
X34849721Y-36780376D01*
X34804783Y-36681977D01*
X34789933Y-36649460D01*
X34695684Y-36540690D01*
X34695683Y-36540689D01*
X34695682Y-36540688D01*
X34574613Y-36462882D01*
X34574610Y-36462880D01*
X34574609Y-36462880D01*
X34574606Y-36462879D01*
X34436520Y-36422333D01*
X34436517Y-36422333D01*
X34292595Y-36422333D01*
X34292591Y-36422333D01*
X34154505Y-36462879D01*
X34154498Y-36462882D01*
X34033429Y-36540688D01*
X33939178Y-36649461D01*
X33879390Y-36780376D01*
X33858909Y-36922830D01*
X33858909Y-36922835D01*
X33879389Y-37065287D01*
X33886248Y-37080304D01*
X33905109Y-37121604D01*
X33914056Y-37162730D01*
X33914056Y-39641621D01*
X33895149Y-39699812D01*
X33885059Y-39711625D01*
X33533147Y-40063536D01*
X33491037Y-40088521D01*
X33468705Y-40095078D01*
X33468703Y-40095079D01*
X33347629Y-40172888D01*
X33253378Y-40281661D01*
X33193590Y-40412576D01*
X33173109Y-40555030D01*
X33173109Y-40555035D01*
X33193590Y-40697489D01*
X33253379Y-40828406D01*
X33344329Y-40933369D01*
X33368147Y-40989728D01*
X33354288Y-41049324D01*
X33308047Y-41089391D01*
X33269510Y-41097200D01*
X31661660Y-41097200D01*
X31635611Y-41093712D01*
X28876192Y-40341143D01*
X28837342Y-40320392D01*
X21762158Y-34178530D01*
X23190909Y-34178530D01*
X23190909Y-34178535D01*
X23211390Y-34320989D01*
X23267691Y-34444268D01*
X23271179Y-34451906D01*
X23365428Y-34560676D01*
X23365429Y-34560677D01*
X23420356Y-34595976D01*
X23486503Y-34638486D01*
X23592959Y-34669744D01*
X23624591Y-34679032D01*
X23624592Y-34679032D01*
X23624595Y-34679033D01*
X23624597Y-34679033D01*
X23768515Y-34679033D01*
X23768517Y-34679033D01*
X23906609Y-34638486D01*
X24027684Y-34560676D01*
X24121933Y-34451906D01*
X24181721Y-34320990D01*
X24202203Y-34178533D01*
X24181721Y-34036076D01*
X24121933Y-33905160D01*
X24027684Y-33796390D01*
X24027683Y-33796389D01*
X24027682Y-33796388D01*
X23906613Y-33718582D01*
X23906610Y-33718580D01*
X23906609Y-33718580D01*
X23906606Y-33718579D01*
X23768520Y-33678033D01*
X23768517Y-33678033D01*
X23624595Y-33678033D01*
X23624591Y-33678033D01*
X23486505Y-33718579D01*
X23486498Y-33718582D01*
X23365429Y-33796388D01*
X23271178Y-33905161D01*
X23211390Y-34036076D01*
X23190909Y-34178530D01*
X21762158Y-34178530D01*
X20017580Y-32664088D01*
X28029709Y-32664088D01*
X28029709Y-32664093D01*
X28050190Y-32806547D01*
X28109978Y-32937462D01*
X28109979Y-32937464D01*
X28204228Y-33046234D01*
X28204229Y-33046235D01*
X28325298Y-33124041D01*
X28325303Y-33124044D01*
X28431759Y-33155302D01*
X28463391Y-33164590D01*
X28463392Y-33164590D01*
X28463395Y-33164591D01*
X28463397Y-33164591D01*
X28607315Y-33164591D01*
X28607317Y-33164591D01*
X28745409Y-33124044D01*
X28866484Y-33046234D01*
X28960733Y-32937464D01*
X29020521Y-32806548D01*
X29041003Y-32664091D01*
X29020521Y-32521634D01*
X28960733Y-32390718D01*
X28866484Y-32281948D01*
X28866483Y-32281947D01*
X28866482Y-32281946D01*
X28745413Y-32204140D01*
X28745410Y-32204138D01*
X28745409Y-32204138D01*
X28745406Y-32204137D01*
X28607320Y-32163591D01*
X28607317Y-32163591D01*
X28463395Y-32163591D01*
X28463391Y-32163591D01*
X28325305Y-32204137D01*
X28325298Y-32204140D01*
X28204229Y-32281946D01*
X28109978Y-32390719D01*
X28050190Y-32521634D01*
X28029709Y-32664088D01*
X20017580Y-32664088D01*
X17017557Y-30059812D01*
X16986009Y-30007387D01*
X16983456Y-29985051D01*
X16983456Y-19403000D01*
X17002363Y-19344809D01*
X17051863Y-19308845D01*
X17082456Y-19304000D01*
X25456259Y-19304000D01*
X25514450Y-19322907D01*
G37*
%TD.AperFunction*%
%TD*%
%TA.AperFunction,Conductor*%
%TO.N,SW1*%
G36*
X39277804Y-28250385D02*
G01*
X39292156Y-28285033D01*
X39292156Y-32300033D01*
X41107528Y-34216259D01*
X41120956Y-34249958D01*
X41120956Y-36385478D01*
X41106604Y-36420126D01*
X41088140Y-36431728D01*
X41023510Y-36454344D01*
X41023508Y-36454345D01*
X40880312Y-36544321D01*
X40880308Y-36544324D01*
X40760724Y-36663908D01*
X40760721Y-36663912D01*
X40670745Y-36807107D01*
X40662796Y-36829823D01*
X40637804Y-36857785D01*
X40632730Y-36859887D01*
X40506702Y-36903987D01*
X40506700Y-36903987D01*
X40492446Y-36912944D01*
X40488662Y-36915322D01*
X40462593Y-36922833D01*
X40255556Y-36922833D01*
X40220908Y-36908481D01*
X40206556Y-36873833D01*
X40206556Y-34636833D01*
X40206555Y-34636832D01*
X37732819Y-32314549D01*
X37717380Y-32280371D01*
X37717356Y-32278824D01*
X37717356Y-28285033D01*
X37731708Y-28250385D01*
X37766356Y-28236033D01*
X39243156Y-28236033D01*
X39277804Y-28250385D01*
G37*
%TD.AperFunction*%
%TD*%
%TA.AperFunction,Conductor*%
%TO.N,SW2*%
G36*
X45069004Y-28148785D02*
G01*
X45083356Y-28183433D01*
X45083356Y-32329276D01*
X45069004Y-32363924D01*
X45067467Y-32365397D01*
X42644956Y-34586033D01*
X42644956Y-36772233D01*
X42630604Y-36806881D01*
X42595956Y-36821233D01*
X42440894Y-36821233D01*
X42406246Y-36806881D01*
X42364664Y-36765299D01*
X42364660Y-36765296D01*
X42211927Y-36669326D01*
X42041659Y-36609747D01*
X42041658Y-36609746D01*
X42041656Y-36609746D01*
X42041651Y-36609745D01*
X42041649Y-36609745D01*
X41884977Y-36592092D01*
X41855815Y-36578048D01*
X41822091Y-36544324D01*
X41822087Y-36544321D01*
X41746318Y-36496712D01*
X41724617Y-36466126D01*
X41723398Y-36456195D01*
X41680101Y-34248068D01*
X41690732Y-34216623D01*
X43254556Y-32249233D01*
X43254556Y-28183433D01*
X43268908Y-28148785D01*
X43303556Y-28134433D01*
X45034356Y-28134433D01*
X45069004Y-28148785D01*
G37*
%TD.AperFunction*%
%TD*%
%TA.AperFunction,Conductor*%
%TO.N,BAT-*%
G36*
X41042160Y-50658004D02*
G01*
X41054404Y-50666538D01*
X46351222Y-54853546D01*
X46355422Y-54857019D01*
X54185353Y-61626121D01*
X54223194Y-61684856D01*
X54228241Y-61717948D01*
X54289278Y-65542898D01*
X54270666Y-65610243D01*
X54218599Y-65656834D01*
X54149608Y-65667880D01*
X54085597Y-65639873D01*
X54071581Y-65626079D01*
X54057859Y-65610243D01*
X54003484Y-65547490D01*
X53882409Y-65469680D01*
X53882407Y-65469679D01*
X53882405Y-65469678D01*
X53882406Y-65469678D01*
X53744319Y-65429133D01*
X53744317Y-65429133D01*
X53600395Y-65429133D01*
X53600392Y-65429133D01*
X53462305Y-65469678D01*
X53341229Y-65547489D01*
X53246979Y-65656259D01*
X53246978Y-65656261D01*
X53187190Y-65787176D01*
X53166709Y-65929633D01*
X53187190Y-66072089D01*
X53237156Y-66181497D01*
X53246979Y-66203006D01*
X53341228Y-66311776D01*
X53462303Y-66389586D01*
X53462306Y-66389587D01*
X53462305Y-66389587D01*
X53600392Y-66430132D01*
X53600394Y-66430133D01*
X53600395Y-66430133D01*
X53744318Y-66430133D01*
X53744318Y-66430132D01*
X53882409Y-66389586D01*
X54003484Y-66311776D01*
X54083640Y-66219269D01*
X54142415Y-66181497D01*
X54212285Y-66181497D01*
X54271063Y-66219271D01*
X54300089Y-66282826D01*
X54301335Y-66298496D01*
X54378236Y-71117631D01*
X54359624Y-71184976D01*
X54307557Y-71231567D01*
X54288173Y-71238879D01*
X48849924Y-72785537D01*
X48834988Y-72788805D01*
X45235755Y-73346432D01*
X44645356Y-76446035D01*
X44613475Y-76508207D01*
X44553043Y-76543274D01*
X44523546Y-76546833D01*
X42518955Y-76546833D01*
X42451916Y-76527148D01*
X42406161Y-76474344D01*
X42395017Y-76418898D01*
X42492556Y-73346433D01*
X42113308Y-64264586D01*
X42113200Y-64259412D01*
X42113200Y-62254031D01*
X42132885Y-62186992D01*
X42151995Y-62170433D01*
X42698109Y-62170433D01*
X42718590Y-62312889D01*
X42778377Y-62443802D01*
X42778379Y-62443806D01*
X42872628Y-62552576D01*
X42993703Y-62630386D01*
X42993706Y-62630387D01*
X42993705Y-62630387D01*
X43131792Y-62670932D01*
X43131794Y-62670933D01*
X43131795Y-62670933D01*
X43275718Y-62670933D01*
X43275718Y-62670932D01*
X43413809Y-62630386D01*
X43534884Y-62552576D01*
X43629133Y-62443806D01*
X43688921Y-62312890D01*
X43688921Y-62312888D01*
X43690123Y-62310257D01*
X43735877Y-62257453D01*
X43802917Y-62237768D01*
X43837852Y-62242791D01*
X43944594Y-62274133D01*
X43944595Y-62274133D01*
X44088518Y-62274133D01*
X44088518Y-62274132D01*
X44226609Y-62233586D01*
X44347684Y-62155776D01*
X44441933Y-62047006D01*
X44501721Y-61916090D01*
X44522203Y-61773633D01*
X44501721Y-61631176D01*
X44441933Y-61500260D01*
X44347684Y-61391490D01*
X44226609Y-61313680D01*
X44226607Y-61313679D01*
X44226605Y-61313678D01*
X44226606Y-61313678D01*
X44088519Y-61273133D01*
X44088517Y-61273133D01*
X43944595Y-61273133D01*
X43944592Y-61273133D01*
X43806505Y-61313678D01*
X43685429Y-61391489D01*
X43591179Y-61500259D01*
X43591178Y-61500261D01*
X43530188Y-61633809D01*
X43484433Y-61686613D01*
X43417393Y-61706297D01*
X43382460Y-61701274D01*
X43275720Y-61669933D01*
X43275717Y-61669933D01*
X43131795Y-61669933D01*
X43131792Y-61669933D01*
X42993705Y-61710478D01*
X42872629Y-61788289D01*
X42778379Y-61897059D01*
X42778378Y-61897061D01*
X42718590Y-62027976D01*
X42698109Y-62170433D01*
X42151995Y-62170433D01*
X42185689Y-62141237D01*
X42202260Y-62135055D01*
X42245409Y-62122386D01*
X42366484Y-62044576D01*
X42460733Y-61935806D01*
X42520521Y-61804890D01*
X42541003Y-61662433D01*
X42520521Y-61519976D01*
X42460733Y-61389060D01*
X42366484Y-61280290D01*
X42245409Y-61202480D01*
X42245406Y-61202478D01*
X42202265Y-61189811D01*
X42143487Y-61152036D01*
X42114462Y-61088480D01*
X42113200Y-61070834D01*
X42113200Y-60553601D01*
X42113199Y-60553599D01*
X38898513Y-54270566D01*
X38884956Y-54217634D01*
X38787718Y-50814307D01*
X38805479Y-50746734D01*
X38856955Y-50699490D01*
X38908849Y-50686799D01*
X40974691Y-50639848D01*
X41042160Y-50658004D01*
G37*
%TD.AperFunction*%
%TD*%
M02*
