M48
; DRILL file {KiCad 8.0.6} date 2025-10-31T01:06:34+0100
; FORMAT={-:-/ absolute / metric / decimal}
; #@! TF.CreationDate,2025-10-31T01:06:34+01:00
; #@! TF.GenerationSoftware,Kicad,Pcbnew,8.0.6
; #@! TF.FileFunction,Plated,1,4,PTH
FMAT,2
METRIC
; #@! TA.AperFunction,Plated,PTH,ViaDrill
T1C0.300
; #@! TA.AperFunction,Plated,PTH,ViaDrill
T2C0.600
; #@! TA.AperFunction,Plated,PTH,ComponentDrill
T3C0.750
; #@! TA.AperFunction,Plated,PTH,ViaDrill
T4C0.800
; #@! TA.AperFunction,Plated,PTH,ComponentDrill
T5C0.800
; #@! TA.AperFunction,Plated,PTH,ComponentDrill
T6C1.000
; #@! TA.AperFunction,Plated,PTH,ComponentDrill
T7C1.100
; #@! TA.AperFunction,Plated,PTH,ComponentDrill
T8C3.200
; #@! TA.AperFunction,Plated,PTH,ComponentDrill
T9C4.500
%
G90
G05
T1
X22.223Y-38.904
X23.697Y-34.179
X24.156Y-43.781
X24.763Y-37.99
X27.455Y-30.809
X28.524Y-70.806
X28.535Y-32.664
X29.132Y-72.94
X29.132Y-77.88
X30.402Y-72.94
X31.672Y-72.94
X33.679Y-40.555
X34.365Y-36.923
X34.722Y-73.804
X35.838Y-36.974
X35.838Y-41.444
X36.447Y-73.804
X36.447Y-78.782
X36.549Y-77.106
X37.616Y-34.738
X38.479Y-28.642
X38.479Y-29.342
X38.479Y-30.042
X38.479Y-30.742
X38.581Y-36.3
X39.089Y-40.518
X39.089Y-42.194
X39.953Y-51.679
X40.234Y-40.589
X40.41Y-36.11
X40.733Y-36.674
X40.792Y-39.827
X40.856Y-37.63
X41.351Y-37.135
X41.37Y-37.875
X41.375Y-101.044
X41.862Y-37.395
X41.985Y-53.181
X42.035Y-61.662
X42.081Y-40.205
X42.113Y-36.688
X42.316Y-37.998
X42.391Y-50.385
X42.435Y-36.127
X42.845Y-39.969
X43.204Y-62.17
X43.476Y-40.461
X43.534Y-44.822
X43.61Y-43.322
X44.017Y-61.774
X44.22Y-28.541
X44.22Y-29.252
X44.22Y-29.963
X44.22Y-30.674
X44.372Y-64.05
X44.389Y-36.697
X44.423Y-37.497
X45.236Y-102.226
X45.266Y-40.148
X45.49Y-43.955
X47.065Y-36.162
X47.166Y-57.141
X47.827Y-71.873
X48.741Y-37.887
X48.995Y-58.36
X50.316Y-77.839
X50.769Y-41.8
X50.771Y-43.578
X51.426Y-65.879
X52.856Y-72.889
X52.905Y-68.012
X53.135Y-100.956
X53.135Y-102.226
X53.34Y-70.053
X53.465Y-48.15
X53.591Y-62.424
X53.672Y-65.93
X54.126Y-72.889
X55.179Y-97.908
X55.447Y-64.05
X55.497Y-65.93
X56.499Y-103.496
X58.596Y-49.978
X59.638Y-38.76
X59.917Y-57.497
X60.933Y-47.997
X61.035Y-71.163
X61.035Y-72.888
X61.035Y-79.593
X64.324Y-75.238
X64.324Y-78.363
X66.422Y-76.547
X67.27Y-80.783
T2
X30.074Y-39.421
X43.356Y-75.074
T3
X30.402Y-54.24
X30.402Y-56.24
X30.402Y-58.24
X30.402Y-60.24
X30.402Y-62.24
X30.402Y-64.24
T4
X20.98Y-20.93
T5
X70.534Y-55.109
X70.534Y-70.349
X70.687Y-23.258
X70.687Y-38.498
X73.074Y-55.109
X73.074Y-70.349
X73.227Y-23.258
X73.227Y-38.498
X88.314Y-55.109
X88.314Y-70.349
X88.467Y-23.258
X88.467Y-38.498
X93.394Y-55.109
X93.394Y-70.349
X93.547Y-23.258
X93.547Y-38.498
T6
X18.921Y-83.608
X18.921Y-98.848
X21.461Y-83.608
X21.461Y-98.848
X24.001Y-83.608
X24.001Y-98.848
X26.541Y-98.848
X29.081Y-98.848
X31.621Y-98.848
X34.161Y-98.848
X36.701Y-83.608
X36.701Y-98.848
X39.241Y-83.608
X39.241Y-98.848
X41.781Y-83.608
X41.781Y-98.848
X44.321Y-83.608
X44.321Y-98.848
X46.861Y-83.608
X46.861Y-98.848
T7
X91.544Y-45.13
X91.544Y-48.63
X91.544Y-76.349
X91.544Y-79.849
X91.544Y-97.685
X91.544Y-101.185
X96.544Y-45.13
X96.544Y-48.63
X96.544Y-76.349
X96.544Y-79.849
X96.544Y-97.685
X96.544Y-101.185
T8
X21.483Y-71.908
X61.483Y-21.908
X81.483Y-46.908
X81.483Y-89.408
T9
X22.071Y-55.065
X22.071Y-62.265
M30
