%TF.GenerationSoftware,KiCad,Pcbnew,8.0.6*%
%TF.CreationDate,2026-01-04T18:57:24+01:00*%
%TF.ProjectId,bottom_PCB,626f7474-6f6d-45f5-9043-422e6b696361,rev?*%
%TF.SameCoordinates,Original*%
%TF.FileFunction,Legend,Bot*%
%TF.FilePolarity,Positive*%
%FSLAX46Y46*%
G04 Gerber Fmt 4.6, Leading zero omitted, Abs format (unit mm)*
G04 Created by KiCad (PCBNEW 8.0.6) date 2026-01-04 18:57:24*
%MOMM*%
%LPD*%
G01*
G04 APERTURE LIST*
%ADD10C,0.200000*%
%ADD11C,0.150000*%
%ADD12C,0.120000*%
G04 APERTURE END LIST*
D10*
X22490326Y-25978419D02*
X22490326Y-24978419D01*
X22490326Y-24978419D02*
X22109374Y-24978419D01*
X22109374Y-24978419D02*
X22014136Y-25026038D01*
X22014136Y-25026038D02*
X21966517Y-25073657D01*
X21966517Y-25073657D02*
X21918898Y-25168895D01*
X21918898Y-25168895D02*
X21918898Y-25311752D01*
X21918898Y-25311752D02*
X21966517Y-25406990D01*
X21966517Y-25406990D02*
X22014136Y-25454609D01*
X22014136Y-25454609D02*
X22109374Y-25502228D01*
X22109374Y-25502228D02*
X22490326Y-25502228D01*
X21633183Y-24978419D02*
X21299850Y-25978419D01*
X21299850Y-25978419D02*
X20966517Y-24978419D01*
X19871278Y-25597466D02*
X19109374Y-25597466D01*
X19490326Y-25978419D02*
X19490326Y-25216514D01*
X23833393Y-67618609D02*
X23690536Y-67666228D01*
X23690536Y-67666228D02*
X23642917Y-67713847D01*
X23642917Y-67713847D02*
X23595298Y-67809085D01*
X23595298Y-67809085D02*
X23595298Y-67951942D01*
X23595298Y-67951942D02*
X23642917Y-68047180D01*
X23642917Y-68047180D02*
X23690536Y-68094800D01*
X23690536Y-68094800D02*
X23785774Y-68142419D01*
X23785774Y-68142419D02*
X24166726Y-68142419D01*
X24166726Y-68142419D02*
X24166726Y-67142419D01*
X24166726Y-67142419D02*
X23833393Y-67142419D01*
X23833393Y-67142419D02*
X23738155Y-67190038D01*
X23738155Y-67190038D02*
X23690536Y-67237657D01*
X23690536Y-67237657D02*
X23642917Y-67332895D01*
X23642917Y-67332895D02*
X23642917Y-67428133D01*
X23642917Y-67428133D02*
X23690536Y-67523371D01*
X23690536Y-67523371D02*
X23738155Y-67570990D01*
X23738155Y-67570990D02*
X23833393Y-67618609D01*
X23833393Y-67618609D02*
X24166726Y-67618609D01*
X23214345Y-67856704D02*
X22738155Y-67856704D01*
X23309583Y-68142419D02*
X22976250Y-67142419D01*
X22976250Y-67142419D02*
X22642917Y-68142419D01*
X22452440Y-67142419D02*
X21881012Y-67142419D01*
X22166726Y-68142419D02*
X22166726Y-67142419D01*
X20785773Y-67761466D02*
X20023869Y-67761466D01*
X99179961Y-49398517D02*
X99227580Y-49493755D01*
X99227580Y-49493755D02*
X99227580Y-49636612D01*
X99227580Y-49636612D02*
X99179961Y-49779469D01*
X99179961Y-49779469D02*
X99084723Y-49874707D01*
X99084723Y-49874707D02*
X98989485Y-49922326D01*
X98989485Y-49922326D02*
X98799009Y-49969945D01*
X98799009Y-49969945D02*
X98656152Y-49969945D01*
X98656152Y-49969945D02*
X98465676Y-49922326D01*
X98465676Y-49922326D02*
X98370438Y-49874707D01*
X98370438Y-49874707D02*
X98275200Y-49779469D01*
X98275200Y-49779469D02*
X98227580Y-49636612D01*
X98227580Y-49636612D02*
X98227580Y-49541374D01*
X98227580Y-49541374D02*
X98275200Y-49398517D01*
X98275200Y-49398517D02*
X98322819Y-49350898D01*
X98322819Y-49350898D02*
X98656152Y-49350898D01*
X98656152Y-49350898D02*
X98656152Y-49541374D01*
X98227580Y-48922326D02*
X99227580Y-48922326D01*
X99227580Y-48922326D02*
X98227580Y-48350898D01*
X98227580Y-48350898D02*
X99227580Y-48350898D01*
X98227580Y-47874707D02*
X99227580Y-47874707D01*
X99227580Y-47874707D02*
X99227580Y-47636612D01*
X99227580Y-47636612D02*
X99179961Y-47493755D01*
X99179961Y-47493755D02*
X99084723Y-47398517D01*
X99084723Y-47398517D02*
X98989485Y-47350898D01*
X98989485Y-47350898D02*
X98799009Y-47303279D01*
X98799009Y-47303279D02*
X98656152Y-47303279D01*
X98656152Y-47303279D02*
X98465676Y-47350898D01*
X98465676Y-47350898D02*
X98370438Y-47398517D01*
X98370438Y-47398517D02*
X98275200Y-47493755D01*
X98275200Y-47493755D02*
X98227580Y-47636612D01*
X98227580Y-47636612D02*
X98227580Y-47874707D01*
X98430780Y-101624098D02*
X98906971Y-101957431D01*
X98430780Y-102195526D02*
X99430780Y-102195526D01*
X99430780Y-102195526D02*
X99430780Y-101814574D01*
X99430780Y-101814574D02*
X99383161Y-101719336D01*
X99383161Y-101719336D02*
X99335542Y-101671717D01*
X99335542Y-101671717D02*
X99240304Y-101624098D01*
X99240304Y-101624098D02*
X99097447Y-101624098D01*
X99097447Y-101624098D02*
X99002209Y-101671717D01*
X99002209Y-101671717D02*
X98954590Y-101719336D01*
X98954590Y-101719336D02*
X98906971Y-101814574D01*
X98906971Y-101814574D02*
X98906971Y-102195526D01*
X98478400Y-101243145D02*
X98430780Y-101100288D01*
X98430780Y-101100288D02*
X98430780Y-100862193D01*
X98430780Y-100862193D02*
X98478400Y-100766955D01*
X98478400Y-100766955D02*
X98526019Y-100719336D01*
X98526019Y-100719336D02*
X98621257Y-100671717D01*
X98621257Y-100671717D02*
X98716495Y-100671717D01*
X98716495Y-100671717D02*
X98811733Y-100719336D01*
X98811733Y-100719336D02*
X98859352Y-100766955D01*
X98859352Y-100766955D02*
X98906971Y-100862193D01*
X98906971Y-100862193D02*
X98954590Y-101052669D01*
X98954590Y-101052669D02*
X99002209Y-101147907D01*
X99002209Y-101147907D02*
X99049828Y-101195526D01*
X99049828Y-101195526D02*
X99145066Y-101243145D01*
X99145066Y-101243145D02*
X99240304Y-101243145D01*
X99240304Y-101243145D02*
X99335542Y-101195526D01*
X99335542Y-101195526D02*
X99383161Y-101147907D01*
X99383161Y-101147907D02*
X99430780Y-101052669D01*
X99430780Y-101052669D02*
X99430780Y-100814574D01*
X99430780Y-100814574D02*
X99383161Y-100671717D01*
X98811733Y-100243145D02*
X98811733Y-99481241D01*
X99097447Y-98576479D02*
X98430780Y-98576479D01*
X99478400Y-98814574D02*
X98764114Y-99052669D01*
X98764114Y-99052669D02*
X98764114Y-98433622D01*
X99002209Y-97909812D02*
X99049828Y-98005050D01*
X99049828Y-98005050D02*
X99097447Y-98052669D01*
X99097447Y-98052669D02*
X99192685Y-98100288D01*
X99192685Y-98100288D02*
X99240304Y-98100288D01*
X99240304Y-98100288D02*
X99335542Y-98052669D01*
X99335542Y-98052669D02*
X99383161Y-98005050D01*
X99383161Y-98005050D02*
X99430780Y-97909812D01*
X99430780Y-97909812D02*
X99430780Y-97719336D01*
X99430780Y-97719336D02*
X99383161Y-97624098D01*
X99383161Y-97624098D02*
X99335542Y-97576479D01*
X99335542Y-97576479D02*
X99240304Y-97528860D01*
X99240304Y-97528860D02*
X99192685Y-97528860D01*
X99192685Y-97528860D02*
X99097447Y-97576479D01*
X99097447Y-97576479D02*
X99049828Y-97624098D01*
X99049828Y-97624098D02*
X99002209Y-97719336D01*
X99002209Y-97719336D02*
X99002209Y-97909812D01*
X99002209Y-97909812D02*
X98954590Y-98005050D01*
X98954590Y-98005050D02*
X98906971Y-98052669D01*
X98906971Y-98052669D02*
X98811733Y-98100288D01*
X98811733Y-98100288D02*
X98621257Y-98100288D01*
X98621257Y-98100288D02*
X98526019Y-98052669D01*
X98526019Y-98052669D02*
X98478400Y-98005050D01*
X98478400Y-98005050D02*
X98430780Y-97909812D01*
X98430780Y-97909812D02*
X98430780Y-97719336D01*
X98430780Y-97719336D02*
X98478400Y-97624098D01*
X98478400Y-97624098D02*
X98526019Y-97576479D01*
X98526019Y-97576479D02*
X98621257Y-97528860D01*
X98621257Y-97528860D02*
X98811733Y-97528860D01*
X98811733Y-97528860D02*
X98906971Y-97576479D01*
X98906971Y-97576479D02*
X98954590Y-97624098D01*
X98954590Y-97624098D02*
X99002209Y-97719336D01*
X99430780Y-96624098D02*
X99430780Y-97100288D01*
X99430780Y-97100288D02*
X98954590Y-97147907D01*
X98954590Y-97147907D02*
X99002209Y-97100288D01*
X99002209Y-97100288D02*
X99049828Y-97005050D01*
X99049828Y-97005050D02*
X99049828Y-96766955D01*
X99049828Y-96766955D02*
X99002209Y-96671717D01*
X99002209Y-96671717D02*
X98954590Y-96624098D01*
X98954590Y-96624098D02*
X98859352Y-96576479D01*
X98859352Y-96576479D02*
X98621257Y-96576479D01*
X98621257Y-96576479D02*
X98526019Y-96624098D01*
X98526019Y-96624098D02*
X98478400Y-96671717D01*
X98478400Y-96671717D02*
X98430780Y-96766955D01*
X98430780Y-96766955D02*
X98430780Y-97005050D01*
X98430780Y-97005050D02*
X98478400Y-97100288D01*
X98478400Y-97100288D02*
X98526019Y-97147907D01*
X24036593Y-49584609D02*
X23893736Y-49632228D01*
X23893736Y-49632228D02*
X23846117Y-49679847D01*
X23846117Y-49679847D02*
X23798498Y-49775085D01*
X23798498Y-49775085D02*
X23798498Y-49917942D01*
X23798498Y-49917942D02*
X23846117Y-50013180D01*
X23846117Y-50013180D02*
X23893736Y-50060800D01*
X23893736Y-50060800D02*
X23988974Y-50108419D01*
X23988974Y-50108419D02*
X24369926Y-50108419D01*
X24369926Y-50108419D02*
X24369926Y-49108419D01*
X24369926Y-49108419D02*
X24036593Y-49108419D01*
X24036593Y-49108419D02*
X23941355Y-49156038D01*
X23941355Y-49156038D02*
X23893736Y-49203657D01*
X23893736Y-49203657D02*
X23846117Y-49298895D01*
X23846117Y-49298895D02*
X23846117Y-49394133D01*
X23846117Y-49394133D02*
X23893736Y-49489371D01*
X23893736Y-49489371D02*
X23941355Y-49536990D01*
X23941355Y-49536990D02*
X24036593Y-49584609D01*
X24036593Y-49584609D02*
X24369926Y-49584609D01*
X23417545Y-49822704D02*
X22941355Y-49822704D01*
X23512783Y-50108419D02*
X23179450Y-49108419D01*
X23179450Y-49108419D02*
X22846117Y-50108419D01*
X22655640Y-49108419D02*
X22084212Y-49108419D01*
X22369926Y-50108419D02*
X22369926Y-49108419D01*
X20988973Y-49727466D02*
X20227069Y-49727466D01*
X20608021Y-50108419D02*
X20608021Y-49346514D01*
X22591926Y-21406419D02*
X22591926Y-20406419D01*
X22591926Y-20406419D02*
X22210974Y-20406419D01*
X22210974Y-20406419D02*
X22115736Y-20454038D01*
X22115736Y-20454038D02*
X22068117Y-20501657D01*
X22068117Y-20501657D02*
X22020498Y-20596895D01*
X22020498Y-20596895D02*
X22020498Y-20739752D01*
X22020498Y-20739752D02*
X22068117Y-20834990D01*
X22068117Y-20834990D02*
X22115736Y-20882609D01*
X22115736Y-20882609D02*
X22210974Y-20930228D01*
X22210974Y-20930228D02*
X22591926Y-20930228D01*
X21734783Y-20406419D02*
X21401450Y-21406419D01*
X21401450Y-21406419D02*
X21068117Y-20406419D01*
X19972878Y-21025466D02*
X19210974Y-21025466D01*
X99179961Y-80691317D02*
X99227580Y-80786555D01*
X99227580Y-80786555D02*
X99227580Y-80929412D01*
X99227580Y-80929412D02*
X99179961Y-81072269D01*
X99179961Y-81072269D02*
X99084723Y-81167507D01*
X99084723Y-81167507D02*
X98989485Y-81215126D01*
X98989485Y-81215126D02*
X98799009Y-81262745D01*
X98799009Y-81262745D02*
X98656152Y-81262745D01*
X98656152Y-81262745D02*
X98465676Y-81215126D01*
X98465676Y-81215126D02*
X98370438Y-81167507D01*
X98370438Y-81167507D02*
X98275200Y-81072269D01*
X98275200Y-81072269D02*
X98227580Y-80929412D01*
X98227580Y-80929412D02*
X98227580Y-80834174D01*
X98227580Y-80834174D02*
X98275200Y-80691317D01*
X98275200Y-80691317D02*
X98322819Y-80643698D01*
X98322819Y-80643698D02*
X98656152Y-80643698D01*
X98656152Y-80643698D02*
X98656152Y-80834174D01*
X98227580Y-80215126D02*
X99227580Y-80215126D01*
X99227580Y-80215126D02*
X98227580Y-79643698D01*
X98227580Y-79643698D02*
X99227580Y-79643698D01*
X98227580Y-79167507D02*
X99227580Y-79167507D01*
X99227580Y-79167507D02*
X99227580Y-78929412D01*
X99227580Y-78929412D02*
X99179961Y-78786555D01*
X99179961Y-78786555D02*
X99084723Y-78691317D01*
X99084723Y-78691317D02*
X98989485Y-78643698D01*
X98989485Y-78643698D02*
X98799009Y-78596079D01*
X98799009Y-78596079D02*
X98656152Y-78596079D01*
X98656152Y-78596079D02*
X98465676Y-78643698D01*
X98465676Y-78643698D02*
X98370438Y-78691317D01*
X98370438Y-78691317D02*
X98275200Y-78786555D01*
X98275200Y-78786555D02*
X98227580Y-78929412D01*
X98227580Y-78929412D02*
X98227580Y-79167507D01*
D11*
X38534136Y-36146566D02*
X38581756Y-36098947D01*
X38581756Y-36098947D02*
X38629375Y-35956090D01*
X38629375Y-35956090D02*
X38629375Y-35860852D01*
X38629375Y-35860852D02*
X38581756Y-35717995D01*
X38581756Y-35717995D02*
X38486517Y-35622757D01*
X38486517Y-35622757D02*
X38391279Y-35575138D01*
X38391279Y-35575138D02*
X38200803Y-35527519D01*
X38200803Y-35527519D02*
X38057946Y-35527519D01*
X38057946Y-35527519D02*
X37867470Y-35575138D01*
X37867470Y-35575138D02*
X37772232Y-35622757D01*
X37772232Y-35622757D02*
X37676994Y-35717995D01*
X37676994Y-35717995D02*
X37629375Y-35860852D01*
X37629375Y-35860852D02*
X37629375Y-35956090D01*
X37629375Y-35956090D02*
X37676994Y-36098947D01*
X37676994Y-36098947D02*
X37724613Y-36146566D01*
X37962708Y-37003709D02*
X38629375Y-37003709D01*
X37581756Y-36765614D02*
X38296041Y-36527519D01*
X38296041Y-36527519D02*
X38296041Y-37146566D01*
X42344136Y-36197366D02*
X42391756Y-36149747D01*
X42391756Y-36149747D02*
X42439375Y-36006890D01*
X42439375Y-36006890D02*
X42439375Y-35911652D01*
X42439375Y-35911652D02*
X42391756Y-35768795D01*
X42391756Y-35768795D02*
X42296517Y-35673557D01*
X42296517Y-35673557D02*
X42201279Y-35625938D01*
X42201279Y-35625938D02*
X42010803Y-35578319D01*
X42010803Y-35578319D02*
X41867946Y-35578319D01*
X41867946Y-35578319D02*
X41677470Y-35625938D01*
X41677470Y-35625938D02*
X41582232Y-35673557D01*
X41582232Y-35673557D02*
X41486994Y-35768795D01*
X41486994Y-35768795D02*
X41439375Y-35911652D01*
X41439375Y-35911652D02*
X41439375Y-36006890D01*
X41439375Y-36006890D02*
X41486994Y-36149747D01*
X41486994Y-36149747D02*
X41534613Y-36197366D01*
X41439375Y-37102128D02*
X41439375Y-36625938D01*
X41439375Y-36625938D02*
X41915565Y-36578319D01*
X41915565Y-36578319D02*
X41867946Y-36625938D01*
X41867946Y-36625938D02*
X41820327Y-36721176D01*
X41820327Y-36721176D02*
X41820327Y-36959271D01*
X41820327Y-36959271D02*
X41867946Y-37054509D01*
X41867946Y-37054509D02*
X41915565Y-37102128D01*
X41915565Y-37102128D02*
X42010803Y-37149747D01*
X42010803Y-37149747D02*
X42248898Y-37149747D01*
X42248898Y-37149747D02*
X42344136Y-37102128D01*
X42344136Y-37102128D02*
X42391756Y-37054509D01*
X42391756Y-37054509D02*
X42439375Y-36959271D01*
X42439375Y-36959271D02*
X42439375Y-36721176D01*
X42439375Y-36721176D02*
X42391756Y-36625938D01*
X42391756Y-36625938D02*
X42344136Y-36578319D01*
D12*
%TO.C,C4*%
X39036156Y-36168066D02*
X39036156Y-36460600D01*
X40056156Y-36168066D02*
X40056156Y-36460600D01*
%TO.C,C5*%
X42795356Y-36459500D02*
X42795356Y-36166966D01*
X43815356Y-36459500D02*
X43815356Y-36166966D01*
%TD*%
M02*
