%TF.GenerationSoftware,KiCad,Pcbnew,8.0.6*%
%TF.CreationDate,2026-01-04T18:57:24+01:00*%
%TF.ProjectId,bottom_PCB,626f7474-6f6d-45f5-9043-422e6b696361,rev?*%
%TF.SameCoordinates,Original*%
%TF.FileFunction,Copper,L2,Inr*%
%TF.FilePolarity,Positive*%
%FSLAX46Y46*%
G04 Gerber Fmt 4.6, Leading zero omitted, Abs format (unit mm)*
G04 Created by KiCad (PCBNEW 8.0.6) date 2026-01-04 18:57:24*
%MOMM*%
%LPD*%
G01*
G04 APERTURE LIST*
G04 Aperture macros list*
%AMRoundRect*
0 Rectangle with rounded corners*
0 $1 Rounding radius*
0 $2 $3 $4 $5 $6 $7 $8 $9 X,Y pos of 4 corners*
0 Add a 4 corners polygon primitive as box body*
4,1,4,$2,$3,$4,$5,$6,$7,$8,$9,$2,$3,0*
0 Add four circle primitives for the rounded corners*
1,1,$1+$1,$2,$3*
1,1,$1+$1,$4,$5*
1,1,$1+$1,$6,$7*
1,1,$1+$1,$8,$9*
0 Add four rect primitives between the rounded corners*
20,1,$1+$1,$2,$3,$4,$5,0*
20,1,$1+$1,$4,$5,$6,$7,0*
20,1,$1+$1,$6,$7,$8,$9,0*
20,1,$1+$1,$8,$9,$2,$3,0*%
G04 Aperture macros list end*
%TA.AperFunction,ComponentPad*%
%ADD10C,5.700000*%
%TD*%
%TA.AperFunction,ComponentPad*%
%ADD11C,1.150000*%
%TD*%
%TA.AperFunction,ComponentPad*%
%ADD12C,2.100000*%
%TD*%
%TA.AperFunction,ComponentPad*%
%ADD13C,1.900000*%
%TD*%
%TA.AperFunction,ComponentPad*%
%ADD14RoundRect,0.250000X-0.625000X0.350000X-0.625000X-0.350000X0.625000X-0.350000X0.625000X0.350000X0*%
%TD*%
%TA.AperFunction,ComponentPad*%
%ADD15O,1.750000X1.200000*%
%TD*%
%TA.AperFunction,ComponentPad*%
%ADD16RoundRect,1.500000X1.500000X-1.500000X1.500000X1.500000X-1.500000X1.500000X-1.500000X-1.500000X0*%
%TD*%
%TA.AperFunction,ComponentPad*%
%ADD17C,6.000000*%
%TD*%
%TA.AperFunction,ViaPad*%
%ADD18C,0.600000*%
%TD*%
%TA.AperFunction,ViaPad*%
%ADD19C,0.900000*%
%TD*%
%TA.AperFunction,ViaPad*%
%ADD20C,1.200000*%
%TD*%
%TA.AperFunction,ViaPad*%
%ADD21C,0.500000*%
%TD*%
%TA.AperFunction,Conductor*%
%ADD22C,0.400000*%
%TD*%
%TA.AperFunction,Conductor*%
%ADD23C,0.300000*%
%TD*%
%TA.AperFunction,Conductor*%
%ADD24C,0.200000*%
%TD*%
G04 APERTURE END LIST*
D10*
%TO.N,N/C*%
%TO.C,REF\u002A\u002A*%
X81483200Y-89408000D03*
%TD*%
D11*
%TO.N,SYS*%
%TO.C,U5*%
X70686556Y-38497633D03*
X73226556Y-38497633D03*
%TO.N,N/C*%
X88466556Y-38497633D03*
X93546556Y-38497633D03*
%TO.N,GND3*%
X93546556Y-23257633D03*
%TO.N,+12V*%
X88466556Y-23257633D03*
%TO.N,PACK -*%
X73226556Y-23257633D03*
X70686556Y-23257633D03*
%TD*%
D12*
%TO.N,+12V*%
%TO.C,J6*%
X91543756Y-48629633D03*
X96543756Y-48629633D03*
%TO.N,GND3*%
X91543756Y-45129633D03*
X96543756Y-45129633D03*
%TD*%
D13*
%TO.N,+5V*%
%TO.C,U2*%
X18921356Y-98848033D03*
%TO.N,unconnected-(U2-3v3-Pad2)*%
X21461356Y-98848033D03*
%TO.N,GND2*%
X24001356Y-98848033D03*
%TO.N,unconnected-(U2-GND-Pad4)*%
X26541356Y-98848033D03*
%TO.N,unconnected-(U2-NRST-Pad5)*%
X29081356Y-98848033D03*
%TO.N,SCL_2*%
X31621356Y-98848033D03*
%TO.N,SDA_2*%
X34161356Y-98848033D03*
%TO.N,unconnected-(U2-PC15-Pad8)*%
X36701356Y-98848033D03*
%TO.N,RE*%
X39241356Y-98848033D03*
%TO.N,DE*%
X41781356Y-98848033D03*
%TO.N,TX*%
X44321356Y-98848033D03*
%TO.N,RX*%
X46861356Y-98848033D03*
%TO.N,unconnected-(U2-3v3-Pad13)*%
X18921356Y-83608033D03*
%TO.N,unconnected-(U2-GND-Pad14)*%
X21461356Y-83608033D03*
%TO.N,unconnected-(U2-PB3{slash}4{slash}5{slash}6-Pad15)*%
X24001356Y-83608033D03*
%TO.N,CE_2*%
X36701356Y-83608033D03*
%TO.N,INT_Interupt_2*%
X39241356Y-83608033D03*
%TO.N,ALERT_2*%
X41781356Y-83608033D03*
%TO.N,DCHG_2*%
X44321356Y-83608033D03*
%TO.N,DDSG_2*%
X46861356Y-83608033D03*
%TD*%
D14*
%TO.N,TH1_TS*%
%TO.C,J2*%
X30402156Y-54240033D03*
D15*
%TO.N,TH1_AGND*%
X30402156Y-56240033D03*
%TO.N,TH2_TS*%
X30402156Y-58240033D03*
%TO.N,BAT-*%
X30402156Y-60240033D03*
%TO.N,Probe bat 2-3*%
X30402156Y-62240033D03*
%TO.N,Probe bat 1-2*%
X30402156Y-64240033D03*
%TD*%
D11*
%TO.N,PACK -*%
%TO.C,U6*%
X70534156Y-70349233D03*
X73074156Y-70349233D03*
%TO.N,N/C*%
X88314156Y-70349233D03*
X93394156Y-70349233D03*
%TO.N,+5V*%
X93394156Y-55109233D03*
%TO.N,GND2*%
X88314156Y-55109233D03*
%TO.N,SYS*%
X73074156Y-55109233D03*
X70534156Y-55109233D03*
%TD*%
D10*
%TO.N,N/C*%
%TO.C,REF\u002A\u002A*%
X81483200Y-46908000D03*
%TD*%
D12*
%TO.N,GND2*%
%TO.C,J8*%
X91543756Y-79848833D03*
X96543756Y-79848833D03*
%TO.N,+5V*%
X91543756Y-76348833D03*
X96543756Y-76348833D03*
%TD*%
D10*
%TO.N,N/C*%
%TO.C,REF\u002A\u002A*%
X61483200Y-21908000D03*
%TD*%
D12*
%TO.N,Net-(J1-Pin_1)*%
%TO.C,J1*%
X91543756Y-101184833D03*
X96543756Y-101184833D03*
%TO.N,Net-(J1-Pin_2)*%
X91543756Y-97684833D03*
X96543756Y-97684833D03*
%TD*%
D10*
%TO.N,N/C*%
%TO.C,REF\u002A\u002A*%
X21483200Y-71908000D03*
%TD*%
D16*
%TO.N,BAT-*%
%TO.C,J4*%
X22070956Y-62265233D03*
D17*
%TO.N,BAT+*%
X22070956Y-55065233D03*
%TD*%
D18*
%TO.N,PV_POSITIVE*%
X39088956Y-40518433D03*
X27455356Y-30809033D03*
%TO.N,VAC2*%
X34364556Y-36922833D03*
X33678756Y-40555033D03*
%TO.N,PACK -*%
X48740956Y-37886933D03*
X59638100Y-38760400D03*
X40233600Y-40589200D03*
D19*
X30073600Y-39420800D03*
D18*
X61034556Y-71163133D03*
D20*
X20980400Y-20929600D03*
D18*
%TO.N,BTST1*%
X38580956Y-36299833D03*
%TO.N,SW1*%
X38479356Y-29342436D03*
X38479356Y-30042439D03*
X38479356Y-30742442D03*
D21*
X40409756Y-36110033D03*
D18*
X38479356Y-28642433D03*
D21*
X40732604Y-36674189D03*
%TO.N,SW2*%
X42435295Y-36126730D03*
D18*
X44219756Y-29963233D03*
X44219756Y-30674433D03*
D21*
X42112914Y-36688186D03*
D18*
X44219756Y-29252033D03*
X44219756Y-28540833D03*
%TO.N,BTST2*%
X44422736Y-37496596D03*
%TO.N,+3.3V*%
X36548956Y-77105633D03*
X64323556Y-78363333D03*
%TO.N,BAT*%
X35837756Y-41444033D03*
X59916956Y-57496833D03*
X47064556Y-36161933D03*
X60932956Y-47997233D03*
%TO.N,REGN*%
X35837756Y-36973633D03*
X45265906Y-40147683D03*
%TO.N,BAT-*%
X48994956Y-58360433D03*
X53591356Y-62424433D03*
D19*
X43356156Y-75073633D03*
D18*
X47166156Y-57141233D03*
X53340000Y-70053200D03*
X39952556Y-51679433D03*
X51425556Y-65878833D03*
X47826556Y-71873233D03*
X52904656Y-68012433D03*
X44372156Y-64050033D03*
X41984556Y-53181033D03*
%TO.N,GND2*%
X61034556Y-79592633D03*
X50315756Y-77839233D03*
X55179456Y-97908233D03*
X67269956Y-80783133D03*
X36447356Y-78782033D03*
X66421556Y-76546833D03*
X29132156Y-77880033D03*
X56499156Y-103496233D03*
X64323556Y-75238333D03*
%TO.N,PULLUP*%
X61034556Y-72888133D03*
X55497356Y-65929633D03*
X24155956Y-43780833D03*
X55446556Y-64050033D03*
X28524456Y-70806433D03*
X34722356Y-73803633D03*
%TO.N,Net-(D1-K)*%
X23696556Y-34178533D03*
X28535356Y-32664091D03*
%TO.N,STAT*%
X22223356Y-38904033D03*
X37615756Y-34738433D03*
%TO.N,Net-(D9-K)*%
X53465356Y-48149633D03*
X58596156Y-49978433D03*
%TO.N,RE*%
X41374956Y-101043633D03*
X53135156Y-100956233D03*
%TO.N,DE*%
X45235756Y-102226233D03*
X53135156Y-102226233D03*
%TO.N,INT*%
X44388713Y-36697318D03*
X54125756Y-72889233D03*
X53672356Y-65929633D03*
%TO.N,ACDRV1*%
X40792400Y-39827200D03*
X24763356Y-37989633D03*
%TO.N,PROG*%
X43476030Y-40460559D03*
D21*
X42316400Y-37998400D03*
D18*
%TO.N,SDA_1*%
X44016556Y-61773633D03*
X31672156Y-72940033D03*
X42845219Y-39968542D03*
%TO.N,SCL_1*%
X42080839Y-40204604D03*
X43203756Y-62170433D03*
X30402156Y-72940033D03*
%TO.N,CE_1*%
X52855756Y-72889233D03*
X43533956Y-44822233D03*
%TO.N,TH2_TS*%
X42035356Y-61662433D03*
%TO.N,TH1_TS*%
X42390956Y-50384833D03*
%TO.N,TH1_AGND*%
X41369714Y-37874594D03*
D21*
X41351200Y-37134800D03*
D18*
X50769156Y-41799633D03*
X39088956Y-42194033D03*
X40856224Y-37629776D03*
X29132156Y-72940033D03*
X36447356Y-73803633D03*
X41862401Y-37395114D03*
X43610156Y-43321733D03*
X45489756Y-43954733D03*
X50771056Y-43577633D03*
%TD*%
D22*
%TO.N,REGN*%
X45265906Y-40102583D02*
X45265906Y-40147683D01*
X37717356Y-38853233D02*
X44016556Y-38853233D01*
X35837756Y-36973633D02*
X37717356Y-38853233D01*
X44016556Y-38853233D02*
X45265906Y-40102583D01*
%TO.N,Net-(D1-K)*%
X28535356Y-32664091D02*
X27680214Y-33519233D01*
X24355856Y-33519233D02*
X23696556Y-34178533D01*
X27680214Y-33519233D02*
X24355856Y-33519233D01*
%TO.N,STAT*%
X24966556Y-36160833D02*
X22223356Y-38904033D01*
X37615756Y-34738433D02*
X36193356Y-36160833D01*
X36193356Y-36160833D02*
X24966556Y-36160833D01*
%TO.N,RE*%
X41374956Y-101043633D02*
X53047756Y-101043633D01*
%TO.N,DE*%
X45235756Y-102226233D02*
X53135156Y-102226233D01*
%TO.N,INT*%
X54125756Y-66383033D02*
X53672356Y-65929633D01*
X47470956Y-64253233D02*
X46302556Y-63084833D01*
X46302556Y-63084833D02*
X46302556Y-38386466D01*
X53672356Y-65929633D02*
X51995956Y-64253233D01*
X54125756Y-72889233D02*
X54125756Y-66383033D01*
X46302556Y-38386466D02*
X44613408Y-36697318D01*
X51995956Y-64253233D02*
X47470956Y-64253233D01*
%TO.N,ACDRV1*%
X24763356Y-37989633D02*
X24772123Y-37998400D01*
X32604833Y-39818433D02*
X40783633Y-39818433D01*
X24772123Y-37998400D02*
X30784800Y-37998400D01*
X40783633Y-39818433D02*
X40792400Y-39827200D01*
X30784800Y-37998400D02*
X32604833Y-39818433D01*
D23*
%TO.N,SDA_1*%
X42730839Y-40082922D02*
X42845219Y-39968542D01*
D24*
X42845219Y-39968542D02*
X42815991Y-39968542D01*
D23*
X44016556Y-61773633D02*
X44016556Y-62461546D01*
X33538069Y-72940033D02*
X31672156Y-72940033D01*
X42730839Y-46406716D02*
X42730839Y-40082922D01*
X44016556Y-62461546D02*
X33538069Y-72940033D01*
X44016556Y-47692433D02*
X42730839Y-46406716D01*
X44016556Y-61773633D02*
X44016556Y-47692433D01*
D24*
X42815991Y-39968542D02*
X42669411Y-39821962D01*
D23*
%TO.N,SCL_1*%
X42069411Y-40216032D02*
X42080839Y-40204604D01*
X33704156Y-71670033D02*
X31672156Y-71670033D01*
X31672156Y-71670033D02*
X30402156Y-72940033D01*
X43203756Y-48302033D02*
X42069411Y-47167688D01*
X43203756Y-62170433D02*
X33704156Y-71670033D01*
X43203756Y-62170433D02*
X43203756Y-48302033D01*
X42069411Y-47167688D02*
X42069411Y-40216032D01*
D22*
%TO.N,CE_1*%
X44981756Y-46270033D02*
X44981756Y-63034033D01*
X43533956Y-44822233D02*
X44981756Y-46270033D01*
X44981756Y-63034033D02*
X52855756Y-70908033D01*
X52855756Y-70908033D02*
X52855756Y-72889233D01*
%TO.N,TH2_TS*%
X38612956Y-58240033D02*
X30402156Y-58240033D01*
X42035356Y-61662433D02*
X38612956Y-58240033D01*
%TO.N,TH1_TS*%
X42390956Y-50384833D02*
X38535756Y-54240033D01*
X38535756Y-54240033D02*
X30402156Y-54240033D01*
%TD*%
M02*
