%TF.GenerationSoftware,KiCad,Pcbnew,8.0.6*%
%TF.CreationDate,2026-01-04T18:57:24+01:00*%
%TF.ProjectId,bottom_PCB,626f7474-6f6d-45f5-9043-422e6b696361,rev?*%
%TF.SameCoordinates,Original*%
%TF.FileFunction,Copper,L4,Bot*%
%TF.FilePolarity,Positive*%
%FSLAX46Y46*%
G04 Gerber Fmt 4.6, Leading zero omitted, Abs format (unit mm)*
G04 Created by KiCad (PCBNEW 8.0.6) date 2026-01-04 18:57:24*
%MOMM*%
%LPD*%
G01*
G04 APERTURE LIST*
G04 Aperture macros list*
%AMRoundRect*
0 Rectangle with rounded corners*
0 $1 Rounding radius*
0 $2 $3 $4 $5 $6 $7 $8 $9 X,Y pos of 4 corners*
0 Add a 4 corners polygon primitive as box body*
4,1,4,$2,$3,$4,$5,$6,$7,$8,$9,$2,$3,0*
0 Add four circle primitives for the rounded corners*
1,1,$1+$1,$2,$3*
1,1,$1+$1,$4,$5*
1,1,$1+$1,$6,$7*
1,1,$1+$1,$8,$9*
0 Add four rect primitives between the rounded corners*
20,1,$1+$1,$2,$3,$4,$5,0*
20,1,$1+$1,$4,$5,$6,$7,0*
20,1,$1+$1,$6,$7,$8,$9,0*
20,1,$1+$1,$8,$9,$2,$3,0*%
G04 Aperture macros list end*
%TA.AperFunction,ComponentPad*%
%ADD10C,5.700000*%
%TD*%
%TA.AperFunction,ComponentPad*%
%ADD11C,1.150000*%
%TD*%
%TA.AperFunction,ComponentPad*%
%ADD12C,2.100000*%
%TD*%
%TA.AperFunction,ComponentPad*%
%ADD13C,1.900000*%
%TD*%
%TA.AperFunction,ComponentPad*%
%ADD14RoundRect,0.250000X-0.625000X0.350000X-0.625000X-0.350000X0.625000X-0.350000X0.625000X0.350000X0*%
%TD*%
%TA.AperFunction,ComponentPad*%
%ADD15O,1.750000X1.200000*%
%TD*%
%TA.AperFunction,ComponentPad*%
%ADD16RoundRect,1.500000X1.500000X-1.500000X1.500000X1.500000X-1.500000X1.500000X-1.500000X-1.500000X0*%
%TD*%
%TA.AperFunction,ComponentPad*%
%ADD17C,6.000000*%
%TD*%
%TA.AperFunction,SMDPad,CuDef*%
%ADD18RoundRect,0.237500X0.237500X-0.300000X0.237500X0.300000X-0.237500X0.300000X-0.237500X-0.300000X0*%
%TD*%
%TA.AperFunction,SMDPad,CuDef*%
%ADD19RoundRect,0.237500X-0.237500X0.300000X-0.237500X-0.300000X0.237500X-0.300000X0.237500X0.300000X0*%
%TD*%
%TA.AperFunction,ViaPad*%
%ADD20C,0.600000*%
%TD*%
%TA.AperFunction,ViaPad*%
%ADD21C,0.900000*%
%TD*%
%TA.AperFunction,ViaPad*%
%ADD22C,1.200000*%
%TD*%
%TA.AperFunction,ViaPad*%
%ADD23C,0.500000*%
%TD*%
%TA.AperFunction,Conductor*%
%ADD24C,0.400000*%
%TD*%
%TA.AperFunction,Conductor*%
%ADD25C,0.200000*%
%TD*%
G04 APERTURE END LIST*
D10*
%TO.P,REF\u002A\u002A,1*%
%TO.N,N/C*%
X81483200Y-89408000D03*
%TD*%
D11*
%TO.P,U5,2,-VIN*%
%TO.N,SYS*%
X70686556Y-38497633D03*
%TO.P,U5,3,-VIN*%
X73226556Y-38497633D03*
%TO.P,U5,9*%
%TO.N,N/C*%
X88466556Y-38497633D03*
%TO.P,U5,11*%
X93546556Y-38497633D03*
%TO.P,U5,14,+VOUT*%
%TO.N,GND3*%
X93546556Y-23257633D03*
%TO.P,U5,16,-VOUT*%
%TO.N,+12V*%
X88466556Y-23257633D03*
%TO.P,U5,22,+VIN*%
%TO.N,PACK -*%
X73226556Y-23257633D03*
%TO.P,U5,23,+VIN*%
X70686556Y-23257633D03*
%TD*%
D12*
%TO.P,J6,1,Pin_1*%
%TO.N,+12V*%
X91543756Y-48629633D03*
X96543756Y-48629633D03*
%TO.P,J6,2,Pin_2*%
%TO.N,GND3*%
X91543756Y-45129633D03*
X96543756Y-45129633D03*
%TD*%
D13*
%TO.P,U2,1,VCC*%
%TO.N,+5V*%
X18921356Y-98848033D03*
%TO.P,U2,2,3v3*%
%TO.N,unconnected-(U2-3v3-Pad2)*%
X21461356Y-98848033D03*
%TO.P,U2,3,GND*%
%TO.N,GND2*%
X24001356Y-98848033D03*
%TO.P,U2,4,GND*%
%TO.N,unconnected-(U2-GND-Pad4)*%
X26541356Y-98848033D03*
%TO.P,U2,5,NRST*%
%TO.N,unconnected-(U2-NRST-Pad5)*%
X29081356Y-98848033D03*
%TO.P,U2,6,PB7/PB8*%
%TO.N,SCL_2*%
X31621356Y-98848033D03*
%TO.P,U2,7,PB9/PC14*%
%TO.N,SDA_2*%
X34161356Y-98848033D03*
%TO.P,U2,8,PC15*%
%TO.N,unconnected-(U2-PC15-Pad8)*%
X36701356Y-98848033D03*
%TO.P,U2,9,PA0*%
%TO.N,RE*%
X39241356Y-98848033D03*
%TO.P,U2,10,PA1*%
%TO.N,DE*%
X41781356Y-98848033D03*
%TO.P,U2,11,PA2*%
%TO.N,TX*%
X44321356Y-98848033D03*
%TO.P,U2,12,PA3*%
%TO.N,RX*%
X46861356Y-98848033D03*
%TO.P,U2,13,3v3*%
%TO.N,unconnected-(U2-3v3-Pad13)*%
X18921356Y-83608033D03*
%TO.P,U2,14,GND*%
%TO.N,unconnected-(U2-GND-Pad14)*%
X21461356Y-83608033D03*
%TO.P,U2,15,PB3/4/5/6*%
%TO.N,unconnected-(U2-PB3{slash}4{slash}5{slash}6-Pad15)*%
X24001356Y-83608033D03*
%TO.P,U2,20,PB0/1/2/PA8*%
%TO.N,CE_2*%
X36701356Y-83608033D03*
%TO.P,U2,21,PA7*%
%TO.N,INT_Interupt_2*%
X39241356Y-83608033D03*
%TO.P,U2,22,PA6*%
%TO.N,ALERT_2*%
X41781356Y-83608033D03*
%TO.P,U2,23,PA5*%
%TO.N,DCHG_2*%
X44321356Y-83608033D03*
%TO.P,U2,24,PA4*%
%TO.N,DDSG_2*%
X46861356Y-83608033D03*
%TD*%
D14*
%TO.P,J2,1,Pin_1*%
%TO.N,TH1_TS*%
X30402156Y-54240033D03*
D15*
%TO.P,J2,2,Pin_2*%
%TO.N,TH1_AGND*%
X30402156Y-56240033D03*
%TO.P,J2,3,Pin_3*%
%TO.N,TH2_TS*%
X30402156Y-58240033D03*
%TO.P,J2,4,Pin_4*%
%TO.N,BAT-*%
X30402156Y-60240033D03*
%TO.P,J2,5,Pin_5*%
%TO.N,Probe bat 2-3*%
X30402156Y-62240033D03*
%TO.P,J2,6,Pin_6*%
%TO.N,Probe bat 1-2*%
X30402156Y-64240033D03*
%TD*%
D11*
%TO.P,U6,2,-VIN*%
%TO.N,PACK -*%
X70534156Y-70349233D03*
%TO.P,U6,3,-VIN*%
X73074156Y-70349233D03*
%TO.P,U6,9*%
%TO.N,N/C*%
X88314156Y-70349233D03*
%TO.P,U6,11*%
X93394156Y-70349233D03*
%TO.P,U6,14,+VOUT*%
%TO.N,+5V*%
X93394156Y-55109233D03*
%TO.P,U6,16,-VOUT*%
%TO.N,GND2*%
X88314156Y-55109233D03*
%TO.P,U6,22,+VIN*%
%TO.N,SYS*%
X73074156Y-55109233D03*
%TO.P,U6,23,+VIN*%
X70534156Y-55109233D03*
%TD*%
D10*
%TO.P,REF\u002A\u002A,1*%
%TO.N,N/C*%
X81483200Y-46908000D03*
%TD*%
D12*
%TO.P,J8,1,Pin_1*%
%TO.N,GND2*%
X91543756Y-79848833D03*
X96543756Y-79848833D03*
%TO.P,J8,2,Pin_2*%
%TO.N,+5V*%
X91543756Y-76348833D03*
X96543756Y-76348833D03*
%TD*%
D10*
%TO.P,REF\u002A\u002A,1*%
%TO.N,N/C*%
X61483200Y-21908000D03*
%TD*%
D12*
%TO.P,J1,1,Pin_1*%
%TO.N,Net-(J1-Pin_1)*%
X91543756Y-101184833D03*
X96543756Y-101184833D03*
%TO.P,J1,2,Pin_2*%
%TO.N,Net-(J1-Pin_2)*%
X91543756Y-97684833D03*
X96543756Y-97684833D03*
%TD*%
D10*
%TO.P,REF\u002A\u002A,1*%
%TO.N,N/C*%
X21483200Y-71908000D03*
%TD*%
D16*
%TO.P,J4,1,Pin_1*%
%TO.N,BAT-*%
X22070956Y-62265233D03*
D17*
%TO.P,J4,2,Pin_2*%
%TO.N,BAT+*%
X22070956Y-55065233D03*
%TD*%
D18*
%TO.P,C4,1*%
%TO.N,BTST1*%
X39546156Y-37176833D03*
%TO.P,C4,2*%
%TO.N,SW1*%
X39546156Y-35451833D03*
%TD*%
D19*
%TO.P,C5,1*%
%TO.N,SW2*%
X43305356Y-35450733D03*
%TO.P,C5,2*%
%TO.N,BTST2*%
X43305356Y-37175733D03*
%TD*%
D20*
%TO.N,PV_POSITIVE*%
X39088956Y-40518433D03*
X27455356Y-30809033D03*
%TO.N,VAC2*%
X34364556Y-36922833D03*
X33678756Y-40555033D03*
%TO.N,PACK -*%
X48740956Y-37886933D03*
X59638100Y-38760400D03*
X40233600Y-40589200D03*
D21*
X30073600Y-39420800D03*
D20*
X61034556Y-71163133D03*
D22*
X20980400Y-20929600D03*
D20*
%TO.N,BTST1*%
X38580956Y-36299833D03*
%TO.N,SW1*%
X38479356Y-29342436D03*
X38479356Y-30042439D03*
X38479356Y-30742442D03*
D23*
X40409756Y-36110033D03*
D20*
X38479356Y-28642433D03*
D23*
X40732604Y-36674189D03*
%TO.N,SW2*%
X42435295Y-36126730D03*
D20*
X44219756Y-29963233D03*
X44219756Y-30674433D03*
D23*
X42112914Y-36688186D03*
D20*
X44219756Y-29252033D03*
X44219756Y-28540833D03*
%TO.N,BTST2*%
X44422736Y-37496596D03*
%TO.N,+3.3V*%
X36548956Y-77105633D03*
X64323556Y-78363333D03*
%TO.N,BAT*%
X35837756Y-41444033D03*
X59916956Y-57496833D03*
X47064556Y-36161933D03*
X60932956Y-47997233D03*
%TO.N,REGN*%
X35837756Y-36973633D03*
X45265906Y-40147683D03*
%TO.N,BAT-*%
X48994956Y-58360433D03*
X53591356Y-62424433D03*
D21*
X43356156Y-75073633D03*
D20*
X47166156Y-57141233D03*
X53340000Y-70053200D03*
X39952556Y-51679433D03*
X51425556Y-65878833D03*
X47826556Y-71873233D03*
X52904656Y-68012433D03*
X44372156Y-64050033D03*
X41984556Y-53181033D03*
%TO.N,GND2*%
X61034556Y-79592633D03*
X50315756Y-77839233D03*
X55179456Y-97908233D03*
X67269956Y-80783133D03*
X36447356Y-78782033D03*
X66421556Y-76546833D03*
X29132156Y-77880033D03*
X56499156Y-103496233D03*
X64323556Y-75238333D03*
%TO.N,PULLUP*%
X61034556Y-72888133D03*
X55497356Y-65929633D03*
X24155956Y-43780833D03*
X55446556Y-64050033D03*
X28524456Y-70806433D03*
X34722356Y-73803633D03*
%TO.N,Net-(D1-K)*%
X23696556Y-34178533D03*
X28535356Y-32664091D03*
%TO.N,STAT*%
X22223356Y-38904033D03*
X37615756Y-34738433D03*
%TO.N,Net-(D9-K)*%
X53465356Y-48149633D03*
X58596156Y-49978433D03*
%TO.N,RE*%
X41374956Y-101043633D03*
X53135156Y-100956233D03*
%TO.N,DE*%
X45235756Y-102226233D03*
X53135156Y-102226233D03*
%TO.N,INT*%
X44388713Y-36697318D03*
X54125756Y-72889233D03*
X53672356Y-65929633D03*
%TO.N,ACDRV1*%
X40792400Y-39827200D03*
X24763356Y-37989633D03*
%TO.N,PROG*%
X43476030Y-40460559D03*
D23*
X42316400Y-37998400D03*
D20*
%TO.N,SDA_1*%
X44016556Y-61773633D03*
X31672156Y-72940033D03*
X42845219Y-39968542D03*
%TO.N,SCL_1*%
X42080839Y-40204604D03*
X43203756Y-62170433D03*
X30402156Y-72940033D03*
%TO.N,CE_1*%
X52855756Y-72889233D03*
X43533956Y-44822233D03*
%TO.N,TH2_TS*%
X42035356Y-61662433D03*
%TO.N,TH1_TS*%
X42390956Y-50384833D03*
%TO.N,TH1_AGND*%
X41369714Y-37874594D03*
D23*
X41351200Y-37134800D03*
D20*
X50769156Y-41799633D03*
X39088956Y-42194033D03*
X40856224Y-37629776D03*
X29132156Y-72940033D03*
X36447356Y-73803633D03*
X41862401Y-37395114D03*
X43610156Y-43321733D03*
X45489756Y-43954733D03*
X50771056Y-43577633D03*
%TD*%
D24*
%TO.N,BTST1*%
X39457956Y-37176833D02*
X38580956Y-36299833D01*
D25*
X39546156Y-37176833D02*
X39457956Y-37176833D01*
D24*
%TO.N,SW1*%
X40204356Y-36110033D02*
X39546156Y-35451833D01*
D25*
X40409756Y-36110033D02*
X40204356Y-36110033D01*
%TO.N,SW2*%
X42432959Y-36110033D02*
X42492556Y-36110033D01*
D24*
X42492556Y-36110033D02*
X43151856Y-35450733D01*
D25*
X43151856Y-35450733D02*
X43305356Y-35450733D01*
D24*
%TO.N,BTST2*%
X43305356Y-37175733D02*
X43626219Y-37496596D01*
X43626219Y-37496596D02*
X44422736Y-37496596D01*
%TO.N,RE*%
X53047756Y-101043633D02*
X53135156Y-100956233D01*
%TO.N,INT*%
X44613408Y-36697318D02*
X44388713Y-36697318D01*
%TD*%
%TA.AperFunction,Conductor*%
%TO.N,GND2*%
G36*
X99236715Y-52190095D02*
G01*
X99282863Y-52242556D01*
X99294456Y-52294908D01*
X99294456Y-104370333D01*
X99274771Y-104437372D01*
X99221967Y-104483127D01*
X99170456Y-104494333D01*
X17107456Y-104494333D01*
X17040417Y-104474648D01*
X16994662Y-104421844D01*
X16983456Y-104370333D01*
X16983456Y-102226233D01*
X44730109Y-102226233D01*
X44750590Y-102368689D01*
X44810378Y-102499604D01*
X44810379Y-102499606D01*
X44904628Y-102608376D01*
X45025703Y-102686186D01*
X45025706Y-102686187D01*
X45025705Y-102686187D01*
X45163792Y-102726732D01*
X45163794Y-102726733D01*
X45163795Y-102726733D01*
X45307718Y-102726733D01*
X45307718Y-102726732D01*
X45445809Y-102686186D01*
X45566884Y-102608376D01*
X45661133Y-102499606D01*
X45720921Y-102368690D01*
X45741403Y-102226233D01*
X52629509Y-102226233D01*
X52649990Y-102368689D01*
X52709778Y-102499604D01*
X52709779Y-102499606D01*
X52804028Y-102608376D01*
X52925103Y-102686186D01*
X52925106Y-102686187D01*
X52925105Y-102686187D01*
X53063192Y-102726732D01*
X53063194Y-102726733D01*
X53063195Y-102726733D01*
X53207118Y-102726733D01*
X53207118Y-102726732D01*
X53345209Y-102686186D01*
X53466284Y-102608376D01*
X53560533Y-102499606D01*
X53620321Y-102368690D01*
X53640803Y-102226233D01*
X53620321Y-102083776D01*
X53560533Y-101952860D01*
X53466284Y-101844090D01*
X53345209Y-101766280D01*
X53345207Y-101766279D01*
X53345205Y-101766278D01*
X53345206Y-101766278D01*
X53207119Y-101725733D01*
X53207117Y-101725733D01*
X53063195Y-101725733D01*
X53063192Y-101725733D01*
X52925105Y-101766278D01*
X52804029Y-101844089D01*
X52709779Y-101952859D01*
X52709778Y-101952861D01*
X52649990Y-102083776D01*
X52629509Y-102226233D01*
X45741403Y-102226233D01*
X45720921Y-102083776D01*
X45661133Y-101952860D01*
X45566884Y-101844090D01*
X45445809Y-101766280D01*
X45445807Y-101766279D01*
X45445805Y-101766278D01*
X45445806Y-101766278D01*
X45307719Y-101725733D01*
X45307717Y-101725733D01*
X45163795Y-101725733D01*
X45163792Y-101725733D01*
X45025705Y-101766278D01*
X44904629Y-101844089D01*
X44810379Y-101952859D01*
X44810378Y-101952861D01*
X44750590Y-102083776D01*
X44730109Y-102226233D01*
X16983456Y-102226233D01*
X16983456Y-101043633D01*
X40869309Y-101043633D01*
X40889790Y-101186089D01*
X40909663Y-101229604D01*
X40949579Y-101317006D01*
X41043828Y-101425776D01*
X41164903Y-101503586D01*
X41164906Y-101503587D01*
X41164905Y-101503587D01*
X41302992Y-101544132D01*
X41302994Y-101544133D01*
X41302995Y-101544133D01*
X41446918Y-101544133D01*
X41446918Y-101544132D01*
X41585009Y-101503586D01*
X41706084Y-101425776D01*
X41800333Y-101317006D01*
X41860121Y-101186090D01*
X41880603Y-101043633D01*
X41868037Y-100956232D01*
X52629509Y-100956232D01*
X52629509Y-100956233D01*
X52642075Y-101043633D01*
X52645994Y-101070889D01*
X52647256Y-101088536D01*
X52647256Y-101096360D01*
X52660902Y-101147290D01*
X52674549Y-101198222D01*
X52692668Y-101229604D01*
X52727276Y-101289546D01*
X52801843Y-101364113D01*
X52893168Y-101416840D01*
X52995029Y-101444133D01*
X53002455Y-101444133D01*
X53037390Y-101449156D01*
X53063194Y-101456733D01*
X53063195Y-101456733D01*
X53207118Y-101456733D01*
X53207118Y-101456732D01*
X53345209Y-101416186D01*
X53466284Y-101338376D01*
X53560533Y-101229606D01*
X53580980Y-101184833D01*
X90288479Y-101184833D01*
X90304163Y-101364112D01*
X90307549Y-101402808D01*
X90307549Y-101402812D01*
X90364178Y-101614155D01*
X90364180Y-101614159D01*
X90364181Y-101614163D01*
X90410417Y-101713317D01*
X90456653Y-101812471D01*
X90456654Y-101812472D01*
X90582158Y-101991710D01*
X90736879Y-102146431D01*
X90916117Y-102271935D01*
X91114426Y-102364408D01*
X91114432Y-102364409D01*
X91114433Y-102364410D01*
X91145120Y-102372632D01*
X91325779Y-102421040D01*
X91508682Y-102437041D01*
X91543754Y-102440110D01*
X91543756Y-102440110D01*
X91543758Y-102440110D01*
X91572010Y-102437638D01*
X91761733Y-102421040D01*
X91973086Y-102364408D01*
X92171395Y-102271935D01*
X92350633Y-102146431D01*
X92505354Y-101991710D01*
X92630858Y-101812472D01*
X92723331Y-101614163D01*
X92779963Y-101402810D01*
X92799033Y-101184833D01*
X95288479Y-101184833D01*
X95304163Y-101364112D01*
X95307549Y-101402808D01*
X95307549Y-101402812D01*
X95364178Y-101614155D01*
X95364180Y-101614159D01*
X95364181Y-101614163D01*
X95410417Y-101713317D01*
X95456653Y-101812471D01*
X95456654Y-101812472D01*
X95582158Y-101991710D01*
X95736879Y-102146431D01*
X95916117Y-102271935D01*
X96114426Y-102364408D01*
X96114432Y-102364409D01*
X96114433Y-102364410D01*
X96145120Y-102372632D01*
X96325779Y-102421040D01*
X96508682Y-102437041D01*
X96543754Y-102440110D01*
X96543756Y-102440110D01*
X96543758Y-102440110D01*
X96572010Y-102437638D01*
X96761733Y-102421040D01*
X96973086Y-102364408D01*
X97171395Y-102271935D01*
X97350633Y-102146431D01*
X97505354Y-101991710D01*
X97630858Y-101812472D01*
X97723331Y-101614163D01*
X97779963Y-101402810D01*
X97799033Y-101184833D01*
X97779963Y-100966856D01*
X97738945Y-100813776D01*
X97723333Y-100755510D01*
X97723332Y-100755509D01*
X97723331Y-100755503D01*
X97630858Y-100557195D01*
X97630856Y-100557192D01*
X97630855Y-100557190D01*
X97505355Y-100377957D01*
X97505352Y-100377954D01*
X97350633Y-100223235D01*
X97171395Y-100097731D01*
X97171396Y-100097731D01*
X97171394Y-100097730D01*
X97072240Y-100051494D01*
X96973086Y-100005258D01*
X96973082Y-100005257D01*
X96973078Y-100005255D01*
X96761733Y-99948626D01*
X96543758Y-99929556D01*
X96543754Y-99929556D01*
X96398438Y-99942269D01*
X96325779Y-99948626D01*
X96325776Y-99948626D01*
X96114433Y-100005255D01*
X96114424Y-100005259D01*
X95916117Y-100097731D01*
X95916113Y-100097733D01*
X95736877Y-100223235D01*
X95582158Y-100377954D01*
X95456656Y-100557190D01*
X95456654Y-100557194D01*
X95364182Y-100755501D01*
X95364178Y-100755510D01*
X95307549Y-100966853D01*
X95307549Y-100966857D01*
X95297680Y-101079667D01*
X95288479Y-101184833D01*
X92799033Y-101184833D01*
X92779963Y-100966856D01*
X92738945Y-100813776D01*
X92723333Y-100755510D01*
X92723332Y-100755509D01*
X92723331Y-100755503D01*
X92630858Y-100557195D01*
X92630856Y-100557192D01*
X92630855Y-100557190D01*
X92505355Y-100377957D01*
X92505352Y-100377954D01*
X92350633Y-100223235D01*
X92171395Y-100097731D01*
X92171396Y-100097731D01*
X92171394Y-100097730D01*
X92072240Y-100051494D01*
X91973086Y-100005258D01*
X91973082Y-100005257D01*
X91973078Y-100005255D01*
X91761733Y-99948626D01*
X91543758Y-99929556D01*
X91543754Y-99929556D01*
X91398438Y-99942269D01*
X91325779Y-99948626D01*
X91325776Y-99948626D01*
X91114433Y-100005255D01*
X91114424Y-100005259D01*
X90916117Y-100097731D01*
X90916113Y-100097733D01*
X90736877Y-100223235D01*
X90582158Y-100377954D01*
X90456656Y-100557190D01*
X90456654Y-100557194D01*
X90364182Y-100755501D01*
X90364178Y-100755510D01*
X90307549Y-100966853D01*
X90307549Y-100966857D01*
X90297680Y-101079667D01*
X90288479Y-101184833D01*
X53580980Y-101184833D01*
X53620321Y-101098690D01*
X53640803Y-100956233D01*
X53620321Y-100813776D01*
X53560533Y-100682860D01*
X53466284Y-100574090D01*
X53345209Y-100496280D01*
X53345207Y-100496279D01*
X53345205Y-100496278D01*
X53345206Y-100496278D01*
X53207119Y-100455733D01*
X53207117Y-100455733D01*
X53063195Y-100455733D01*
X53063192Y-100455733D01*
X52925105Y-100496278D01*
X52804029Y-100574089D01*
X52709779Y-100682859D01*
X52709778Y-100682861D01*
X52649990Y-100813776D01*
X52629509Y-100956232D01*
X41868037Y-100956232D01*
X41860121Y-100901176D01*
X41800333Y-100770260D01*
X41706084Y-100661490D01*
X41585009Y-100583680D01*
X41585007Y-100583679D01*
X41585005Y-100583678D01*
X41585006Y-100583678D01*
X41446919Y-100543133D01*
X41446917Y-100543133D01*
X41302995Y-100543133D01*
X41302992Y-100543133D01*
X41164905Y-100583678D01*
X41043829Y-100661489D01*
X40949579Y-100770259D01*
X40949578Y-100770261D01*
X40889790Y-100901176D01*
X40869309Y-101043633D01*
X16983456Y-101043633D01*
X16983456Y-98848032D01*
X17765927Y-98848032D01*
X17765927Y-98848033D01*
X17785600Y-99060343D01*
X17843952Y-99265425D01*
X17843952Y-99265427D01*
X17938988Y-99456286D01*
X17938990Y-99456288D01*
X18067484Y-99626440D01*
X18225054Y-99770085D01*
X18406337Y-99882331D01*
X18605158Y-99959354D01*
X18814746Y-99998533D01*
X18814748Y-99998533D01*
X19027964Y-99998533D01*
X19027966Y-99998533D01*
X19237554Y-99959354D01*
X19436375Y-99882331D01*
X19617658Y-99770085D01*
X19775228Y-99626440D01*
X19903722Y-99456288D01*
X19998761Y-99265422D01*
X20057112Y-99060343D01*
X20067885Y-98944080D01*
X20093671Y-98879144D01*
X20135978Y-98848837D01*
X20244486Y-98848837D01*
X20280859Y-98869701D01*
X20313049Y-98931714D01*
X20314827Y-98944081D01*
X20325600Y-99060343D01*
X20383952Y-99265425D01*
X20383952Y-99265427D01*
X20478988Y-99456286D01*
X20478990Y-99456288D01*
X20607484Y-99626440D01*
X20765054Y-99770085D01*
X20946337Y-99882331D01*
X21145158Y-99959354D01*
X21354746Y-99998533D01*
X21354748Y-99998533D01*
X21567964Y-99998533D01*
X21567966Y-99998533D01*
X21777554Y-99959354D01*
X21976375Y-99882331D01*
X22157658Y-99770085D01*
X22315228Y-99626440D01*
X22443722Y-99456288D01*
X22538761Y-99265422D01*
X22597112Y-99060343D01*
X22616785Y-98848033D01*
X22616785Y-98848032D01*
X25385927Y-98848032D01*
X25385927Y-98848033D01*
X25405600Y-99060343D01*
X25463952Y-99265425D01*
X25463952Y-99265427D01*
X25558988Y-99456286D01*
X25558990Y-99456288D01*
X25687484Y-99626440D01*
X25845054Y-99770085D01*
X26026337Y-99882331D01*
X26225158Y-99959354D01*
X26434746Y-99998533D01*
X26434748Y-99998533D01*
X26647964Y-99998533D01*
X26647966Y-99998533D01*
X26857554Y-99959354D01*
X27056375Y-99882331D01*
X27237658Y-99770085D01*
X27395228Y-99626440D01*
X27523722Y-99456288D01*
X27618761Y-99265422D01*
X27677112Y-99060343D01*
X27687885Y-98944080D01*
X27713671Y-98879144D01*
X27755978Y-98848837D01*
X27864486Y-98848837D01*
X27900859Y-98869701D01*
X27933049Y-98931714D01*
X27934827Y-98944081D01*
X27945600Y-99060343D01*
X28003952Y-99265425D01*
X28003952Y-99265427D01*
X28098988Y-99456286D01*
X28098990Y-99456288D01*
X28227484Y-99626440D01*
X28385054Y-99770085D01*
X28566337Y-99882331D01*
X28765158Y-99959354D01*
X28974746Y-99998533D01*
X28974748Y-99998533D01*
X29187964Y-99998533D01*
X29187966Y-99998533D01*
X29397554Y-99959354D01*
X29596375Y-99882331D01*
X29777658Y-99770085D01*
X29935228Y-99626440D01*
X30063722Y-99456288D01*
X30158761Y-99265422D01*
X30217112Y-99060343D01*
X30227885Y-98944080D01*
X30253671Y-98879144D01*
X30295978Y-98848837D01*
X30404486Y-98848837D01*
X30440859Y-98869701D01*
X30473049Y-98931714D01*
X30474827Y-98944081D01*
X30485600Y-99060343D01*
X30543952Y-99265425D01*
X30543952Y-99265427D01*
X30638988Y-99456286D01*
X30638990Y-99456288D01*
X30767484Y-99626440D01*
X30925054Y-99770085D01*
X31106337Y-99882331D01*
X31305158Y-99959354D01*
X31514746Y-99998533D01*
X31514748Y-99998533D01*
X31727964Y-99998533D01*
X31727966Y-99998533D01*
X31937554Y-99959354D01*
X32136375Y-99882331D01*
X32317658Y-99770085D01*
X32475228Y-99626440D01*
X32603722Y-99456288D01*
X32698761Y-99265422D01*
X32757112Y-99060343D01*
X32767885Y-98944080D01*
X32793671Y-98879144D01*
X32835978Y-98848837D01*
X32944486Y-98848837D01*
X32980859Y-98869701D01*
X33013049Y-98931714D01*
X33014827Y-98944081D01*
X33025600Y-99060343D01*
X33083952Y-99265425D01*
X33083952Y-99265427D01*
X33178988Y-99456286D01*
X33178990Y-99456288D01*
X33307484Y-99626440D01*
X33465054Y-99770085D01*
X33646337Y-99882331D01*
X33845158Y-99959354D01*
X34054746Y-99998533D01*
X34054748Y-99998533D01*
X34267964Y-99998533D01*
X34267966Y-99998533D01*
X34477554Y-99959354D01*
X34676375Y-99882331D01*
X34857658Y-99770085D01*
X35015228Y-99626440D01*
X35143722Y-99456288D01*
X35238761Y-99265422D01*
X35297112Y-99060343D01*
X35307885Y-98944080D01*
X35333671Y-98879144D01*
X35375978Y-98848837D01*
X35484486Y-98848837D01*
X35520859Y-98869701D01*
X35553049Y-98931714D01*
X35554827Y-98944081D01*
X35565600Y-99060343D01*
X35623952Y-99265425D01*
X35623952Y-99265427D01*
X35718988Y-99456286D01*
X35718990Y-99456288D01*
X35847484Y-99626440D01*
X36005054Y-99770085D01*
X36186337Y-99882331D01*
X36385158Y-99959354D01*
X36594746Y-99998533D01*
X36594748Y-99998533D01*
X36807964Y-99998533D01*
X36807966Y-99998533D01*
X37017554Y-99959354D01*
X37216375Y-99882331D01*
X37397658Y-99770085D01*
X37555228Y-99626440D01*
X37683722Y-99456288D01*
X37778761Y-99265422D01*
X37837112Y-99060343D01*
X37847885Y-98944080D01*
X37873671Y-98879144D01*
X37915978Y-98848837D01*
X38024486Y-98848837D01*
X38060859Y-98869701D01*
X38093049Y-98931714D01*
X38094827Y-98944081D01*
X38105600Y-99060343D01*
X38163952Y-99265425D01*
X38163952Y-99265427D01*
X38258988Y-99456286D01*
X38258990Y-99456288D01*
X38387484Y-99626440D01*
X38545054Y-99770085D01*
X38726337Y-99882331D01*
X38925158Y-99959354D01*
X39134746Y-99998533D01*
X39134748Y-99998533D01*
X39347964Y-99998533D01*
X39347966Y-99998533D01*
X39557554Y-99959354D01*
X39756375Y-99882331D01*
X39937658Y-99770085D01*
X40095228Y-99626440D01*
X40223722Y-99456288D01*
X40318761Y-99265422D01*
X40377112Y-99060343D01*
X40387885Y-98944080D01*
X40413671Y-98879144D01*
X40455978Y-98848837D01*
X40564486Y-98848837D01*
X40600859Y-98869701D01*
X40633049Y-98931714D01*
X40634827Y-98944081D01*
X40645600Y-99060343D01*
X40703952Y-99265425D01*
X40703952Y-99265427D01*
X40798988Y-99456286D01*
X40798990Y-99456288D01*
X40927484Y-99626440D01*
X41085054Y-99770085D01*
X41266337Y-99882331D01*
X41465158Y-99959354D01*
X41674746Y-99998533D01*
X41674748Y-99998533D01*
X41887964Y-99998533D01*
X41887966Y-99998533D01*
X42097554Y-99959354D01*
X42296375Y-99882331D01*
X42477658Y-99770085D01*
X42635228Y-99626440D01*
X42763722Y-99456288D01*
X42858761Y-99265422D01*
X42917112Y-99060343D01*
X42927885Y-98944080D01*
X42953671Y-98879144D01*
X42995978Y-98848837D01*
X43104486Y-98848837D01*
X43140859Y-98869701D01*
X43173049Y-98931714D01*
X43174827Y-98944081D01*
X43185600Y-99060343D01*
X43243952Y-99265425D01*
X43243952Y-99265427D01*
X43338988Y-99456286D01*
X43338990Y-99456288D01*
X43467484Y-99626440D01*
X43625054Y-99770085D01*
X43806337Y-99882331D01*
X44005158Y-99959354D01*
X44214746Y-99998533D01*
X44214748Y-99998533D01*
X44427964Y-99998533D01*
X44427966Y-99998533D01*
X44637554Y-99959354D01*
X44836375Y-99882331D01*
X45017658Y-99770085D01*
X45175228Y-99626440D01*
X45303722Y-99456288D01*
X45398761Y-99265422D01*
X45457112Y-99060343D01*
X45467885Y-98944080D01*
X45493671Y-98879144D01*
X45535978Y-98848837D01*
X45644486Y-98848837D01*
X45680859Y-98869701D01*
X45713049Y-98931714D01*
X45714827Y-98944081D01*
X45725600Y-99060343D01*
X45783952Y-99265425D01*
X45783952Y-99265427D01*
X45878988Y-99456286D01*
X45878990Y-99456288D01*
X46007484Y-99626440D01*
X46165054Y-99770085D01*
X46346337Y-99882331D01*
X46545158Y-99959354D01*
X46754746Y-99998533D01*
X46754748Y-99998533D01*
X46967964Y-99998533D01*
X46967966Y-99998533D01*
X47177554Y-99959354D01*
X47376375Y-99882331D01*
X47557658Y-99770085D01*
X47715228Y-99626440D01*
X47843722Y-99456288D01*
X47938761Y-99265422D01*
X47997112Y-99060343D01*
X48016785Y-98848033D01*
X47997112Y-98635723D01*
X47938761Y-98430644D01*
X47938759Y-98430639D01*
X47938759Y-98430638D01*
X47843723Y-98239779D01*
X47715228Y-98069626D01*
X47557658Y-97925981D01*
X47376375Y-97813735D01*
X47376373Y-97813734D01*
X47276964Y-97775223D01*
X47177554Y-97736712D01*
X46967966Y-97697533D01*
X46754746Y-97697533D01*
X46545158Y-97736712D01*
X46545155Y-97736712D01*
X46545155Y-97736713D01*
X46346338Y-97813734D01*
X46346336Y-97813735D01*
X46165055Y-97925980D01*
X46007483Y-98069626D01*
X45878988Y-98239779D01*
X45783952Y-98430638D01*
X45783952Y-98430640D01*
X45725600Y-98635722D01*
X45714827Y-98751984D01*
X45689041Y-98816921D01*
X45644486Y-98848837D01*
X45535978Y-98848837D01*
X45538225Y-98847227D01*
X45501853Y-98826364D01*
X45469663Y-98764351D01*
X45467885Y-98751984D01*
X45467205Y-98744646D01*
X45457112Y-98635723D01*
X45398761Y-98430644D01*
X45398759Y-98430639D01*
X45398759Y-98430638D01*
X45303723Y-98239779D01*
X45175228Y-98069626D01*
X45017658Y-97925981D01*
X44836375Y-97813735D01*
X44836373Y-97813734D01*
X44736964Y-97775223D01*
X44637554Y-97736712D01*
X44427966Y-97697533D01*
X44214746Y-97697533D01*
X44005158Y-97736712D01*
X44005155Y-97736712D01*
X44005155Y-97736713D01*
X43806338Y-97813734D01*
X43806336Y-97813735D01*
X43625055Y-97925980D01*
X43467483Y-98069626D01*
X43338988Y-98239779D01*
X43243952Y-98430638D01*
X43243952Y-98430640D01*
X43185600Y-98635722D01*
X43174827Y-98751984D01*
X43149041Y-98816921D01*
X43104486Y-98848837D01*
X42995978Y-98848837D01*
X42998225Y-98847227D01*
X42961853Y-98826364D01*
X42929663Y-98764351D01*
X42927885Y-98751984D01*
X42927205Y-98744646D01*
X42917112Y-98635723D01*
X42858761Y-98430644D01*
X42858759Y-98430639D01*
X42858759Y-98430638D01*
X42763723Y-98239779D01*
X42635228Y-98069626D01*
X42477658Y-97925981D01*
X42296375Y-97813735D01*
X42296373Y-97813734D01*
X42196964Y-97775223D01*
X42097554Y-97736712D01*
X41887966Y-97697533D01*
X41674746Y-97697533D01*
X41465158Y-97736712D01*
X41465155Y-97736712D01*
X41465155Y-97736713D01*
X41266338Y-97813734D01*
X41266336Y-97813735D01*
X41085055Y-97925980D01*
X40927483Y-98069626D01*
X40798988Y-98239779D01*
X40703952Y-98430638D01*
X40703952Y-98430640D01*
X40645600Y-98635722D01*
X40634827Y-98751984D01*
X40609041Y-98816921D01*
X40564486Y-98848837D01*
X40455978Y-98848837D01*
X40458225Y-98847227D01*
X40421853Y-98826364D01*
X40389663Y-98764351D01*
X40387885Y-98751984D01*
X40387205Y-98744646D01*
X40377112Y-98635723D01*
X40318761Y-98430644D01*
X40318759Y-98430639D01*
X40318759Y-98430638D01*
X40223723Y-98239779D01*
X40095228Y-98069626D01*
X39937658Y-97925981D01*
X39756375Y-97813735D01*
X39756373Y-97813734D01*
X39656964Y-97775223D01*
X39557554Y-97736712D01*
X39347966Y-97697533D01*
X39134746Y-97697533D01*
X38925158Y-97736712D01*
X38925155Y-97736712D01*
X38925155Y-97736713D01*
X38726338Y-97813734D01*
X38726336Y-97813735D01*
X38545055Y-97925980D01*
X38387483Y-98069626D01*
X38258988Y-98239779D01*
X38163952Y-98430638D01*
X38163952Y-98430640D01*
X38105600Y-98635722D01*
X38094827Y-98751984D01*
X38069041Y-98816921D01*
X38024486Y-98848837D01*
X37915978Y-98848837D01*
X37918225Y-98847227D01*
X37881853Y-98826364D01*
X37849663Y-98764351D01*
X37847885Y-98751984D01*
X37847205Y-98744646D01*
X37837112Y-98635723D01*
X37778761Y-98430644D01*
X37778759Y-98430639D01*
X37778759Y-98430638D01*
X37683723Y-98239779D01*
X37555228Y-98069626D01*
X37397658Y-97925981D01*
X37216375Y-97813735D01*
X37216373Y-97813734D01*
X37116964Y-97775223D01*
X37017554Y-97736712D01*
X36807966Y-97697533D01*
X36594746Y-97697533D01*
X36385158Y-97736712D01*
X36385155Y-97736712D01*
X36385155Y-97736713D01*
X36186338Y-97813734D01*
X36186336Y-97813735D01*
X36005055Y-97925980D01*
X35847483Y-98069626D01*
X35718988Y-98239779D01*
X35623952Y-98430638D01*
X35623952Y-98430640D01*
X35565600Y-98635722D01*
X35554827Y-98751984D01*
X35529041Y-98816921D01*
X35484486Y-98848837D01*
X35375978Y-98848837D01*
X35378225Y-98847227D01*
X35341853Y-98826364D01*
X35309663Y-98764351D01*
X35307885Y-98751984D01*
X35307205Y-98744646D01*
X35297112Y-98635723D01*
X35238761Y-98430644D01*
X35238759Y-98430639D01*
X35238759Y-98430638D01*
X35143723Y-98239779D01*
X35015228Y-98069626D01*
X34857658Y-97925981D01*
X34676375Y-97813735D01*
X34676373Y-97813734D01*
X34576964Y-97775223D01*
X34477554Y-97736712D01*
X34267966Y-97697533D01*
X34054746Y-97697533D01*
X33845158Y-97736712D01*
X33845155Y-97736712D01*
X33845155Y-97736713D01*
X33646338Y-97813734D01*
X33646336Y-97813735D01*
X33465055Y-97925980D01*
X33307483Y-98069626D01*
X33178988Y-98239779D01*
X33083952Y-98430638D01*
X33083952Y-98430640D01*
X33025600Y-98635722D01*
X33014827Y-98751984D01*
X32989041Y-98816921D01*
X32944486Y-98848837D01*
X32835978Y-98848837D01*
X32838225Y-98847227D01*
X32801853Y-98826364D01*
X32769663Y-98764351D01*
X32767885Y-98751984D01*
X32767205Y-98744646D01*
X32757112Y-98635723D01*
X32698761Y-98430644D01*
X32698759Y-98430639D01*
X32698759Y-98430638D01*
X32603723Y-98239779D01*
X32475228Y-98069626D01*
X32317658Y-97925981D01*
X32136375Y-97813735D01*
X32136373Y-97813734D01*
X32036964Y-97775223D01*
X31937554Y-97736712D01*
X31727966Y-97697533D01*
X31514746Y-97697533D01*
X31305158Y-97736712D01*
X31305155Y-97736712D01*
X31305155Y-97736713D01*
X31106338Y-97813734D01*
X31106336Y-97813735D01*
X30925055Y-97925980D01*
X30767483Y-98069626D01*
X30638988Y-98239779D01*
X30543952Y-98430638D01*
X30543952Y-98430640D01*
X30485600Y-98635722D01*
X30474827Y-98751984D01*
X30449041Y-98816921D01*
X30404486Y-98848837D01*
X30295978Y-98848837D01*
X30298225Y-98847227D01*
X30261853Y-98826364D01*
X30229663Y-98764351D01*
X30227885Y-98751984D01*
X30227205Y-98744646D01*
X30217112Y-98635723D01*
X30158761Y-98430644D01*
X30158759Y-98430639D01*
X30158759Y-98430638D01*
X30063723Y-98239779D01*
X29935228Y-98069626D01*
X29777658Y-97925981D01*
X29596375Y-97813735D01*
X29596373Y-97813734D01*
X29496964Y-97775223D01*
X29397554Y-97736712D01*
X29187966Y-97697533D01*
X28974746Y-97697533D01*
X28765158Y-97736712D01*
X28765155Y-97736712D01*
X28765155Y-97736713D01*
X28566338Y-97813734D01*
X28566336Y-97813735D01*
X28385055Y-97925980D01*
X28227483Y-98069626D01*
X28098988Y-98239779D01*
X28003952Y-98430638D01*
X28003952Y-98430640D01*
X27945600Y-98635722D01*
X27934827Y-98751984D01*
X27909041Y-98816921D01*
X27864486Y-98848837D01*
X27755978Y-98848837D01*
X27758225Y-98847227D01*
X27721853Y-98826364D01*
X27689663Y-98764351D01*
X27687885Y-98751984D01*
X27687205Y-98744646D01*
X27677112Y-98635723D01*
X27618761Y-98430644D01*
X27618759Y-98430639D01*
X27618759Y-98430638D01*
X27523723Y-98239779D01*
X27395228Y-98069626D01*
X27237658Y-97925981D01*
X27056375Y-97813735D01*
X27056373Y-97813734D01*
X26956964Y-97775223D01*
X26857554Y-97736712D01*
X26647966Y-97697533D01*
X26434746Y-97697533D01*
X26225158Y-97736712D01*
X26225155Y-97736712D01*
X26225155Y-97736713D01*
X26026338Y-97813734D01*
X26026336Y-97813735D01*
X25845055Y-97925980D01*
X25687483Y-98069626D01*
X25558988Y-98239779D01*
X25463952Y-98430638D01*
X25463952Y-98430640D01*
X25405600Y-98635722D01*
X25385927Y-98848032D01*
X22616785Y-98848032D01*
X22597112Y-98635723D01*
X22538761Y-98430644D01*
X22538759Y-98430639D01*
X22538759Y-98430638D01*
X22443723Y-98239779D01*
X22315228Y-98069626D01*
X22157658Y-97925981D01*
X21976375Y-97813735D01*
X21976373Y-97813734D01*
X21876964Y-97775223D01*
X21777554Y-97736712D01*
X21567966Y-97697533D01*
X21354746Y-97697533D01*
X21145158Y-97736712D01*
X21145155Y-97736712D01*
X21145155Y-97736713D01*
X20946338Y-97813734D01*
X20946336Y-97813735D01*
X20765055Y-97925980D01*
X20607483Y-98069626D01*
X20478988Y-98239779D01*
X20383952Y-98430638D01*
X20383952Y-98430640D01*
X20325600Y-98635722D01*
X20314827Y-98751984D01*
X20289041Y-98816921D01*
X20244486Y-98848837D01*
X20135978Y-98848837D01*
X20138225Y-98847227D01*
X20101853Y-98826364D01*
X20069663Y-98764351D01*
X20067885Y-98751984D01*
X20067205Y-98744646D01*
X20057112Y-98635723D01*
X19998761Y-98430644D01*
X19998759Y-98430639D01*
X19998759Y-98430638D01*
X19903723Y-98239779D01*
X19775228Y-98069626D01*
X19617658Y-97925981D01*
X19436375Y-97813735D01*
X19436373Y-97813734D01*
X19336964Y-97775223D01*
X19237554Y-97736712D01*
X19027966Y-97697533D01*
X18814746Y-97697533D01*
X18605158Y-97736712D01*
X18605155Y-97736712D01*
X18605155Y-97736713D01*
X18406338Y-97813734D01*
X18406336Y-97813735D01*
X18225055Y-97925980D01*
X18067483Y-98069626D01*
X17938988Y-98239779D01*
X17843952Y-98430638D01*
X17843952Y-98430640D01*
X17785600Y-98635722D01*
X17765927Y-98848032D01*
X16983456Y-98848032D01*
X16983456Y-97684830D01*
X90288479Y-97684830D01*
X90288479Y-97684835D01*
X90307549Y-97902808D01*
X90307549Y-97902812D01*
X90364178Y-98114155D01*
X90364180Y-98114159D01*
X90364181Y-98114163D01*
X90410417Y-98213317D01*
X90456653Y-98312471D01*
X90456654Y-98312472D01*
X90582158Y-98491710D01*
X90736879Y-98646431D01*
X90916117Y-98771935D01*
X91114426Y-98864408D01*
X91325779Y-98921040D01*
X91508682Y-98937041D01*
X91543754Y-98940110D01*
X91543756Y-98940110D01*
X91543758Y-98940110D01*
X91572010Y-98937638D01*
X91761733Y-98921040D01*
X91973086Y-98864408D01*
X92171395Y-98771935D01*
X92350633Y-98646431D01*
X92505354Y-98491710D01*
X92630858Y-98312472D01*
X92723331Y-98114163D01*
X92779963Y-97902810D01*
X92799033Y-97684833D01*
X92799033Y-97684830D01*
X95288479Y-97684830D01*
X95288479Y-97684835D01*
X95307549Y-97902808D01*
X95307549Y-97902812D01*
X95364178Y-98114155D01*
X95364180Y-98114159D01*
X95364181Y-98114163D01*
X95410417Y-98213317D01*
X95456653Y-98312471D01*
X95456654Y-98312472D01*
X95582158Y-98491710D01*
X95736879Y-98646431D01*
X95916117Y-98771935D01*
X96114426Y-98864408D01*
X96325779Y-98921040D01*
X96508682Y-98937041D01*
X96543754Y-98940110D01*
X96543756Y-98940110D01*
X96543758Y-98940110D01*
X96572010Y-98937638D01*
X96761733Y-98921040D01*
X96973086Y-98864408D01*
X97171395Y-98771935D01*
X97350633Y-98646431D01*
X97505354Y-98491710D01*
X97630858Y-98312472D01*
X97723331Y-98114163D01*
X97779963Y-97902810D01*
X97799033Y-97684833D01*
X97779963Y-97466856D01*
X97723331Y-97255503D01*
X97630858Y-97057195D01*
X97630856Y-97057192D01*
X97630855Y-97057190D01*
X97505355Y-96877957D01*
X97505352Y-96877954D01*
X97350633Y-96723235D01*
X97171395Y-96597731D01*
X97171396Y-96597731D01*
X97171394Y-96597730D01*
X97072240Y-96551494D01*
X96973086Y-96505258D01*
X96973082Y-96505257D01*
X96973078Y-96505255D01*
X96761733Y-96448626D01*
X96543758Y-96429556D01*
X96543754Y-96429556D01*
X96398438Y-96442269D01*
X96325779Y-96448626D01*
X96325776Y-96448626D01*
X96114433Y-96505255D01*
X96114424Y-96505259D01*
X95916117Y-96597731D01*
X95916113Y-96597733D01*
X95736877Y-96723235D01*
X95582158Y-96877954D01*
X95456656Y-97057190D01*
X95456654Y-97057194D01*
X95364182Y-97255501D01*
X95364178Y-97255510D01*
X95307549Y-97466853D01*
X95307549Y-97466857D01*
X95288479Y-97684830D01*
X92799033Y-97684830D01*
X92779963Y-97466856D01*
X92723331Y-97255503D01*
X92630858Y-97057195D01*
X92630856Y-97057192D01*
X92630855Y-97057190D01*
X92505355Y-96877957D01*
X92505352Y-96877954D01*
X92350633Y-96723235D01*
X92171395Y-96597731D01*
X92171396Y-96597731D01*
X92171394Y-96597730D01*
X92072240Y-96551494D01*
X91973086Y-96505258D01*
X91973082Y-96505257D01*
X91973078Y-96505255D01*
X91761733Y-96448626D01*
X91543758Y-96429556D01*
X91543754Y-96429556D01*
X91398438Y-96442269D01*
X91325779Y-96448626D01*
X91325776Y-96448626D01*
X91114433Y-96505255D01*
X91114424Y-96505259D01*
X90916117Y-96597731D01*
X90916113Y-96597733D01*
X90736877Y-96723235D01*
X90582158Y-96877954D01*
X90456656Y-97057190D01*
X90456654Y-97057194D01*
X90364182Y-97255501D01*
X90364178Y-97255510D01*
X90307549Y-97466853D01*
X90307549Y-97466857D01*
X90288479Y-97684830D01*
X16983456Y-97684830D01*
X16983456Y-89408000D01*
X78427893Y-89408000D01*
X78447103Y-89750081D01*
X78447104Y-89750086D01*
X78504496Y-90087870D01*
X78599347Y-90417104D01*
X78703308Y-90668087D01*
X78730463Y-90733646D01*
X78896198Y-91033521D01*
X79094469Y-91312959D01*
X79322770Y-91568426D01*
X79322773Y-91568429D01*
X79578240Y-91796730D01*
X79578246Y-91796734D01*
X79578247Y-91796735D01*
X79857679Y-91995002D01*
X80157552Y-92160736D01*
X80474096Y-92291853D01*
X80803330Y-92386704D01*
X81141114Y-92444096D01*
X81483200Y-92463307D01*
X81825286Y-92444096D01*
X82163070Y-92386704D01*
X82492304Y-92291853D01*
X82808848Y-92160736D01*
X83108721Y-91995002D01*
X83388153Y-91796735D01*
X83643628Y-91568428D01*
X83871935Y-91312953D01*
X84070202Y-91033521D01*
X84235936Y-90733648D01*
X84367053Y-90417104D01*
X84461904Y-90087870D01*
X84519296Y-89750086D01*
X84538507Y-89408000D01*
X84519296Y-89065914D01*
X84461904Y-88728130D01*
X84367053Y-88398896D01*
X84235936Y-88082352D01*
X84070202Y-87782479D01*
X83871935Y-87503047D01*
X83871934Y-87503046D01*
X83871930Y-87503040D01*
X83643629Y-87247573D01*
X83643626Y-87247570D01*
X83388159Y-87019269D01*
X83108721Y-86820998D01*
X82808846Y-86655263D01*
X82743287Y-86628108D01*
X82492304Y-86524147D01*
X82407679Y-86499766D01*
X82163075Y-86429297D01*
X82163066Y-86429295D01*
X81825293Y-86371905D01*
X81825281Y-86371903D01*
X81483200Y-86352693D01*
X81141118Y-86371903D01*
X81141106Y-86371905D01*
X80803333Y-86429295D01*
X80803324Y-86429297D01*
X80474099Y-86524146D01*
X80474096Y-86524147D01*
X80381384Y-86562549D01*
X80157553Y-86655263D01*
X79857678Y-86820998D01*
X79578240Y-87019269D01*
X79322773Y-87247570D01*
X79322770Y-87247573D01*
X79094469Y-87503040D01*
X78896198Y-87782478D01*
X78730463Y-88082353D01*
X78599346Y-88398899D01*
X78504497Y-88728124D01*
X78504495Y-88728133D01*
X78447105Y-89065906D01*
X78447103Y-89065918D01*
X78427893Y-89408000D01*
X16983456Y-89408000D01*
X16983456Y-83608032D01*
X17765927Y-83608032D01*
X17765927Y-83608033D01*
X17785600Y-83820343D01*
X17843952Y-84025425D01*
X17843952Y-84025427D01*
X17938988Y-84216286D01*
X17938990Y-84216288D01*
X18067484Y-84386440D01*
X18225054Y-84530085D01*
X18406337Y-84642331D01*
X18605158Y-84719354D01*
X18814746Y-84758533D01*
X18814748Y-84758533D01*
X19027964Y-84758533D01*
X19027966Y-84758533D01*
X19237554Y-84719354D01*
X19436375Y-84642331D01*
X19617658Y-84530085D01*
X19775228Y-84386440D01*
X19903722Y-84216288D01*
X19998761Y-84025422D01*
X20057112Y-83820343D01*
X20067885Y-83704080D01*
X20093671Y-83639144D01*
X20135978Y-83608837D01*
X20244486Y-83608837D01*
X20280859Y-83629701D01*
X20313049Y-83691714D01*
X20314827Y-83704081D01*
X20325600Y-83820343D01*
X20383952Y-84025425D01*
X20383952Y-84025427D01*
X20478988Y-84216286D01*
X20478990Y-84216288D01*
X20607484Y-84386440D01*
X20765054Y-84530085D01*
X20946337Y-84642331D01*
X21145158Y-84719354D01*
X21354746Y-84758533D01*
X21354748Y-84758533D01*
X21567964Y-84758533D01*
X21567966Y-84758533D01*
X21777554Y-84719354D01*
X21976375Y-84642331D01*
X22157658Y-84530085D01*
X22315228Y-84386440D01*
X22443722Y-84216288D01*
X22538761Y-84025422D01*
X22597112Y-83820343D01*
X22607885Y-83704080D01*
X22633671Y-83639144D01*
X22675978Y-83608837D01*
X22784486Y-83608837D01*
X22820859Y-83629701D01*
X22853049Y-83691714D01*
X22854827Y-83704081D01*
X22865600Y-83820343D01*
X22923952Y-84025425D01*
X22923952Y-84025427D01*
X23018988Y-84216286D01*
X23018990Y-84216288D01*
X23147484Y-84386440D01*
X23305054Y-84530085D01*
X23486337Y-84642331D01*
X23685158Y-84719354D01*
X23894746Y-84758533D01*
X23894748Y-84758533D01*
X24107964Y-84758533D01*
X24107966Y-84758533D01*
X24317554Y-84719354D01*
X24516375Y-84642331D01*
X24697658Y-84530085D01*
X24855228Y-84386440D01*
X24983722Y-84216288D01*
X25078761Y-84025422D01*
X25137112Y-83820343D01*
X25156785Y-83608033D01*
X25156785Y-83608032D01*
X35545927Y-83608032D01*
X35545927Y-83608033D01*
X35565600Y-83820343D01*
X35623952Y-84025425D01*
X35623952Y-84025427D01*
X35718988Y-84216286D01*
X35718990Y-84216288D01*
X35847484Y-84386440D01*
X36005054Y-84530085D01*
X36186337Y-84642331D01*
X36385158Y-84719354D01*
X36594746Y-84758533D01*
X36594748Y-84758533D01*
X36807964Y-84758533D01*
X36807966Y-84758533D01*
X37017554Y-84719354D01*
X37216375Y-84642331D01*
X37397658Y-84530085D01*
X37555228Y-84386440D01*
X37683722Y-84216288D01*
X37778761Y-84025422D01*
X37837112Y-83820343D01*
X37847885Y-83704080D01*
X37873671Y-83639144D01*
X37915978Y-83608837D01*
X38024486Y-83608837D01*
X38060859Y-83629701D01*
X38093049Y-83691714D01*
X38094827Y-83704081D01*
X38105600Y-83820343D01*
X38163952Y-84025425D01*
X38163952Y-84025427D01*
X38258988Y-84216286D01*
X38258990Y-84216288D01*
X38387484Y-84386440D01*
X38545054Y-84530085D01*
X38726337Y-84642331D01*
X38925158Y-84719354D01*
X39134746Y-84758533D01*
X39134748Y-84758533D01*
X39347964Y-84758533D01*
X39347966Y-84758533D01*
X39557554Y-84719354D01*
X39756375Y-84642331D01*
X39937658Y-84530085D01*
X40095228Y-84386440D01*
X40223722Y-84216288D01*
X40318761Y-84025422D01*
X40377112Y-83820343D01*
X40387885Y-83704080D01*
X40413671Y-83639144D01*
X40455978Y-83608837D01*
X40564486Y-83608837D01*
X40600859Y-83629701D01*
X40633049Y-83691714D01*
X40634827Y-83704081D01*
X40645600Y-83820343D01*
X40703952Y-84025425D01*
X40703952Y-84025427D01*
X40798988Y-84216286D01*
X40798990Y-84216288D01*
X40927484Y-84386440D01*
X41085054Y-84530085D01*
X41266337Y-84642331D01*
X41465158Y-84719354D01*
X41674746Y-84758533D01*
X41674748Y-84758533D01*
X41887964Y-84758533D01*
X41887966Y-84758533D01*
X42097554Y-84719354D01*
X42296375Y-84642331D01*
X42477658Y-84530085D01*
X42635228Y-84386440D01*
X42763722Y-84216288D01*
X42858761Y-84025422D01*
X42917112Y-83820343D01*
X42927885Y-83704080D01*
X42953671Y-83639144D01*
X42995978Y-83608837D01*
X43104486Y-83608837D01*
X43140859Y-83629701D01*
X43173049Y-83691714D01*
X43174827Y-83704081D01*
X43185600Y-83820343D01*
X43243952Y-84025425D01*
X43243952Y-84025427D01*
X43338988Y-84216286D01*
X43338990Y-84216288D01*
X43467484Y-84386440D01*
X43625054Y-84530085D01*
X43806337Y-84642331D01*
X44005158Y-84719354D01*
X44214746Y-84758533D01*
X44214748Y-84758533D01*
X44427964Y-84758533D01*
X44427966Y-84758533D01*
X44637554Y-84719354D01*
X44836375Y-84642331D01*
X45017658Y-84530085D01*
X45175228Y-84386440D01*
X45303722Y-84216288D01*
X45398761Y-84025422D01*
X45457112Y-83820343D01*
X45467885Y-83704080D01*
X45493671Y-83639144D01*
X45535978Y-83608837D01*
X45644486Y-83608837D01*
X45680859Y-83629701D01*
X45713049Y-83691714D01*
X45714827Y-83704081D01*
X45725600Y-83820343D01*
X45783952Y-84025425D01*
X45783952Y-84025427D01*
X45878988Y-84216286D01*
X45878990Y-84216288D01*
X46007484Y-84386440D01*
X46165054Y-84530085D01*
X46346337Y-84642331D01*
X46545158Y-84719354D01*
X46754746Y-84758533D01*
X46754748Y-84758533D01*
X46967964Y-84758533D01*
X46967966Y-84758533D01*
X47177554Y-84719354D01*
X47376375Y-84642331D01*
X47557658Y-84530085D01*
X47715228Y-84386440D01*
X47843722Y-84216288D01*
X47938761Y-84025422D01*
X47997112Y-83820343D01*
X48016785Y-83608033D01*
X47997112Y-83395723D01*
X47938761Y-83190644D01*
X47938759Y-83190639D01*
X47938759Y-83190638D01*
X47843723Y-82999779D01*
X47715228Y-82829626D01*
X47557658Y-82685981D01*
X47376375Y-82573735D01*
X47376373Y-82573734D01*
X47276964Y-82535223D01*
X47177554Y-82496712D01*
X46967966Y-82457533D01*
X46754746Y-82457533D01*
X46545158Y-82496712D01*
X46545155Y-82496712D01*
X46545155Y-82496713D01*
X46346338Y-82573734D01*
X46346336Y-82573735D01*
X46165055Y-82685980D01*
X46007483Y-82829626D01*
X45878988Y-82999779D01*
X45783952Y-83190638D01*
X45783952Y-83190640D01*
X45725600Y-83395722D01*
X45714827Y-83511984D01*
X45689041Y-83576921D01*
X45644486Y-83608837D01*
X45535978Y-83608837D01*
X45538225Y-83607227D01*
X45501853Y-83586364D01*
X45469663Y-83524351D01*
X45467885Y-83511984D01*
X45467205Y-83504646D01*
X45457112Y-83395723D01*
X45398761Y-83190644D01*
X45398759Y-83190639D01*
X45398759Y-83190638D01*
X45303723Y-82999779D01*
X45175228Y-82829626D01*
X45017658Y-82685981D01*
X44836375Y-82573735D01*
X44836373Y-82573734D01*
X44736964Y-82535223D01*
X44637554Y-82496712D01*
X44427966Y-82457533D01*
X44214746Y-82457533D01*
X44005158Y-82496712D01*
X44005155Y-82496712D01*
X44005155Y-82496713D01*
X43806338Y-82573734D01*
X43806336Y-82573735D01*
X43625055Y-82685980D01*
X43467483Y-82829626D01*
X43338988Y-82999779D01*
X43243952Y-83190638D01*
X43243952Y-83190640D01*
X43185600Y-83395722D01*
X43174827Y-83511984D01*
X43149041Y-83576921D01*
X43104486Y-83608837D01*
X42995978Y-83608837D01*
X42998225Y-83607227D01*
X42961853Y-83586364D01*
X42929663Y-83524351D01*
X42927885Y-83511984D01*
X42927205Y-83504646D01*
X42917112Y-83395723D01*
X42858761Y-83190644D01*
X42858759Y-83190639D01*
X42858759Y-83190638D01*
X42763723Y-82999779D01*
X42635228Y-82829626D01*
X42477658Y-82685981D01*
X42296375Y-82573735D01*
X42296373Y-82573734D01*
X42196964Y-82535223D01*
X42097554Y-82496712D01*
X41887966Y-82457533D01*
X41674746Y-82457533D01*
X41465158Y-82496712D01*
X41465155Y-82496712D01*
X41465155Y-82496713D01*
X41266338Y-82573734D01*
X41266336Y-82573735D01*
X41085055Y-82685980D01*
X40927483Y-82829626D01*
X40798988Y-82999779D01*
X40703952Y-83190638D01*
X40703952Y-83190640D01*
X40645600Y-83395722D01*
X40634827Y-83511984D01*
X40609041Y-83576921D01*
X40564486Y-83608837D01*
X40455978Y-83608837D01*
X40458225Y-83607227D01*
X40421853Y-83586364D01*
X40389663Y-83524351D01*
X40387885Y-83511984D01*
X40387205Y-83504646D01*
X40377112Y-83395723D01*
X40318761Y-83190644D01*
X40318759Y-83190639D01*
X40318759Y-83190638D01*
X40223723Y-82999779D01*
X40095228Y-82829626D01*
X39937658Y-82685981D01*
X39756375Y-82573735D01*
X39756373Y-82573734D01*
X39656964Y-82535223D01*
X39557554Y-82496712D01*
X39347966Y-82457533D01*
X39134746Y-82457533D01*
X38925158Y-82496712D01*
X38925155Y-82496712D01*
X38925155Y-82496713D01*
X38726338Y-82573734D01*
X38726336Y-82573735D01*
X38545055Y-82685980D01*
X38387483Y-82829626D01*
X38258988Y-82999779D01*
X38163952Y-83190638D01*
X38163952Y-83190640D01*
X38105600Y-83395722D01*
X38094827Y-83511984D01*
X38069041Y-83576921D01*
X38024486Y-83608837D01*
X37915978Y-83608837D01*
X37918225Y-83607227D01*
X37881853Y-83586364D01*
X37849663Y-83524351D01*
X37847885Y-83511984D01*
X37847205Y-83504646D01*
X37837112Y-83395723D01*
X37778761Y-83190644D01*
X37778759Y-83190639D01*
X37778759Y-83190638D01*
X37683723Y-82999779D01*
X37555228Y-82829626D01*
X37397658Y-82685981D01*
X37216375Y-82573735D01*
X37216373Y-82573734D01*
X37116964Y-82535223D01*
X37017554Y-82496712D01*
X36807966Y-82457533D01*
X36594746Y-82457533D01*
X36385158Y-82496712D01*
X36385155Y-82496712D01*
X36385155Y-82496713D01*
X36186338Y-82573734D01*
X36186336Y-82573735D01*
X36005055Y-82685980D01*
X35847483Y-82829626D01*
X35718988Y-82999779D01*
X35623952Y-83190638D01*
X35623952Y-83190640D01*
X35565600Y-83395722D01*
X35545927Y-83608032D01*
X25156785Y-83608032D01*
X25137112Y-83395723D01*
X25078761Y-83190644D01*
X25078759Y-83190639D01*
X25078759Y-83190638D01*
X24983723Y-82999779D01*
X24855228Y-82829626D01*
X24697658Y-82685981D01*
X24516375Y-82573735D01*
X24516373Y-82573734D01*
X24416964Y-82535223D01*
X24317554Y-82496712D01*
X24107966Y-82457533D01*
X23894746Y-82457533D01*
X23685158Y-82496712D01*
X23685155Y-82496712D01*
X23685155Y-82496713D01*
X23486338Y-82573734D01*
X23486336Y-82573735D01*
X23305055Y-82685980D01*
X23147483Y-82829626D01*
X23018988Y-82999779D01*
X22923952Y-83190638D01*
X22923952Y-83190640D01*
X22865600Y-83395722D01*
X22854827Y-83511984D01*
X22829041Y-83576921D01*
X22784486Y-83608837D01*
X22675978Y-83608837D01*
X22678225Y-83607227D01*
X22641853Y-83586364D01*
X22609663Y-83524351D01*
X22607885Y-83511984D01*
X22607205Y-83504646D01*
X22597112Y-83395723D01*
X22538761Y-83190644D01*
X22538759Y-83190639D01*
X22538759Y-83190638D01*
X22443723Y-82999779D01*
X22315228Y-82829626D01*
X22157658Y-82685981D01*
X21976375Y-82573735D01*
X21976373Y-82573734D01*
X21876964Y-82535223D01*
X21777554Y-82496712D01*
X21567966Y-82457533D01*
X21354746Y-82457533D01*
X21145158Y-82496712D01*
X21145155Y-82496712D01*
X21145155Y-82496713D01*
X20946338Y-82573734D01*
X20946336Y-82573735D01*
X20765055Y-82685980D01*
X20607483Y-82829626D01*
X20478988Y-82999779D01*
X20383952Y-83190638D01*
X20383952Y-83190640D01*
X20325600Y-83395722D01*
X20314827Y-83511984D01*
X20289041Y-83576921D01*
X20244486Y-83608837D01*
X20135978Y-83608837D01*
X20138225Y-83607227D01*
X20101853Y-83586364D01*
X20069663Y-83524351D01*
X20067885Y-83511984D01*
X20067205Y-83504646D01*
X20057112Y-83395723D01*
X19998761Y-83190644D01*
X19998759Y-83190639D01*
X19998759Y-83190638D01*
X19903723Y-82999779D01*
X19775228Y-82829626D01*
X19617658Y-82685981D01*
X19436375Y-82573735D01*
X19436373Y-82573734D01*
X19336964Y-82535223D01*
X19237554Y-82496712D01*
X19027966Y-82457533D01*
X18814746Y-82457533D01*
X18605158Y-82496712D01*
X18605155Y-82496712D01*
X18605155Y-82496713D01*
X18406338Y-82573734D01*
X18406336Y-82573735D01*
X18225055Y-82685980D01*
X18067483Y-82829626D01*
X17938988Y-82999779D01*
X17843952Y-83190638D01*
X17843952Y-83190640D01*
X17785600Y-83395722D01*
X17765927Y-83608032D01*
X16983456Y-83608032D01*
X16983456Y-77105633D01*
X36043309Y-77105633D01*
X36063790Y-77248089D01*
X36092259Y-77310426D01*
X36123579Y-77379006D01*
X36217828Y-77487776D01*
X36338903Y-77565586D01*
X36338906Y-77565587D01*
X36338905Y-77565587D01*
X36446063Y-77597050D01*
X36470105Y-77604110D01*
X36476992Y-77606132D01*
X36476994Y-77606133D01*
X36476995Y-77606133D01*
X36620918Y-77606133D01*
X36620918Y-77606132D01*
X36759009Y-77565586D01*
X36880084Y-77487776D01*
X36974333Y-77379006D01*
X37034121Y-77248090D01*
X37054603Y-77105633D01*
X37034121Y-76963176D01*
X36974333Y-76832260D01*
X36880084Y-76723490D01*
X36759009Y-76645680D01*
X36759007Y-76645679D01*
X36759005Y-76645678D01*
X36759006Y-76645678D01*
X36620919Y-76605133D01*
X36620917Y-76605133D01*
X36476995Y-76605133D01*
X36476992Y-76605133D01*
X36338905Y-76645678D01*
X36217829Y-76723489D01*
X36123579Y-76832259D01*
X36123578Y-76832261D01*
X36063790Y-76963176D01*
X36043309Y-77105633D01*
X16983456Y-77105633D01*
X16983456Y-76416833D01*
X17003141Y-76349794D01*
X17055945Y-76304039D01*
X17107456Y-76292833D01*
X37157994Y-76292833D01*
X37225033Y-76312518D01*
X37245675Y-76329152D01*
X40562156Y-79645633D01*
X46150156Y-79645633D01*
X46272322Y-79492925D01*
X46299393Y-79467871D01*
X46302973Y-79465435D01*
X46346155Y-79425980D01*
X47219044Y-78363333D01*
X63817909Y-78363333D01*
X63838390Y-78505789D01*
X63898178Y-78636704D01*
X63898179Y-78636706D01*
X63992428Y-78745476D01*
X64113503Y-78823286D01*
X64113506Y-78823287D01*
X64113505Y-78823287D01*
X64251592Y-78863832D01*
X64251594Y-78863833D01*
X64251595Y-78863833D01*
X64395518Y-78863833D01*
X64395518Y-78863832D01*
X64533609Y-78823286D01*
X64654684Y-78745476D01*
X64748933Y-78636706D01*
X64808721Y-78505790D01*
X64829203Y-78363333D01*
X64808721Y-78220876D01*
X64748933Y-78089960D01*
X64654684Y-77981190D01*
X64533609Y-77903380D01*
X64533607Y-77903379D01*
X64533605Y-77903378D01*
X64533606Y-77903378D01*
X64395519Y-77862833D01*
X64395517Y-77862833D01*
X64251595Y-77862833D01*
X64251592Y-77862833D01*
X64113505Y-77903378D01*
X63992429Y-77981189D01*
X63898179Y-78089959D01*
X63898178Y-78089961D01*
X63838390Y-78220876D01*
X63817909Y-78363333D01*
X47219044Y-78363333D01*
X48873814Y-76348830D01*
X90288479Y-76348830D01*
X90288479Y-76348835D01*
X90307549Y-76566808D01*
X90307549Y-76566812D01*
X90364178Y-76778155D01*
X90364180Y-76778159D01*
X90364181Y-76778163D01*
X90410417Y-76877317D01*
X90456653Y-76976471D01*
X90456654Y-76976472D01*
X90582158Y-77155710D01*
X90736879Y-77310431D01*
X90916117Y-77435935D01*
X91114426Y-77528408D01*
X91325779Y-77585040D01*
X91508682Y-77601041D01*
X91543754Y-77604110D01*
X91543756Y-77604110D01*
X91543758Y-77604110D01*
X91572010Y-77601638D01*
X91761733Y-77585040D01*
X91973086Y-77528408D01*
X92171395Y-77435935D01*
X92350633Y-77310431D01*
X92505354Y-77155710D01*
X92630858Y-76976472D01*
X92723331Y-76778163D01*
X92779963Y-76566810D01*
X92799033Y-76348833D01*
X92799033Y-76348830D01*
X95288479Y-76348830D01*
X95288479Y-76348835D01*
X95307549Y-76566808D01*
X95307549Y-76566812D01*
X95364178Y-76778155D01*
X95364180Y-76778159D01*
X95364181Y-76778163D01*
X95410417Y-76877317D01*
X95456653Y-76976471D01*
X95456654Y-76976472D01*
X95582158Y-77155710D01*
X95736879Y-77310431D01*
X95916117Y-77435935D01*
X96114426Y-77528408D01*
X96325779Y-77585040D01*
X96508682Y-77601041D01*
X96543754Y-77604110D01*
X96543756Y-77604110D01*
X96543758Y-77604110D01*
X96572010Y-77601638D01*
X96761733Y-77585040D01*
X96973086Y-77528408D01*
X97171395Y-77435935D01*
X97350633Y-77310431D01*
X97505354Y-77155710D01*
X97630858Y-76976472D01*
X97723331Y-76778163D01*
X97779963Y-76566810D01*
X97799033Y-76348833D01*
X97779963Y-76130856D01*
X97723331Y-75919503D01*
X97630858Y-75721195D01*
X97630856Y-75721192D01*
X97630855Y-75721190D01*
X97505355Y-75541957D01*
X97505352Y-75541954D01*
X97350633Y-75387235D01*
X97171395Y-75261731D01*
X97171396Y-75261731D01*
X97171394Y-75261730D01*
X97072240Y-75215494D01*
X96973086Y-75169258D01*
X96973082Y-75169257D01*
X96973078Y-75169255D01*
X96761733Y-75112626D01*
X96543758Y-75093556D01*
X96543754Y-75093556D01*
X96398438Y-75106269D01*
X96325779Y-75112626D01*
X96325776Y-75112626D01*
X96114433Y-75169255D01*
X96114424Y-75169259D01*
X95916117Y-75261731D01*
X95916113Y-75261733D01*
X95736877Y-75387235D01*
X95582158Y-75541954D01*
X95456656Y-75721190D01*
X95456654Y-75721194D01*
X95364182Y-75919501D01*
X95364178Y-75919510D01*
X95307549Y-76130853D01*
X95307549Y-76130857D01*
X95288479Y-76348830D01*
X92799033Y-76348830D01*
X92779963Y-76130856D01*
X92723331Y-75919503D01*
X92630858Y-75721195D01*
X92630856Y-75721192D01*
X92630855Y-75721190D01*
X92505355Y-75541957D01*
X92505352Y-75541954D01*
X92350633Y-75387235D01*
X92171395Y-75261731D01*
X92171396Y-75261731D01*
X92171394Y-75261730D01*
X92072240Y-75215494D01*
X91973086Y-75169258D01*
X91973082Y-75169257D01*
X91973078Y-75169255D01*
X91761733Y-75112626D01*
X91543758Y-75093556D01*
X91543754Y-75093556D01*
X91398438Y-75106269D01*
X91325779Y-75112626D01*
X91325776Y-75112626D01*
X91114433Y-75169255D01*
X91114424Y-75169259D01*
X90916117Y-75261731D01*
X90916113Y-75261733D01*
X90736877Y-75387235D01*
X90582158Y-75541954D01*
X90456656Y-75721190D01*
X90456654Y-75721194D01*
X90364182Y-75919501D01*
X90364178Y-75919510D01*
X90307549Y-76130853D01*
X90307549Y-76130857D01*
X90288479Y-76348830D01*
X48873814Y-76348830D01*
X49024162Y-76165798D01*
X49675451Y-75372925D01*
X49733214Y-75333617D01*
X49771269Y-75327633D01*
X59764556Y-75327633D01*
X65887957Y-72797301D01*
X65936669Y-72787910D01*
X79830556Y-72940033D01*
X79830556Y-72940032D01*
X79830556Y-72784792D01*
X79850241Y-72717753D01*
X79888059Y-72682902D01*
X79886903Y-72681219D01*
X79892632Y-72677283D01*
X79892641Y-72677279D01*
X79945445Y-72631524D01*
X79963399Y-72613933D01*
X80008046Y-72534116D01*
X80027731Y-72467077D01*
X80036056Y-72409179D01*
X80036056Y-70349229D01*
X87533749Y-70349229D01*
X87533749Y-70349236D01*
X87553313Y-70522881D01*
X87553315Y-70522890D01*
X87611034Y-70687839D01*
X87704009Y-70835809D01*
X87827580Y-70959380D01*
X87975550Y-71052355D01*
X88140499Y-71110074D01*
X88140505Y-71110074D01*
X88140507Y-71110075D01*
X88314152Y-71129640D01*
X88314156Y-71129640D01*
X88314160Y-71129640D01*
X88487804Y-71110075D01*
X88487803Y-71110075D01*
X88487813Y-71110074D01*
X88652762Y-71052355D01*
X88800732Y-70959380D01*
X88924303Y-70835809D01*
X89017278Y-70687839D01*
X89074997Y-70522890D01*
X89094563Y-70349233D01*
X89094563Y-70349229D01*
X92613749Y-70349229D01*
X92613749Y-70349236D01*
X92633313Y-70522881D01*
X92633315Y-70522890D01*
X92691034Y-70687839D01*
X92784009Y-70835809D01*
X92907580Y-70959380D01*
X93055550Y-71052355D01*
X93220499Y-71110074D01*
X93220505Y-71110074D01*
X93220507Y-71110075D01*
X93394152Y-71129640D01*
X93394156Y-71129640D01*
X93394160Y-71129640D01*
X93567804Y-71110075D01*
X93567803Y-71110075D01*
X93567813Y-71110074D01*
X93732762Y-71052355D01*
X93880732Y-70959380D01*
X94004303Y-70835809D01*
X94097278Y-70687839D01*
X94154997Y-70522890D01*
X94174563Y-70349233D01*
X94154997Y-70175576D01*
X94097278Y-70010627D01*
X94004303Y-69862657D01*
X93880732Y-69739086D01*
X93732762Y-69646111D01*
X93732761Y-69646110D01*
X93732760Y-69646110D01*
X93567814Y-69588392D01*
X93567804Y-69588390D01*
X93394160Y-69568826D01*
X93394152Y-69568826D01*
X93220507Y-69588390D01*
X93220497Y-69588392D01*
X93055551Y-69646110D01*
X92907579Y-69739086D01*
X92784009Y-69862656D01*
X92691033Y-70010628D01*
X92633315Y-70175574D01*
X92633313Y-70175584D01*
X92613749Y-70349229D01*
X89094563Y-70349229D01*
X89074997Y-70175576D01*
X89017278Y-70010627D01*
X88924303Y-69862657D01*
X88800732Y-69739086D01*
X88652762Y-69646111D01*
X88652761Y-69646110D01*
X88652760Y-69646110D01*
X88487814Y-69588392D01*
X88487804Y-69588390D01*
X88314160Y-69568826D01*
X88314152Y-69568826D01*
X88140507Y-69588390D01*
X88140497Y-69588392D01*
X87975551Y-69646110D01*
X87827579Y-69739086D01*
X87704009Y-69862656D01*
X87611033Y-70010628D01*
X87553315Y-70175574D01*
X87553313Y-70175584D01*
X87533749Y-70349229D01*
X80036056Y-70349229D01*
X80036056Y-66270000D01*
X80055741Y-66202961D01*
X80108545Y-66157206D01*
X80160056Y-66146000D01*
X85440400Y-66146000D01*
X85440400Y-60326000D01*
X80160056Y-60326000D01*
X80093017Y-60306315D01*
X80047262Y-60253511D01*
X80036056Y-60202000D01*
X80036056Y-55109229D01*
X92613749Y-55109229D01*
X92613749Y-55109236D01*
X92633313Y-55282881D01*
X92633315Y-55282890D01*
X92691034Y-55447839D01*
X92784009Y-55595809D01*
X92907580Y-55719380D01*
X93055550Y-55812355D01*
X93220499Y-55870074D01*
X93220505Y-55870074D01*
X93220507Y-55870075D01*
X93394152Y-55889640D01*
X93394156Y-55889640D01*
X93394160Y-55889640D01*
X93567804Y-55870075D01*
X93567803Y-55870075D01*
X93567813Y-55870074D01*
X93732762Y-55812355D01*
X93880732Y-55719380D01*
X94004303Y-55595809D01*
X94097278Y-55447839D01*
X94154997Y-55282890D01*
X94174563Y-55109233D01*
X94154997Y-54935576D01*
X94097278Y-54770627D01*
X94004303Y-54622657D01*
X93880732Y-54499086D01*
X93732762Y-54406111D01*
X93732761Y-54406110D01*
X93732760Y-54406110D01*
X93567814Y-54348392D01*
X93567804Y-54348390D01*
X93394160Y-54328826D01*
X93394152Y-54328826D01*
X93220507Y-54348390D01*
X93220497Y-54348392D01*
X93055551Y-54406110D01*
X92907579Y-54499086D01*
X92784009Y-54622656D01*
X92691033Y-54770628D01*
X92633315Y-54935574D01*
X92633313Y-54935584D01*
X92613749Y-55109229D01*
X80036056Y-55109229D01*
X80036056Y-52436777D01*
X80055741Y-52369738D01*
X80108545Y-52323983D01*
X80159126Y-52312780D01*
X99169532Y-52170911D01*
X99236715Y-52190095D01*
G37*
%TD.AperFunction*%
%TD*%
%TA.AperFunction,Conductor*%
%TO.N,TH1_AGND*%
G36*
X79575260Y-17453018D02*
G01*
X79621015Y-17505822D01*
X79632218Y-17556622D01*
X79674482Y-24963306D01*
X79784864Y-44307892D01*
X79765562Y-44375043D01*
X79732622Y-44409729D01*
X79578242Y-44519268D01*
X79322773Y-44747570D01*
X79322770Y-44747573D01*
X79094469Y-45003040D01*
X78896198Y-45282478D01*
X78730463Y-45582353D01*
X78599346Y-45898899D01*
X78504497Y-46228124D01*
X78504495Y-46228133D01*
X78447105Y-46565906D01*
X78447103Y-46565918D01*
X78427893Y-46908000D01*
X78447103Y-47250081D01*
X78447105Y-47250093D01*
X78504495Y-47587866D01*
X78504497Y-47587875D01*
X78556244Y-47767490D01*
X78599347Y-47917104D01*
X78730464Y-48233648D01*
X78854009Y-48457186D01*
X78896198Y-48533521D01*
X79094469Y-48812959D01*
X79322770Y-49068426D01*
X79322773Y-49068429D01*
X79578242Y-49296731D01*
X79578250Y-49296737D01*
X79762406Y-49427404D01*
X79805690Y-49482251D01*
X79814649Y-49527825D01*
X79830554Y-52314882D01*
X79830556Y-52315590D01*
X79830556Y-60202000D01*
X79810871Y-60269039D01*
X79758067Y-60314794D01*
X79706556Y-60326000D01*
X78440400Y-60326000D01*
X78440400Y-66146000D01*
X79706556Y-66146000D01*
X79773595Y-66165685D01*
X79819350Y-66218489D01*
X79830556Y-66270000D01*
X79830556Y-72409179D01*
X79810871Y-72476218D01*
X79758067Y-72521973D01*
X79706103Y-72533178D01*
X65974633Y-72483063D01*
X65911356Y-72482833D01*
X65911355Y-72482833D01*
X61643363Y-74296730D01*
X60531886Y-74769108D01*
X59838601Y-75063754D01*
X59790100Y-75073633D01*
X49655356Y-75073633D01*
X46187360Y-79295541D01*
X46129597Y-79334849D01*
X46091542Y-79340833D01*
X40613518Y-79340833D01*
X40546479Y-79321148D01*
X40525837Y-79304514D01*
X37209356Y-75988033D01*
X17107456Y-75988033D01*
X17040417Y-75968348D01*
X16994662Y-75915544D01*
X16983456Y-75864033D01*
X16983456Y-75073632D01*
X42700878Y-75073632D01*
X42700878Y-75073633D01*
X42719918Y-75230451D01*
X42775936Y-75378156D01*
X42865673Y-75508163D01*
X42983916Y-75612916D01*
X42983918Y-75612917D01*
X43123790Y-75686329D01*
X43277170Y-75724133D01*
X43277171Y-75724133D01*
X43435141Y-75724133D01*
X43588521Y-75686329D01*
X43728396Y-75612916D01*
X43846639Y-75508163D01*
X43936376Y-75378156D01*
X43992393Y-75230451D01*
X44011434Y-75073633D01*
X44010235Y-75063754D01*
X43992393Y-74916814D01*
X43945001Y-74791853D01*
X43936376Y-74769110D01*
X43846639Y-74639103D01*
X43728396Y-74534350D01*
X43728394Y-74534349D01*
X43728393Y-74534348D01*
X43588521Y-74460936D01*
X43435142Y-74423133D01*
X43435141Y-74423133D01*
X43277171Y-74423133D01*
X43277170Y-74423133D01*
X43123790Y-74460936D01*
X42983918Y-74534348D01*
X42865672Y-74639104D01*
X42775937Y-74769108D01*
X42775936Y-74769109D01*
X42719918Y-74916814D01*
X42700878Y-75073632D01*
X16983456Y-75073632D01*
X16983456Y-71908000D01*
X18427893Y-71908000D01*
X18447103Y-72250081D01*
X18447105Y-72250093D01*
X18504495Y-72587866D01*
X18504497Y-72587875D01*
X18527195Y-72666660D01*
X18599347Y-72917104D01*
X18730464Y-73233648D01*
X18791277Y-73343680D01*
X18896198Y-73533521D01*
X19094469Y-73812959D01*
X19322770Y-74068426D01*
X19322773Y-74068429D01*
X19578240Y-74296730D01*
X19578246Y-74296734D01*
X19578247Y-74296735D01*
X19857679Y-74495002D01*
X20157552Y-74660736D01*
X20474096Y-74791853D01*
X20803330Y-74886704D01*
X21141114Y-74944096D01*
X21483200Y-74963307D01*
X21825286Y-74944096D01*
X22163070Y-74886704D01*
X22492304Y-74791853D01*
X22808848Y-74660736D01*
X23108721Y-74495002D01*
X23388153Y-74296735D01*
X23643628Y-74068428D01*
X23871935Y-73812953D01*
X23878548Y-73803633D01*
X34216709Y-73803633D01*
X34237190Y-73946089D01*
X34293062Y-74068429D01*
X34296979Y-74077006D01*
X34391228Y-74185776D01*
X34512303Y-74263586D01*
X34512306Y-74263587D01*
X34512305Y-74263587D01*
X34619463Y-74295050D01*
X34625199Y-74296735D01*
X34650392Y-74304132D01*
X34650394Y-74304133D01*
X34650395Y-74304133D01*
X34794318Y-74304133D01*
X34794318Y-74304132D01*
X34932409Y-74263586D01*
X35053484Y-74185776D01*
X35147733Y-74077006D01*
X35207521Y-73946090D01*
X35228003Y-73803633D01*
X35207521Y-73661176D01*
X35147733Y-73530260D01*
X35053484Y-73421490D01*
X34932409Y-73343680D01*
X34932407Y-73343679D01*
X34932405Y-73343678D01*
X34932406Y-73343678D01*
X34794319Y-73303133D01*
X34794317Y-73303133D01*
X34650395Y-73303133D01*
X34650392Y-73303133D01*
X34512305Y-73343678D01*
X34391229Y-73421489D01*
X34296979Y-73530259D01*
X34296978Y-73530261D01*
X34237190Y-73661176D01*
X34216709Y-73803633D01*
X23878548Y-73803633D01*
X24070202Y-73533521D01*
X24235936Y-73233648D01*
X24357555Y-72940033D01*
X29896509Y-72940033D01*
X29916990Y-73082489D01*
X29953076Y-73161504D01*
X29976779Y-73213406D01*
X30071028Y-73322176D01*
X30192103Y-73399986D01*
X30192106Y-73399987D01*
X30192105Y-73399987D01*
X30330192Y-73440532D01*
X30330194Y-73440533D01*
X30330195Y-73440533D01*
X30474118Y-73440533D01*
X30474118Y-73440532D01*
X30612209Y-73399986D01*
X30733284Y-73322176D01*
X30827533Y-73213406D01*
X30887321Y-73082490D01*
X30907803Y-72940033D01*
X31166509Y-72940033D01*
X31186990Y-73082489D01*
X31223076Y-73161504D01*
X31246779Y-73213406D01*
X31341028Y-73322176D01*
X31462103Y-73399986D01*
X31462106Y-73399987D01*
X31462105Y-73399987D01*
X31600192Y-73440532D01*
X31600194Y-73440533D01*
X31600195Y-73440533D01*
X31744118Y-73440533D01*
X31744118Y-73440532D01*
X31882209Y-73399986D01*
X32003284Y-73322176D01*
X32097533Y-73213406D01*
X32157321Y-73082490D01*
X32177803Y-72940033D01*
X32170499Y-72889233D01*
X52350109Y-72889233D01*
X52370590Y-73031689D01*
X52429876Y-73161504D01*
X52430379Y-73162606D01*
X52524628Y-73271376D01*
X52645703Y-73349186D01*
X52645706Y-73349187D01*
X52645705Y-73349187D01*
X52752863Y-73380650D01*
X52780045Y-73388632D01*
X52783792Y-73389732D01*
X52783794Y-73389733D01*
X52783795Y-73389733D01*
X52927718Y-73389733D01*
X52927718Y-73389732D01*
X53065809Y-73349186D01*
X53186884Y-73271376D01*
X53281133Y-73162606D01*
X53340921Y-73031690D01*
X53361403Y-72889233D01*
X53620109Y-72889233D01*
X53640590Y-73031689D01*
X53699876Y-73161504D01*
X53700379Y-73162606D01*
X53794628Y-73271376D01*
X53915703Y-73349186D01*
X53915706Y-73349187D01*
X53915705Y-73349187D01*
X54022863Y-73380650D01*
X54050045Y-73388632D01*
X54053792Y-73389732D01*
X54053794Y-73389733D01*
X54053795Y-73389733D01*
X54197718Y-73389733D01*
X54197718Y-73389732D01*
X54335809Y-73349186D01*
X54456884Y-73271376D01*
X54551133Y-73162606D01*
X54610921Y-73031690D01*
X54631403Y-72889233D01*
X54631245Y-72888133D01*
X60528909Y-72888133D01*
X60549390Y-73030589D01*
X60573093Y-73082490D01*
X60609179Y-73161506D01*
X60703428Y-73270276D01*
X60824503Y-73348086D01*
X60824506Y-73348087D01*
X60824505Y-73348087D01*
X60962592Y-73388632D01*
X60962594Y-73388633D01*
X60962595Y-73388633D01*
X61106518Y-73388633D01*
X61106518Y-73388632D01*
X61213677Y-73357168D01*
X61244606Y-73348087D01*
X61244606Y-73348086D01*
X61244609Y-73348086D01*
X61365684Y-73270276D01*
X61459933Y-73161506D01*
X61519721Y-73030590D01*
X61540203Y-72888133D01*
X61519721Y-72745676D01*
X61459933Y-72614760D01*
X61365684Y-72505990D01*
X61244609Y-72428180D01*
X61244607Y-72428179D01*
X61244605Y-72428178D01*
X61244606Y-72428178D01*
X61106519Y-72387633D01*
X61106517Y-72387633D01*
X60962595Y-72387633D01*
X60962592Y-72387633D01*
X60824505Y-72428178D01*
X60703429Y-72505989D01*
X60609179Y-72614759D01*
X60609178Y-72614761D01*
X60549390Y-72745676D01*
X60528909Y-72888133D01*
X54631245Y-72888133D01*
X54610921Y-72746776D01*
X54551133Y-72615860D01*
X54456884Y-72507090D01*
X54335809Y-72429280D01*
X54335807Y-72429279D01*
X54335805Y-72429278D01*
X54335806Y-72429278D01*
X54197719Y-72388733D01*
X54197717Y-72388733D01*
X54053795Y-72388733D01*
X54053792Y-72388733D01*
X53915705Y-72429278D01*
X53794629Y-72507089D01*
X53700379Y-72615859D01*
X53700378Y-72615861D01*
X53640590Y-72746776D01*
X53620109Y-72889233D01*
X53361403Y-72889233D01*
X53340921Y-72746776D01*
X53281133Y-72615860D01*
X53186884Y-72507090D01*
X53065809Y-72429280D01*
X53065807Y-72429279D01*
X53065805Y-72429278D01*
X53065806Y-72429278D01*
X52927719Y-72388733D01*
X52927717Y-72388733D01*
X52783795Y-72388733D01*
X52783792Y-72388733D01*
X52645705Y-72429278D01*
X52524629Y-72507089D01*
X52430379Y-72615859D01*
X52430378Y-72615861D01*
X52370590Y-72746776D01*
X52350109Y-72889233D01*
X32170499Y-72889233D01*
X32157321Y-72797576D01*
X32097533Y-72666660D01*
X32003284Y-72557890D01*
X31882209Y-72480080D01*
X31882207Y-72480079D01*
X31882205Y-72480078D01*
X31882206Y-72480078D01*
X31744119Y-72439533D01*
X31744117Y-72439533D01*
X31600195Y-72439533D01*
X31600192Y-72439533D01*
X31462105Y-72480078D01*
X31341029Y-72557889D01*
X31246779Y-72666659D01*
X31246778Y-72666661D01*
X31186990Y-72797576D01*
X31166509Y-72940033D01*
X30907803Y-72940033D01*
X30887321Y-72797576D01*
X30827533Y-72666660D01*
X30733284Y-72557890D01*
X30612209Y-72480080D01*
X30612207Y-72480079D01*
X30612205Y-72480078D01*
X30612206Y-72480078D01*
X30474119Y-72439533D01*
X30474117Y-72439533D01*
X30330195Y-72439533D01*
X30330192Y-72439533D01*
X30192105Y-72480078D01*
X30071029Y-72557889D01*
X29976779Y-72666659D01*
X29976778Y-72666661D01*
X29916990Y-72797576D01*
X29896509Y-72940033D01*
X24357555Y-72940033D01*
X24367053Y-72917104D01*
X24461904Y-72587870D01*
X24519296Y-72250086D01*
X24538507Y-71908000D01*
X24536555Y-71873233D01*
X47320909Y-71873233D01*
X47341390Y-72015689D01*
X47401178Y-72146604D01*
X47401179Y-72146606D01*
X47495428Y-72255376D01*
X47616503Y-72333186D01*
X47616506Y-72333187D01*
X47616505Y-72333187D01*
X47754592Y-72373732D01*
X47754594Y-72373733D01*
X47754595Y-72373733D01*
X47898518Y-72373733D01*
X47898518Y-72373732D01*
X48036609Y-72333186D01*
X48157684Y-72255376D01*
X48251933Y-72146606D01*
X48311721Y-72015690D01*
X48332203Y-71873233D01*
X48311721Y-71730776D01*
X48251933Y-71599860D01*
X48157684Y-71491090D01*
X48036609Y-71413280D01*
X48036607Y-71413279D01*
X48036605Y-71413278D01*
X48036606Y-71413278D01*
X47898519Y-71372733D01*
X47898517Y-71372733D01*
X47754595Y-71372733D01*
X47754592Y-71372733D01*
X47616505Y-71413278D01*
X47495429Y-71491089D01*
X47401179Y-71599859D01*
X47401178Y-71599861D01*
X47341390Y-71730776D01*
X47320909Y-71873233D01*
X24536555Y-71873233D01*
X24519296Y-71565914D01*
X24461904Y-71228130D01*
X24367053Y-70898896D01*
X24328754Y-70806433D01*
X28018809Y-70806433D01*
X28039290Y-70948889D01*
X28072075Y-71020676D01*
X28099079Y-71079806D01*
X28193328Y-71188576D01*
X28314403Y-71266386D01*
X28314406Y-71266387D01*
X28314405Y-71266387D01*
X28452492Y-71306932D01*
X28452494Y-71306933D01*
X28452495Y-71306933D01*
X28596418Y-71306933D01*
X28596418Y-71306932D01*
X28734509Y-71266386D01*
X28855584Y-71188576D01*
X28877630Y-71163133D01*
X60528909Y-71163133D01*
X60549390Y-71305589D01*
X60598571Y-71413278D01*
X60609179Y-71436506D01*
X60703428Y-71545276D01*
X60824503Y-71623086D01*
X60824506Y-71623087D01*
X60824505Y-71623087D01*
X60962592Y-71663632D01*
X60962594Y-71663633D01*
X60962595Y-71663633D01*
X61106518Y-71663633D01*
X61106518Y-71663632D01*
X61244609Y-71623086D01*
X61365684Y-71545276D01*
X61459933Y-71436506D01*
X61519721Y-71305590D01*
X61540203Y-71163133D01*
X61519721Y-71020676D01*
X61459933Y-70889760D01*
X61365684Y-70780990D01*
X61244609Y-70703180D01*
X61244607Y-70703179D01*
X61244605Y-70703178D01*
X61244606Y-70703178D01*
X61106519Y-70662633D01*
X61106517Y-70662633D01*
X60962595Y-70662633D01*
X60962592Y-70662633D01*
X60824505Y-70703178D01*
X60703429Y-70780989D01*
X60609179Y-70889759D01*
X60609178Y-70889761D01*
X60549390Y-71020676D01*
X60528909Y-71163133D01*
X28877630Y-71163133D01*
X28949833Y-71079806D01*
X29009621Y-70948890D01*
X29030103Y-70806433D01*
X29009621Y-70663976D01*
X28949833Y-70533060D01*
X28855584Y-70424290D01*
X28734509Y-70346480D01*
X28734507Y-70346479D01*
X28734505Y-70346478D01*
X28734506Y-70346478D01*
X28596419Y-70305933D01*
X28596417Y-70305933D01*
X28452495Y-70305933D01*
X28452492Y-70305933D01*
X28314405Y-70346478D01*
X28193329Y-70424289D01*
X28099079Y-70533059D01*
X28099078Y-70533061D01*
X28039290Y-70663976D01*
X28018809Y-70806433D01*
X24328754Y-70806433D01*
X24235936Y-70582352D01*
X24070202Y-70282479D01*
X23907520Y-70053200D01*
X52834353Y-70053200D01*
X52854834Y-70195656D01*
X52905197Y-70305933D01*
X52914623Y-70326573D01*
X53008872Y-70435343D01*
X53129947Y-70513153D01*
X53129950Y-70513154D01*
X53129949Y-70513154D01*
X53268036Y-70553699D01*
X53268038Y-70553700D01*
X53268039Y-70553700D01*
X53411962Y-70553700D01*
X53411962Y-70553699D01*
X53550053Y-70513153D01*
X53671128Y-70435343D01*
X53745746Y-70349229D01*
X69753749Y-70349229D01*
X69753749Y-70349236D01*
X69773313Y-70522881D01*
X69773315Y-70522891D01*
X69784096Y-70553700D01*
X69831034Y-70687839D01*
X69924009Y-70835809D01*
X70047580Y-70959380D01*
X70195550Y-71052355D01*
X70360499Y-71110074D01*
X70360505Y-71110074D01*
X70360507Y-71110075D01*
X70534152Y-71129640D01*
X70534156Y-71129640D01*
X70534160Y-71129640D01*
X70707804Y-71110075D01*
X70707803Y-71110075D01*
X70707813Y-71110074D01*
X70872762Y-71052355D01*
X71020732Y-70959380D01*
X71144303Y-70835809D01*
X71237278Y-70687839D01*
X71294997Y-70522890D01*
X71306106Y-70424290D01*
X71314563Y-70349236D01*
X71314563Y-70349229D01*
X72293749Y-70349229D01*
X72293749Y-70349236D01*
X72313313Y-70522881D01*
X72313315Y-70522891D01*
X72324096Y-70553700D01*
X72371034Y-70687839D01*
X72464009Y-70835809D01*
X72587580Y-70959380D01*
X72735550Y-71052355D01*
X72900499Y-71110074D01*
X72900505Y-71110074D01*
X72900507Y-71110075D01*
X73074152Y-71129640D01*
X73074156Y-71129640D01*
X73074160Y-71129640D01*
X73247804Y-71110075D01*
X73247803Y-71110075D01*
X73247813Y-71110074D01*
X73412762Y-71052355D01*
X73560732Y-70959380D01*
X73684303Y-70835809D01*
X73777278Y-70687839D01*
X73834997Y-70522890D01*
X73846106Y-70424290D01*
X73854563Y-70349236D01*
X73854563Y-70349229D01*
X73834998Y-70175584D01*
X73834997Y-70175582D01*
X73834997Y-70175576D01*
X73777278Y-70010627D01*
X73684303Y-69862657D01*
X73560732Y-69739086D01*
X73412762Y-69646111D01*
X73412761Y-69646110D01*
X73412760Y-69646110D01*
X73247814Y-69588392D01*
X73247804Y-69588390D01*
X73074160Y-69568826D01*
X73074152Y-69568826D01*
X72900507Y-69588390D01*
X72900497Y-69588392D01*
X72735551Y-69646110D01*
X72587579Y-69739086D01*
X72464009Y-69862656D01*
X72371033Y-70010628D01*
X72313315Y-70175574D01*
X72313313Y-70175584D01*
X72293749Y-70349229D01*
X71314563Y-70349229D01*
X71294998Y-70175584D01*
X71294997Y-70175582D01*
X71294997Y-70175576D01*
X71237278Y-70010627D01*
X71144303Y-69862657D01*
X71020732Y-69739086D01*
X70872762Y-69646111D01*
X70872761Y-69646110D01*
X70872760Y-69646110D01*
X70707814Y-69588392D01*
X70707804Y-69588390D01*
X70534160Y-69568826D01*
X70534152Y-69568826D01*
X70360507Y-69588390D01*
X70360497Y-69588392D01*
X70195551Y-69646110D01*
X70047579Y-69739086D01*
X69924009Y-69862656D01*
X69831033Y-70010628D01*
X69773315Y-70175574D01*
X69773313Y-70175584D01*
X69753749Y-70349229D01*
X53745746Y-70349229D01*
X53765377Y-70326573D01*
X53825165Y-70195657D01*
X53845647Y-70053200D01*
X53825165Y-69910743D01*
X53765377Y-69779827D01*
X53671128Y-69671057D01*
X53550053Y-69593247D01*
X53550051Y-69593246D01*
X53550049Y-69593245D01*
X53550050Y-69593245D01*
X53411963Y-69552700D01*
X53411961Y-69552700D01*
X53268039Y-69552700D01*
X53268036Y-69552700D01*
X53129949Y-69593245D01*
X53008873Y-69671056D01*
X52914623Y-69779826D01*
X52914622Y-69779828D01*
X52854834Y-69910743D01*
X52834353Y-70053200D01*
X23907520Y-70053200D01*
X23871935Y-70003047D01*
X23871934Y-70003046D01*
X23871930Y-70003040D01*
X23643629Y-69747573D01*
X23643626Y-69747570D01*
X23388159Y-69519269D01*
X23108721Y-69320998D01*
X22808846Y-69155263D01*
X22743287Y-69128108D01*
X22492304Y-69024147D01*
X22407679Y-68999766D01*
X22163075Y-68929297D01*
X22163066Y-68929295D01*
X21825293Y-68871905D01*
X21825281Y-68871903D01*
X21483200Y-68852693D01*
X21141118Y-68871903D01*
X21141106Y-68871905D01*
X20803333Y-68929295D01*
X20803324Y-68929297D01*
X20474099Y-69024146D01*
X20474096Y-69024147D01*
X20381384Y-69062549D01*
X20157553Y-69155263D01*
X19857678Y-69320998D01*
X19578240Y-69519269D01*
X19322773Y-69747570D01*
X19322770Y-69747573D01*
X19094469Y-70003040D01*
X18896198Y-70282478D01*
X18730463Y-70582353D01*
X18599346Y-70898899D01*
X18504497Y-71228124D01*
X18504495Y-71228133D01*
X18447105Y-71565906D01*
X18447103Y-71565918D01*
X18427893Y-71908000D01*
X16983456Y-71908000D01*
X16983456Y-68012433D01*
X52399009Y-68012433D01*
X52419490Y-68154889D01*
X52479278Y-68285804D01*
X52479279Y-68285806D01*
X52573528Y-68394576D01*
X52694603Y-68472386D01*
X52694606Y-68472387D01*
X52694605Y-68472387D01*
X52832692Y-68512932D01*
X52832694Y-68512933D01*
X52832695Y-68512933D01*
X52976618Y-68512933D01*
X52976618Y-68512932D01*
X53114709Y-68472386D01*
X53235784Y-68394576D01*
X53330033Y-68285806D01*
X53389821Y-68154890D01*
X53410303Y-68012433D01*
X53389821Y-67869976D01*
X53330033Y-67739060D01*
X53235784Y-67630290D01*
X53114709Y-67552480D01*
X53114707Y-67552479D01*
X53114705Y-67552478D01*
X53114706Y-67552478D01*
X52976619Y-67511933D01*
X52976617Y-67511933D01*
X52832695Y-67511933D01*
X52832692Y-67511933D01*
X52694605Y-67552478D01*
X52573529Y-67630289D01*
X52479279Y-67739059D01*
X52479278Y-67739061D01*
X52419490Y-67869976D01*
X52399009Y-68012433D01*
X16983456Y-68012433D01*
X16983456Y-65878833D01*
X50919909Y-65878833D01*
X50940390Y-66021289D01*
X50997345Y-66146000D01*
X51000179Y-66152206D01*
X51094428Y-66260976D01*
X51215503Y-66338786D01*
X51215506Y-66338787D01*
X51215505Y-66338787D01*
X51353592Y-66379332D01*
X51353594Y-66379333D01*
X51353595Y-66379333D01*
X51497518Y-66379333D01*
X51497518Y-66379332D01*
X51635609Y-66338786D01*
X51756684Y-66260976D01*
X51850933Y-66152206D01*
X51910721Y-66021290D01*
X51923899Y-65929633D01*
X53166709Y-65929633D01*
X53187190Y-66072089D01*
X53220945Y-66146000D01*
X53246979Y-66203006D01*
X53341228Y-66311776D01*
X53462303Y-66389586D01*
X53462306Y-66389587D01*
X53462305Y-66389587D01*
X53600392Y-66430132D01*
X53600394Y-66430133D01*
X53600395Y-66430133D01*
X53744318Y-66430133D01*
X53744318Y-66430132D01*
X53882409Y-66389586D01*
X54003484Y-66311776D01*
X54097733Y-66203006D01*
X54157521Y-66072090D01*
X54178003Y-65929633D01*
X54991709Y-65929633D01*
X55012190Y-66072089D01*
X55045945Y-66146000D01*
X55071979Y-66203006D01*
X55166228Y-66311776D01*
X55287303Y-66389586D01*
X55287306Y-66389587D01*
X55287305Y-66389587D01*
X55425392Y-66430132D01*
X55425394Y-66430133D01*
X55425395Y-66430133D01*
X55569318Y-66430133D01*
X55569318Y-66430132D01*
X55707409Y-66389586D01*
X55828484Y-66311776D01*
X55922733Y-66203006D01*
X55982521Y-66072090D01*
X56003003Y-65929633D01*
X55982521Y-65787176D01*
X55922733Y-65656260D01*
X55828484Y-65547490D01*
X55707409Y-65469680D01*
X55707407Y-65469679D01*
X55707405Y-65469678D01*
X55707406Y-65469678D01*
X55569319Y-65429133D01*
X55569317Y-65429133D01*
X55425395Y-65429133D01*
X55425392Y-65429133D01*
X55287305Y-65469678D01*
X55166229Y-65547489D01*
X55071979Y-65656259D01*
X55071978Y-65656261D01*
X55012190Y-65787176D01*
X54991709Y-65929633D01*
X54178003Y-65929633D01*
X54157521Y-65787176D01*
X54097733Y-65656260D01*
X54003484Y-65547490D01*
X53882409Y-65469680D01*
X53882407Y-65469679D01*
X53882405Y-65469678D01*
X53882406Y-65469678D01*
X53744319Y-65429133D01*
X53744317Y-65429133D01*
X53600395Y-65429133D01*
X53600392Y-65429133D01*
X53462305Y-65469678D01*
X53341229Y-65547489D01*
X53246979Y-65656259D01*
X53246978Y-65656261D01*
X53187190Y-65787176D01*
X53166709Y-65929633D01*
X51923899Y-65929633D01*
X51931203Y-65878833D01*
X51910721Y-65736376D01*
X51850933Y-65605460D01*
X51756684Y-65496690D01*
X51635609Y-65418880D01*
X51635607Y-65418879D01*
X51635605Y-65418878D01*
X51635606Y-65418878D01*
X51497519Y-65378333D01*
X51497517Y-65378333D01*
X51353595Y-65378333D01*
X51353592Y-65378333D01*
X51215505Y-65418878D01*
X51094429Y-65496689D01*
X51000179Y-65605459D01*
X51000178Y-65605461D01*
X50940390Y-65736376D01*
X50919909Y-65878833D01*
X16983456Y-65878833D01*
X16983456Y-60660809D01*
X18870456Y-60660809D01*
X18870456Y-63869656D01*
X18872274Y-63907576D01*
X18873269Y-63928337D01*
X18913816Y-64161186D01*
X18918063Y-64185576D01*
X18918063Y-64185577D01*
X18959831Y-64309269D01*
X19001599Y-64432963D01*
X19041591Y-64509986D01*
X19121922Y-64664703D01*
X19276200Y-64875346D01*
X19276204Y-64875351D01*
X19460837Y-65059984D01*
X19460842Y-65059988D01*
X19671485Y-65214266D01*
X19671488Y-65214267D01*
X19671490Y-65214269D01*
X19903226Y-65334590D01*
X20150613Y-65418126D01*
X20407852Y-65462920D01*
X20466546Y-65465733D01*
X20466563Y-65465733D01*
X23675349Y-65465733D01*
X23675366Y-65465733D01*
X23734060Y-65462920D01*
X23991299Y-65418126D01*
X24238686Y-65334590D01*
X24470422Y-65214269D01*
X24681075Y-65059984D01*
X24865707Y-64875352D01*
X25019992Y-64664699D01*
X25140313Y-64432963D01*
X25223849Y-64185576D01*
X25228096Y-64161186D01*
X29326656Y-64161186D01*
X29326656Y-64318879D01*
X29357417Y-64473522D01*
X29357420Y-64473534D01*
X29417758Y-64619205D01*
X29417765Y-64619218D01*
X29505366Y-64750321D01*
X29505369Y-64750325D01*
X29616863Y-64861819D01*
X29616867Y-64861822D01*
X29747970Y-64949423D01*
X29747983Y-64949430D01*
X29893654Y-65009768D01*
X29893659Y-65009770D01*
X30048309Y-65040532D01*
X30048312Y-65040533D01*
X30048314Y-65040533D01*
X30756000Y-65040533D01*
X30756001Y-65040532D01*
X30910653Y-65009770D01*
X31056335Y-64949427D01*
X31187445Y-64861822D01*
X31298945Y-64750322D01*
X31386550Y-64619212D01*
X31446893Y-64473530D01*
X31477656Y-64318875D01*
X31477656Y-64161191D01*
X31477656Y-64161188D01*
X31477655Y-64161186D01*
X31455545Y-64050033D01*
X43866509Y-64050033D01*
X43886990Y-64192489D01*
X43946778Y-64323404D01*
X43946779Y-64323406D01*
X44041028Y-64432176D01*
X44162103Y-64509986D01*
X44162106Y-64509987D01*
X44162105Y-64509987D01*
X44300192Y-64550532D01*
X44300194Y-64550533D01*
X44300195Y-64550533D01*
X44444118Y-64550533D01*
X44444118Y-64550532D01*
X44582209Y-64509986D01*
X44703284Y-64432176D01*
X44797533Y-64323406D01*
X44857321Y-64192490D01*
X44877803Y-64050033D01*
X54940909Y-64050033D01*
X54961390Y-64192489D01*
X55021178Y-64323404D01*
X55021179Y-64323406D01*
X55115428Y-64432176D01*
X55236503Y-64509986D01*
X55236506Y-64509987D01*
X55236505Y-64509987D01*
X55374592Y-64550532D01*
X55374594Y-64550533D01*
X55374595Y-64550533D01*
X55518518Y-64550533D01*
X55518518Y-64550532D01*
X55656609Y-64509986D01*
X55777684Y-64432176D01*
X55871933Y-64323406D01*
X55931721Y-64192490D01*
X55952203Y-64050033D01*
X55931721Y-63907576D01*
X55871933Y-63776660D01*
X55777684Y-63667890D01*
X55656609Y-63590080D01*
X55656607Y-63590079D01*
X55656605Y-63590078D01*
X55656606Y-63590078D01*
X55518519Y-63549533D01*
X55518517Y-63549533D01*
X55374595Y-63549533D01*
X55374592Y-63549533D01*
X55236505Y-63590078D01*
X55115429Y-63667889D01*
X55021179Y-63776659D01*
X55021178Y-63776661D01*
X54961390Y-63907576D01*
X54940909Y-64050033D01*
X44877803Y-64050033D01*
X44857321Y-63907576D01*
X44797533Y-63776660D01*
X44703284Y-63667890D01*
X44582209Y-63590080D01*
X44582207Y-63590079D01*
X44582205Y-63590078D01*
X44582206Y-63590078D01*
X44444119Y-63549533D01*
X44444117Y-63549533D01*
X44300195Y-63549533D01*
X44300192Y-63549533D01*
X44162105Y-63590078D01*
X44041029Y-63667889D01*
X43946779Y-63776659D01*
X43946778Y-63776661D01*
X43886990Y-63907576D01*
X43866509Y-64050033D01*
X31455545Y-64050033D01*
X31446894Y-64006543D01*
X31446893Y-64006536D01*
X31390196Y-63869656D01*
X31386553Y-63860860D01*
X31386546Y-63860847D01*
X31298945Y-63729744D01*
X31298942Y-63729740D01*
X31187448Y-63618246D01*
X31187444Y-63618243D01*
X31056341Y-63530642D01*
X31056328Y-63530635D01*
X30910657Y-63470297D01*
X30910645Y-63470294D01*
X30756001Y-63439533D01*
X30755998Y-63439533D01*
X30048314Y-63439533D01*
X30048311Y-63439533D01*
X29893666Y-63470294D01*
X29893654Y-63470297D01*
X29747983Y-63530635D01*
X29747970Y-63530642D01*
X29616867Y-63618243D01*
X29616863Y-63618246D01*
X29505369Y-63729740D01*
X29505366Y-63729744D01*
X29417765Y-63860847D01*
X29417758Y-63860860D01*
X29357420Y-64006531D01*
X29357417Y-64006543D01*
X29326656Y-64161186D01*
X25228096Y-64161186D01*
X25268643Y-63928337D01*
X25271456Y-63869643D01*
X25271456Y-62161186D01*
X29326656Y-62161186D01*
X29326656Y-62318879D01*
X29357417Y-62473522D01*
X29357420Y-62473534D01*
X29417758Y-62619205D01*
X29417765Y-62619218D01*
X29505366Y-62750321D01*
X29505369Y-62750325D01*
X29616863Y-62861819D01*
X29616867Y-62861822D01*
X29747970Y-62949423D01*
X29747983Y-62949430D01*
X29893654Y-63009768D01*
X29893659Y-63009770D01*
X30048309Y-63040532D01*
X30048312Y-63040533D01*
X30048314Y-63040533D01*
X30756000Y-63040533D01*
X30756001Y-63040532D01*
X30910653Y-63009770D01*
X31056335Y-62949427D01*
X31187445Y-62861822D01*
X31298945Y-62750322D01*
X31386550Y-62619212D01*
X31446893Y-62473530D01*
X31477656Y-62318875D01*
X31477656Y-62170433D01*
X42698109Y-62170433D01*
X42718590Y-62312889D01*
X42778377Y-62443802D01*
X42778379Y-62443806D01*
X42872628Y-62552576D01*
X42993703Y-62630386D01*
X42993706Y-62630387D01*
X42993705Y-62630387D01*
X43131792Y-62670932D01*
X43131794Y-62670933D01*
X43131795Y-62670933D01*
X43275718Y-62670933D01*
X43275718Y-62670932D01*
X43413809Y-62630386D01*
X43534884Y-62552576D01*
X43629133Y-62443806D01*
X43637981Y-62424433D01*
X53085709Y-62424433D01*
X53106190Y-62566889D01*
X53135189Y-62630386D01*
X53165979Y-62697806D01*
X53260228Y-62806576D01*
X53381303Y-62884386D01*
X53381306Y-62884387D01*
X53381305Y-62884387D01*
X53519392Y-62924932D01*
X53519394Y-62924933D01*
X53519395Y-62924933D01*
X53663318Y-62924933D01*
X53663318Y-62924932D01*
X53801409Y-62884386D01*
X53922484Y-62806576D01*
X54016733Y-62697806D01*
X54076521Y-62566890D01*
X54097003Y-62424433D01*
X54076521Y-62281976D01*
X54016733Y-62151060D01*
X53922484Y-62042290D01*
X53801409Y-61964480D01*
X53801407Y-61964479D01*
X53801405Y-61964478D01*
X53801406Y-61964478D01*
X53663319Y-61923933D01*
X53663317Y-61923933D01*
X53519395Y-61923933D01*
X53519392Y-61923933D01*
X53381305Y-61964478D01*
X53260229Y-62042289D01*
X53165979Y-62151059D01*
X53165978Y-62151061D01*
X53106190Y-62281976D01*
X53085709Y-62424433D01*
X43637981Y-62424433D01*
X43645709Y-62407508D01*
X43688921Y-62312890D01*
X43688921Y-62312888D01*
X43690123Y-62310257D01*
X43735877Y-62257453D01*
X43802917Y-62237768D01*
X43837852Y-62242791D01*
X43944594Y-62274133D01*
X43944595Y-62274133D01*
X44088518Y-62274133D01*
X44088518Y-62274132D01*
X44226609Y-62233586D01*
X44347684Y-62155776D01*
X44441933Y-62047006D01*
X44501721Y-61916090D01*
X44522203Y-61773633D01*
X44501721Y-61631176D01*
X44441933Y-61500260D01*
X44347684Y-61391490D01*
X44226609Y-61313680D01*
X44226607Y-61313679D01*
X44226605Y-61313678D01*
X44226606Y-61313678D01*
X44088519Y-61273133D01*
X44088517Y-61273133D01*
X43944595Y-61273133D01*
X43944592Y-61273133D01*
X43806505Y-61313678D01*
X43685429Y-61391489D01*
X43591179Y-61500259D01*
X43591178Y-61500261D01*
X43530188Y-61633809D01*
X43484433Y-61686613D01*
X43417393Y-61706297D01*
X43382460Y-61701274D01*
X43275720Y-61669933D01*
X43275717Y-61669933D01*
X43131795Y-61669933D01*
X43131792Y-61669933D01*
X42993705Y-61710478D01*
X42872629Y-61788289D01*
X42778379Y-61897059D01*
X42778378Y-61897061D01*
X42718590Y-62027976D01*
X42698109Y-62170433D01*
X31477656Y-62170433D01*
X31477656Y-62161191D01*
X31477656Y-62161188D01*
X31477655Y-62161186D01*
X31454943Y-62047006D01*
X31446893Y-62006536D01*
X31412678Y-61923933D01*
X31386553Y-61860860D01*
X31386546Y-61860847D01*
X31298945Y-61729744D01*
X31298942Y-61729740D01*
X31231635Y-61662433D01*
X41529709Y-61662433D01*
X41550190Y-61804889D01*
X41600974Y-61916089D01*
X41609979Y-61935806D01*
X41704228Y-62044576D01*
X41825303Y-62122386D01*
X41825306Y-62122387D01*
X41825305Y-62122387D01*
X41922955Y-62151059D01*
X41957462Y-62161191D01*
X41963392Y-62162932D01*
X41963394Y-62162933D01*
X41963395Y-62162933D01*
X42107318Y-62162933D01*
X42107318Y-62162932D01*
X42245409Y-62122386D01*
X42366484Y-62044576D01*
X42460733Y-61935806D01*
X42520521Y-61804890D01*
X42541003Y-61662433D01*
X42520521Y-61519976D01*
X42460733Y-61389060D01*
X42366484Y-61280290D01*
X42245409Y-61202480D01*
X42245407Y-61202479D01*
X42245405Y-61202478D01*
X42245406Y-61202478D01*
X42107319Y-61161933D01*
X42107317Y-61161933D01*
X41963395Y-61161933D01*
X41963392Y-61161933D01*
X41825305Y-61202478D01*
X41704229Y-61280289D01*
X41609979Y-61389059D01*
X41609978Y-61389061D01*
X41550190Y-61519976D01*
X41529709Y-61662433D01*
X31231635Y-61662433D01*
X31187448Y-61618246D01*
X31187444Y-61618243D01*
X31056341Y-61530642D01*
X31056328Y-61530635D01*
X30910657Y-61470297D01*
X30910645Y-61470294D01*
X30756001Y-61439533D01*
X30755998Y-61439533D01*
X30048314Y-61439533D01*
X30048311Y-61439533D01*
X29893666Y-61470294D01*
X29893654Y-61470297D01*
X29747983Y-61530635D01*
X29747970Y-61530642D01*
X29616867Y-61618243D01*
X29616863Y-61618246D01*
X29505369Y-61729740D01*
X29505366Y-61729744D01*
X29417765Y-61860847D01*
X29417758Y-61860860D01*
X29357420Y-62006531D01*
X29357417Y-62006543D01*
X29326656Y-62161186D01*
X25271456Y-62161186D01*
X25271456Y-60660823D01*
X25268643Y-60602129D01*
X25223849Y-60344890D01*
X25161817Y-60161186D01*
X29326656Y-60161186D01*
X29326656Y-60318879D01*
X29357417Y-60473522D01*
X29357420Y-60473534D01*
X29417758Y-60619205D01*
X29417765Y-60619218D01*
X29505366Y-60750321D01*
X29505369Y-60750325D01*
X29616863Y-60861819D01*
X29616867Y-60861822D01*
X29747970Y-60949423D01*
X29747983Y-60949430D01*
X29893654Y-61009768D01*
X29893659Y-61009770D01*
X30048309Y-61040532D01*
X30048312Y-61040533D01*
X30048314Y-61040533D01*
X30756000Y-61040533D01*
X30756001Y-61040532D01*
X30910653Y-61009770D01*
X31056335Y-60949427D01*
X31187445Y-60861822D01*
X31298945Y-60750322D01*
X31386550Y-60619212D01*
X31446893Y-60473530D01*
X31477656Y-60318875D01*
X31477656Y-60161191D01*
X31477656Y-60161188D01*
X31477655Y-60161186D01*
X31446893Y-60006536D01*
X31446891Y-60006531D01*
X31386553Y-59860860D01*
X31386546Y-59860847D01*
X31298945Y-59729744D01*
X31298942Y-59729740D01*
X31187448Y-59618246D01*
X31187444Y-59618243D01*
X31056341Y-59530642D01*
X31056328Y-59530635D01*
X30910657Y-59470297D01*
X30910645Y-59470294D01*
X30756001Y-59439533D01*
X30755998Y-59439533D01*
X30048314Y-59439533D01*
X30048311Y-59439533D01*
X29893666Y-59470294D01*
X29893654Y-59470297D01*
X29747983Y-59530635D01*
X29747970Y-59530642D01*
X29616867Y-59618243D01*
X29616863Y-59618246D01*
X29505369Y-59729740D01*
X29505366Y-59729744D01*
X29417765Y-59860847D01*
X29417758Y-59860860D01*
X29357420Y-60006531D01*
X29357417Y-60006543D01*
X29326656Y-60161186D01*
X25161817Y-60161186D01*
X25140313Y-60097503D01*
X25019992Y-59865767D01*
X25019990Y-59865765D01*
X25019989Y-59865762D01*
X24865711Y-59655119D01*
X24865707Y-59655114D01*
X24681074Y-59470481D01*
X24681069Y-59470477D01*
X24470426Y-59316199D01*
X24440543Y-59300683D01*
X24238686Y-59195876D01*
X23991299Y-59112340D01*
X23734060Y-59067546D01*
X23723054Y-59067018D01*
X23675379Y-59064733D01*
X23675366Y-59064733D01*
X20466546Y-59064733D01*
X20466532Y-59064733D01*
X20415188Y-59067194D01*
X20407852Y-59067546D01*
X20236359Y-59097408D01*
X20150612Y-59112340D01*
X20150611Y-59112340D01*
X19903226Y-59195876D01*
X19671485Y-59316199D01*
X19460842Y-59470477D01*
X19460837Y-59470481D01*
X19276204Y-59655114D01*
X19276200Y-59655119D01*
X19121922Y-59865762D01*
X19001599Y-60097503D01*
X18918063Y-60344888D01*
X18918063Y-60344889D01*
X18918063Y-60344890D01*
X18895663Y-60473530D01*
X18873269Y-60602131D01*
X18870456Y-60660809D01*
X16983456Y-60660809D01*
X16983456Y-55065233D01*
X18865413Y-55065233D01*
X18885568Y-55424135D01*
X18885570Y-55424147D01*
X18945782Y-55778529D01*
X18945784Y-55778538D01*
X19045295Y-56123951D01*
X19182861Y-56456064D01*
X19356746Y-56770687D01*
X19518585Y-56998776D01*
X19564762Y-57063856D01*
X19804295Y-57331894D01*
X20072333Y-57571427D01*
X20352481Y-57770204D01*
X20365504Y-57779444D01*
X20680123Y-57953327D01*
X21012232Y-58090892D01*
X21357656Y-58190406D01*
X21712049Y-58250620D01*
X22070956Y-58270776D01*
X22429863Y-58250620D01*
X22784256Y-58190406D01*
X22885682Y-58161186D01*
X29326656Y-58161186D01*
X29326656Y-58318879D01*
X29357417Y-58473522D01*
X29357420Y-58473534D01*
X29417758Y-58619205D01*
X29417765Y-58619218D01*
X29505366Y-58750321D01*
X29505369Y-58750325D01*
X29616863Y-58861819D01*
X29616867Y-58861822D01*
X29747970Y-58949423D01*
X29747983Y-58949430D01*
X29893654Y-59009768D01*
X29893659Y-59009770D01*
X30048309Y-59040532D01*
X30048312Y-59040533D01*
X30048314Y-59040533D01*
X30756000Y-59040533D01*
X30756001Y-59040532D01*
X30910653Y-59009770D01*
X31056335Y-58949427D01*
X31187445Y-58861822D01*
X31298945Y-58750322D01*
X31386550Y-58619212D01*
X31446893Y-58473530D01*
X31469390Y-58360433D01*
X48489309Y-58360433D01*
X48509790Y-58502889D01*
X48562911Y-58619205D01*
X48569579Y-58633806D01*
X48663828Y-58742576D01*
X48784903Y-58820386D01*
X48784906Y-58820387D01*
X48784905Y-58820387D01*
X48922992Y-58860932D01*
X48922994Y-58860933D01*
X48922995Y-58860933D01*
X49066918Y-58860933D01*
X49066918Y-58860932D01*
X49205009Y-58820386D01*
X49326084Y-58742576D01*
X49420333Y-58633806D01*
X49480121Y-58502890D01*
X49500603Y-58360433D01*
X49480121Y-58217976D01*
X49420333Y-58087060D01*
X49326084Y-57978290D01*
X49205009Y-57900480D01*
X49205007Y-57900479D01*
X49205005Y-57900478D01*
X49205006Y-57900478D01*
X49066919Y-57859933D01*
X49066917Y-57859933D01*
X48922995Y-57859933D01*
X48922992Y-57859933D01*
X48784905Y-57900478D01*
X48663829Y-57978289D01*
X48569579Y-58087059D01*
X48569578Y-58087061D01*
X48509790Y-58217976D01*
X48489309Y-58360433D01*
X31469390Y-58360433D01*
X31477656Y-58318875D01*
X31477656Y-58161191D01*
X31477656Y-58161188D01*
X31477655Y-58161186D01*
X31463673Y-58090893D01*
X31446893Y-58006536D01*
X31435193Y-57978289D01*
X31386553Y-57860860D01*
X31386546Y-57860847D01*
X31298945Y-57729744D01*
X31298942Y-57729740D01*
X31187448Y-57618246D01*
X31187444Y-57618243D01*
X31056341Y-57530642D01*
X31056328Y-57530635D01*
X30910657Y-57470297D01*
X30910645Y-57470294D01*
X30756001Y-57439533D01*
X30755998Y-57439533D01*
X30048314Y-57439533D01*
X30048311Y-57439533D01*
X29893666Y-57470294D01*
X29893654Y-57470297D01*
X29747983Y-57530635D01*
X29747970Y-57530642D01*
X29616867Y-57618243D01*
X29616863Y-57618246D01*
X29505369Y-57729740D01*
X29505366Y-57729744D01*
X29417765Y-57860847D01*
X29417758Y-57860860D01*
X29357420Y-58006531D01*
X29357417Y-58006543D01*
X29326656Y-58161186D01*
X22885682Y-58161186D01*
X23129680Y-58090892D01*
X23461789Y-57953327D01*
X23776408Y-57779444D01*
X24069579Y-57571427D01*
X24337617Y-57331894D01*
X24508002Y-57141233D01*
X46660509Y-57141233D01*
X46680990Y-57283689D01*
X46740778Y-57414604D01*
X46740779Y-57414606D01*
X46835028Y-57523376D01*
X46956103Y-57601186D01*
X46956106Y-57601187D01*
X46956105Y-57601187D01*
X47063263Y-57632650D01*
X47085871Y-57639289D01*
X47094192Y-57641732D01*
X47094194Y-57641733D01*
X47094195Y-57641733D01*
X47238118Y-57641733D01*
X47238118Y-57641732D01*
X47376209Y-57601186D01*
X47497284Y-57523376D01*
X47520283Y-57496833D01*
X59411309Y-57496833D01*
X59431790Y-57639289D01*
X59473100Y-57729744D01*
X59491579Y-57770206D01*
X59585828Y-57878976D01*
X59706903Y-57956786D01*
X59706906Y-57956787D01*
X59706905Y-57956787D01*
X59844992Y-57997332D01*
X59844994Y-57997333D01*
X59844995Y-57997333D01*
X59988918Y-57997333D01*
X59988918Y-57997332D01*
X60127009Y-57956786D01*
X60248084Y-57878976D01*
X60342333Y-57770206D01*
X60402121Y-57639290D01*
X60422603Y-57496833D01*
X60402121Y-57354376D01*
X60342333Y-57223460D01*
X60248084Y-57114690D01*
X60127009Y-57036880D01*
X60127007Y-57036879D01*
X60127005Y-57036878D01*
X60127006Y-57036878D01*
X59988919Y-56996333D01*
X59988917Y-56996333D01*
X59844995Y-56996333D01*
X59844992Y-56996333D01*
X59706905Y-57036878D01*
X59585829Y-57114689D01*
X59491579Y-57223459D01*
X59491578Y-57223461D01*
X59431790Y-57354376D01*
X59411309Y-57496833D01*
X47520283Y-57496833D01*
X47591533Y-57414606D01*
X47651321Y-57283690D01*
X47671803Y-57141233D01*
X47651321Y-56998776D01*
X47591533Y-56867860D01*
X47497284Y-56759090D01*
X47376209Y-56681280D01*
X47376207Y-56681279D01*
X47376205Y-56681278D01*
X47376206Y-56681278D01*
X47238119Y-56640733D01*
X47238117Y-56640733D01*
X47094195Y-56640733D01*
X47094192Y-56640733D01*
X46956105Y-56681278D01*
X46835029Y-56759089D01*
X46740779Y-56867859D01*
X46740778Y-56867861D01*
X46680990Y-56998776D01*
X46660509Y-57141233D01*
X24508002Y-57141233D01*
X24577150Y-57063856D01*
X24785167Y-56770685D01*
X24959050Y-56456066D01*
X25096615Y-56123957D01*
X25196129Y-55778533D01*
X25256343Y-55424140D01*
X25274028Y-55109229D01*
X69753749Y-55109229D01*
X69753749Y-55109236D01*
X69773313Y-55282881D01*
X69773315Y-55282891D01*
X69831033Y-55447837D01*
X69831034Y-55447839D01*
X69924009Y-55595809D01*
X70047580Y-55719380D01*
X70195550Y-55812355D01*
X70360499Y-55870074D01*
X70360505Y-55870074D01*
X70360507Y-55870075D01*
X70534152Y-55889640D01*
X70534156Y-55889640D01*
X70534160Y-55889640D01*
X70707804Y-55870075D01*
X70707803Y-55870075D01*
X70707813Y-55870074D01*
X70872762Y-55812355D01*
X71020732Y-55719380D01*
X71144303Y-55595809D01*
X71237278Y-55447839D01*
X71294997Y-55282890D01*
X71314563Y-55109233D01*
X71314563Y-55109229D01*
X72293749Y-55109229D01*
X72293749Y-55109236D01*
X72313313Y-55282881D01*
X72313315Y-55282891D01*
X72371033Y-55447837D01*
X72371034Y-55447839D01*
X72464009Y-55595809D01*
X72587580Y-55719380D01*
X72735550Y-55812355D01*
X72900499Y-55870074D01*
X72900505Y-55870074D01*
X72900507Y-55870075D01*
X73074152Y-55889640D01*
X73074156Y-55889640D01*
X73074160Y-55889640D01*
X73247804Y-55870075D01*
X73247803Y-55870075D01*
X73247813Y-55870074D01*
X73412762Y-55812355D01*
X73560732Y-55719380D01*
X73684303Y-55595809D01*
X73777278Y-55447839D01*
X73834997Y-55282890D01*
X73854563Y-55109233D01*
X73841447Y-54992826D01*
X73834998Y-54935584D01*
X73834997Y-54935582D01*
X73834997Y-54935576D01*
X73777278Y-54770627D01*
X73684303Y-54622657D01*
X73560732Y-54499086D01*
X73412762Y-54406111D01*
X73412761Y-54406110D01*
X73412760Y-54406110D01*
X73247814Y-54348392D01*
X73247804Y-54348390D01*
X73074160Y-54328826D01*
X73074152Y-54328826D01*
X72900507Y-54348390D01*
X72900497Y-54348392D01*
X72735551Y-54406110D01*
X72587579Y-54499086D01*
X72464009Y-54622656D01*
X72371033Y-54770628D01*
X72313315Y-54935574D01*
X72313313Y-54935584D01*
X72293749Y-55109229D01*
X71314563Y-55109229D01*
X71301447Y-54992826D01*
X71294998Y-54935584D01*
X71294997Y-54935582D01*
X71294997Y-54935576D01*
X71237278Y-54770627D01*
X71144303Y-54622657D01*
X71020732Y-54499086D01*
X70872762Y-54406111D01*
X70872761Y-54406110D01*
X70872760Y-54406110D01*
X70707814Y-54348392D01*
X70707804Y-54348390D01*
X70534160Y-54328826D01*
X70534152Y-54328826D01*
X70360507Y-54348390D01*
X70360497Y-54348392D01*
X70195551Y-54406110D01*
X70047579Y-54499086D01*
X69924009Y-54622656D01*
X69831033Y-54770628D01*
X69773315Y-54935574D01*
X69773313Y-54935584D01*
X69753749Y-55109229D01*
X25274028Y-55109229D01*
X25276499Y-55065233D01*
X25256343Y-54706326D01*
X25196129Y-54351933D01*
X25096615Y-54006509D01*
X25025889Y-53835763D01*
X29326656Y-53835763D01*
X29326656Y-54644302D01*
X29329509Y-54674732D01*
X29329509Y-54674734D01*
X29363065Y-54770628D01*
X29374363Y-54802915D01*
X29455006Y-54912183D01*
X29564274Y-54992826D01*
X29607001Y-55007777D01*
X29692455Y-55037679D01*
X29722886Y-55040533D01*
X29722890Y-55040533D01*
X31081426Y-55040533D01*
X31111855Y-55037679D01*
X31111857Y-55037679D01*
X31175946Y-55015252D01*
X31240038Y-54992826D01*
X31349306Y-54912183D01*
X31429949Y-54802915D01*
X31452375Y-54738823D01*
X31474802Y-54674734D01*
X31474802Y-54674732D01*
X31477656Y-54644302D01*
X31477656Y-53835763D01*
X31474802Y-53805333D01*
X31474802Y-53805331D01*
X31429949Y-53677152D01*
X31429948Y-53677150D01*
X31427919Y-53674401D01*
X31349306Y-53567883D01*
X31240038Y-53487240D01*
X31240036Y-53487239D01*
X31111856Y-53442386D01*
X31081426Y-53439533D01*
X31081422Y-53439533D01*
X29722890Y-53439533D01*
X29722886Y-53439533D01*
X29692456Y-53442386D01*
X29692454Y-53442386D01*
X29564275Y-53487239D01*
X29564273Y-53487240D01*
X29455006Y-53567883D01*
X29374363Y-53677150D01*
X29374362Y-53677152D01*
X29329509Y-53805331D01*
X29329509Y-53805333D01*
X29326656Y-53835763D01*
X25025889Y-53835763D01*
X24959050Y-53674400D01*
X24785167Y-53359781D01*
X24658338Y-53181033D01*
X41478909Y-53181033D01*
X41499390Y-53323489D01*
X41553690Y-53442387D01*
X41559179Y-53454406D01*
X41653428Y-53563176D01*
X41774503Y-53640986D01*
X41774506Y-53640987D01*
X41774505Y-53640987D01*
X41912592Y-53681532D01*
X41912594Y-53681533D01*
X41912595Y-53681533D01*
X42056518Y-53681533D01*
X42056518Y-53681532D01*
X42194609Y-53640986D01*
X42315684Y-53563176D01*
X42409933Y-53454406D01*
X42469721Y-53323490D01*
X42490203Y-53181033D01*
X42469721Y-53038576D01*
X42409933Y-52907660D01*
X42315684Y-52798890D01*
X42194609Y-52721080D01*
X42194607Y-52721079D01*
X42194605Y-52721078D01*
X42194606Y-52721078D01*
X42056519Y-52680533D01*
X42056517Y-52680533D01*
X41912595Y-52680533D01*
X41912592Y-52680533D01*
X41774505Y-52721078D01*
X41653429Y-52798889D01*
X41559179Y-52907659D01*
X41559178Y-52907661D01*
X41499390Y-53038576D01*
X41478909Y-53181033D01*
X24658338Y-53181033D01*
X24577150Y-53066610D01*
X24337617Y-52798572D01*
X24069579Y-52559039D01*
X24069578Y-52559038D01*
X23776410Y-52351023D01*
X23466844Y-52179933D01*
X23461789Y-52177139D01*
X23129680Y-52039574D01*
X23129676Y-52039572D01*
X23129674Y-52039572D01*
X22784261Y-51940061D01*
X22784252Y-51940059D01*
X22429870Y-51879847D01*
X22429858Y-51879845D01*
X22070956Y-51859690D01*
X21712053Y-51879845D01*
X21712041Y-51879847D01*
X21357659Y-51940059D01*
X21357650Y-51940061D01*
X21012237Y-52039572D01*
X20680124Y-52177138D01*
X20365501Y-52351023D01*
X20072333Y-52559038D01*
X19804295Y-52798572D01*
X19564761Y-53066610D01*
X19356746Y-53359778D01*
X19182861Y-53674401D01*
X19045295Y-54006514D01*
X18945784Y-54351927D01*
X18945782Y-54351936D01*
X18885570Y-54706318D01*
X18885568Y-54706330D01*
X18865413Y-55065233D01*
X16983456Y-55065233D01*
X16983456Y-51679433D01*
X39446909Y-51679433D01*
X39467390Y-51821889D01*
X39521358Y-51940060D01*
X39527179Y-51952806D01*
X39621428Y-52061576D01*
X39742503Y-52139386D01*
X39742506Y-52139387D01*
X39742505Y-52139387D01*
X39849663Y-52170850D01*
X39871079Y-52177139D01*
X39880592Y-52179932D01*
X39880594Y-52179933D01*
X39880595Y-52179933D01*
X40024518Y-52179933D01*
X40024518Y-52179932D01*
X40162609Y-52139386D01*
X40283684Y-52061576D01*
X40377933Y-51952806D01*
X40437721Y-51821890D01*
X40458203Y-51679433D01*
X40437721Y-51536976D01*
X40377933Y-51406060D01*
X40283684Y-51297290D01*
X40162609Y-51219480D01*
X40162607Y-51219479D01*
X40162605Y-51219478D01*
X40162606Y-51219478D01*
X40024519Y-51178933D01*
X40024517Y-51178933D01*
X39880595Y-51178933D01*
X39880592Y-51178933D01*
X39742505Y-51219478D01*
X39621429Y-51297289D01*
X39527179Y-51406059D01*
X39527178Y-51406061D01*
X39467390Y-51536976D01*
X39446909Y-51679433D01*
X16983456Y-51679433D01*
X16983456Y-50384833D01*
X41885309Y-50384833D01*
X41905790Y-50527289D01*
X41965578Y-50658204D01*
X41965579Y-50658206D01*
X42059828Y-50766976D01*
X42180903Y-50844786D01*
X42180906Y-50844787D01*
X42180905Y-50844787D01*
X42318992Y-50885332D01*
X42318994Y-50885333D01*
X42318995Y-50885333D01*
X42462918Y-50885333D01*
X42462918Y-50885332D01*
X42601009Y-50844786D01*
X42722084Y-50766976D01*
X42816333Y-50658206D01*
X42876121Y-50527290D01*
X42896603Y-50384833D01*
X42876121Y-50242376D01*
X42816333Y-50111460D01*
X42722084Y-50002690D01*
X42684339Y-49978433D01*
X58090509Y-49978433D01*
X58110990Y-50120889D01*
X58166472Y-50242376D01*
X58170779Y-50251806D01*
X58265028Y-50360576D01*
X58386103Y-50438386D01*
X58386106Y-50438387D01*
X58386105Y-50438387D01*
X58524192Y-50478932D01*
X58524194Y-50478933D01*
X58524195Y-50478933D01*
X58668118Y-50478933D01*
X58668118Y-50478932D01*
X58806209Y-50438386D01*
X58927284Y-50360576D01*
X59021533Y-50251806D01*
X59081321Y-50120890D01*
X59101803Y-49978433D01*
X59081321Y-49835976D01*
X59021533Y-49705060D01*
X58927284Y-49596290D01*
X58806209Y-49518480D01*
X58806207Y-49518479D01*
X58806205Y-49518478D01*
X58806206Y-49518478D01*
X58668119Y-49477933D01*
X58668117Y-49477933D01*
X58524195Y-49477933D01*
X58524192Y-49477933D01*
X58386105Y-49518478D01*
X58265029Y-49596289D01*
X58170779Y-49705059D01*
X58170778Y-49705061D01*
X58110990Y-49835976D01*
X58090509Y-49978433D01*
X42684339Y-49978433D01*
X42601009Y-49924880D01*
X42601007Y-49924879D01*
X42601005Y-49924878D01*
X42601006Y-49924878D01*
X42462919Y-49884333D01*
X42462917Y-49884333D01*
X42318995Y-49884333D01*
X42318992Y-49884333D01*
X42180905Y-49924878D01*
X42059829Y-50002689D01*
X41965579Y-50111459D01*
X41965578Y-50111461D01*
X41905790Y-50242376D01*
X41885309Y-50384833D01*
X16983456Y-50384833D01*
X16983456Y-48149633D01*
X52959709Y-48149633D01*
X52980190Y-48292089D01*
X53039978Y-48423004D01*
X53039979Y-48423006D01*
X53134228Y-48531776D01*
X53255303Y-48609586D01*
X53255306Y-48609587D01*
X53255305Y-48609587D01*
X53393392Y-48650132D01*
X53393394Y-48650133D01*
X53393395Y-48650133D01*
X53537318Y-48650133D01*
X53537318Y-48650132D01*
X53675409Y-48609586D01*
X53796484Y-48531776D01*
X53890733Y-48423006D01*
X53950521Y-48292090D01*
X53971003Y-48149633D01*
X53950521Y-48007176D01*
X53945980Y-47997233D01*
X60427309Y-47997233D01*
X60447790Y-48139689D01*
X60507578Y-48270604D01*
X60507579Y-48270606D01*
X60601828Y-48379376D01*
X60722903Y-48457186D01*
X60722906Y-48457187D01*
X60722905Y-48457187D01*
X60860992Y-48497732D01*
X60860994Y-48497733D01*
X60860995Y-48497733D01*
X61004918Y-48497733D01*
X61004918Y-48497732D01*
X61143009Y-48457186D01*
X61264084Y-48379376D01*
X61358333Y-48270606D01*
X61418121Y-48139690D01*
X61438603Y-47997233D01*
X61418121Y-47854776D01*
X61358333Y-47723860D01*
X61264084Y-47615090D01*
X61143009Y-47537280D01*
X61143007Y-47537279D01*
X61143005Y-47537278D01*
X61143006Y-47537278D01*
X61004919Y-47496733D01*
X61004917Y-47496733D01*
X60860995Y-47496733D01*
X60860992Y-47496733D01*
X60722905Y-47537278D01*
X60601829Y-47615089D01*
X60507579Y-47723859D01*
X60507578Y-47723861D01*
X60447790Y-47854776D01*
X60427309Y-47997233D01*
X53945980Y-47997233D01*
X53890733Y-47876260D01*
X53796484Y-47767490D01*
X53675409Y-47689680D01*
X53675407Y-47689679D01*
X53675405Y-47689678D01*
X53675406Y-47689678D01*
X53537319Y-47649133D01*
X53537317Y-47649133D01*
X53393395Y-47649133D01*
X53393392Y-47649133D01*
X53255305Y-47689678D01*
X53134229Y-47767489D01*
X53039979Y-47876259D01*
X53039978Y-47876261D01*
X52980190Y-48007176D01*
X52959709Y-48149633D01*
X16983456Y-48149633D01*
X16983456Y-44822233D01*
X43028309Y-44822233D01*
X43048790Y-44964689D01*
X43066305Y-45003040D01*
X43108579Y-45095606D01*
X43202828Y-45204376D01*
X43323903Y-45282186D01*
X43323906Y-45282187D01*
X43323905Y-45282187D01*
X43461992Y-45322732D01*
X43461994Y-45322733D01*
X43461995Y-45322733D01*
X43605918Y-45322733D01*
X43605918Y-45322732D01*
X43713077Y-45291268D01*
X43744006Y-45282187D01*
X43744006Y-45282186D01*
X43744009Y-45282186D01*
X43865084Y-45204376D01*
X43959333Y-45095606D01*
X44019121Y-44964690D01*
X44039603Y-44822233D01*
X44019121Y-44679776D01*
X43959333Y-44548860D01*
X43865084Y-44440090D01*
X43744009Y-44362280D01*
X43744007Y-44362279D01*
X43744005Y-44362278D01*
X43744006Y-44362278D01*
X43605919Y-44321733D01*
X43605917Y-44321733D01*
X43461995Y-44321733D01*
X43461992Y-44321733D01*
X43323905Y-44362278D01*
X43202829Y-44440089D01*
X43108579Y-44548859D01*
X43108578Y-44548861D01*
X43048790Y-44679776D01*
X43028309Y-44822233D01*
X16983456Y-44822233D01*
X16983456Y-43780833D01*
X23650309Y-43780833D01*
X23670790Y-43923289D01*
X23716851Y-44024147D01*
X23730579Y-44054206D01*
X23824828Y-44162976D01*
X23945903Y-44240786D01*
X23945906Y-44240787D01*
X23945905Y-44240787D01*
X24083992Y-44281332D01*
X24083994Y-44281333D01*
X24083995Y-44281333D01*
X24227918Y-44281333D01*
X24227918Y-44281332D01*
X24366009Y-44240786D01*
X24487084Y-44162976D01*
X24581333Y-44054206D01*
X24641121Y-43923290D01*
X24661603Y-43780833D01*
X24641121Y-43638376D01*
X24581333Y-43507460D01*
X24487084Y-43398690D01*
X24366009Y-43320880D01*
X24366007Y-43320879D01*
X24366005Y-43320878D01*
X24366006Y-43320878D01*
X24227919Y-43280333D01*
X24227917Y-43280333D01*
X24083995Y-43280333D01*
X24083992Y-43280333D01*
X23945905Y-43320878D01*
X23824829Y-43398689D01*
X23730579Y-43507459D01*
X23730578Y-43507461D01*
X23670790Y-43638376D01*
X23650309Y-43780833D01*
X16983456Y-43780833D01*
X16983456Y-41444033D01*
X35332109Y-41444033D01*
X35352590Y-41586489D01*
X35412378Y-41717404D01*
X35412379Y-41717406D01*
X35506628Y-41826176D01*
X35627703Y-41903986D01*
X35627706Y-41903987D01*
X35627705Y-41903987D01*
X35765792Y-41944532D01*
X35765794Y-41944533D01*
X35765795Y-41944533D01*
X35909718Y-41944533D01*
X35909718Y-41944532D01*
X36047809Y-41903986D01*
X36168884Y-41826176D01*
X36263133Y-41717406D01*
X36322921Y-41586490D01*
X36343403Y-41444033D01*
X36322921Y-41301576D01*
X36263133Y-41170660D01*
X36168884Y-41061890D01*
X36047809Y-40984080D01*
X36047807Y-40984079D01*
X36047805Y-40984078D01*
X36047806Y-40984078D01*
X35909719Y-40943533D01*
X35909717Y-40943533D01*
X35765795Y-40943533D01*
X35765792Y-40943533D01*
X35627705Y-40984078D01*
X35506629Y-41061889D01*
X35412379Y-41170659D01*
X35412378Y-41170661D01*
X35352590Y-41301576D01*
X35332109Y-41444033D01*
X16983456Y-41444033D01*
X16983456Y-40555033D01*
X33173109Y-40555033D01*
X33193590Y-40697489D01*
X33236664Y-40791806D01*
X33253379Y-40828406D01*
X33347628Y-40937176D01*
X33468703Y-41014986D01*
X33468706Y-41014987D01*
X33468705Y-41014987D01*
X33575863Y-41046450D01*
X33585066Y-41049153D01*
X33606792Y-41055532D01*
X33606794Y-41055533D01*
X33606795Y-41055533D01*
X33750718Y-41055533D01*
X33750718Y-41055532D01*
X33888809Y-41014986D01*
X34009884Y-40937176D01*
X34104133Y-40828406D01*
X34163921Y-40697490D01*
X34184403Y-40555033D01*
X34179141Y-40518433D01*
X38583309Y-40518433D01*
X38603790Y-40660889D01*
X38645587Y-40752409D01*
X38663579Y-40791806D01*
X38757828Y-40900576D01*
X38878903Y-40978386D01*
X38878906Y-40978387D01*
X38878905Y-40978387D01*
X39016992Y-41018932D01*
X39016994Y-41018933D01*
X39016995Y-41018933D01*
X39160918Y-41018933D01*
X39160918Y-41018932D01*
X39299009Y-40978386D01*
X39420084Y-40900576D01*
X39514333Y-40791806D01*
X39532324Y-40752409D01*
X39578077Y-40699607D01*
X39645117Y-40679922D01*
X39712156Y-40699606D01*
X39757912Y-40752409D01*
X39757912Y-40752410D01*
X39775904Y-40791805D01*
X39808223Y-40862573D01*
X39902472Y-40971343D01*
X40023547Y-41049153D01*
X40023550Y-41049154D01*
X40023549Y-41049154D01*
X40161636Y-41089699D01*
X40161638Y-41089700D01*
X40161639Y-41089700D01*
X40305562Y-41089700D01*
X40305562Y-41089699D01*
X40412721Y-41058235D01*
X40443650Y-41049154D01*
X40443650Y-41049153D01*
X40443653Y-41049153D01*
X40564728Y-40971343D01*
X40658977Y-40862573D01*
X40718765Y-40731657D01*
X40739247Y-40589200D01*
X40722015Y-40469347D01*
X40731959Y-40400188D01*
X40777714Y-40347384D01*
X40844753Y-40327700D01*
X40864362Y-40327700D01*
X40864362Y-40327699D01*
X41002453Y-40287153D01*
X41123528Y-40209343D01*
X41127634Y-40204604D01*
X41575192Y-40204604D01*
X41595673Y-40347060D01*
X41632864Y-40428495D01*
X41655462Y-40477977D01*
X41749711Y-40586747D01*
X41870786Y-40664557D01*
X41870789Y-40664558D01*
X41870788Y-40664558D01*
X42008875Y-40705103D01*
X42008877Y-40705104D01*
X42008878Y-40705104D01*
X42152801Y-40705104D01*
X42152801Y-40705103D01*
X42290892Y-40664557D01*
X42411967Y-40586747D01*
X42506216Y-40477977D01*
X42506217Y-40477975D01*
X42512024Y-40471274D01*
X42514170Y-40473133D01*
X42556022Y-40436847D01*
X42625178Y-40426883D01*
X42642498Y-40430648D01*
X42663611Y-40436847D01*
X42773257Y-40469042D01*
X42864156Y-40469042D01*
X42931195Y-40488727D01*
X42976950Y-40541531D01*
X42986894Y-40575396D01*
X42990864Y-40603015D01*
X43049614Y-40731657D01*
X43050653Y-40733932D01*
X43144902Y-40842702D01*
X43265977Y-40920512D01*
X43265980Y-40920513D01*
X43265979Y-40920513D01*
X43404066Y-40961058D01*
X43404068Y-40961059D01*
X43404069Y-40961059D01*
X43547992Y-40961059D01*
X43547992Y-40961058D01*
X43686083Y-40920512D01*
X43807158Y-40842702D01*
X43901407Y-40733932D01*
X43961195Y-40603016D01*
X43981677Y-40460559D01*
X43961195Y-40318102D01*
X43901407Y-40187186D01*
X43867178Y-40147683D01*
X44760259Y-40147683D01*
X44780740Y-40290139D01*
X44819795Y-40375655D01*
X44840529Y-40421056D01*
X44934778Y-40529826D01*
X45055853Y-40607636D01*
X45055856Y-40607637D01*
X45055855Y-40607637D01*
X45193942Y-40648182D01*
X45193944Y-40648183D01*
X45193945Y-40648183D01*
X45337868Y-40648183D01*
X45337868Y-40648182D01*
X45475959Y-40607636D01*
X45597034Y-40529826D01*
X45691283Y-40421056D01*
X45751071Y-40290140D01*
X45771553Y-40147683D01*
X45751071Y-40005226D01*
X45691283Y-39874310D01*
X45597034Y-39765540D01*
X45475959Y-39687730D01*
X45475957Y-39687729D01*
X45475955Y-39687728D01*
X45475956Y-39687728D01*
X45337869Y-39647183D01*
X45337867Y-39647183D01*
X45193945Y-39647183D01*
X45193942Y-39647183D01*
X45055855Y-39687728D01*
X44934779Y-39765539D01*
X44840529Y-39874309D01*
X44840528Y-39874311D01*
X44780740Y-40005226D01*
X44760259Y-40147683D01*
X43867178Y-40147683D01*
X43807158Y-40078416D01*
X43686083Y-40000606D01*
X43686081Y-40000605D01*
X43686079Y-40000604D01*
X43686080Y-40000604D01*
X43547993Y-39960059D01*
X43547991Y-39960059D01*
X43457093Y-39960059D01*
X43390054Y-39940374D01*
X43344299Y-39887570D01*
X43334355Y-39853705D01*
X43330384Y-39826085D01*
X43293193Y-39744649D01*
X43270596Y-39695169D01*
X43176347Y-39586399D01*
X43055272Y-39508589D01*
X43055270Y-39508588D01*
X43055268Y-39508587D01*
X43055269Y-39508587D01*
X42917182Y-39468042D01*
X42917180Y-39468042D01*
X42773258Y-39468042D01*
X42773255Y-39468042D01*
X42635168Y-39508587D01*
X42514092Y-39586398D01*
X42414034Y-39701872D01*
X42411892Y-39700016D01*
X42369989Y-39736319D01*
X42300829Y-39746255D01*
X42283555Y-39742496D01*
X42152802Y-39704104D01*
X42152800Y-39704104D01*
X42008878Y-39704104D01*
X42008875Y-39704104D01*
X41870788Y-39744649D01*
X41749712Y-39822460D01*
X41655462Y-39931230D01*
X41655461Y-39931232D01*
X41595673Y-40062147D01*
X41575192Y-40204604D01*
X41127634Y-40204604D01*
X41217777Y-40100573D01*
X41277565Y-39969657D01*
X41298047Y-39827200D01*
X41277565Y-39684743D01*
X41217777Y-39553827D01*
X41123528Y-39445057D01*
X41002453Y-39367247D01*
X41002451Y-39367246D01*
X41002449Y-39367245D01*
X41002450Y-39367245D01*
X40864363Y-39326700D01*
X40864361Y-39326700D01*
X40720439Y-39326700D01*
X40720436Y-39326700D01*
X40582349Y-39367245D01*
X40461273Y-39445056D01*
X40367023Y-39553826D01*
X40367022Y-39553828D01*
X40307234Y-39684743D01*
X40286753Y-39827200D01*
X40303985Y-39947053D01*
X40294041Y-40016212D01*
X40248286Y-40069016D01*
X40181247Y-40088700D01*
X40161636Y-40088700D01*
X40023549Y-40129245D01*
X39902473Y-40207056D01*
X39808223Y-40315826D01*
X39790231Y-40355223D01*
X39744475Y-40408026D01*
X39677435Y-40427710D01*
X39610396Y-40408024D01*
X39564643Y-40355222D01*
X39552073Y-40327699D01*
X39514333Y-40245060D01*
X39420084Y-40136290D01*
X39299009Y-40058480D01*
X39299007Y-40058479D01*
X39299005Y-40058478D01*
X39299006Y-40058478D01*
X39160919Y-40017933D01*
X39160917Y-40017933D01*
X39016995Y-40017933D01*
X39016992Y-40017933D01*
X38878905Y-40058478D01*
X38757829Y-40136289D01*
X38663579Y-40245059D01*
X38663578Y-40245061D01*
X38603790Y-40375976D01*
X38583309Y-40518433D01*
X34179141Y-40518433D01*
X34163921Y-40412576D01*
X34104133Y-40281660D01*
X34009884Y-40172890D01*
X33888809Y-40095080D01*
X33888807Y-40095079D01*
X33888805Y-40095078D01*
X33888806Y-40095078D01*
X33750719Y-40054533D01*
X33750717Y-40054533D01*
X33606795Y-40054533D01*
X33606792Y-40054533D01*
X33468705Y-40095078D01*
X33347629Y-40172889D01*
X33253379Y-40281659D01*
X33253378Y-40281661D01*
X33193590Y-40412576D01*
X33173109Y-40555033D01*
X16983456Y-40555033D01*
X16983456Y-39420799D01*
X29418322Y-39420799D01*
X29418322Y-39420800D01*
X29437362Y-39577618D01*
X29463745Y-39647183D01*
X29493380Y-39725323D01*
X29583117Y-39855330D01*
X29701360Y-39960083D01*
X29701362Y-39960084D01*
X29841234Y-40033496D01*
X29994614Y-40071300D01*
X29994615Y-40071300D01*
X30152585Y-40071300D01*
X30305965Y-40033496D01*
X30359828Y-40005226D01*
X30445840Y-39960083D01*
X30564083Y-39855330D01*
X30653820Y-39725323D01*
X30709837Y-39577618D01*
X30728878Y-39420800D01*
X30709837Y-39263982D01*
X30708668Y-39260900D01*
X30663781Y-39142543D01*
X30653820Y-39116277D01*
X30564083Y-38986270D01*
X30445840Y-38881517D01*
X30445838Y-38881516D01*
X30445837Y-38881515D01*
X30305965Y-38808103D01*
X30152586Y-38770300D01*
X30152585Y-38770300D01*
X29994615Y-38770300D01*
X29994614Y-38770300D01*
X29841234Y-38808103D01*
X29701362Y-38881515D01*
X29701360Y-38881517D01*
X29585444Y-38984209D01*
X29583116Y-38986271D01*
X29493381Y-39116275D01*
X29493380Y-39116276D01*
X29437362Y-39263981D01*
X29418322Y-39420799D01*
X16983456Y-39420799D01*
X16983456Y-38904033D01*
X21717709Y-38904033D01*
X21738190Y-39046489D01*
X21770062Y-39116277D01*
X21797979Y-39177406D01*
X21892228Y-39286176D01*
X22013303Y-39363986D01*
X22013306Y-39363987D01*
X22013305Y-39363987D01*
X22151392Y-39404532D01*
X22151394Y-39404533D01*
X22151395Y-39404533D01*
X22295318Y-39404533D01*
X22295318Y-39404532D01*
X22433409Y-39363986D01*
X22554484Y-39286176D01*
X22648733Y-39177406D01*
X22708521Y-39046490D01*
X22729003Y-38904033D01*
X22708521Y-38761576D01*
X22707984Y-38760400D01*
X59132453Y-38760400D01*
X59152934Y-38902856D01*
X59191029Y-38986270D01*
X59212723Y-39033773D01*
X59306972Y-39142543D01*
X59428047Y-39220353D01*
X59428050Y-39220354D01*
X59428049Y-39220354D01*
X59535207Y-39251817D01*
X59557873Y-39258473D01*
X59566136Y-39260899D01*
X59566138Y-39260900D01*
X59566139Y-39260900D01*
X59710062Y-39260900D01*
X59710062Y-39260899D01*
X59848153Y-39220353D01*
X59969228Y-39142543D01*
X60063477Y-39033773D01*
X60123265Y-38902857D01*
X60143747Y-38760400D01*
X60123265Y-38617943D01*
X60068319Y-38497629D01*
X69906149Y-38497629D01*
X69906149Y-38497636D01*
X69925713Y-38671281D01*
X69925715Y-38671291D01*
X69973589Y-38808104D01*
X69983434Y-38836239D01*
X70076409Y-38984209D01*
X70199980Y-39107780D01*
X70347950Y-39200755D01*
X70512899Y-39258474D01*
X70512905Y-39258474D01*
X70512907Y-39258475D01*
X70686552Y-39278040D01*
X70686556Y-39278040D01*
X70686560Y-39278040D01*
X70860204Y-39258475D01*
X70860203Y-39258475D01*
X70860213Y-39258474D01*
X71025162Y-39200755D01*
X71173132Y-39107780D01*
X71296703Y-38984209D01*
X71389678Y-38836239D01*
X71447397Y-38671290D01*
X71466963Y-38497633D01*
X71466963Y-38497629D01*
X72446149Y-38497629D01*
X72446149Y-38497636D01*
X72465713Y-38671281D01*
X72465715Y-38671291D01*
X72513589Y-38808104D01*
X72523434Y-38836239D01*
X72616409Y-38984209D01*
X72739980Y-39107780D01*
X72887950Y-39200755D01*
X73052899Y-39258474D01*
X73052905Y-39258474D01*
X73052907Y-39258475D01*
X73226552Y-39278040D01*
X73226556Y-39278040D01*
X73226560Y-39278040D01*
X73400204Y-39258475D01*
X73400203Y-39258475D01*
X73400213Y-39258474D01*
X73565162Y-39200755D01*
X73713132Y-39107780D01*
X73836703Y-38984209D01*
X73929678Y-38836239D01*
X73987397Y-38671290D01*
X74006963Y-38497633D01*
X74005768Y-38487028D01*
X73987398Y-38323984D01*
X73987397Y-38323982D01*
X73987397Y-38323976D01*
X73929678Y-38159027D01*
X73836703Y-38011057D01*
X73713132Y-37887486D01*
X73565162Y-37794511D01*
X73565161Y-37794510D01*
X73565160Y-37794510D01*
X73400214Y-37736792D01*
X73400204Y-37736790D01*
X73226560Y-37717226D01*
X73226552Y-37717226D01*
X73052907Y-37736790D01*
X73052897Y-37736792D01*
X72887951Y-37794510D01*
X72739979Y-37887486D01*
X72616409Y-38011056D01*
X72523433Y-38159028D01*
X72465715Y-38323974D01*
X72465713Y-38323984D01*
X72446149Y-38497629D01*
X71466963Y-38497629D01*
X71465768Y-38487028D01*
X71447398Y-38323984D01*
X71447397Y-38323982D01*
X71447397Y-38323976D01*
X71389678Y-38159027D01*
X71296703Y-38011057D01*
X71173132Y-37887486D01*
X71025162Y-37794511D01*
X71025161Y-37794510D01*
X71025160Y-37794510D01*
X70860214Y-37736792D01*
X70860204Y-37736790D01*
X70686560Y-37717226D01*
X70686552Y-37717226D01*
X70512907Y-37736790D01*
X70512897Y-37736792D01*
X70347951Y-37794510D01*
X70199979Y-37887486D01*
X70076409Y-38011056D01*
X69983433Y-38159028D01*
X69925715Y-38323974D01*
X69925713Y-38323984D01*
X69906149Y-38497629D01*
X60068319Y-38497629D01*
X60063477Y-38487027D01*
X59969228Y-38378257D01*
X59848153Y-38300447D01*
X59848151Y-38300446D01*
X59848149Y-38300445D01*
X59848150Y-38300445D01*
X59710063Y-38259900D01*
X59710061Y-38259900D01*
X59566139Y-38259900D01*
X59566136Y-38259900D01*
X59428049Y-38300445D01*
X59306973Y-38378256D01*
X59212723Y-38487026D01*
X59212722Y-38487028D01*
X59152934Y-38617943D01*
X59132453Y-38760400D01*
X22707984Y-38760400D01*
X22648733Y-38630660D01*
X22554484Y-38521890D01*
X22433409Y-38444080D01*
X22433407Y-38444079D01*
X22433405Y-38444078D01*
X22433406Y-38444078D01*
X22295319Y-38403533D01*
X22295317Y-38403533D01*
X22151395Y-38403533D01*
X22151392Y-38403533D01*
X22013305Y-38444078D01*
X21892229Y-38521889D01*
X21797979Y-38630659D01*
X21797978Y-38630661D01*
X21738190Y-38761576D01*
X21717709Y-38904033D01*
X16983456Y-38904033D01*
X16983456Y-37989633D01*
X24257709Y-37989633D01*
X24278190Y-38132089D01*
X24337978Y-38263004D01*
X24337979Y-38263006D01*
X24432228Y-38371776D01*
X24553303Y-38449586D01*
X24553306Y-38449587D01*
X24553305Y-38449587D01*
X24660463Y-38481050D01*
X24680813Y-38487026D01*
X24691392Y-38490132D01*
X24691394Y-38490133D01*
X24691395Y-38490133D01*
X24835318Y-38490133D01*
X24835318Y-38490132D01*
X24973409Y-38449586D01*
X25094484Y-38371776D01*
X25188733Y-38263006D01*
X25248521Y-38132090D01*
X25269003Y-37989633D01*
X25248521Y-37847176D01*
X25188733Y-37716260D01*
X25094484Y-37607490D01*
X24973409Y-37529680D01*
X24973407Y-37529679D01*
X24973405Y-37529678D01*
X24973406Y-37529678D01*
X24835319Y-37489133D01*
X24835317Y-37489133D01*
X24691395Y-37489133D01*
X24691392Y-37489133D01*
X24553305Y-37529678D01*
X24432229Y-37607489D01*
X24432228Y-37607489D01*
X24432228Y-37607490D01*
X24419646Y-37622010D01*
X24337979Y-37716259D01*
X24337978Y-37716261D01*
X24278190Y-37847176D01*
X24257709Y-37989633D01*
X16983456Y-37989633D01*
X16983456Y-36922833D01*
X33858909Y-36922833D01*
X33879390Y-37065289D01*
X33939178Y-37196204D01*
X33939179Y-37196206D01*
X34033428Y-37304976D01*
X34154503Y-37382786D01*
X34154506Y-37382787D01*
X34154505Y-37382787D01*
X34292592Y-37423332D01*
X34292594Y-37423333D01*
X34292595Y-37423333D01*
X34436518Y-37423333D01*
X34436518Y-37423332D01*
X34543677Y-37391868D01*
X34574606Y-37382787D01*
X34574606Y-37382786D01*
X34574609Y-37382786D01*
X34695684Y-37304976D01*
X34789933Y-37196206D01*
X34849721Y-37065290D01*
X34862899Y-36973633D01*
X35332109Y-36973633D01*
X35352590Y-37116089D01*
X35401518Y-37223224D01*
X35412379Y-37247006D01*
X35506628Y-37355776D01*
X35627703Y-37433586D01*
X35627706Y-37433587D01*
X35627705Y-37433587D01*
X35765792Y-37474132D01*
X35765794Y-37474133D01*
X35765795Y-37474133D01*
X35909718Y-37474133D01*
X35909718Y-37474132D01*
X36047809Y-37433586D01*
X36168884Y-37355776D01*
X36263133Y-37247006D01*
X36322921Y-37116090D01*
X36343403Y-36973633D01*
X36322921Y-36831176D01*
X36263133Y-36700260D01*
X36168884Y-36591490D01*
X36047809Y-36513680D01*
X36047807Y-36513679D01*
X36047805Y-36513678D01*
X36047806Y-36513678D01*
X35909719Y-36473133D01*
X35909717Y-36473133D01*
X35765795Y-36473133D01*
X35765792Y-36473133D01*
X35627705Y-36513678D01*
X35506629Y-36591489D01*
X35412379Y-36700259D01*
X35412378Y-36700261D01*
X35352590Y-36831176D01*
X35332109Y-36973633D01*
X34862899Y-36973633D01*
X34870203Y-36922833D01*
X34849721Y-36780376D01*
X34789933Y-36649460D01*
X34695684Y-36540690D01*
X34574609Y-36462880D01*
X34574607Y-36462879D01*
X34574605Y-36462878D01*
X34574606Y-36462878D01*
X34436519Y-36422333D01*
X34436517Y-36422333D01*
X34292595Y-36422333D01*
X34292592Y-36422333D01*
X34154505Y-36462878D01*
X34033429Y-36540689D01*
X34033428Y-36540689D01*
X34033428Y-36540690D01*
X34030494Y-36544076D01*
X33939179Y-36649459D01*
X33939178Y-36649461D01*
X33879390Y-36780376D01*
X33858909Y-36922833D01*
X16983456Y-36922833D01*
X16983456Y-36299833D01*
X38075309Y-36299833D01*
X38095790Y-36442289D01*
X38151202Y-36563622D01*
X38155579Y-36573206D01*
X38249828Y-36681976D01*
X38370903Y-36759786D01*
X38370906Y-36759787D01*
X38370905Y-36759787D01*
X38487218Y-36793939D01*
X38539965Y-36825235D01*
X38834337Y-37119607D01*
X38867822Y-37180930D01*
X38870656Y-37207288D01*
X38870656Y-37529593D01*
X38873430Y-37559182D01*
X38917040Y-37683809D01*
X38995444Y-37790043D01*
X38995445Y-37790044D01*
X39101679Y-37868448D01*
X39101680Y-37868448D01*
X39101681Y-37868449D01*
X39226307Y-37912058D01*
X39226306Y-37912058D01*
X39255896Y-37914833D01*
X39255900Y-37914833D01*
X39836416Y-37914833D01*
X39866005Y-37912058D01*
X39908763Y-37897096D01*
X39990631Y-37868449D01*
X40096867Y-37790044D01*
X40175272Y-37683808D01*
X40218881Y-37559182D01*
X40219939Y-37547900D01*
X40221656Y-37529593D01*
X40221656Y-37104914D01*
X40241341Y-37037875D01*
X40294145Y-36992120D01*
X40363303Y-36982176D01*
X40426859Y-37011201D01*
X40429004Y-37013347D01*
X40434550Y-37018153D01*
X40447296Y-37026344D01*
X40543535Y-37088193D01*
X40638546Y-37116090D01*
X40667829Y-37124688D01*
X40667831Y-37124689D01*
X40667832Y-37124689D01*
X40797377Y-37124689D01*
X40797377Y-37124688D01*
X40921673Y-37088193D01*
X41030653Y-37018156D01*
X41115486Y-36920252D01*
X41169301Y-36802415D01*
X41185725Y-36688186D01*
X41657781Y-36688186D01*
X41676216Y-36816411D01*
X41692426Y-36851905D01*
X41730032Y-36934249D01*
X41780177Y-36992120D01*
X41809831Y-37026344D01*
X41814865Y-37032153D01*
X41923845Y-37102190D01*
X42048139Y-37138685D01*
X42048141Y-37138686D01*
X42048142Y-37138686D01*
X42177687Y-37138686D01*
X42177687Y-37138685D01*
X42301983Y-37102190D01*
X42410963Y-37032153D01*
X42412140Y-37030795D01*
X42413654Y-37029821D01*
X42417668Y-37026344D01*
X42418167Y-37026920D01*
X42470917Y-36993018D01*
X42540787Y-36993016D01*
X42599566Y-37030788D01*
X42628593Y-37094343D01*
X42629856Y-37111994D01*
X42629856Y-37455274D01*
X42610171Y-37522313D01*
X42557367Y-37568068D01*
X42488209Y-37578012D01*
X42470923Y-37574252D01*
X42381172Y-37547900D01*
X42251628Y-37547900D01*
X42251626Y-37547900D01*
X42127335Y-37584394D01*
X42127332Y-37584395D01*
X42127331Y-37584396D01*
X42091396Y-37607490D01*
X42018350Y-37654433D01*
X41933518Y-37752337D01*
X41933517Y-37752338D01*
X41879702Y-37870174D01*
X41861267Y-37998400D01*
X41879702Y-38126625D01*
X41895083Y-38160304D01*
X41933518Y-38244463D01*
X42018351Y-38342367D01*
X42127331Y-38412404D01*
X42251625Y-38448899D01*
X42251627Y-38448900D01*
X42251628Y-38448900D01*
X42381173Y-38448900D01*
X42381173Y-38448899D01*
X42505469Y-38412404D01*
X42614449Y-38342367D01*
X42699282Y-38244463D01*
X42753097Y-38126626D01*
X42771533Y-37998400D01*
X42771532Y-37998398D01*
X42772305Y-37993028D01*
X42801330Y-37929473D01*
X42860108Y-37891698D01*
X42929977Y-37891698D01*
X42935991Y-37893631D01*
X42985507Y-37910958D01*
X42985506Y-37910958D01*
X43015096Y-37913733D01*
X43015100Y-37913733D01*
X43595616Y-37913733D01*
X43608764Y-37912499D01*
X43625205Y-37910958D01*
X43640353Y-37905657D01*
X43644933Y-37904055D01*
X43685889Y-37897096D01*
X44083762Y-37897096D01*
X44150800Y-37916780D01*
X44212685Y-37956550D01*
X44350772Y-37997095D01*
X44350774Y-37997096D01*
X44350775Y-37997096D01*
X44494698Y-37997096D01*
X44494698Y-37997095D01*
X44632789Y-37956549D01*
X44741114Y-37886933D01*
X48235309Y-37886933D01*
X48255790Y-38029389D01*
X48302693Y-38132090D01*
X48315579Y-38160306D01*
X48409828Y-38269076D01*
X48530903Y-38346886D01*
X48530906Y-38346887D01*
X48530905Y-38346887D01*
X48668992Y-38387432D01*
X48668994Y-38387433D01*
X48668995Y-38387433D01*
X48812918Y-38387433D01*
X48812918Y-38387432D01*
X48951009Y-38346886D01*
X49072084Y-38269076D01*
X49166333Y-38160306D01*
X49226121Y-38029390D01*
X49246603Y-37886933D01*
X49226121Y-37744476D01*
X49166333Y-37613560D01*
X49072084Y-37504790D01*
X48951009Y-37426980D01*
X48951007Y-37426979D01*
X48951005Y-37426978D01*
X48951006Y-37426978D01*
X48812919Y-37386433D01*
X48812917Y-37386433D01*
X48668995Y-37386433D01*
X48668992Y-37386433D01*
X48530905Y-37426978D01*
X48409829Y-37504789D01*
X48315579Y-37613559D01*
X48315578Y-37613561D01*
X48255790Y-37744476D01*
X48235309Y-37886933D01*
X44741114Y-37886933D01*
X44753864Y-37878739D01*
X44848113Y-37769969D01*
X44907901Y-37639053D01*
X44928383Y-37496596D01*
X44907901Y-37354139D01*
X44848113Y-37223223D01*
X44848111Y-37223221D01*
X44848110Y-37223218D01*
X44831552Y-37204110D01*
X44802526Y-37140555D01*
X44812469Y-37071396D01*
X44853697Y-37023815D01*
X44852875Y-37022744D01*
X44858100Y-37018734D01*
X44858224Y-37018592D01*
X44858526Y-37018407D01*
X44859316Y-37017800D01*
X44859321Y-37017798D01*
X44933888Y-36943231D01*
X44986615Y-36851905D01*
X45013908Y-36750045D01*
X45013908Y-36644591D01*
X44986615Y-36542731D01*
X44933888Y-36451405D01*
X44859321Y-36376838D01*
X44767995Y-36324111D01*
X44767994Y-36324110D01*
X44767993Y-36324110D01*
X44727932Y-36313375D01*
X44692990Y-36297917D01*
X44598770Y-36237367D01*
X44598761Y-36237362D01*
X44460676Y-36196818D01*
X44460674Y-36196818D01*
X44316752Y-36196818D01*
X44316749Y-36196818D01*
X44178662Y-36237363D01*
X44057586Y-36315174D01*
X43963336Y-36423944D01*
X43963335Y-36423946D01*
X43952439Y-36447804D01*
X43906682Y-36500607D01*
X43839642Y-36520289D01*
X43772603Y-36500602D01*
X43766013Y-36496060D01*
X43749830Y-36484116D01*
X43625204Y-36440507D01*
X43625205Y-36440507D01*
X43595616Y-36437733D01*
X43595612Y-36437733D01*
X43030610Y-36437733D01*
X42963571Y-36418048D01*
X42917816Y-36365244D01*
X42907872Y-36296086D01*
X42936897Y-36232530D01*
X42942929Y-36226052D01*
X42943929Y-36225052D01*
X43005252Y-36191567D01*
X43031610Y-36188733D01*
X43595616Y-36188733D01*
X43625205Y-36185958D01*
X43627045Y-36185314D01*
X43693864Y-36161933D01*
X46558909Y-36161933D01*
X46579390Y-36304389D01*
X46633991Y-36423946D01*
X46639179Y-36435306D01*
X46733428Y-36544076D01*
X46854503Y-36621886D01*
X46854506Y-36621887D01*
X46854505Y-36621887D01*
X46992592Y-36662432D01*
X46992594Y-36662433D01*
X46992595Y-36662433D01*
X47136518Y-36662433D01*
X47136518Y-36662432D01*
X47274609Y-36621886D01*
X47395684Y-36544076D01*
X47489933Y-36435306D01*
X47549721Y-36304390D01*
X47570203Y-36161933D01*
X47549721Y-36019476D01*
X47489933Y-35888560D01*
X47395684Y-35779790D01*
X47274609Y-35701980D01*
X47274607Y-35701979D01*
X47274605Y-35701978D01*
X47274606Y-35701978D01*
X47136519Y-35661433D01*
X47136517Y-35661433D01*
X46992595Y-35661433D01*
X46992592Y-35661433D01*
X46854505Y-35701978D01*
X46733429Y-35779789D01*
X46639179Y-35888559D01*
X46639178Y-35888561D01*
X46579390Y-36019476D01*
X46558909Y-36161933D01*
X43693864Y-36161933D01*
X43749831Y-36142349D01*
X43856067Y-36063944D01*
X43934472Y-35957708D01*
X43978081Y-35833082D01*
X43980856Y-35803489D01*
X43980856Y-35097977D01*
X43978081Y-35068384D01*
X43934472Y-34943758D01*
X43856067Y-34837522D01*
X43856066Y-34837521D01*
X43749832Y-34759117D01*
X43625204Y-34715507D01*
X43625205Y-34715507D01*
X43595616Y-34712733D01*
X43595612Y-34712733D01*
X43015100Y-34712733D01*
X43015096Y-34712733D01*
X42985506Y-34715507D01*
X42860879Y-34759117D01*
X42754645Y-34837521D01*
X42754644Y-34837522D01*
X42676240Y-34943756D01*
X42632630Y-35068383D01*
X42629856Y-35097972D01*
X42629856Y-35354977D01*
X42610171Y-35422016D01*
X42593537Y-35442658D01*
X42377956Y-35658238D01*
X42325210Y-35689534D01*
X42246229Y-35712724D01*
X42137245Y-35782763D01*
X42052413Y-35880667D01*
X42052412Y-35880668D01*
X41998597Y-35998504D01*
X41980162Y-36126730D01*
X41980162Y-36126732D01*
X41983464Y-36149702D01*
X41973519Y-36218860D01*
X41927766Y-36271661D01*
X41814865Y-36344218D01*
X41730032Y-36442123D01*
X41730031Y-36442124D01*
X41676216Y-36559960D01*
X41657781Y-36688186D01*
X41185725Y-36688186D01*
X41187737Y-36674189D01*
X41169301Y-36545963D01*
X41115486Y-36428126D01*
X41030653Y-36330222D01*
X40921673Y-36260185D01*
X40921672Y-36260184D01*
X40916969Y-36257162D01*
X40871214Y-36204358D01*
X40861270Y-36135201D01*
X40864889Y-36110033D01*
X40846453Y-35981807D01*
X40792638Y-35863970D01*
X40707805Y-35766066D01*
X40598825Y-35696029D01*
X40598821Y-35696027D01*
X40598820Y-35696027D01*
X40474530Y-35659533D01*
X40474528Y-35659533D01*
X40371611Y-35659533D01*
X40304572Y-35639848D01*
X40283930Y-35623214D01*
X40257975Y-35597259D01*
X40224490Y-35535936D01*
X40221656Y-35509578D01*
X40221656Y-35099072D01*
X40218881Y-35069483D01*
X40175271Y-34944856D01*
X40096867Y-34838622D01*
X40096866Y-34838621D01*
X39990632Y-34760217D01*
X39866004Y-34716607D01*
X39866005Y-34716607D01*
X39836416Y-34713833D01*
X39836412Y-34713833D01*
X39255900Y-34713833D01*
X39255896Y-34713833D01*
X39226306Y-34716607D01*
X39101679Y-34760217D01*
X38995445Y-34838621D01*
X38995444Y-34838622D01*
X38917040Y-34944856D01*
X38873430Y-35069483D01*
X38870656Y-35099072D01*
X38870656Y-35697621D01*
X38850971Y-35764660D01*
X38798167Y-35810415D01*
X38729009Y-35820359D01*
X38711723Y-35816599D01*
X38652917Y-35799333D01*
X38508995Y-35799333D01*
X38508992Y-35799333D01*
X38370905Y-35839878D01*
X38249829Y-35917689D01*
X38155579Y-36026459D01*
X38155578Y-36026461D01*
X38095790Y-36157376D01*
X38075309Y-36299833D01*
X16983456Y-36299833D01*
X16983456Y-34738433D01*
X37110109Y-34738433D01*
X37130590Y-34880889D01*
X37190378Y-35011804D01*
X37190379Y-35011806D01*
X37284628Y-35120576D01*
X37405703Y-35198386D01*
X37405706Y-35198387D01*
X37405705Y-35198387D01*
X37543792Y-35238932D01*
X37543794Y-35238933D01*
X37543795Y-35238933D01*
X37687718Y-35238933D01*
X37687718Y-35238932D01*
X37825809Y-35198386D01*
X37946884Y-35120576D01*
X38041133Y-35011806D01*
X38100921Y-34880890D01*
X38121403Y-34738433D01*
X38100921Y-34595976D01*
X38041133Y-34465060D01*
X37946884Y-34356290D01*
X37825809Y-34278480D01*
X37825807Y-34278479D01*
X37825805Y-34278478D01*
X37825806Y-34278478D01*
X37687719Y-34237933D01*
X37687717Y-34237933D01*
X37543795Y-34237933D01*
X37543792Y-34237933D01*
X37405705Y-34278478D01*
X37284629Y-34356289D01*
X37190379Y-34465059D01*
X37190378Y-34465061D01*
X37130590Y-34595976D01*
X37110109Y-34738433D01*
X16983456Y-34738433D01*
X16983456Y-34178533D01*
X23190909Y-34178533D01*
X23211390Y-34320989D01*
X23227512Y-34356290D01*
X23271179Y-34451906D01*
X23365428Y-34560676D01*
X23486503Y-34638486D01*
X23486506Y-34638487D01*
X23486505Y-34638487D01*
X23624592Y-34679032D01*
X23624594Y-34679033D01*
X23624595Y-34679033D01*
X23768518Y-34679033D01*
X23768518Y-34679032D01*
X23906609Y-34638486D01*
X24027684Y-34560676D01*
X24121933Y-34451906D01*
X24181721Y-34320990D01*
X24202203Y-34178533D01*
X24181721Y-34036076D01*
X24121933Y-33905160D01*
X24027684Y-33796390D01*
X23906609Y-33718580D01*
X23906607Y-33718579D01*
X23906605Y-33718578D01*
X23906606Y-33718578D01*
X23768519Y-33678033D01*
X23768517Y-33678033D01*
X23624595Y-33678033D01*
X23624592Y-33678033D01*
X23486505Y-33718578D01*
X23365429Y-33796389D01*
X23271179Y-33905159D01*
X23271178Y-33905161D01*
X23211390Y-34036076D01*
X23190909Y-34178533D01*
X16983456Y-34178533D01*
X16983456Y-32664091D01*
X28029709Y-32664091D01*
X28050190Y-32806547D01*
X28109978Y-32937462D01*
X28109979Y-32937464D01*
X28204228Y-33046234D01*
X28325303Y-33124044D01*
X28325306Y-33124045D01*
X28325305Y-33124045D01*
X28463392Y-33164590D01*
X28463394Y-33164591D01*
X28463395Y-33164591D01*
X28607318Y-33164591D01*
X28607318Y-33164590D01*
X28745409Y-33124044D01*
X28866484Y-33046234D01*
X28960733Y-32937464D01*
X29020521Y-32806548D01*
X29041003Y-32664091D01*
X29020521Y-32521634D01*
X28960733Y-32390718D01*
X28866484Y-32281948D01*
X28745409Y-32204138D01*
X28745407Y-32204137D01*
X28745405Y-32204136D01*
X28745406Y-32204136D01*
X28607319Y-32163591D01*
X28607317Y-32163591D01*
X28463395Y-32163591D01*
X28463392Y-32163591D01*
X28325305Y-32204136D01*
X28204229Y-32281947D01*
X28109979Y-32390717D01*
X28109978Y-32390719D01*
X28050190Y-32521634D01*
X28029709Y-32664091D01*
X16983456Y-32664091D01*
X16983456Y-30809033D01*
X26949709Y-30809033D01*
X26970190Y-30951489D01*
X27018183Y-31056576D01*
X27029979Y-31082406D01*
X27124228Y-31191176D01*
X27245303Y-31268986D01*
X27245306Y-31268987D01*
X27245305Y-31268987D01*
X27383392Y-31309532D01*
X27383394Y-31309533D01*
X27383395Y-31309533D01*
X27527318Y-31309533D01*
X27527318Y-31309532D01*
X27665409Y-31268986D01*
X27786484Y-31191176D01*
X27880733Y-31082406D01*
X27940521Y-30951490D01*
X27961003Y-30809033D01*
X27940521Y-30666576D01*
X27880733Y-30535660D01*
X27786484Y-30426890D01*
X27665409Y-30349080D01*
X27665407Y-30349079D01*
X27665405Y-30349078D01*
X27665406Y-30349078D01*
X27527319Y-30308533D01*
X27527317Y-30308533D01*
X27383395Y-30308533D01*
X27383392Y-30308533D01*
X27245305Y-30349078D01*
X27124229Y-30426889D01*
X27029979Y-30535659D01*
X27029978Y-30535661D01*
X26970190Y-30666576D01*
X26949709Y-30809033D01*
X16983456Y-30809033D01*
X16983456Y-28642433D01*
X37973709Y-28642433D01*
X37994190Y-28784889D01*
X38053978Y-28915804D01*
X38058774Y-28923267D01*
X38056251Y-28924888D01*
X38079039Y-28974784D01*
X38069097Y-29043943D01*
X38058050Y-29061136D01*
X38058774Y-29061602D01*
X38053978Y-29069064D01*
X37994190Y-29199979D01*
X37973709Y-29342436D01*
X37994190Y-29484892D01*
X38053978Y-29615807D01*
X38058774Y-29623270D01*
X38056251Y-29624891D01*
X38079039Y-29674787D01*
X38069097Y-29743946D01*
X38058050Y-29761139D01*
X38058774Y-29761605D01*
X38053978Y-29769067D01*
X37994190Y-29899982D01*
X37973709Y-30042439D01*
X37994190Y-30184895D01*
X38053978Y-30315810D01*
X38058774Y-30323273D01*
X38056251Y-30324894D01*
X38079039Y-30374790D01*
X38069097Y-30443949D01*
X38058050Y-30461142D01*
X38058774Y-30461608D01*
X38053978Y-30469070D01*
X37994190Y-30599985D01*
X37973709Y-30742442D01*
X37994190Y-30884898D01*
X38022919Y-30947804D01*
X38053979Y-31015815D01*
X38148228Y-31124585D01*
X38269303Y-31202395D01*
X38269306Y-31202396D01*
X38269305Y-31202396D01*
X38407392Y-31242941D01*
X38407394Y-31242942D01*
X38407395Y-31242942D01*
X38551318Y-31242942D01*
X38551318Y-31242941D01*
X38689409Y-31202395D01*
X38810484Y-31124585D01*
X38904733Y-31015815D01*
X38964521Y-30884899D01*
X38985003Y-30742442D01*
X38964521Y-30599985D01*
X38904733Y-30469069D01*
X38904730Y-30469066D01*
X38899938Y-30461608D01*
X38902460Y-30459986D01*
X38879672Y-30410094D01*
X38889612Y-30340935D01*
X38900665Y-30323739D01*
X38899938Y-30323272D01*
X38904724Y-30315821D01*
X38904733Y-30315812D01*
X38964521Y-30184896D01*
X38985003Y-30042439D01*
X38964521Y-29899982D01*
X38904733Y-29769066D01*
X38904730Y-29769063D01*
X38899938Y-29761605D01*
X38902460Y-29759983D01*
X38879672Y-29710091D01*
X38889612Y-29640932D01*
X38900665Y-29623736D01*
X38899938Y-29623269D01*
X38904724Y-29615818D01*
X38904733Y-29615809D01*
X38964521Y-29484893D01*
X38985003Y-29342436D01*
X38964521Y-29199979D01*
X38904733Y-29069063D01*
X38904730Y-29069060D01*
X38899938Y-29061602D01*
X38902460Y-29059980D01*
X38879672Y-29010088D01*
X38889612Y-28940929D01*
X38900665Y-28923733D01*
X38899938Y-28923266D01*
X38904724Y-28915815D01*
X38904733Y-28915806D01*
X38964521Y-28784890D01*
X38985003Y-28642433D01*
X38970395Y-28540833D01*
X43714109Y-28540833D01*
X43734590Y-28683289D01*
X43794378Y-28814204D01*
X43794381Y-28814209D01*
X43795269Y-28815234D01*
X43795831Y-28816466D01*
X43799174Y-28821667D01*
X43798426Y-28822147D01*
X43824291Y-28878790D01*
X43814346Y-28947948D01*
X43795269Y-28977632D01*
X43794381Y-28978656D01*
X43794378Y-28978661D01*
X43734590Y-29109576D01*
X43714109Y-29252033D01*
X43734590Y-29394489D01*
X43794378Y-29525404D01*
X43794381Y-29525409D01*
X43795269Y-29526434D01*
X43795831Y-29527666D01*
X43799174Y-29532867D01*
X43798426Y-29533347D01*
X43824291Y-29589990D01*
X43814346Y-29659148D01*
X43795269Y-29688832D01*
X43794381Y-29689856D01*
X43794378Y-29689861D01*
X43734590Y-29820776D01*
X43714109Y-29963233D01*
X43734590Y-30105689D01*
X43794378Y-30236604D01*
X43794381Y-30236609D01*
X43795269Y-30237634D01*
X43795831Y-30238866D01*
X43799174Y-30244067D01*
X43798426Y-30244547D01*
X43824291Y-30301190D01*
X43814346Y-30370348D01*
X43795269Y-30400032D01*
X43794381Y-30401056D01*
X43794378Y-30401061D01*
X43734590Y-30531976D01*
X43714109Y-30674433D01*
X43734590Y-30816889D01*
X43765650Y-30884899D01*
X43794379Y-30947806D01*
X43888628Y-31056576D01*
X44009703Y-31134386D01*
X44009706Y-31134387D01*
X44009705Y-31134387D01*
X44147792Y-31174932D01*
X44147794Y-31174933D01*
X44147795Y-31174933D01*
X44291718Y-31174933D01*
X44291718Y-31174932D01*
X44429809Y-31134386D01*
X44550884Y-31056576D01*
X44645133Y-30947806D01*
X44704921Y-30816890D01*
X44725403Y-30674433D01*
X44704921Y-30531976D01*
X44645133Y-30401060D01*
X44644247Y-30400038D01*
X44643686Y-30398809D01*
X44640338Y-30393599D01*
X44641086Y-30393117D01*
X44615221Y-30336485D01*
X44625162Y-30267326D01*
X44644248Y-30237627D01*
X44645133Y-30236606D01*
X44704921Y-30105690D01*
X44725403Y-29963233D01*
X44704921Y-29820776D01*
X44645133Y-29689860D01*
X44644247Y-29688838D01*
X44643686Y-29687609D01*
X44640338Y-29682399D01*
X44641086Y-29681917D01*
X44615221Y-29625285D01*
X44625162Y-29556126D01*
X44644248Y-29526427D01*
X44645133Y-29525406D01*
X44704921Y-29394490D01*
X44725403Y-29252033D01*
X44704921Y-29109576D01*
X44645133Y-28978660D01*
X44644247Y-28977638D01*
X44643686Y-28976409D01*
X44640338Y-28971199D01*
X44641086Y-28970717D01*
X44615221Y-28914085D01*
X44625162Y-28844926D01*
X44644248Y-28815227D01*
X44645133Y-28814206D01*
X44704921Y-28683290D01*
X44725403Y-28540833D01*
X44704921Y-28398376D01*
X44645133Y-28267460D01*
X44550884Y-28158690D01*
X44429809Y-28080880D01*
X44429807Y-28080879D01*
X44429805Y-28080878D01*
X44429806Y-28080878D01*
X44291719Y-28040333D01*
X44291717Y-28040333D01*
X44147795Y-28040333D01*
X44147792Y-28040333D01*
X44009705Y-28080878D01*
X43888629Y-28158689D01*
X43794379Y-28267459D01*
X43794378Y-28267461D01*
X43734590Y-28398376D01*
X43714109Y-28540833D01*
X38970395Y-28540833D01*
X38964521Y-28499976D01*
X38904733Y-28369060D01*
X38810484Y-28260290D01*
X38689409Y-28182480D01*
X38689407Y-28182479D01*
X38689405Y-28182478D01*
X38689406Y-28182478D01*
X38551319Y-28141933D01*
X38551317Y-28141933D01*
X38407395Y-28141933D01*
X38407392Y-28141933D01*
X38269305Y-28182478D01*
X38148229Y-28260289D01*
X38053979Y-28369059D01*
X38053978Y-28369061D01*
X37994190Y-28499976D01*
X37973709Y-28642433D01*
X16983456Y-28642433D01*
X16983456Y-21908000D01*
X58427893Y-21908000D01*
X58447103Y-22250081D01*
X58447105Y-22250093D01*
X58485696Y-22477226D01*
X58504496Y-22587870D01*
X58599347Y-22917104D01*
X58668467Y-23083974D01*
X58730463Y-23233646D01*
X58896198Y-23533521D01*
X59094469Y-23812959D01*
X59322770Y-24068426D01*
X59322773Y-24068429D01*
X59578240Y-24296730D01*
X59578246Y-24296734D01*
X59578247Y-24296735D01*
X59857679Y-24495002D01*
X60157552Y-24660736D01*
X60474096Y-24791853D01*
X60803330Y-24886704D01*
X61141114Y-24944096D01*
X61483200Y-24963307D01*
X61825286Y-24944096D01*
X62163070Y-24886704D01*
X62492304Y-24791853D01*
X62808848Y-24660736D01*
X63108721Y-24495002D01*
X63388153Y-24296735D01*
X63643628Y-24068428D01*
X63800029Y-23893414D01*
X63871930Y-23812959D01*
X63871931Y-23812957D01*
X63871935Y-23812953D01*
X64070202Y-23533521D01*
X64222682Y-23257629D01*
X69906149Y-23257629D01*
X69906149Y-23257636D01*
X69925713Y-23431281D01*
X69925715Y-23431291D01*
X69983433Y-23596237D01*
X69983434Y-23596239D01*
X70076409Y-23744209D01*
X70199980Y-23867780D01*
X70347950Y-23960755D01*
X70512899Y-24018474D01*
X70512905Y-24018474D01*
X70512907Y-24018475D01*
X70686552Y-24038040D01*
X70686556Y-24038040D01*
X70686560Y-24038040D01*
X70860204Y-24018475D01*
X70860203Y-24018475D01*
X70860213Y-24018474D01*
X71025162Y-23960755D01*
X71173132Y-23867780D01*
X71296703Y-23744209D01*
X71389678Y-23596239D01*
X71447397Y-23431290D01*
X71466963Y-23257633D01*
X71466963Y-23257629D01*
X72446149Y-23257629D01*
X72446149Y-23257636D01*
X72465713Y-23431281D01*
X72465715Y-23431291D01*
X72523433Y-23596237D01*
X72523434Y-23596239D01*
X72616409Y-23744209D01*
X72739980Y-23867780D01*
X72887950Y-23960755D01*
X73052899Y-24018474D01*
X73052905Y-24018474D01*
X73052907Y-24018475D01*
X73226552Y-24038040D01*
X73226556Y-24038040D01*
X73226560Y-24038040D01*
X73400204Y-24018475D01*
X73400203Y-24018475D01*
X73400213Y-24018474D01*
X73565162Y-23960755D01*
X73713132Y-23867780D01*
X73836703Y-23744209D01*
X73929678Y-23596239D01*
X73987397Y-23431290D01*
X74006963Y-23257633D01*
X74004260Y-23233646D01*
X73987398Y-23083984D01*
X73987397Y-23083982D01*
X73987397Y-23083976D01*
X73929678Y-22919027D01*
X73836703Y-22771057D01*
X73713132Y-22647486D01*
X73565162Y-22554511D01*
X73565161Y-22554510D01*
X73565160Y-22554510D01*
X73400214Y-22496792D01*
X73400204Y-22496790D01*
X73226560Y-22477226D01*
X73226552Y-22477226D01*
X73052907Y-22496790D01*
X73052897Y-22496792D01*
X72887951Y-22554510D01*
X72739979Y-22647486D01*
X72616409Y-22771056D01*
X72523433Y-22919028D01*
X72465715Y-23083974D01*
X72465713Y-23083984D01*
X72446149Y-23257629D01*
X71466963Y-23257629D01*
X71464260Y-23233646D01*
X71447398Y-23083984D01*
X71447397Y-23083982D01*
X71447397Y-23083976D01*
X71389678Y-22919027D01*
X71296703Y-22771057D01*
X71173132Y-22647486D01*
X71025162Y-22554511D01*
X71025161Y-22554510D01*
X71025160Y-22554510D01*
X70860214Y-22496792D01*
X70860204Y-22496790D01*
X70686560Y-22477226D01*
X70686552Y-22477226D01*
X70512907Y-22496790D01*
X70512897Y-22496792D01*
X70347951Y-22554510D01*
X70199979Y-22647486D01*
X70076409Y-22771056D01*
X69983433Y-22919028D01*
X69925715Y-23083974D01*
X69925713Y-23083984D01*
X69906149Y-23257629D01*
X64222682Y-23257629D01*
X64235936Y-23233648D01*
X64367053Y-22917104D01*
X64461904Y-22587870D01*
X64519296Y-22250086D01*
X64538507Y-21908000D01*
X64519296Y-21565914D01*
X64461904Y-21228130D01*
X64367053Y-20898896D01*
X64235936Y-20582352D01*
X64070202Y-20282479D01*
X63871935Y-20003047D01*
X63871934Y-20003046D01*
X63871930Y-20003040D01*
X63643629Y-19747573D01*
X63643626Y-19747570D01*
X63388159Y-19519269D01*
X63108721Y-19320998D01*
X62808846Y-19155263D01*
X62743287Y-19128108D01*
X62492304Y-19024147D01*
X62407679Y-18999766D01*
X62163075Y-18929297D01*
X62163066Y-18929295D01*
X61825293Y-18871905D01*
X61825281Y-18871903D01*
X61483200Y-18852693D01*
X61141118Y-18871903D01*
X61141106Y-18871905D01*
X60803333Y-18929295D01*
X60803324Y-18929297D01*
X60474099Y-19024146D01*
X60474096Y-19024147D01*
X60381384Y-19062549D01*
X60157553Y-19155263D01*
X59857678Y-19320998D01*
X59578240Y-19519269D01*
X59322773Y-19747570D01*
X59322770Y-19747573D01*
X59094469Y-20003040D01*
X58896198Y-20282478D01*
X58730463Y-20582353D01*
X58599346Y-20898899D01*
X58504497Y-21228124D01*
X58504495Y-21228133D01*
X58447105Y-21565906D01*
X58447103Y-21565918D01*
X58427893Y-21908000D01*
X16983456Y-21908000D01*
X16983456Y-20929596D01*
X20174835Y-20929596D01*
X20174835Y-20929603D01*
X20195030Y-21108849D01*
X20195031Y-21108854D01*
X20254611Y-21279123D01*
X20350584Y-21431862D01*
X20478138Y-21559416D01*
X20630878Y-21655389D01*
X20801145Y-21714968D01*
X20801150Y-21714969D01*
X20980396Y-21735165D01*
X20980400Y-21735165D01*
X20980404Y-21735165D01*
X21159649Y-21714969D01*
X21159652Y-21714968D01*
X21159655Y-21714968D01*
X21329922Y-21655389D01*
X21482662Y-21559416D01*
X21610216Y-21431862D01*
X21706189Y-21279122D01*
X21765768Y-21108855D01*
X21785965Y-20929600D01*
X21765768Y-20750345D01*
X21706189Y-20580078D01*
X21610216Y-20427338D01*
X21482662Y-20299784D01*
X21455120Y-20282478D01*
X21329923Y-20203811D01*
X21159654Y-20144231D01*
X21159649Y-20144230D01*
X20980404Y-20124035D01*
X20980396Y-20124035D01*
X20801150Y-20144230D01*
X20801145Y-20144231D01*
X20630876Y-20203811D01*
X20478137Y-20299784D01*
X20350584Y-20427337D01*
X20254611Y-20580076D01*
X20195031Y-20750345D01*
X20195030Y-20750350D01*
X20174835Y-20929596D01*
X16983456Y-20929596D01*
X16983456Y-17557333D01*
X17003141Y-17490294D01*
X17055945Y-17444539D01*
X17107456Y-17433333D01*
X79508221Y-17433333D01*
X79575260Y-17453018D01*
G37*
%TD.AperFunction*%
%TD*%
%TA.AperFunction,Conductor*%
%TO.N,GND3*%
G36*
X99236370Y-20646093D02*
G01*
X99282690Y-20698402D01*
X99294456Y-20751123D01*
X99294456Y-46705184D01*
X99274771Y-46772223D01*
X99221967Y-46817978D01*
X99171123Y-46829182D01*
X89912023Y-46878962D01*
X89844878Y-46859638D01*
X89798840Y-46807081D01*
X89787356Y-46754964D01*
X89787356Y-42792507D01*
X89807041Y-42725468D01*
X89859845Y-42679713D01*
X89916518Y-42668615D01*
X91006555Y-42714033D01*
X91006554Y-42714032D01*
X91006556Y-42714033D01*
X90957980Y-38497629D01*
X92766149Y-38497629D01*
X92766149Y-38497636D01*
X92785713Y-38671281D01*
X92785715Y-38671290D01*
X92843434Y-38836239D01*
X92936409Y-38984209D01*
X93059980Y-39107780D01*
X93207950Y-39200755D01*
X93372899Y-39258474D01*
X93372905Y-39258474D01*
X93372907Y-39258475D01*
X93546552Y-39278040D01*
X93546556Y-39278040D01*
X93546560Y-39278040D01*
X93720204Y-39258475D01*
X93720203Y-39258475D01*
X93720213Y-39258474D01*
X93885162Y-39200755D01*
X94033132Y-39107780D01*
X94156703Y-38984209D01*
X94249678Y-38836239D01*
X94307397Y-38671290D01*
X94326963Y-38497633D01*
X94307397Y-38323976D01*
X94249678Y-38159027D01*
X94156703Y-38011057D01*
X94033132Y-37887486D01*
X93885162Y-37794511D01*
X93885161Y-37794510D01*
X93885160Y-37794510D01*
X93720214Y-37736792D01*
X93720204Y-37736790D01*
X93546560Y-37717226D01*
X93546552Y-37717226D01*
X93372907Y-37736790D01*
X93372897Y-37736792D01*
X93207951Y-37794510D01*
X93059979Y-37887486D01*
X92936409Y-38011056D01*
X92843433Y-38159028D01*
X92785715Y-38323974D01*
X92785713Y-38323984D01*
X92766149Y-38497629D01*
X90957980Y-38497629D01*
X90754570Y-20841710D01*
X90773481Y-20774451D01*
X90825755Y-20728091D01*
X90877225Y-20716291D01*
X99169127Y-20627131D01*
X99236370Y-20646093D01*
G37*
%TD.AperFunction*%
%TD*%
M02*
