%TF.GenerationSoftware,KiCad,Pcbnew,8.0.6*%
%TF.CreationDate,2025-10-30T19:34:04+01:00*%
%TF.ProjectId,middle_PCB,6d696464-6c65-45f5-9043-422e6b696361,rev?*%
%TF.SameCoordinates,Original*%
%TF.FileFunction,Copper,L2,Bot*%
%TF.FilePolarity,Positive*%
%FSLAX46Y46*%
G04 Gerber Fmt 4.6, Leading zero omitted, Abs format (unit mm)*
G04 Created by KiCad (PCBNEW 8.0.6) date 2025-10-30 19:34:04*
%MOMM*%
%LPD*%
G01*
G04 APERTURE LIST*
G04 Aperture macros list*
%AMRoundRect*
0 Rectangle with rounded corners*
0 $1 Rounding radius*
0 $2 $3 $4 $5 $6 $7 $8 $9 X,Y pos of 4 corners*
0 Add a 4 corners polygon primitive as box body*
4,1,4,$2,$3,$4,$5,$6,$7,$8,$9,$2,$3,0*
0 Add four circle primitives for the rounded corners*
1,1,$1+$1,$2,$3*
1,1,$1+$1,$4,$5*
1,1,$1+$1,$6,$7*
1,1,$1+$1,$8,$9*
0 Add four rect primitives between the rounded corners*
20,1,$1+$1,$2,$3,$4,$5,0*
20,1,$1+$1,$4,$5,$6,$7,0*
20,1,$1+$1,$6,$7,$8,$9,0*
20,1,$1+$1,$8,$9,$2,$3,0*%
G04 Aperture macros list end*
%TA.AperFunction,ComponentPad*%
%ADD10C,2.100000*%
%TD*%
%TA.AperFunction,ComponentPad*%
%ADD11C,2.000000*%
%TD*%
%TA.AperFunction,ComponentPad*%
%ADD12C,1.900000*%
%TD*%
%TA.AperFunction,SMDPad,CuDef*%
%ADD13R,0.700000X1.600000*%
%TD*%
%TA.AperFunction,SMDPad,CuDef*%
%ADD14RoundRect,0.250000X-0.650000X0.412500X-0.650000X-0.412500X0.650000X-0.412500X0.650000X0.412500X0*%
%TD*%
%TA.AperFunction,SMDPad,CuDef*%
%ADD15RoundRect,0.237500X-0.237500X0.250000X-0.237500X-0.250000X0.237500X-0.250000X0.237500X0.250000X0*%
%TD*%
%TA.AperFunction,SMDPad,CuDef*%
%ADD16RoundRect,0.237500X-0.237500X0.300000X-0.237500X-0.300000X0.237500X-0.300000X0.237500X0.300000X0*%
%TD*%
%TA.AperFunction,ViaPad*%
%ADD17C,0.600000*%
%TD*%
%TA.AperFunction,Conductor*%
%ADD18C,0.500000*%
%TD*%
%TA.AperFunction,Conductor*%
%ADD19C,0.200000*%
%TD*%
G04 APERTURE END LIST*
D10*
%TO.P,J6,1,Pin_1*%
%TO.N,+5V*%
X96461325Y-44138600D03*
X96461325Y-49138600D03*
%TO.P,J6,2,Pin_2*%
%TO.N,GND*%
X99961325Y-44138600D03*
X99961325Y-49138600D03*
%TD*%
%TO.P,J7,1,Pin_1*%
%TO.N,Net-(J1-Pin_1)*%
X26726000Y-44211000D03*
X26726000Y-49211000D03*
%TO.P,J7,2,Pin_2*%
%TO.N,Net-(J1-Pin_2)*%
X30226000Y-44211000D03*
X30226000Y-49211000D03*
%TD*%
D11*
%TO.P,J2,1,Pin_1*%
%TO.N,+5V*%
X45366925Y-44189400D03*
X45366925Y-49189400D03*
%TO.P,J2,2,Pin_2*%
%TO.N,GND*%
X48866925Y-44189400D03*
X48866925Y-49189400D03*
%TO.P,J2,3,Pin_3*%
%TO.N,outRainTip*%
X52366925Y-44189400D03*
X52366925Y-49189400D03*
%TD*%
%TO.P,J4,1,Pin_1*%
%TO.N,+5V*%
X71204125Y-44087800D03*
X71204125Y-49087800D03*
%TO.P,J4,2,Pin_2*%
%TO.N,GND*%
X74704125Y-44087800D03*
X74704125Y-49087800D03*
%TO.P,J4,3,Pin_3*%
%TO.N,IN_1*%
X78204125Y-44087800D03*
X78204125Y-49087800D03*
%TD*%
D12*
%TO.P,U3,1,VCC*%
%TO.N,+5V*%
X72839325Y-19166600D03*
%TO.P,U3,2,3v3*%
%TO.N,unconnected-(U3-3v3-Pad2)*%
X70299325Y-19166600D03*
%TO.P,U3,3,GND*%
%TO.N,GND*%
X67759325Y-19166600D03*
%TO.P,U3,4,GND*%
X65219325Y-19166600D03*
%TO.P,U3,5,NRST*%
%TO.N,unconnected-(U3-NRST-Pad5)*%
X62679325Y-19166600D03*
%TO.P,U3,6,PB7/PB8*%
%TO.N,I2C-SCL*%
X60139325Y-19166600D03*
%TO.P,U3,7,PB9/PC14*%
%TO.N,I2C-SDA*%
X57599325Y-19166600D03*
%TO.P,U3,8,PC15*%
%TO.N,unconnected-(U3-PC15-Pad8)*%
X55059325Y-19166600D03*
%TO.P,U3,9,PA0*%
%TO.N,DE*%
X52519325Y-19166600D03*
%TO.P,U3,10,PA1*%
%TO.N,RE*%
X49979325Y-19166600D03*
%TO.P,U3,11,PA2*%
%TO.N,TX*%
X47439325Y-19166600D03*
%TO.P,U3,12,PA3*%
%TO.N,RX*%
X44899325Y-19166600D03*
%TO.P,U3,13,3v3*%
%TO.N,unconnected-(U3-3v3-Pad13)*%
X72839325Y-34406600D03*
%TO.P,U3,14,GND*%
%TO.N,GND*%
X70299325Y-34406600D03*
%TO.P,U3,15,PB3/4/5/6*%
%TO.N,unconnected-(U3-PB3{slash}4{slash}5{slash}6-Pad15)*%
X67759325Y-34406600D03*
%TO.P,U3,16,PA14/15/BOOT0/SWC*%
%TO.N,unconnected-(U3-PA14{slash}15{slash}BOOT0{slash}SWC-Pad16)*%
X65219325Y-34406600D03*
%TO.P,U3,17,PA13/SWD*%
%TO.N,unconnected-(U3-PA13{slash}SWD-Pad17)*%
X62679325Y-34406600D03*
%TO.P,U3,18,PA12/PA10*%
%TO.N,unconnected-(U3-PA12{slash}PA10-Pad18)*%
X60139325Y-34406600D03*
%TO.P,U3,19,PA11/PA9*%
%TO.N,unconnected-(U3-PA11{slash}PA9-Pad19)*%
X57599325Y-34406600D03*
%TO.P,U3,20,PB0/1/2/PA8*%
%TO.N,unconnected-(U3-PB0{slash}1{slash}2{slash}PA8-Pad20)*%
X55059325Y-34406600D03*
%TO.P,U3,21,PA7*%
%TO.N,IN_2*%
X52519325Y-34406600D03*
%TO.P,U3,22,PA6*%
%TO.N,IN_1*%
X49979325Y-34406600D03*
%TO.P,U3,23,PA5*%
%TO.N,outWindspeed*%
X47439325Y-34406600D03*
%TO.P,U3,24,PA4*%
%TO.N,outRainTip*%
X44899325Y-34406600D03*
%TD*%
D10*
%TO.P,J1,1,Pin_1*%
%TO.N,Net-(J1-Pin_1)*%
X36110925Y-44211000D03*
X36110925Y-49211000D03*
%TO.P,J1,2,Pin_2*%
%TO.N,Net-(J1-Pin_2)*%
X39610925Y-44211000D03*
X39610925Y-49211000D03*
%TD*%
D11*
%TO.P,J3,1,Pin_1*%
%TO.N,+5V*%
X58350525Y-44104200D03*
X58350525Y-49104200D03*
%TO.P,J3,2,Pin_2*%
%TO.N,GND*%
X61850525Y-44104200D03*
X61850525Y-49104200D03*
%TO.P,J3,3,Pin_3*%
%TO.N,outWindspeed*%
X65350525Y-44104200D03*
X65350525Y-49104200D03*
%TD*%
%TO.P,J5,1,Pin_1*%
%TO.N,+5V*%
X83964525Y-44138600D03*
X83964525Y-49138600D03*
%TO.P,J5,2,Pin_2*%
%TO.N,GND*%
X87464525Y-44138600D03*
X87464525Y-49138600D03*
%TO.P,J5,3,Pin_3*%
%TO.N,IN_2*%
X90964525Y-44138600D03*
X90964525Y-49138600D03*
%TD*%
D10*
%TO.P,J8,1,Pin_1*%
%TO.N,+5V*%
X105410000Y-44138600D03*
X105410000Y-49138600D03*
%TO.P,J8,2,Pin_2*%
%TO.N,GND*%
X108910000Y-44138600D03*
X108910000Y-49138600D03*
%TD*%
D13*
%TO.P,U2,1,SCL*%
%TO.N,I2C-SCL*%
X62767825Y-26670600D03*
%TO.P,U2,2,VDD*%
%TO.N,Net-(U2-VDD)*%
X61497825Y-26670600D03*
%TO.P,U2,3,GND*%
%TO.N,GND*%
X60227825Y-26670600D03*
%TO.P,U2,4,SDA*%
%TO.N,I2C-SDA*%
X58957825Y-26670600D03*
%TD*%
D14*
%TO.P,C17,1*%
%TO.N,Net-(U2-VDD)*%
X59139075Y-28944800D03*
%TO.P,C17,2*%
%TO.N,GND*%
X59139075Y-32069800D03*
%TD*%
D15*
%TO.P,R23,1*%
%TO.N,Net-(U2-VDD)*%
X57005475Y-28756600D03*
%TO.P,R23,2*%
%TO.N,+3.3V*%
X57005475Y-30581600D03*
%TD*%
D16*
%TO.P,C16,1*%
%TO.N,Net-(U2-VDD)*%
X61218425Y-28818600D03*
%TO.P,C16,2*%
%TO.N,GND*%
X61218425Y-30543600D03*
%TD*%
D17*
%TO.N,+3.3V*%
X57005475Y-30581600D03*
%TO.N,GND*%
X81727125Y-35067000D03*
X83065875Y-28041600D03*
X86199725Y-24707100D03*
X90671225Y-33543000D03*
X86961725Y-29885400D03*
X83116675Y-29718000D03*
X37761925Y-28245600D03*
X94652425Y-36184600D03*
X89857325Y-39880700D03*
X41851325Y-32170300D03*
%TO.N,I2C-SCL*%
X80103725Y-27341600D03*
X62755525Y-21782800D03*
X80103725Y-30139400D03*
%TO.N,I2C-SDA*%
X60520325Y-22087600D03*
%TD*%
D18*
%TO.N,Net-(U2-VDD)*%
X61218425Y-28818600D02*
X59265275Y-28818600D01*
X61497825Y-28539200D02*
X61218425Y-28818600D01*
X59139075Y-28944800D02*
X57193675Y-28944800D01*
X61497825Y-26670600D02*
X61497825Y-28539200D01*
X57193675Y-28944800D02*
X57005475Y-28756600D01*
X59265275Y-28818600D02*
X59139075Y-28944800D01*
D19*
%TO.N,I2C-SCL*%
X62767825Y-21795100D02*
X62755525Y-21782800D01*
X80103725Y-27341600D02*
X80103725Y-30139400D01*
D18*
X62767825Y-26670600D02*
X62767825Y-21795100D01*
%TO.N,I2C-SDA*%
X58957825Y-25897600D02*
X58957825Y-26670600D01*
X60481825Y-24373600D02*
X58957825Y-25897600D01*
X60481825Y-24373600D02*
X60481825Y-22087600D01*
%TD*%
%TA.AperFunction,Conductor*%
%TO.N,GND*%
G36*
X111202539Y-15419585D02*
G01*
X111248294Y-15472389D01*
X111259500Y-15523900D01*
X111259500Y-51664421D01*
X111239815Y-51731460D01*
X111187011Y-51777215D01*
X111135643Y-51788421D01*
X24500643Y-51888577D01*
X24433581Y-51868970D01*
X24387765Y-51816219D01*
X24376500Y-51764577D01*
X24376500Y-49211000D01*
X25470723Y-49211000D01*
X25483770Y-49360137D01*
X25489793Y-49428975D01*
X25489793Y-49428979D01*
X25546422Y-49640322D01*
X25546424Y-49640326D01*
X25546425Y-49640330D01*
X25584734Y-49722483D01*
X25638897Y-49838638D01*
X25638898Y-49838639D01*
X25764402Y-50017877D01*
X25919123Y-50172598D01*
X26098361Y-50298102D01*
X26296670Y-50390575D01*
X26508023Y-50447207D01*
X26690926Y-50463208D01*
X26725998Y-50466277D01*
X26726000Y-50466277D01*
X26726002Y-50466277D01*
X26754254Y-50463805D01*
X26943977Y-50447207D01*
X27155330Y-50390575D01*
X27353639Y-50298102D01*
X27532877Y-50172598D01*
X27687598Y-50017877D01*
X27813102Y-49838639D01*
X27905575Y-49640330D01*
X27962207Y-49428977D01*
X27981277Y-49211000D01*
X28970723Y-49211000D01*
X28983770Y-49360137D01*
X28989793Y-49428975D01*
X28989793Y-49428979D01*
X29046422Y-49640322D01*
X29046424Y-49640326D01*
X29046425Y-49640330D01*
X29084734Y-49722483D01*
X29138897Y-49838638D01*
X29138898Y-49838639D01*
X29264402Y-50017877D01*
X29419123Y-50172598D01*
X29598361Y-50298102D01*
X29796670Y-50390575D01*
X30008023Y-50447207D01*
X30190926Y-50463208D01*
X30225998Y-50466277D01*
X30226000Y-50466277D01*
X30226002Y-50466277D01*
X30254254Y-50463805D01*
X30443977Y-50447207D01*
X30655330Y-50390575D01*
X30853639Y-50298102D01*
X31032877Y-50172598D01*
X31187598Y-50017877D01*
X31313102Y-49838639D01*
X31405575Y-49640330D01*
X31462207Y-49428977D01*
X31481277Y-49211000D01*
X34855648Y-49211000D01*
X34868695Y-49360137D01*
X34874718Y-49428975D01*
X34874718Y-49428979D01*
X34931347Y-49640322D01*
X34931349Y-49640326D01*
X34931350Y-49640330D01*
X34969659Y-49722483D01*
X35023822Y-49838638D01*
X35023823Y-49838639D01*
X35149327Y-50017877D01*
X35304048Y-50172598D01*
X35483286Y-50298102D01*
X35681595Y-50390575D01*
X35892948Y-50447207D01*
X36075851Y-50463208D01*
X36110923Y-50466277D01*
X36110925Y-50466277D01*
X36110927Y-50466277D01*
X36139179Y-50463805D01*
X36328902Y-50447207D01*
X36540255Y-50390575D01*
X36738564Y-50298102D01*
X36917802Y-50172598D01*
X37072523Y-50017877D01*
X37198027Y-49838639D01*
X37290500Y-49640330D01*
X37347132Y-49428977D01*
X37366202Y-49211000D01*
X38355648Y-49211000D01*
X38368695Y-49360137D01*
X38374718Y-49428975D01*
X38374718Y-49428979D01*
X38431347Y-49640322D01*
X38431349Y-49640326D01*
X38431350Y-49640330D01*
X38469659Y-49722483D01*
X38523822Y-49838638D01*
X38523823Y-49838639D01*
X38649327Y-50017877D01*
X38804048Y-50172598D01*
X38983286Y-50298102D01*
X39181595Y-50390575D01*
X39392948Y-50447207D01*
X39575851Y-50463208D01*
X39610923Y-50466277D01*
X39610925Y-50466277D01*
X39610927Y-50466277D01*
X39639179Y-50463805D01*
X39828902Y-50447207D01*
X40040255Y-50390575D01*
X40238564Y-50298102D01*
X40417802Y-50172598D01*
X40572523Y-50017877D01*
X40698027Y-49838639D01*
X40790500Y-49640330D01*
X40847132Y-49428977D01*
X40866202Y-49211000D01*
X40864312Y-49189399D01*
X44161282Y-49189399D01*
X44161282Y-49189400D01*
X44181809Y-49410935D01*
X44181810Y-49410937D01*
X44242694Y-49624923D01*
X44242700Y-49624938D01*
X44341863Y-49824083D01*
X44341868Y-49824091D01*
X44475945Y-50001638D01*
X44640362Y-50151523D01*
X44640364Y-50151525D01*
X44829520Y-50268645D01*
X44829521Y-50268645D01*
X44829524Y-50268647D01*
X45036985Y-50349018D01*
X45255682Y-50389900D01*
X45255684Y-50389900D01*
X45478166Y-50389900D01*
X45478168Y-50389900D01*
X45696865Y-50349018D01*
X45904326Y-50268647D01*
X46093487Y-50151524D01*
X46257906Y-50001636D01*
X46391983Y-49824089D01*
X46491154Y-49624928D01*
X46552040Y-49410936D01*
X46572568Y-49189400D01*
X46572568Y-49189399D01*
X51161282Y-49189399D01*
X51161282Y-49189400D01*
X51181809Y-49410935D01*
X51181810Y-49410937D01*
X51242694Y-49624923D01*
X51242700Y-49624938D01*
X51341863Y-49824083D01*
X51341868Y-49824091D01*
X51475945Y-50001638D01*
X51640362Y-50151523D01*
X51640364Y-50151525D01*
X51829520Y-50268645D01*
X51829521Y-50268645D01*
X51829524Y-50268647D01*
X52036985Y-50349018D01*
X52255682Y-50389900D01*
X52255684Y-50389900D01*
X52478166Y-50389900D01*
X52478168Y-50389900D01*
X52696865Y-50349018D01*
X52904326Y-50268647D01*
X53093487Y-50151524D01*
X53257906Y-50001636D01*
X53391983Y-49824089D01*
X53491154Y-49624928D01*
X53552040Y-49410936D01*
X53572568Y-49189400D01*
X53567860Y-49138597D01*
X53564673Y-49104199D01*
X57144882Y-49104199D01*
X57144882Y-49104200D01*
X57165409Y-49325735D01*
X57165410Y-49325737D01*
X57226294Y-49539723D01*
X57226300Y-49539738D01*
X57325463Y-49738883D01*
X57325468Y-49738891D01*
X57459545Y-49916438D01*
X57623962Y-50066323D01*
X57623964Y-50066325D01*
X57813120Y-50183445D01*
X57813121Y-50183445D01*
X57813124Y-50183447D01*
X58020585Y-50263818D01*
X58239282Y-50304700D01*
X58239284Y-50304700D01*
X58461766Y-50304700D01*
X58461768Y-50304700D01*
X58680465Y-50263818D01*
X58887926Y-50183447D01*
X59077087Y-50066324D01*
X59241506Y-49916436D01*
X59375583Y-49738889D01*
X59474754Y-49539728D01*
X59535640Y-49325736D01*
X59556168Y-49104200D01*
X59556168Y-49104199D01*
X64144882Y-49104199D01*
X64144882Y-49104200D01*
X64165409Y-49325735D01*
X64165410Y-49325737D01*
X64226294Y-49539723D01*
X64226300Y-49539738D01*
X64325463Y-49738883D01*
X64325468Y-49738891D01*
X64459545Y-49916438D01*
X64623962Y-50066323D01*
X64623964Y-50066325D01*
X64813120Y-50183445D01*
X64813121Y-50183445D01*
X64813124Y-50183447D01*
X65020585Y-50263818D01*
X65239282Y-50304700D01*
X65239284Y-50304700D01*
X65461766Y-50304700D01*
X65461768Y-50304700D01*
X65680465Y-50263818D01*
X65887926Y-50183447D01*
X66077087Y-50066324D01*
X66241506Y-49916436D01*
X66375583Y-49738889D01*
X66474754Y-49539728D01*
X66535640Y-49325736D01*
X66556168Y-49104200D01*
X66554648Y-49087799D01*
X69998482Y-49087799D01*
X69998482Y-49087800D01*
X70019009Y-49309335D01*
X70019010Y-49309337D01*
X70079894Y-49523323D01*
X70079900Y-49523338D01*
X70179063Y-49722483D01*
X70179068Y-49722491D01*
X70313145Y-49900038D01*
X70477562Y-50049923D01*
X70477564Y-50049925D01*
X70666720Y-50167045D01*
X70666721Y-50167045D01*
X70666724Y-50167047D01*
X70874185Y-50247418D01*
X71092882Y-50288300D01*
X71092884Y-50288300D01*
X71315366Y-50288300D01*
X71315368Y-50288300D01*
X71534065Y-50247418D01*
X71741526Y-50167047D01*
X71930687Y-50049924D01*
X72095106Y-49900036D01*
X72229183Y-49722489D01*
X72328354Y-49523328D01*
X72389240Y-49309336D01*
X72409768Y-49087800D01*
X72409768Y-49087799D01*
X76998482Y-49087799D01*
X76998482Y-49087800D01*
X77019009Y-49309335D01*
X77019010Y-49309337D01*
X77079894Y-49523323D01*
X77079900Y-49523338D01*
X77179063Y-49722483D01*
X77179068Y-49722491D01*
X77313145Y-49900038D01*
X77477562Y-50049923D01*
X77477564Y-50049925D01*
X77666720Y-50167045D01*
X77666721Y-50167045D01*
X77666724Y-50167047D01*
X77874185Y-50247418D01*
X78092882Y-50288300D01*
X78092884Y-50288300D01*
X78315366Y-50288300D01*
X78315368Y-50288300D01*
X78534065Y-50247418D01*
X78741526Y-50167047D01*
X78930687Y-50049924D01*
X79095106Y-49900036D01*
X79229183Y-49722489D01*
X79328354Y-49523328D01*
X79389240Y-49309336D01*
X79405061Y-49138599D01*
X82758882Y-49138599D01*
X82758882Y-49138600D01*
X82779409Y-49360135D01*
X82779410Y-49360137D01*
X82840294Y-49574123D01*
X82840300Y-49574138D01*
X82939463Y-49773283D01*
X82939468Y-49773291D01*
X83073545Y-49950838D01*
X83237962Y-50100723D01*
X83237964Y-50100725D01*
X83427120Y-50217845D01*
X83427121Y-50217845D01*
X83427124Y-50217847D01*
X83634585Y-50298218D01*
X83853282Y-50339100D01*
X83853284Y-50339100D01*
X84075766Y-50339100D01*
X84075768Y-50339100D01*
X84294465Y-50298218D01*
X84501926Y-50217847D01*
X84691087Y-50100724D01*
X84855506Y-49950836D01*
X84989583Y-49773289D01*
X85088754Y-49574128D01*
X85149640Y-49360136D01*
X85170168Y-49138600D01*
X85170168Y-49138599D01*
X89758882Y-49138599D01*
X89758882Y-49138600D01*
X89779409Y-49360135D01*
X89779410Y-49360137D01*
X89840294Y-49574123D01*
X89840300Y-49574138D01*
X89939463Y-49773283D01*
X89939468Y-49773291D01*
X90073545Y-49950838D01*
X90237962Y-50100723D01*
X90237964Y-50100725D01*
X90427120Y-50217845D01*
X90427121Y-50217845D01*
X90427124Y-50217847D01*
X90634585Y-50298218D01*
X90853282Y-50339100D01*
X90853284Y-50339100D01*
X91075766Y-50339100D01*
X91075768Y-50339100D01*
X91294465Y-50298218D01*
X91501926Y-50217847D01*
X91691087Y-50100724D01*
X91855506Y-49950836D01*
X91989583Y-49773289D01*
X92088754Y-49574128D01*
X92149640Y-49360136D01*
X92170168Y-49138600D01*
X92170168Y-49138597D01*
X95206048Y-49138597D01*
X95206048Y-49138602D01*
X95225118Y-49356575D01*
X95225118Y-49356579D01*
X95281747Y-49567922D01*
X95281749Y-49567926D01*
X95281750Y-49567930D01*
X95284645Y-49574138D01*
X95374222Y-49766238D01*
X95374223Y-49766239D01*
X95499727Y-49945477D01*
X95654448Y-50100198D01*
X95833686Y-50225702D01*
X96031995Y-50318175D01*
X96243348Y-50374807D01*
X96423559Y-50390573D01*
X96461323Y-50393877D01*
X96461325Y-50393877D01*
X96461327Y-50393877D01*
X96499045Y-50390577D01*
X96679302Y-50374807D01*
X96890655Y-50318175D01*
X97088964Y-50225702D01*
X97268202Y-50100198D01*
X97422923Y-49945477D01*
X97548427Y-49766239D01*
X97640900Y-49567930D01*
X97697532Y-49356577D01*
X97716602Y-49138600D01*
X97716602Y-49138597D01*
X104154723Y-49138597D01*
X104154723Y-49138602D01*
X104173793Y-49356575D01*
X104173793Y-49356579D01*
X104230422Y-49567922D01*
X104230424Y-49567926D01*
X104230425Y-49567930D01*
X104233320Y-49574138D01*
X104322897Y-49766238D01*
X104322898Y-49766239D01*
X104448402Y-49945477D01*
X104603123Y-50100198D01*
X104782361Y-50225702D01*
X104980670Y-50318175D01*
X105192023Y-50374807D01*
X105372234Y-50390573D01*
X105409998Y-50393877D01*
X105410000Y-50393877D01*
X105410002Y-50393877D01*
X105447720Y-50390577D01*
X105627977Y-50374807D01*
X105839330Y-50318175D01*
X106037639Y-50225702D01*
X106216877Y-50100198D01*
X106371598Y-49945477D01*
X106497102Y-49766239D01*
X106589575Y-49567930D01*
X106646207Y-49356577D01*
X106665277Y-49138600D01*
X106662267Y-49104200D01*
X106660833Y-49087799D01*
X106646207Y-48920623D01*
X106589575Y-48709270D01*
X106497102Y-48510962D01*
X106497100Y-48510959D01*
X106497099Y-48510957D01*
X106371599Y-48331724D01*
X106315436Y-48275561D01*
X106216877Y-48177002D01*
X106037639Y-48051498D01*
X106037640Y-48051498D01*
X106037638Y-48051497D01*
X105903397Y-47988900D01*
X105839330Y-47959025D01*
X105839326Y-47959024D01*
X105839322Y-47959022D01*
X105627977Y-47902393D01*
X105410002Y-47883323D01*
X105409998Y-47883323D01*
X105264682Y-47896036D01*
X105192023Y-47902393D01*
X105192020Y-47902393D01*
X104980677Y-47959022D01*
X104980668Y-47959026D01*
X104782361Y-48051498D01*
X104782357Y-48051500D01*
X104603121Y-48177002D01*
X104448402Y-48331721D01*
X104322900Y-48510957D01*
X104322898Y-48510961D01*
X104230426Y-48709268D01*
X104230422Y-48709277D01*
X104173793Y-48920620D01*
X104173793Y-48920624D01*
X104154723Y-49138597D01*
X97716602Y-49138597D01*
X97713592Y-49104200D01*
X97712158Y-49087799D01*
X97697532Y-48920623D01*
X97640900Y-48709270D01*
X97548427Y-48510962D01*
X97548425Y-48510959D01*
X97548424Y-48510957D01*
X97422924Y-48331724D01*
X97366761Y-48275561D01*
X97268202Y-48177002D01*
X97088964Y-48051498D01*
X97088965Y-48051498D01*
X97088963Y-48051497D01*
X96954722Y-47988900D01*
X96890655Y-47959025D01*
X96890651Y-47959024D01*
X96890647Y-47959022D01*
X96679302Y-47902393D01*
X96461327Y-47883323D01*
X96461323Y-47883323D01*
X96316007Y-47896036D01*
X96243348Y-47902393D01*
X96243345Y-47902393D01*
X96032002Y-47959022D01*
X96031993Y-47959026D01*
X95833686Y-48051498D01*
X95833682Y-48051500D01*
X95654446Y-48177002D01*
X95499727Y-48331721D01*
X95374225Y-48510957D01*
X95374223Y-48510961D01*
X95281751Y-48709268D01*
X95281747Y-48709277D01*
X95225118Y-48920620D01*
X95225118Y-48920624D01*
X95206048Y-49138597D01*
X92170168Y-49138597D01*
X92166980Y-49104200D01*
X92149640Y-48917064D01*
X92149639Y-48917062D01*
X92139851Y-48882662D01*
X92088754Y-48703072D01*
X92071625Y-48668672D01*
X91989586Y-48503916D01*
X91989581Y-48503908D01*
X91855504Y-48326361D01*
X91691087Y-48176476D01*
X91691085Y-48176474D01*
X91501929Y-48059354D01*
X91501923Y-48059352D01*
X91294465Y-47978982D01*
X91075768Y-47938100D01*
X90853282Y-47938100D01*
X90634585Y-47978982D01*
X90515918Y-48024954D01*
X90427126Y-48059352D01*
X90427120Y-48059354D01*
X90237964Y-48176474D01*
X90237962Y-48176476D01*
X90073545Y-48326361D01*
X89939468Y-48503908D01*
X89939463Y-48503916D01*
X89840300Y-48703061D01*
X89840294Y-48703076D01*
X89779410Y-48917062D01*
X89779409Y-48917064D01*
X89758882Y-49138599D01*
X85170168Y-49138599D01*
X85166980Y-49104200D01*
X85149640Y-48917064D01*
X85149639Y-48917062D01*
X85139851Y-48882662D01*
X85088754Y-48703072D01*
X85071625Y-48668672D01*
X84989586Y-48503916D01*
X84989581Y-48503908D01*
X84855504Y-48326361D01*
X84691087Y-48176476D01*
X84691085Y-48176474D01*
X84501929Y-48059354D01*
X84501923Y-48059352D01*
X84294465Y-47978982D01*
X84075768Y-47938100D01*
X83853282Y-47938100D01*
X83634585Y-47978982D01*
X83515918Y-48024954D01*
X83427126Y-48059352D01*
X83427120Y-48059354D01*
X83237964Y-48176474D01*
X83237962Y-48176476D01*
X83073545Y-48326361D01*
X82939468Y-48503908D01*
X82939463Y-48503916D01*
X82840300Y-48703061D01*
X82840294Y-48703076D01*
X82779410Y-48917062D01*
X82779409Y-48917064D01*
X82758882Y-49138599D01*
X79405061Y-49138599D01*
X79409768Y-49087800D01*
X79400985Y-48993020D01*
X79389240Y-48866264D01*
X79389239Y-48866262D01*
X79357261Y-48753872D01*
X79328354Y-48652272D01*
X79294041Y-48583362D01*
X79229186Y-48453116D01*
X79229181Y-48453108D01*
X79095104Y-48275561D01*
X78930687Y-48125676D01*
X78930685Y-48125674D01*
X78741529Y-48008554D01*
X78741523Y-48008552D01*
X78534065Y-47928182D01*
X78315368Y-47887300D01*
X78092882Y-47887300D01*
X77874185Y-47928182D01*
X77794568Y-47959026D01*
X77666726Y-48008552D01*
X77666720Y-48008554D01*
X77477564Y-48125674D01*
X77477562Y-48125676D01*
X77313145Y-48275561D01*
X77179068Y-48453108D01*
X77179063Y-48453116D01*
X77079900Y-48652261D01*
X77079894Y-48652276D01*
X77019010Y-48866262D01*
X77019009Y-48866264D01*
X76998482Y-49087799D01*
X72409768Y-49087799D01*
X72400985Y-48993020D01*
X72389240Y-48866264D01*
X72389239Y-48866262D01*
X72357261Y-48753872D01*
X72328354Y-48652272D01*
X72294041Y-48583362D01*
X72229186Y-48453116D01*
X72229181Y-48453108D01*
X72095104Y-48275561D01*
X71930687Y-48125676D01*
X71930685Y-48125674D01*
X71741529Y-48008554D01*
X71741523Y-48008552D01*
X71534065Y-47928182D01*
X71315368Y-47887300D01*
X71092882Y-47887300D01*
X70874185Y-47928182D01*
X70794568Y-47959026D01*
X70666726Y-48008552D01*
X70666720Y-48008554D01*
X70477564Y-48125674D01*
X70477562Y-48125676D01*
X70313145Y-48275561D01*
X70179068Y-48453108D01*
X70179063Y-48453116D01*
X70079900Y-48652261D01*
X70079894Y-48652276D01*
X70019010Y-48866262D01*
X70019009Y-48866264D01*
X69998482Y-49087799D01*
X66554648Y-49087799D01*
X66535640Y-48882664D01*
X66474754Y-48668672D01*
X66466588Y-48652272D01*
X66375586Y-48469516D01*
X66375581Y-48469508D01*
X66241504Y-48291961D01*
X66077087Y-48142076D01*
X66077085Y-48142074D01*
X65887929Y-48024954D01*
X65887923Y-48024952D01*
X65680465Y-47944582D01*
X65461768Y-47903700D01*
X65239282Y-47903700D01*
X65020585Y-47944582D01*
X64942602Y-47974793D01*
X64813126Y-48024952D01*
X64813120Y-48024954D01*
X64623964Y-48142074D01*
X64623962Y-48142076D01*
X64459545Y-48291961D01*
X64325468Y-48469508D01*
X64325463Y-48469516D01*
X64226300Y-48668661D01*
X64226294Y-48668676D01*
X64165410Y-48882662D01*
X64165409Y-48882664D01*
X64144882Y-49104199D01*
X59556168Y-49104199D01*
X59535640Y-48882664D01*
X59474754Y-48668672D01*
X59466588Y-48652272D01*
X59375586Y-48469516D01*
X59375581Y-48469508D01*
X59241504Y-48291961D01*
X59077087Y-48142076D01*
X59077085Y-48142074D01*
X58887929Y-48024954D01*
X58887923Y-48024952D01*
X58680465Y-47944582D01*
X58461768Y-47903700D01*
X58239282Y-47903700D01*
X58020585Y-47944582D01*
X57942602Y-47974793D01*
X57813126Y-48024952D01*
X57813120Y-48024954D01*
X57623964Y-48142074D01*
X57623962Y-48142076D01*
X57459545Y-48291961D01*
X57325468Y-48469508D01*
X57325463Y-48469516D01*
X57226300Y-48668661D01*
X57226294Y-48668676D01*
X57165410Y-48882662D01*
X57165409Y-48882664D01*
X57144882Y-49104199D01*
X53564673Y-49104199D01*
X53552040Y-48967864D01*
X53552039Y-48967862D01*
X53538598Y-48920623D01*
X53491154Y-48753872D01*
X53491149Y-48753861D01*
X53391986Y-48554716D01*
X53391981Y-48554708D01*
X53257904Y-48377161D01*
X53093487Y-48227276D01*
X53093485Y-48227274D01*
X52904329Y-48110154D01*
X52904323Y-48110152D01*
X52696865Y-48029782D01*
X52478168Y-47988900D01*
X52255682Y-47988900D01*
X52036985Y-48029782D01*
X51960654Y-48059353D01*
X51829526Y-48110152D01*
X51829520Y-48110154D01*
X51640364Y-48227274D01*
X51640362Y-48227276D01*
X51475945Y-48377161D01*
X51341868Y-48554708D01*
X51341863Y-48554716D01*
X51242700Y-48753861D01*
X51242694Y-48753876D01*
X51181810Y-48967862D01*
X51181809Y-48967864D01*
X51161282Y-49189399D01*
X46572568Y-49189399D01*
X46567860Y-49138597D01*
X46552040Y-48967864D01*
X46552039Y-48967862D01*
X46538598Y-48920623D01*
X46491154Y-48753872D01*
X46491149Y-48753861D01*
X46391986Y-48554716D01*
X46391981Y-48554708D01*
X46257904Y-48377161D01*
X46093487Y-48227276D01*
X46093485Y-48227274D01*
X45904329Y-48110154D01*
X45904323Y-48110152D01*
X45696865Y-48029782D01*
X45478168Y-47988900D01*
X45255682Y-47988900D01*
X45036985Y-48029782D01*
X44960654Y-48059353D01*
X44829526Y-48110152D01*
X44829520Y-48110154D01*
X44640364Y-48227274D01*
X44640362Y-48227276D01*
X44475945Y-48377161D01*
X44341868Y-48554708D01*
X44341863Y-48554716D01*
X44242700Y-48753861D01*
X44242694Y-48753876D01*
X44181810Y-48967862D01*
X44181809Y-48967864D01*
X44161282Y-49189399D01*
X40864312Y-49189399D01*
X40847132Y-48993023D01*
X40790500Y-48781670D01*
X40698027Y-48583362D01*
X40698025Y-48583359D01*
X40698024Y-48583357D01*
X40572524Y-48404124D01*
X40500121Y-48331721D01*
X40417802Y-48249402D01*
X40264522Y-48142074D01*
X40238563Y-48123897D01*
X40139409Y-48077661D01*
X40040255Y-48031425D01*
X40040251Y-48031424D01*
X40040247Y-48031422D01*
X39828902Y-47974793D01*
X39610927Y-47955723D01*
X39610923Y-47955723D01*
X39465607Y-47968436D01*
X39392948Y-47974793D01*
X39392945Y-47974793D01*
X39181602Y-48031422D01*
X39181593Y-48031426D01*
X38983286Y-48123898D01*
X38983282Y-48123900D01*
X38804046Y-48249402D01*
X38649327Y-48404121D01*
X38523825Y-48583357D01*
X38523823Y-48583361D01*
X38431351Y-48781668D01*
X38431347Y-48781677D01*
X38374718Y-48993020D01*
X38374718Y-48993024D01*
X38357538Y-49189400D01*
X38355648Y-49211000D01*
X37366202Y-49211000D01*
X37347132Y-48993023D01*
X37290500Y-48781670D01*
X37198027Y-48583362D01*
X37198025Y-48583359D01*
X37198024Y-48583357D01*
X37072524Y-48404124D01*
X37000121Y-48331721D01*
X36917802Y-48249402D01*
X36764522Y-48142074D01*
X36738563Y-48123897D01*
X36639409Y-48077661D01*
X36540255Y-48031425D01*
X36540251Y-48031424D01*
X36540247Y-48031422D01*
X36328902Y-47974793D01*
X36110927Y-47955723D01*
X36110923Y-47955723D01*
X35965607Y-47968436D01*
X35892948Y-47974793D01*
X35892945Y-47974793D01*
X35681602Y-48031422D01*
X35681593Y-48031426D01*
X35483286Y-48123898D01*
X35483282Y-48123900D01*
X35304046Y-48249402D01*
X35149327Y-48404121D01*
X35023825Y-48583357D01*
X35023823Y-48583361D01*
X34931351Y-48781668D01*
X34931347Y-48781677D01*
X34874718Y-48993020D01*
X34874718Y-48993024D01*
X34857538Y-49189400D01*
X34855648Y-49211000D01*
X31481277Y-49211000D01*
X31462207Y-48993023D01*
X31405575Y-48781670D01*
X31313102Y-48583362D01*
X31313100Y-48583359D01*
X31313099Y-48583357D01*
X31187599Y-48404124D01*
X31115196Y-48331721D01*
X31032877Y-48249402D01*
X30879597Y-48142074D01*
X30853638Y-48123897D01*
X30754484Y-48077661D01*
X30655330Y-48031425D01*
X30655326Y-48031424D01*
X30655322Y-48031422D01*
X30443977Y-47974793D01*
X30226002Y-47955723D01*
X30225998Y-47955723D01*
X30080682Y-47968436D01*
X30008023Y-47974793D01*
X30008020Y-47974793D01*
X29796677Y-48031422D01*
X29796668Y-48031426D01*
X29598361Y-48123898D01*
X29598357Y-48123900D01*
X29419121Y-48249402D01*
X29264402Y-48404121D01*
X29138900Y-48583357D01*
X29138898Y-48583361D01*
X29046426Y-48781668D01*
X29046422Y-48781677D01*
X28989793Y-48993020D01*
X28989793Y-48993024D01*
X28972613Y-49189400D01*
X28970723Y-49211000D01*
X27981277Y-49211000D01*
X27962207Y-48993023D01*
X27905575Y-48781670D01*
X27813102Y-48583362D01*
X27813100Y-48583359D01*
X27813099Y-48583357D01*
X27687599Y-48404124D01*
X27615196Y-48331721D01*
X27532877Y-48249402D01*
X27379597Y-48142074D01*
X27353638Y-48123897D01*
X27254484Y-48077661D01*
X27155330Y-48031425D01*
X27155326Y-48031424D01*
X27155322Y-48031422D01*
X26943977Y-47974793D01*
X26726002Y-47955723D01*
X26725998Y-47955723D01*
X26580682Y-47968436D01*
X26508023Y-47974793D01*
X26508020Y-47974793D01*
X26296677Y-48031422D01*
X26296668Y-48031426D01*
X26098361Y-48123898D01*
X26098357Y-48123900D01*
X25919121Y-48249402D01*
X25764402Y-48404121D01*
X25638900Y-48583357D01*
X25638898Y-48583361D01*
X25546426Y-48781668D01*
X25546422Y-48781677D01*
X25489793Y-48993020D01*
X25489793Y-48993024D01*
X25472613Y-49189400D01*
X25470723Y-49211000D01*
X24376500Y-49211000D01*
X24376500Y-44211000D01*
X25470723Y-44211000D01*
X25483770Y-44360137D01*
X25489793Y-44428975D01*
X25489793Y-44428979D01*
X25546422Y-44640322D01*
X25546424Y-44640326D01*
X25546425Y-44640330D01*
X25584734Y-44722483D01*
X25638897Y-44838638D01*
X25638898Y-44838639D01*
X25764402Y-45017877D01*
X25919123Y-45172598D01*
X26098361Y-45298102D01*
X26296670Y-45390575D01*
X26508023Y-45447207D01*
X26690926Y-45463208D01*
X26725998Y-45466277D01*
X26726000Y-45466277D01*
X26726002Y-45466277D01*
X26754254Y-45463805D01*
X26943977Y-45447207D01*
X27155330Y-45390575D01*
X27353639Y-45298102D01*
X27532877Y-45172598D01*
X27687598Y-45017877D01*
X27813102Y-44838639D01*
X27905575Y-44640330D01*
X27962207Y-44428977D01*
X27981277Y-44211000D01*
X28970723Y-44211000D01*
X28983770Y-44360137D01*
X28989793Y-44428975D01*
X28989793Y-44428979D01*
X29046422Y-44640322D01*
X29046424Y-44640326D01*
X29046425Y-44640330D01*
X29084734Y-44722483D01*
X29138897Y-44838638D01*
X29138898Y-44838639D01*
X29264402Y-45017877D01*
X29419123Y-45172598D01*
X29598361Y-45298102D01*
X29796670Y-45390575D01*
X30008023Y-45447207D01*
X30190926Y-45463208D01*
X30225998Y-45466277D01*
X30226000Y-45466277D01*
X30226002Y-45466277D01*
X30254254Y-45463805D01*
X30443977Y-45447207D01*
X30655330Y-45390575D01*
X30853639Y-45298102D01*
X31032877Y-45172598D01*
X31187598Y-45017877D01*
X31313102Y-44838639D01*
X31405575Y-44640330D01*
X31462207Y-44428977D01*
X31481277Y-44211000D01*
X34855648Y-44211000D01*
X34868695Y-44360137D01*
X34874718Y-44428975D01*
X34874718Y-44428979D01*
X34931347Y-44640322D01*
X34931349Y-44640326D01*
X34931350Y-44640330D01*
X34969659Y-44722483D01*
X35023822Y-44838638D01*
X35023823Y-44838639D01*
X35149327Y-45017877D01*
X35304048Y-45172598D01*
X35483286Y-45298102D01*
X35681595Y-45390575D01*
X35892948Y-45447207D01*
X36075851Y-45463208D01*
X36110923Y-45466277D01*
X36110925Y-45466277D01*
X36110927Y-45466277D01*
X36139179Y-45463805D01*
X36328902Y-45447207D01*
X36540255Y-45390575D01*
X36738564Y-45298102D01*
X36917802Y-45172598D01*
X37072523Y-45017877D01*
X37198027Y-44838639D01*
X37290500Y-44640330D01*
X37347132Y-44428977D01*
X37366202Y-44211000D01*
X38355648Y-44211000D01*
X38368695Y-44360137D01*
X38374718Y-44428975D01*
X38374718Y-44428979D01*
X38431347Y-44640322D01*
X38431349Y-44640326D01*
X38431350Y-44640330D01*
X38469659Y-44722483D01*
X38523822Y-44838638D01*
X38523823Y-44838639D01*
X38649327Y-45017877D01*
X38804048Y-45172598D01*
X38983286Y-45298102D01*
X39181595Y-45390575D01*
X39392948Y-45447207D01*
X39575851Y-45463208D01*
X39610923Y-45466277D01*
X39610925Y-45466277D01*
X39610927Y-45466277D01*
X39639179Y-45463805D01*
X39828902Y-45447207D01*
X40040255Y-45390575D01*
X40238564Y-45298102D01*
X40417802Y-45172598D01*
X40572523Y-45017877D01*
X40698027Y-44838639D01*
X40790500Y-44640330D01*
X40847132Y-44428977D01*
X40866202Y-44211000D01*
X40864312Y-44189399D01*
X44161282Y-44189399D01*
X44161282Y-44189400D01*
X44181809Y-44410935D01*
X44181810Y-44410937D01*
X44242694Y-44624923D01*
X44242700Y-44624938D01*
X44341863Y-44824083D01*
X44341868Y-44824091D01*
X44475945Y-45001638D01*
X44640362Y-45151523D01*
X44640364Y-45151525D01*
X44829520Y-45268645D01*
X44829521Y-45268645D01*
X44829524Y-45268647D01*
X45036985Y-45349018D01*
X45255682Y-45389900D01*
X45255684Y-45389900D01*
X45478166Y-45389900D01*
X45478168Y-45389900D01*
X45696865Y-45349018D01*
X45904326Y-45268647D01*
X46093487Y-45151524D01*
X46257906Y-45001636D01*
X46391983Y-44824089D01*
X46491154Y-44624928D01*
X46552040Y-44410936D01*
X46572568Y-44189400D01*
X46572568Y-44189399D01*
X51161282Y-44189399D01*
X51161282Y-44189400D01*
X51181809Y-44410935D01*
X51181810Y-44410937D01*
X51242694Y-44624923D01*
X51242700Y-44624938D01*
X51341863Y-44824083D01*
X51341868Y-44824091D01*
X51475945Y-45001638D01*
X51640362Y-45151523D01*
X51640364Y-45151525D01*
X51829520Y-45268645D01*
X51829521Y-45268645D01*
X51829524Y-45268647D01*
X52036985Y-45349018D01*
X52255682Y-45389900D01*
X52255684Y-45389900D01*
X52478166Y-45389900D01*
X52478168Y-45389900D01*
X52696865Y-45349018D01*
X52904326Y-45268647D01*
X53093487Y-45151524D01*
X53257906Y-45001636D01*
X53391983Y-44824089D01*
X53491154Y-44624928D01*
X53552040Y-44410936D01*
X53572568Y-44189400D01*
X53567860Y-44138597D01*
X53564673Y-44104199D01*
X57144882Y-44104199D01*
X57144882Y-44104200D01*
X57165409Y-44325735D01*
X57165410Y-44325737D01*
X57226294Y-44539723D01*
X57226300Y-44539738D01*
X57325463Y-44738883D01*
X57325468Y-44738891D01*
X57459545Y-44916438D01*
X57623962Y-45066323D01*
X57623964Y-45066325D01*
X57813120Y-45183445D01*
X57813121Y-45183445D01*
X57813124Y-45183447D01*
X58020585Y-45263818D01*
X58239282Y-45304700D01*
X58239284Y-45304700D01*
X58461766Y-45304700D01*
X58461768Y-45304700D01*
X58680465Y-45263818D01*
X58887926Y-45183447D01*
X59077087Y-45066324D01*
X59241506Y-44916436D01*
X59375583Y-44738889D01*
X59474754Y-44539728D01*
X59535640Y-44325736D01*
X59556168Y-44104200D01*
X59556168Y-44104199D01*
X64144882Y-44104199D01*
X64144882Y-44104200D01*
X64165409Y-44325735D01*
X64165410Y-44325737D01*
X64226294Y-44539723D01*
X64226300Y-44539738D01*
X64325463Y-44738883D01*
X64325468Y-44738891D01*
X64459545Y-44916438D01*
X64623962Y-45066323D01*
X64623964Y-45066325D01*
X64813120Y-45183445D01*
X64813121Y-45183445D01*
X64813124Y-45183447D01*
X65020585Y-45263818D01*
X65239282Y-45304700D01*
X65239284Y-45304700D01*
X65461766Y-45304700D01*
X65461768Y-45304700D01*
X65680465Y-45263818D01*
X65887926Y-45183447D01*
X66077087Y-45066324D01*
X66241506Y-44916436D01*
X66375583Y-44738889D01*
X66474754Y-44539728D01*
X66535640Y-44325736D01*
X66556168Y-44104200D01*
X66554648Y-44087799D01*
X69998482Y-44087799D01*
X69998482Y-44087800D01*
X70019009Y-44309335D01*
X70019010Y-44309337D01*
X70079894Y-44523323D01*
X70079900Y-44523338D01*
X70179063Y-44722483D01*
X70179068Y-44722491D01*
X70313145Y-44900038D01*
X70477562Y-45049923D01*
X70477564Y-45049925D01*
X70666720Y-45167045D01*
X70666721Y-45167045D01*
X70666724Y-45167047D01*
X70874185Y-45247418D01*
X71092882Y-45288300D01*
X71092884Y-45288300D01*
X71315366Y-45288300D01*
X71315368Y-45288300D01*
X71534065Y-45247418D01*
X71741526Y-45167047D01*
X71930687Y-45049924D01*
X72095106Y-44900036D01*
X72229183Y-44722489D01*
X72328354Y-44523328D01*
X72389240Y-44309336D01*
X72409768Y-44087800D01*
X72409768Y-44087799D01*
X76998482Y-44087799D01*
X76998482Y-44087800D01*
X77019009Y-44309335D01*
X77019010Y-44309337D01*
X77079894Y-44523323D01*
X77079900Y-44523338D01*
X77179063Y-44722483D01*
X77179068Y-44722491D01*
X77313145Y-44900038D01*
X77477562Y-45049923D01*
X77477564Y-45049925D01*
X77666720Y-45167045D01*
X77666721Y-45167045D01*
X77666724Y-45167047D01*
X77874185Y-45247418D01*
X78092882Y-45288300D01*
X78092884Y-45288300D01*
X78315366Y-45288300D01*
X78315368Y-45288300D01*
X78534065Y-45247418D01*
X78741526Y-45167047D01*
X78930687Y-45049924D01*
X79095106Y-44900036D01*
X79229183Y-44722489D01*
X79328354Y-44523328D01*
X79389240Y-44309336D01*
X79405061Y-44138599D01*
X82758882Y-44138599D01*
X82758882Y-44138600D01*
X82779409Y-44360135D01*
X82779410Y-44360137D01*
X82840294Y-44574123D01*
X82840300Y-44574138D01*
X82939463Y-44773283D01*
X82939468Y-44773291D01*
X83073545Y-44950838D01*
X83237962Y-45100723D01*
X83237964Y-45100725D01*
X83427120Y-45217845D01*
X83427121Y-45217845D01*
X83427124Y-45217847D01*
X83634585Y-45298218D01*
X83853282Y-45339100D01*
X83853284Y-45339100D01*
X84075766Y-45339100D01*
X84075768Y-45339100D01*
X84294465Y-45298218D01*
X84501926Y-45217847D01*
X84691087Y-45100724D01*
X84855506Y-44950836D01*
X84989583Y-44773289D01*
X85088754Y-44574128D01*
X85149640Y-44360136D01*
X85170168Y-44138600D01*
X85170168Y-44138599D01*
X89758882Y-44138599D01*
X89758882Y-44138600D01*
X89779409Y-44360135D01*
X89779410Y-44360137D01*
X89840294Y-44574123D01*
X89840300Y-44574138D01*
X89939463Y-44773283D01*
X89939468Y-44773291D01*
X90073545Y-44950838D01*
X90237962Y-45100723D01*
X90237964Y-45100725D01*
X90427120Y-45217845D01*
X90427121Y-45217845D01*
X90427124Y-45217847D01*
X90634585Y-45298218D01*
X90853282Y-45339100D01*
X90853284Y-45339100D01*
X91075766Y-45339100D01*
X91075768Y-45339100D01*
X91294465Y-45298218D01*
X91501926Y-45217847D01*
X91691087Y-45100724D01*
X91855506Y-44950836D01*
X91989583Y-44773289D01*
X92088754Y-44574128D01*
X92149640Y-44360136D01*
X92170168Y-44138600D01*
X92170168Y-44138597D01*
X95206048Y-44138597D01*
X95206048Y-44138602D01*
X95225118Y-44356575D01*
X95225118Y-44356579D01*
X95281747Y-44567922D01*
X95281749Y-44567926D01*
X95281750Y-44567930D01*
X95284645Y-44574138D01*
X95374222Y-44766238D01*
X95374223Y-44766239D01*
X95499727Y-44945477D01*
X95654448Y-45100198D01*
X95833686Y-45225702D01*
X96031995Y-45318175D01*
X96243348Y-45374807D01*
X96423559Y-45390573D01*
X96461323Y-45393877D01*
X96461325Y-45393877D01*
X96461327Y-45393877D01*
X96499045Y-45390577D01*
X96679302Y-45374807D01*
X96890655Y-45318175D01*
X97088964Y-45225702D01*
X97268202Y-45100198D01*
X97422923Y-44945477D01*
X97548427Y-44766239D01*
X97640900Y-44567930D01*
X97697532Y-44356577D01*
X97716602Y-44138600D01*
X97716602Y-44138597D01*
X104154723Y-44138597D01*
X104154723Y-44138602D01*
X104173793Y-44356575D01*
X104173793Y-44356579D01*
X104230422Y-44567922D01*
X104230424Y-44567926D01*
X104230425Y-44567930D01*
X104233320Y-44574138D01*
X104322897Y-44766238D01*
X104322898Y-44766239D01*
X104448402Y-44945477D01*
X104603123Y-45100198D01*
X104782361Y-45225702D01*
X104980670Y-45318175D01*
X105192023Y-45374807D01*
X105372234Y-45390573D01*
X105409998Y-45393877D01*
X105410000Y-45393877D01*
X105410002Y-45393877D01*
X105447720Y-45390577D01*
X105627977Y-45374807D01*
X105839330Y-45318175D01*
X106037639Y-45225702D01*
X106216877Y-45100198D01*
X106371598Y-44945477D01*
X106497102Y-44766239D01*
X106589575Y-44567930D01*
X106646207Y-44356577D01*
X106665277Y-44138600D01*
X106662267Y-44104200D01*
X106660833Y-44087799D01*
X106646207Y-43920623D01*
X106589575Y-43709270D01*
X106497102Y-43510962D01*
X106497100Y-43510959D01*
X106497099Y-43510957D01*
X106371599Y-43331724D01*
X106315436Y-43275561D01*
X106216877Y-43177002D01*
X106037639Y-43051498D01*
X106037640Y-43051498D01*
X106037638Y-43051497D01*
X105903397Y-42988900D01*
X105839330Y-42959025D01*
X105839326Y-42959024D01*
X105839322Y-42959022D01*
X105627977Y-42902393D01*
X105410002Y-42883323D01*
X105409998Y-42883323D01*
X105264682Y-42896036D01*
X105192023Y-42902393D01*
X105192020Y-42902393D01*
X104980677Y-42959022D01*
X104980668Y-42959026D01*
X104782361Y-43051498D01*
X104782357Y-43051500D01*
X104603121Y-43177002D01*
X104448402Y-43331721D01*
X104322900Y-43510957D01*
X104322898Y-43510961D01*
X104230426Y-43709268D01*
X104230422Y-43709277D01*
X104173793Y-43920620D01*
X104173793Y-43920624D01*
X104154723Y-44138597D01*
X97716602Y-44138597D01*
X97713592Y-44104200D01*
X97712158Y-44087799D01*
X97697532Y-43920623D01*
X97640900Y-43709270D01*
X97548427Y-43510962D01*
X97548425Y-43510959D01*
X97548424Y-43510957D01*
X97422924Y-43331724D01*
X97366761Y-43275561D01*
X97268202Y-43177002D01*
X97088964Y-43051498D01*
X97088965Y-43051498D01*
X97088963Y-43051497D01*
X96954722Y-42988900D01*
X96890655Y-42959025D01*
X96890651Y-42959024D01*
X96890647Y-42959022D01*
X96679302Y-42902393D01*
X96461327Y-42883323D01*
X96461323Y-42883323D01*
X96316007Y-42896036D01*
X96243348Y-42902393D01*
X96243345Y-42902393D01*
X96032002Y-42959022D01*
X96031993Y-42959026D01*
X95833686Y-43051498D01*
X95833682Y-43051500D01*
X95654446Y-43177002D01*
X95499727Y-43331721D01*
X95374225Y-43510957D01*
X95374223Y-43510961D01*
X95281751Y-43709268D01*
X95281747Y-43709277D01*
X95225118Y-43920620D01*
X95225118Y-43920624D01*
X95206048Y-44138597D01*
X92170168Y-44138597D01*
X92166980Y-44104200D01*
X92149640Y-43917064D01*
X92149639Y-43917062D01*
X92139851Y-43882662D01*
X92088754Y-43703072D01*
X92071625Y-43668672D01*
X91989586Y-43503916D01*
X91989581Y-43503908D01*
X91855504Y-43326361D01*
X91691087Y-43176476D01*
X91691085Y-43176474D01*
X91501929Y-43059354D01*
X91501923Y-43059352D01*
X91294465Y-42978982D01*
X91075768Y-42938100D01*
X90853282Y-42938100D01*
X90634585Y-42978982D01*
X90515918Y-43024954D01*
X90427126Y-43059352D01*
X90427120Y-43059354D01*
X90237964Y-43176474D01*
X90237962Y-43176476D01*
X90073545Y-43326361D01*
X89939468Y-43503908D01*
X89939463Y-43503916D01*
X89840300Y-43703061D01*
X89840294Y-43703076D01*
X89779410Y-43917062D01*
X89779409Y-43917064D01*
X89758882Y-44138599D01*
X85170168Y-44138599D01*
X85166980Y-44104200D01*
X85149640Y-43917064D01*
X85149639Y-43917062D01*
X85139851Y-43882662D01*
X85088754Y-43703072D01*
X85071625Y-43668672D01*
X84989586Y-43503916D01*
X84989581Y-43503908D01*
X84855504Y-43326361D01*
X84691087Y-43176476D01*
X84691085Y-43176474D01*
X84501929Y-43059354D01*
X84501923Y-43059352D01*
X84294465Y-42978982D01*
X84075768Y-42938100D01*
X83853282Y-42938100D01*
X83634585Y-42978982D01*
X83515918Y-43024954D01*
X83427126Y-43059352D01*
X83427120Y-43059354D01*
X83237964Y-43176474D01*
X83237962Y-43176476D01*
X83073545Y-43326361D01*
X82939468Y-43503908D01*
X82939463Y-43503916D01*
X82840300Y-43703061D01*
X82840294Y-43703076D01*
X82779410Y-43917062D01*
X82779409Y-43917064D01*
X82758882Y-44138599D01*
X79405061Y-44138599D01*
X79409768Y-44087800D01*
X79400985Y-43993020D01*
X79389240Y-43866264D01*
X79389239Y-43866262D01*
X79357261Y-43753872D01*
X79328354Y-43652272D01*
X79294041Y-43583362D01*
X79229186Y-43453116D01*
X79229181Y-43453108D01*
X79095104Y-43275561D01*
X78930687Y-43125676D01*
X78930685Y-43125674D01*
X78741529Y-43008554D01*
X78741523Y-43008552D01*
X78534065Y-42928182D01*
X78315368Y-42887300D01*
X78092882Y-42887300D01*
X77874185Y-42928182D01*
X77794568Y-42959026D01*
X77666726Y-43008552D01*
X77666720Y-43008554D01*
X77477564Y-43125674D01*
X77477562Y-43125676D01*
X77313145Y-43275561D01*
X77179068Y-43453108D01*
X77179063Y-43453116D01*
X77079900Y-43652261D01*
X77079894Y-43652276D01*
X77019010Y-43866262D01*
X77019009Y-43866264D01*
X76998482Y-44087799D01*
X72409768Y-44087799D01*
X72400985Y-43993020D01*
X72389240Y-43866264D01*
X72389239Y-43866262D01*
X72357261Y-43753872D01*
X72328354Y-43652272D01*
X72294041Y-43583362D01*
X72229186Y-43453116D01*
X72229181Y-43453108D01*
X72095104Y-43275561D01*
X71930687Y-43125676D01*
X71930685Y-43125674D01*
X71741529Y-43008554D01*
X71741523Y-43008552D01*
X71534065Y-42928182D01*
X71315368Y-42887300D01*
X71092882Y-42887300D01*
X70874185Y-42928182D01*
X70794568Y-42959026D01*
X70666726Y-43008552D01*
X70666720Y-43008554D01*
X70477564Y-43125674D01*
X70477562Y-43125676D01*
X70313145Y-43275561D01*
X70179068Y-43453108D01*
X70179063Y-43453116D01*
X70079900Y-43652261D01*
X70079894Y-43652276D01*
X70019010Y-43866262D01*
X70019009Y-43866264D01*
X69998482Y-44087799D01*
X66554648Y-44087799D01*
X66535640Y-43882664D01*
X66474754Y-43668672D01*
X66466588Y-43652272D01*
X66375586Y-43469516D01*
X66375581Y-43469508D01*
X66241504Y-43291961D01*
X66077087Y-43142076D01*
X66077085Y-43142074D01*
X65887929Y-43024954D01*
X65887923Y-43024952D01*
X65680465Y-42944582D01*
X65461768Y-42903700D01*
X65239282Y-42903700D01*
X65020585Y-42944582D01*
X64942602Y-42974793D01*
X64813126Y-43024952D01*
X64813120Y-43024954D01*
X64623964Y-43142074D01*
X64623962Y-43142076D01*
X64459545Y-43291961D01*
X64325468Y-43469508D01*
X64325463Y-43469516D01*
X64226300Y-43668661D01*
X64226294Y-43668676D01*
X64165410Y-43882662D01*
X64165409Y-43882664D01*
X64144882Y-44104199D01*
X59556168Y-44104199D01*
X59535640Y-43882664D01*
X59474754Y-43668672D01*
X59466588Y-43652272D01*
X59375586Y-43469516D01*
X59375581Y-43469508D01*
X59241504Y-43291961D01*
X59077087Y-43142076D01*
X59077085Y-43142074D01*
X58887929Y-43024954D01*
X58887923Y-43024952D01*
X58680465Y-42944582D01*
X58461768Y-42903700D01*
X58239282Y-42903700D01*
X58020585Y-42944582D01*
X57942602Y-42974793D01*
X57813126Y-43024952D01*
X57813120Y-43024954D01*
X57623964Y-43142074D01*
X57623962Y-43142076D01*
X57459545Y-43291961D01*
X57325468Y-43469508D01*
X57325463Y-43469516D01*
X57226300Y-43668661D01*
X57226294Y-43668676D01*
X57165410Y-43882662D01*
X57165409Y-43882664D01*
X57144882Y-44104199D01*
X53564673Y-44104199D01*
X53552040Y-43967864D01*
X53552039Y-43967862D01*
X53538598Y-43920623D01*
X53491154Y-43753872D01*
X53491149Y-43753861D01*
X53391986Y-43554716D01*
X53391981Y-43554708D01*
X53257904Y-43377161D01*
X53093487Y-43227276D01*
X53093485Y-43227274D01*
X52904329Y-43110154D01*
X52904323Y-43110152D01*
X52696865Y-43029782D01*
X52478168Y-42988900D01*
X52255682Y-42988900D01*
X52036985Y-43029782D01*
X51960654Y-43059353D01*
X51829526Y-43110152D01*
X51829520Y-43110154D01*
X51640364Y-43227274D01*
X51640362Y-43227276D01*
X51475945Y-43377161D01*
X51341868Y-43554708D01*
X51341863Y-43554716D01*
X51242700Y-43753861D01*
X51242694Y-43753876D01*
X51181810Y-43967862D01*
X51181809Y-43967864D01*
X51161282Y-44189399D01*
X46572568Y-44189399D01*
X46567860Y-44138597D01*
X46552040Y-43967864D01*
X46552039Y-43967862D01*
X46538598Y-43920623D01*
X46491154Y-43753872D01*
X46491149Y-43753861D01*
X46391986Y-43554716D01*
X46391981Y-43554708D01*
X46257904Y-43377161D01*
X46093487Y-43227276D01*
X46093485Y-43227274D01*
X45904329Y-43110154D01*
X45904323Y-43110152D01*
X45696865Y-43029782D01*
X45478168Y-42988900D01*
X45255682Y-42988900D01*
X45036985Y-43029782D01*
X44960654Y-43059353D01*
X44829526Y-43110152D01*
X44829520Y-43110154D01*
X44640364Y-43227274D01*
X44640362Y-43227276D01*
X44475945Y-43377161D01*
X44341868Y-43554708D01*
X44341863Y-43554716D01*
X44242700Y-43753861D01*
X44242694Y-43753876D01*
X44181810Y-43967862D01*
X44181809Y-43967864D01*
X44161282Y-44189399D01*
X40864312Y-44189399D01*
X40847132Y-43993023D01*
X40790500Y-43781670D01*
X40698027Y-43583362D01*
X40698025Y-43583359D01*
X40698024Y-43583357D01*
X40572524Y-43404124D01*
X40500121Y-43331721D01*
X40417802Y-43249402D01*
X40264522Y-43142074D01*
X40238563Y-43123897D01*
X40139409Y-43077661D01*
X40040255Y-43031425D01*
X40040251Y-43031424D01*
X40040247Y-43031422D01*
X39828902Y-42974793D01*
X39610927Y-42955723D01*
X39610923Y-42955723D01*
X39465607Y-42968436D01*
X39392948Y-42974793D01*
X39392945Y-42974793D01*
X39181602Y-43031422D01*
X39181593Y-43031426D01*
X38983286Y-43123898D01*
X38983282Y-43123900D01*
X38804046Y-43249402D01*
X38649327Y-43404121D01*
X38523825Y-43583357D01*
X38523823Y-43583361D01*
X38431351Y-43781668D01*
X38431347Y-43781677D01*
X38374718Y-43993020D01*
X38374718Y-43993024D01*
X38357538Y-44189400D01*
X38355648Y-44211000D01*
X37366202Y-44211000D01*
X37347132Y-43993023D01*
X37290500Y-43781670D01*
X37198027Y-43583362D01*
X37198025Y-43583359D01*
X37198024Y-43583357D01*
X37072524Y-43404124D01*
X37000121Y-43331721D01*
X36917802Y-43249402D01*
X36764522Y-43142074D01*
X36738563Y-43123897D01*
X36639409Y-43077661D01*
X36540255Y-43031425D01*
X36540251Y-43031424D01*
X36540247Y-43031422D01*
X36328902Y-42974793D01*
X36110927Y-42955723D01*
X36110923Y-42955723D01*
X35965607Y-42968436D01*
X35892948Y-42974793D01*
X35892945Y-42974793D01*
X35681602Y-43031422D01*
X35681593Y-43031426D01*
X35483286Y-43123898D01*
X35483282Y-43123900D01*
X35304046Y-43249402D01*
X35149327Y-43404121D01*
X35023825Y-43583357D01*
X35023823Y-43583361D01*
X34931351Y-43781668D01*
X34931347Y-43781677D01*
X34874718Y-43993020D01*
X34874718Y-43993024D01*
X34857538Y-44189400D01*
X34855648Y-44211000D01*
X31481277Y-44211000D01*
X31462207Y-43993023D01*
X31405575Y-43781670D01*
X31313102Y-43583362D01*
X31313100Y-43583359D01*
X31313099Y-43583357D01*
X31187599Y-43404124D01*
X31115196Y-43331721D01*
X31032877Y-43249402D01*
X30879597Y-43142074D01*
X30853638Y-43123897D01*
X30754484Y-43077661D01*
X30655330Y-43031425D01*
X30655326Y-43031424D01*
X30655322Y-43031422D01*
X30443977Y-42974793D01*
X30226002Y-42955723D01*
X30225998Y-42955723D01*
X30080682Y-42968436D01*
X30008023Y-42974793D01*
X30008020Y-42974793D01*
X29796677Y-43031422D01*
X29796668Y-43031426D01*
X29598361Y-43123898D01*
X29598357Y-43123900D01*
X29419121Y-43249402D01*
X29264402Y-43404121D01*
X29138900Y-43583357D01*
X29138898Y-43583361D01*
X29046426Y-43781668D01*
X29046422Y-43781677D01*
X28989793Y-43993020D01*
X28989793Y-43993024D01*
X28972613Y-44189400D01*
X28970723Y-44211000D01*
X27981277Y-44211000D01*
X27962207Y-43993023D01*
X27905575Y-43781670D01*
X27813102Y-43583362D01*
X27813100Y-43583359D01*
X27813099Y-43583357D01*
X27687599Y-43404124D01*
X27615196Y-43331721D01*
X27532877Y-43249402D01*
X27379597Y-43142074D01*
X27353638Y-43123897D01*
X27254484Y-43077661D01*
X27155330Y-43031425D01*
X27155326Y-43031424D01*
X27155322Y-43031422D01*
X26943977Y-42974793D01*
X26726002Y-42955723D01*
X26725998Y-42955723D01*
X26580682Y-42968436D01*
X26508023Y-42974793D01*
X26508020Y-42974793D01*
X26296677Y-43031422D01*
X26296668Y-43031426D01*
X26098361Y-43123898D01*
X26098357Y-43123900D01*
X25919121Y-43249402D01*
X25764402Y-43404121D01*
X25638900Y-43583357D01*
X25638898Y-43583361D01*
X25546426Y-43781668D01*
X25546422Y-43781677D01*
X25489793Y-43993020D01*
X25489793Y-43993024D01*
X25472613Y-44189400D01*
X25470723Y-44211000D01*
X24376500Y-44211000D01*
X24376500Y-34625711D01*
X26089500Y-34625711D01*
X26089500Y-34868288D01*
X26121161Y-35108785D01*
X26183947Y-35343104D01*
X26224455Y-35440898D01*
X26276776Y-35567212D01*
X26398064Y-35777289D01*
X26398066Y-35777292D01*
X26398067Y-35777293D01*
X26545733Y-35969736D01*
X26545739Y-35969743D01*
X26717256Y-36141260D01*
X26717262Y-36141265D01*
X26909711Y-36288936D01*
X27119788Y-36410224D01*
X27343900Y-36503054D01*
X27578211Y-36565838D01*
X27758586Y-36589584D01*
X27818711Y-36597500D01*
X27818712Y-36597500D01*
X28061289Y-36597500D01*
X28109388Y-36591167D01*
X28301789Y-36565838D01*
X28536100Y-36503054D01*
X28760212Y-36410224D01*
X28970289Y-36288936D01*
X29162738Y-36141265D01*
X29334265Y-35969738D01*
X29481936Y-35777289D01*
X29603224Y-35567212D01*
X29696054Y-35343100D01*
X29758838Y-35108789D01*
X29790500Y-34868288D01*
X29790500Y-34625712D01*
X29761654Y-34406599D01*
X43743896Y-34406599D01*
X43743896Y-34406600D01*
X43763569Y-34618910D01*
X43821921Y-34823992D01*
X43821921Y-34823994D01*
X43916957Y-35014853D01*
X43916959Y-35014855D01*
X44045453Y-35185007D01*
X44203023Y-35328652D01*
X44384306Y-35440898D01*
X44583127Y-35517921D01*
X44792715Y-35557100D01*
X44792717Y-35557100D01*
X45005933Y-35557100D01*
X45005935Y-35557100D01*
X45215523Y-35517921D01*
X45414344Y-35440898D01*
X45595627Y-35328652D01*
X45753197Y-35185007D01*
X45881691Y-35014855D01*
X45976730Y-34823989D01*
X46035081Y-34618910D01*
X46045854Y-34502647D01*
X46071640Y-34437711D01*
X46113947Y-34407404D01*
X46222455Y-34407404D01*
X46258828Y-34428268D01*
X46291018Y-34490281D01*
X46292796Y-34502648D01*
X46303569Y-34618910D01*
X46361921Y-34823992D01*
X46361921Y-34823994D01*
X46456957Y-35014853D01*
X46456959Y-35014855D01*
X46585453Y-35185007D01*
X46743023Y-35328652D01*
X46924306Y-35440898D01*
X47123127Y-35517921D01*
X47332715Y-35557100D01*
X47332717Y-35557100D01*
X47545933Y-35557100D01*
X47545935Y-35557100D01*
X47755523Y-35517921D01*
X47954344Y-35440898D01*
X48135627Y-35328652D01*
X48293197Y-35185007D01*
X48421691Y-35014855D01*
X48516730Y-34823989D01*
X48575081Y-34618910D01*
X48585854Y-34502647D01*
X48611640Y-34437711D01*
X48653947Y-34407404D01*
X48762455Y-34407404D01*
X48798828Y-34428268D01*
X48831018Y-34490281D01*
X48832796Y-34502648D01*
X48843569Y-34618910D01*
X48901921Y-34823992D01*
X48901921Y-34823994D01*
X48996957Y-35014853D01*
X48996959Y-35014855D01*
X49125453Y-35185007D01*
X49283023Y-35328652D01*
X49464306Y-35440898D01*
X49663127Y-35517921D01*
X49872715Y-35557100D01*
X49872717Y-35557100D01*
X50085933Y-35557100D01*
X50085935Y-35557100D01*
X50295523Y-35517921D01*
X50494344Y-35440898D01*
X50675627Y-35328652D01*
X50833197Y-35185007D01*
X50961691Y-35014855D01*
X51056730Y-34823989D01*
X51115081Y-34618910D01*
X51125854Y-34502647D01*
X51151640Y-34437711D01*
X51193947Y-34407404D01*
X51302455Y-34407404D01*
X51338828Y-34428268D01*
X51371018Y-34490281D01*
X51372796Y-34502648D01*
X51383569Y-34618910D01*
X51441921Y-34823992D01*
X51441921Y-34823994D01*
X51536957Y-35014853D01*
X51536959Y-35014855D01*
X51665453Y-35185007D01*
X51823023Y-35328652D01*
X52004306Y-35440898D01*
X52203127Y-35517921D01*
X52412715Y-35557100D01*
X52412717Y-35557100D01*
X52625933Y-35557100D01*
X52625935Y-35557100D01*
X52835523Y-35517921D01*
X53034344Y-35440898D01*
X53215627Y-35328652D01*
X53373197Y-35185007D01*
X53501691Y-35014855D01*
X53596730Y-34823989D01*
X53655081Y-34618910D01*
X53665854Y-34502647D01*
X53691640Y-34437711D01*
X53733947Y-34407404D01*
X53842455Y-34407404D01*
X53878828Y-34428268D01*
X53911018Y-34490281D01*
X53912796Y-34502648D01*
X53923569Y-34618910D01*
X53981921Y-34823992D01*
X53981921Y-34823994D01*
X54076957Y-35014853D01*
X54076959Y-35014855D01*
X54205453Y-35185007D01*
X54363023Y-35328652D01*
X54544306Y-35440898D01*
X54743127Y-35517921D01*
X54952715Y-35557100D01*
X54952717Y-35557100D01*
X55165933Y-35557100D01*
X55165935Y-35557100D01*
X55375523Y-35517921D01*
X55574344Y-35440898D01*
X55755627Y-35328652D01*
X55913197Y-35185007D01*
X56041691Y-35014855D01*
X56136730Y-34823989D01*
X56195081Y-34618910D01*
X56205854Y-34502647D01*
X56231640Y-34437711D01*
X56273947Y-34407404D01*
X56382455Y-34407404D01*
X56418828Y-34428268D01*
X56451018Y-34490281D01*
X56452796Y-34502648D01*
X56463569Y-34618910D01*
X56521921Y-34823992D01*
X56521921Y-34823994D01*
X56616957Y-35014853D01*
X56616959Y-35014855D01*
X56745453Y-35185007D01*
X56903023Y-35328652D01*
X57084306Y-35440898D01*
X57283127Y-35517921D01*
X57492715Y-35557100D01*
X57492717Y-35557100D01*
X57705933Y-35557100D01*
X57705935Y-35557100D01*
X57915523Y-35517921D01*
X58114344Y-35440898D01*
X58295627Y-35328652D01*
X58453197Y-35185007D01*
X58581691Y-35014855D01*
X58676730Y-34823989D01*
X58735081Y-34618910D01*
X58745854Y-34502647D01*
X58771640Y-34437711D01*
X58813947Y-34407404D01*
X58922455Y-34407404D01*
X58958828Y-34428268D01*
X58991018Y-34490281D01*
X58992796Y-34502648D01*
X59003569Y-34618910D01*
X59061921Y-34823992D01*
X59061921Y-34823994D01*
X59156957Y-35014853D01*
X59156959Y-35014855D01*
X59285453Y-35185007D01*
X59443023Y-35328652D01*
X59624306Y-35440898D01*
X59823127Y-35517921D01*
X60032715Y-35557100D01*
X60032717Y-35557100D01*
X60245933Y-35557100D01*
X60245935Y-35557100D01*
X60455523Y-35517921D01*
X60654344Y-35440898D01*
X60835627Y-35328652D01*
X60993197Y-35185007D01*
X61121691Y-35014855D01*
X61216730Y-34823989D01*
X61275081Y-34618910D01*
X61285854Y-34502647D01*
X61311640Y-34437711D01*
X61353947Y-34407404D01*
X61462455Y-34407404D01*
X61498828Y-34428268D01*
X61531018Y-34490281D01*
X61532796Y-34502648D01*
X61543569Y-34618910D01*
X61601921Y-34823992D01*
X61601921Y-34823994D01*
X61696957Y-35014853D01*
X61696959Y-35014855D01*
X61825453Y-35185007D01*
X61983023Y-35328652D01*
X62164306Y-35440898D01*
X62363127Y-35517921D01*
X62572715Y-35557100D01*
X62572717Y-35557100D01*
X62785933Y-35557100D01*
X62785935Y-35557100D01*
X62995523Y-35517921D01*
X63194344Y-35440898D01*
X63375627Y-35328652D01*
X63533197Y-35185007D01*
X63661691Y-35014855D01*
X63756730Y-34823989D01*
X63815081Y-34618910D01*
X63825854Y-34502647D01*
X63851640Y-34437711D01*
X63893947Y-34407404D01*
X64002455Y-34407404D01*
X64038828Y-34428268D01*
X64071018Y-34490281D01*
X64072796Y-34502648D01*
X64083569Y-34618910D01*
X64141921Y-34823992D01*
X64141921Y-34823994D01*
X64236957Y-35014853D01*
X64236959Y-35014855D01*
X64365453Y-35185007D01*
X64523023Y-35328652D01*
X64704306Y-35440898D01*
X64903127Y-35517921D01*
X65112715Y-35557100D01*
X65112717Y-35557100D01*
X65325933Y-35557100D01*
X65325935Y-35557100D01*
X65535523Y-35517921D01*
X65734344Y-35440898D01*
X65915627Y-35328652D01*
X66073197Y-35185007D01*
X66201691Y-35014855D01*
X66296730Y-34823989D01*
X66355081Y-34618910D01*
X66365854Y-34502647D01*
X66391640Y-34437711D01*
X66433947Y-34407404D01*
X66542455Y-34407404D01*
X66578828Y-34428268D01*
X66611018Y-34490281D01*
X66612796Y-34502648D01*
X66623569Y-34618910D01*
X66681921Y-34823992D01*
X66681921Y-34823994D01*
X66776957Y-35014853D01*
X66776959Y-35014855D01*
X66905453Y-35185007D01*
X67063023Y-35328652D01*
X67244306Y-35440898D01*
X67443127Y-35517921D01*
X67652715Y-35557100D01*
X67652717Y-35557100D01*
X67865933Y-35557100D01*
X67865935Y-35557100D01*
X68075523Y-35517921D01*
X68274344Y-35440898D01*
X68455627Y-35328652D01*
X68613197Y-35185007D01*
X68741691Y-35014855D01*
X68836730Y-34823989D01*
X68895081Y-34618910D01*
X68914754Y-34406600D01*
X68914754Y-34406599D01*
X71683896Y-34406599D01*
X71683896Y-34406600D01*
X71703569Y-34618910D01*
X71761921Y-34823992D01*
X71761921Y-34823994D01*
X71856957Y-35014853D01*
X71856959Y-35014855D01*
X71985453Y-35185007D01*
X72143023Y-35328652D01*
X72324306Y-35440898D01*
X72523127Y-35517921D01*
X72732715Y-35557100D01*
X72732717Y-35557100D01*
X72945933Y-35557100D01*
X72945935Y-35557100D01*
X73155523Y-35517921D01*
X73354344Y-35440898D01*
X73535627Y-35328652D01*
X73693197Y-35185007D01*
X73821691Y-35014855D01*
X73916730Y-34823989D01*
X73973146Y-34625711D01*
X106099500Y-34625711D01*
X106099500Y-34868288D01*
X106131161Y-35108785D01*
X106193947Y-35343104D01*
X106234455Y-35440898D01*
X106286776Y-35567212D01*
X106408064Y-35777289D01*
X106408066Y-35777292D01*
X106408067Y-35777293D01*
X106555733Y-35969736D01*
X106555739Y-35969743D01*
X106727256Y-36141260D01*
X106727262Y-36141265D01*
X106919711Y-36288936D01*
X107129788Y-36410224D01*
X107353900Y-36503054D01*
X107588211Y-36565838D01*
X107768586Y-36589584D01*
X107828711Y-36597500D01*
X107828712Y-36597500D01*
X108071289Y-36597500D01*
X108119388Y-36591167D01*
X108311789Y-36565838D01*
X108546100Y-36503054D01*
X108770212Y-36410224D01*
X108980289Y-36288936D01*
X109172738Y-36141265D01*
X109344265Y-35969738D01*
X109491936Y-35777289D01*
X109613224Y-35567212D01*
X109706054Y-35343100D01*
X109768838Y-35108789D01*
X109800500Y-34868288D01*
X109800500Y-34625712D01*
X109768838Y-34385211D01*
X109706054Y-34150900D01*
X109613224Y-33926788D01*
X109491936Y-33716711D01*
X109344265Y-33524262D01*
X109344260Y-33524256D01*
X109172743Y-33352739D01*
X109172736Y-33352733D01*
X108980293Y-33205067D01*
X108980292Y-33205066D01*
X108980289Y-33205064D01*
X108770212Y-33083776D01*
X108770205Y-33083773D01*
X108546104Y-32990947D01*
X108311785Y-32928161D01*
X108071289Y-32896500D01*
X108071288Y-32896500D01*
X107828712Y-32896500D01*
X107828711Y-32896500D01*
X107588214Y-32928161D01*
X107353895Y-32990947D01*
X107129794Y-33083773D01*
X107129785Y-33083777D01*
X106919706Y-33205067D01*
X106727263Y-33352733D01*
X106727256Y-33352739D01*
X106555739Y-33524256D01*
X106555733Y-33524263D01*
X106408067Y-33716706D01*
X106286777Y-33926785D01*
X106286773Y-33926794D01*
X106193947Y-34150895D01*
X106131161Y-34385214D01*
X106099500Y-34625711D01*
X73973146Y-34625711D01*
X73975081Y-34618910D01*
X73994754Y-34406600D01*
X73975081Y-34194290D01*
X73916730Y-33989211D01*
X73916728Y-33989206D01*
X73916728Y-33989205D01*
X73821692Y-33798346D01*
X73693197Y-33628193D01*
X73535627Y-33484548D01*
X73354344Y-33372302D01*
X73354342Y-33372301D01*
X73254933Y-33333790D01*
X73155523Y-33295279D01*
X72945935Y-33256100D01*
X72732715Y-33256100D01*
X72523127Y-33295279D01*
X72523124Y-33295279D01*
X72523124Y-33295280D01*
X72324307Y-33372301D01*
X72324305Y-33372302D01*
X72143024Y-33484547D01*
X71985452Y-33628193D01*
X71856957Y-33798346D01*
X71761921Y-33989205D01*
X71761921Y-33989207D01*
X71703569Y-34194289D01*
X71683896Y-34406599D01*
X68914754Y-34406599D01*
X68895081Y-34194290D01*
X68836730Y-33989211D01*
X68836728Y-33989206D01*
X68836728Y-33989205D01*
X68741692Y-33798346D01*
X68613197Y-33628193D01*
X68455627Y-33484548D01*
X68274344Y-33372302D01*
X68274342Y-33372301D01*
X68174933Y-33333790D01*
X68075523Y-33295279D01*
X67865935Y-33256100D01*
X67652715Y-33256100D01*
X67443127Y-33295279D01*
X67443124Y-33295279D01*
X67443124Y-33295280D01*
X67244307Y-33372301D01*
X67244305Y-33372302D01*
X67063024Y-33484547D01*
X66905452Y-33628193D01*
X66776957Y-33798346D01*
X66681921Y-33989205D01*
X66681921Y-33989207D01*
X66623569Y-34194289D01*
X66612796Y-34310551D01*
X66587010Y-34375488D01*
X66542455Y-34407404D01*
X66433947Y-34407404D01*
X66436194Y-34405794D01*
X66399822Y-34384931D01*
X66367632Y-34322918D01*
X66365854Y-34310551D01*
X66365174Y-34303213D01*
X66355081Y-34194290D01*
X66296730Y-33989211D01*
X66296728Y-33989206D01*
X66296728Y-33989205D01*
X66201692Y-33798346D01*
X66073197Y-33628193D01*
X65915627Y-33484548D01*
X65734344Y-33372302D01*
X65734342Y-33372301D01*
X65634933Y-33333790D01*
X65535523Y-33295279D01*
X65325935Y-33256100D01*
X65112715Y-33256100D01*
X64903127Y-33295279D01*
X64903124Y-33295279D01*
X64903124Y-33295280D01*
X64704307Y-33372301D01*
X64704305Y-33372302D01*
X64523024Y-33484547D01*
X64365452Y-33628193D01*
X64236957Y-33798346D01*
X64141921Y-33989205D01*
X64141921Y-33989207D01*
X64083569Y-34194289D01*
X64072796Y-34310551D01*
X64047010Y-34375488D01*
X64002455Y-34407404D01*
X63893947Y-34407404D01*
X63896194Y-34405794D01*
X63859822Y-34384931D01*
X63827632Y-34322918D01*
X63825854Y-34310551D01*
X63825174Y-34303213D01*
X63815081Y-34194290D01*
X63756730Y-33989211D01*
X63756728Y-33989206D01*
X63756728Y-33989205D01*
X63661692Y-33798346D01*
X63533197Y-33628193D01*
X63375627Y-33484548D01*
X63194344Y-33372302D01*
X63194342Y-33372301D01*
X63094933Y-33333790D01*
X62995523Y-33295279D01*
X62785935Y-33256100D01*
X62572715Y-33256100D01*
X62363127Y-33295279D01*
X62363124Y-33295279D01*
X62363124Y-33295280D01*
X62164307Y-33372301D01*
X62164305Y-33372302D01*
X61983024Y-33484547D01*
X61825452Y-33628193D01*
X61696957Y-33798346D01*
X61601921Y-33989205D01*
X61601921Y-33989207D01*
X61543569Y-34194289D01*
X61532796Y-34310551D01*
X61507010Y-34375488D01*
X61462455Y-34407404D01*
X61353947Y-34407404D01*
X61356194Y-34405794D01*
X61319822Y-34384931D01*
X61287632Y-34322918D01*
X61285854Y-34310551D01*
X61285174Y-34303213D01*
X61275081Y-34194290D01*
X61216730Y-33989211D01*
X61216728Y-33989206D01*
X61216728Y-33989205D01*
X61121692Y-33798346D01*
X60993197Y-33628193D01*
X60835627Y-33484548D01*
X60654344Y-33372302D01*
X60654342Y-33372301D01*
X60554933Y-33333790D01*
X60455523Y-33295279D01*
X60245935Y-33256100D01*
X60032715Y-33256100D01*
X59823127Y-33295279D01*
X59823124Y-33295279D01*
X59823124Y-33295280D01*
X59624307Y-33372301D01*
X59624305Y-33372302D01*
X59443024Y-33484547D01*
X59285452Y-33628193D01*
X59156957Y-33798346D01*
X59061921Y-33989205D01*
X59061921Y-33989207D01*
X59003569Y-34194289D01*
X58992796Y-34310551D01*
X58967010Y-34375488D01*
X58922455Y-34407404D01*
X58813947Y-34407404D01*
X58816194Y-34405794D01*
X58779822Y-34384931D01*
X58747632Y-34322918D01*
X58745854Y-34310551D01*
X58745174Y-34303213D01*
X58735081Y-34194290D01*
X58676730Y-33989211D01*
X58676728Y-33989206D01*
X58676728Y-33989205D01*
X58581692Y-33798346D01*
X58453197Y-33628193D01*
X58295627Y-33484548D01*
X58114344Y-33372302D01*
X58114342Y-33372301D01*
X58014933Y-33333790D01*
X57915523Y-33295279D01*
X57705935Y-33256100D01*
X57492715Y-33256100D01*
X57283127Y-33295279D01*
X57283124Y-33295279D01*
X57283124Y-33295280D01*
X57084307Y-33372301D01*
X57084305Y-33372302D01*
X56903024Y-33484547D01*
X56745452Y-33628193D01*
X56616957Y-33798346D01*
X56521921Y-33989205D01*
X56521921Y-33989207D01*
X56463569Y-34194289D01*
X56452796Y-34310551D01*
X56427010Y-34375488D01*
X56382455Y-34407404D01*
X56273947Y-34407404D01*
X56276194Y-34405794D01*
X56239822Y-34384931D01*
X56207632Y-34322918D01*
X56205854Y-34310551D01*
X56205174Y-34303213D01*
X56195081Y-34194290D01*
X56136730Y-33989211D01*
X56136728Y-33989206D01*
X56136728Y-33989205D01*
X56041692Y-33798346D01*
X55913197Y-33628193D01*
X55755627Y-33484548D01*
X55574344Y-33372302D01*
X55574342Y-33372301D01*
X55474933Y-33333790D01*
X55375523Y-33295279D01*
X55165935Y-33256100D01*
X54952715Y-33256100D01*
X54743127Y-33295279D01*
X54743124Y-33295279D01*
X54743124Y-33295280D01*
X54544307Y-33372301D01*
X54544305Y-33372302D01*
X54363024Y-33484547D01*
X54205452Y-33628193D01*
X54076957Y-33798346D01*
X53981921Y-33989205D01*
X53981921Y-33989207D01*
X53923569Y-34194289D01*
X53912796Y-34310551D01*
X53887010Y-34375488D01*
X53842455Y-34407404D01*
X53733947Y-34407404D01*
X53736194Y-34405794D01*
X53699822Y-34384931D01*
X53667632Y-34322918D01*
X53665854Y-34310551D01*
X53665174Y-34303213D01*
X53655081Y-34194290D01*
X53596730Y-33989211D01*
X53596728Y-33989206D01*
X53596728Y-33989205D01*
X53501692Y-33798346D01*
X53373197Y-33628193D01*
X53215627Y-33484548D01*
X53034344Y-33372302D01*
X53034342Y-33372301D01*
X52934933Y-33333790D01*
X52835523Y-33295279D01*
X52625935Y-33256100D01*
X52412715Y-33256100D01*
X52203127Y-33295279D01*
X52203124Y-33295279D01*
X52203124Y-33295280D01*
X52004307Y-33372301D01*
X52004305Y-33372302D01*
X51823024Y-33484547D01*
X51665452Y-33628193D01*
X51536957Y-33798346D01*
X51441921Y-33989205D01*
X51441921Y-33989207D01*
X51383569Y-34194289D01*
X51372796Y-34310551D01*
X51347010Y-34375488D01*
X51302455Y-34407404D01*
X51193947Y-34407404D01*
X51196194Y-34405794D01*
X51159822Y-34384931D01*
X51127632Y-34322918D01*
X51125854Y-34310551D01*
X51125174Y-34303213D01*
X51115081Y-34194290D01*
X51056730Y-33989211D01*
X51056728Y-33989206D01*
X51056728Y-33989205D01*
X50961692Y-33798346D01*
X50833197Y-33628193D01*
X50675627Y-33484548D01*
X50494344Y-33372302D01*
X50494342Y-33372301D01*
X50394933Y-33333790D01*
X50295523Y-33295279D01*
X50085935Y-33256100D01*
X49872715Y-33256100D01*
X49663127Y-33295279D01*
X49663124Y-33295279D01*
X49663124Y-33295280D01*
X49464307Y-33372301D01*
X49464305Y-33372302D01*
X49283024Y-33484547D01*
X49125452Y-33628193D01*
X48996957Y-33798346D01*
X48901921Y-33989205D01*
X48901921Y-33989207D01*
X48843569Y-34194289D01*
X48832796Y-34310551D01*
X48807010Y-34375488D01*
X48762455Y-34407404D01*
X48653947Y-34407404D01*
X48656194Y-34405794D01*
X48619822Y-34384931D01*
X48587632Y-34322918D01*
X48585854Y-34310551D01*
X48585174Y-34303213D01*
X48575081Y-34194290D01*
X48516730Y-33989211D01*
X48516728Y-33989206D01*
X48516728Y-33989205D01*
X48421692Y-33798346D01*
X48293197Y-33628193D01*
X48135627Y-33484548D01*
X47954344Y-33372302D01*
X47954342Y-33372301D01*
X47854933Y-33333790D01*
X47755523Y-33295279D01*
X47545935Y-33256100D01*
X47332715Y-33256100D01*
X47123127Y-33295279D01*
X47123124Y-33295279D01*
X47123124Y-33295280D01*
X46924307Y-33372301D01*
X46924305Y-33372302D01*
X46743024Y-33484547D01*
X46585452Y-33628193D01*
X46456957Y-33798346D01*
X46361921Y-33989205D01*
X46361921Y-33989207D01*
X46303569Y-34194289D01*
X46292796Y-34310551D01*
X46267010Y-34375488D01*
X46222455Y-34407404D01*
X46113947Y-34407404D01*
X46116194Y-34405794D01*
X46079822Y-34384931D01*
X46047632Y-34322918D01*
X46045854Y-34310551D01*
X46045174Y-34303213D01*
X46035081Y-34194290D01*
X45976730Y-33989211D01*
X45976728Y-33989206D01*
X45976728Y-33989205D01*
X45881692Y-33798346D01*
X45753197Y-33628193D01*
X45595627Y-33484548D01*
X45414344Y-33372302D01*
X45414342Y-33372301D01*
X45314933Y-33333790D01*
X45215523Y-33295279D01*
X45005935Y-33256100D01*
X44792715Y-33256100D01*
X44583127Y-33295279D01*
X44583124Y-33295279D01*
X44583124Y-33295280D01*
X44384307Y-33372301D01*
X44384305Y-33372302D01*
X44203024Y-33484547D01*
X44045452Y-33628193D01*
X43916957Y-33798346D01*
X43821921Y-33989205D01*
X43821921Y-33989207D01*
X43763569Y-34194289D01*
X43743896Y-34406599D01*
X29761654Y-34406599D01*
X29758838Y-34385211D01*
X29696054Y-34150900D01*
X29603224Y-33926788D01*
X29481936Y-33716711D01*
X29334265Y-33524262D01*
X29334260Y-33524256D01*
X29162743Y-33352739D01*
X29162736Y-33352733D01*
X28970293Y-33205067D01*
X28970292Y-33205066D01*
X28970289Y-33205064D01*
X28760212Y-33083776D01*
X28760205Y-33083773D01*
X28536104Y-32990947D01*
X28301785Y-32928161D01*
X28061289Y-32896500D01*
X28061288Y-32896500D01*
X27818712Y-32896500D01*
X27818711Y-32896500D01*
X27578214Y-32928161D01*
X27343895Y-32990947D01*
X27119794Y-33083773D01*
X27119785Y-33083777D01*
X26909706Y-33205067D01*
X26717263Y-33352733D01*
X26717256Y-33352739D01*
X26545739Y-33524256D01*
X26545733Y-33524263D01*
X26398067Y-33716706D01*
X26276777Y-33926785D01*
X26276773Y-33926794D01*
X26183947Y-34150895D01*
X26121161Y-34385214D01*
X26089500Y-34625711D01*
X24376500Y-34625711D01*
X24376500Y-30278839D01*
X56329975Y-30278839D01*
X56329975Y-30884360D01*
X56332749Y-30913949D01*
X56376359Y-31038576D01*
X56454763Y-31144810D01*
X56454764Y-31144811D01*
X56560998Y-31223215D01*
X56560999Y-31223215D01*
X56561000Y-31223216D01*
X56685626Y-31266825D01*
X56685625Y-31266825D01*
X56715215Y-31269600D01*
X56715219Y-31269600D01*
X57295735Y-31269600D01*
X57325324Y-31266825D01*
X57449950Y-31223216D01*
X57556186Y-31144811D01*
X57634591Y-31038575D01*
X57678200Y-30913949D01*
X57680975Y-30884356D01*
X57680975Y-30278844D01*
X57678200Y-30249251D01*
X57634591Y-30124625D01*
X57556186Y-30018389D01*
X57556185Y-30018388D01*
X57449951Y-29939984D01*
X57325323Y-29896374D01*
X57325324Y-29896374D01*
X57295735Y-29893600D01*
X57295731Y-29893600D01*
X56715219Y-29893600D01*
X56715215Y-29893600D01*
X56685625Y-29896374D01*
X56560998Y-29939984D01*
X56454764Y-30018388D01*
X56454763Y-30018389D01*
X56376359Y-30124623D01*
X56332749Y-30249250D01*
X56329975Y-30278839D01*
X24376500Y-30278839D01*
X24376500Y-28453839D01*
X56329975Y-28453839D01*
X56329975Y-29059360D01*
X56332749Y-29088949D01*
X56376359Y-29213576D01*
X56454763Y-29319810D01*
X56454764Y-29319811D01*
X56560998Y-29398215D01*
X56560999Y-29398215D01*
X56561000Y-29398216D01*
X56685626Y-29441825D01*
X56685625Y-29441825D01*
X56715215Y-29444600D01*
X56715219Y-29444600D01*
X57295735Y-29444600D01*
X57325324Y-29441825D01*
X57325326Y-29441825D01*
X57438397Y-29402259D01*
X57479352Y-29395300D01*
X57937105Y-29395300D01*
X58004144Y-29414985D01*
X58049899Y-29467789D01*
X58054146Y-29478344D01*
X58065299Y-29510216D01*
X58086282Y-29570182D01*
X58166925Y-29679450D01*
X58276193Y-29760093D01*
X58318920Y-29775044D01*
X58404374Y-29804946D01*
X58434805Y-29807800D01*
X58434809Y-29807800D01*
X59843345Y-29807800D01*
X59873774Y-29804946D01*
X59873776Y-29804946D01*
X59937865Y-29782519D01*
X60001957Y-29760093D01*
X60111225Y-29679450D01*
X60191868Y-29570182D01*
X60214294Y-29506090D01*
X60236721Y-29442001D01*
X60236721Y-29441999D01*
X60239575Y-29411569D01*
X60239575Y-29393100D01*
X60259260Y-29326061D01*
X60312064Y-29280306D01*
X60363575Y-29269100D01*
X60485031Y-29269100D01*
X60552070Y-29288785D01*
X60584801Y-29319467D01*
X60667713Y-29431810D01*
X60667714Y-29431811D01*
X60773948Y-29510215D01*
X60773949Y-29510215D01*
X60773950Y-29510216D01*
X60898576Y-29553825D01*
X60898575Y-29553825D01*
X60928165Y-29556600D01*
X60928169Y-29556600D01*
X61508685Y-29556600D01*
X61538274Y-29553825D01*
X61662900Y-29510216D01*
X61769136Y-29431811D01*
X61847541Y-29325575D01*
X61891150Y-29200949D01*
X61893925Y-29171356D01*
X61893925Y-28787360D01*
X61910538Y-28725360D01*
X61917624Y-28713086D01*
X61948325Y-28598509D01*
X61948325Y-27710567D01*
X61968010Y-27643528D01*
X61984644Y-27622886D01*
X61992376Y-27615153D01*
X61992497Y-27614973D01*
X62029723Y-27559261D01*
X62083336Y-27514456D01*
X62152661Y-27505749D01*
X62215688Y-27535904D01*
X62235927Y-27559261D01*
X62273272Y-27615152D01*
X62339594Y-27659467D01*
X62339595Y-27659468D01*
X62398072Y-27671099D01*
X62398075Y-27671100D01*
X62398077Y-27671100D01*
X63137575Y-27671100D01*
X63137576Y-27671099D01*
X63152393Y-27668152D01*
X63196054Y-27659468D01*
X63196054Y-27659467D01*
X63196056Y-27659467D01*
X63262377Y-27615152D01*
X63306692Y-27548831D01*
X63306692Y-27548829D01*
X63306693Y-27548829D01*
X63318324Y-27490352D01*
X63318325Y-27490350D01*
X63318325Y-27341600D01*
X79598078Y-27341600D01*
X79618559Y-27484056D01*
X79652905Y-27559261D01*
X79678348Y-27614973D01*
X79772597Y-27723743D01*
X79772600Y-27723744D01*
X79772938Y-27724135D01*
X79801963Y-27787691D01*
X79803225Y-27805338D01*
X79803225Y-29675660D01*
X79783540Y-29742699D01*
X79772938Y-29756862D01*
X79678350Y-29866022D01*
X79678347Y-29866028D01*
X79618559Y-29996943D01*
X79598078Y-30139400D01*
X79618559Y-30281856D01*
X79678347Y-30412771D01*
X79678348Y-30412773D01*
X79772597Y-30521543D01*
X79893672Y-30599353D01*
X79893675Y-30599354D01*
X79893674Y-30599354D01*
X80031761Y-30639899D01*
X80031763Y-30639900D01*
X80031764Y-30639900D01*
X80175687Y-30639900D01*
X80175687Y-30639899D01*
X80313778Y-30599353D01*
X80434853Y-30521543D01*
X80529102Y-30412773D01*
X80588890Y-30281857D01*
X80609372Y-30139400D01*
X80588890Y-29996943D01*
X80529102Y-29866027D01*
X80529100Y-29866025D01*
X80529099Y-29866022D01*
X80434512Y-29756862D01*
X80405487Y-29693306D01*
X80404225Y-29675660D01*
X80404225Y-27805338D01*
X80423910Y-27738299D01*
X80434512Y-27724135D01*
X80434849Y-27723744D01*
X80434853Y-27723743D01*
X80529102Y-27614973D01*
X80588890Y-27484057D01*
X80609372Y-27341600D01*
X80588890Y-27199143D01*
X80529102Y-27068227D01*
X80434853Y-26959457D01*
X80313778Y-26881647D01*
X80313776Y-26881646D01*
X80313774Y-26881645D01*
X80313775Y-26881645D01*
X80175688Y-26841100D01*
X80175686Y-26841100D01*
X80031764Y-26841100D01*
X80031761Y-26841100D01*
X79893674Y-26881645D01*
X79772598Y-26959456D01*
X79678348Y-27068226D01*
X79678347Y-27068228D01*
X79618559Y-27199143D01*
X79598078Y-27341600D01*
X63318325Y-27341600D01*
X63318325Y-25850849D01*
X63318324Y-25850847D01*
X63306693Y-25792370D01*
X63306692Y-25792368D01*
X63262378Y-25726049D01*
X63254641Y-25718312D01*
X63221158Y-25656987D01*
X63218325Y-25630633D01*
X63218325Y-22001203D01*
X63229531Y-21949691D01*
X63231608Y-21945143D01*
X63240690Y-21925257D01*
X63261172Y-21782800D01*
X63240690Y-21640343D01*
X63180902Y-21509427D01*
X63086653Y-21400657D01*
X62965578Y-21322847D01*
X62965576Y-21322846D01*
X62965574Y-21322845D01*
X62965575Y-21322845D01*
X62827488Y-21282300D01*
X62827486Y-21282300D01*
X62683564Y-21282300D01*
X62683561Y-21282300D01*
X62545474Y-21322845D01*
X62424398Y-21400656D01*
X62330148Y-21509426D01*
X62330147Y-21509428D01*
X62270359Y-21640343D01*
X62249878Y-21782800D01*
X62270359Y-21925253D01*
X62270359Y-21925255D01*
X62270360Y-21925257D01*
X62306119Y-22003558D01*
X62317325Y-22055068D01*
X62317325Y-25630633D01*
X62297640Y-25697672D01*
X62281009Y-25718312D01*
X62273271Y-25726050D01*
X62235926Y-25781940D01*
X62182314Y-25826744D01*
X62112989Y-25835451D01*
X62049961Y-25805296D01*
X62029723Y-25781939D01*
X61992377Y-25726047D01*
X61926055Y-25681732D01*
X61926054Y-25681731D01*
X61867577Y-25670100D01*
X61867573Y-25670100D01*
X61128077Y-25670100D01*
X61128072Y-25670100D01*
X61069595Y-25681731D01*
X61069594Y-25681732D01*
X61003272Y-25726047D01*
X60958957Y-25792369D01*
X60958956Y-25792370D01*
X60947325Y-25850847D01*
X60947325Y-27490352D01*
X60958956Y-27548829D01*
X60958957Y-27548830D01*
X61003273Y-27615153D01*
X61011006Y-27622886D01*
X61044491Y-27684209D01*
X61047325Y-27710567D01*
X61047325Y-27956691D01*
X61027640Y-28023730D01*
X60974836Y-28069485D01*
X60931032Y-28080092D01*
X60931055Y-28080329D01*
X60929421Y-28080482D01*
X60929121Y-28080555D01*
X60928170Y-28080599D01*
X60898575Y-28083374D01*
X60773948Y-28126984D01*
X60667714Y-28205388D01*
X60667713Y-28205389D01*
X60584801Y-28317733D01*
X60529154Y-28359984D01*
X60485031Y-28368100D01*
X60290395Y-28368100D01*
X60223356Y-28348415D01*
X60190625Y-28317734D01*
X60190624Y-28317733D01*
X60111225Y-28210150D01*
X60001957Y-28129507D01*
X60001955Y-28129506D01*
X59873775Y-28084653D01*
X59843345Y-28081800D01*
X59843341Y-28081800D01*
X58434809Y-28081800D01*
X58434805Y-28081800D01*
X58404375Y-28084653D01*
X58404373Y-28084653D01*
X58276194Y-28129506D01*
X58276192Y-28129507D01*
X58166925Y-28210150D01*
X58086282Y-28319417D01*
X58054146Y-28411256D01*
X58013424Y-28468031D01*
X57948471Y-28493778D01*
X57937105Y-28494300D01*
X57790694Y-28494300D01*
X57723655Y-28474615D01*
X57677900Y-28421811D01*
X57673653Y-28411255D01*
X57655712Y-28359984D01*
X57634591Y-28299625D01*
X57556186Y-28193389D01*
X57556185Y-28193388D01*
X57449951Y-28114984D01*
X57325323Y-28071374D01*
X57325324Y-28071374D01*
X57295735Y-28068600D01*
X57295731Y-28068600D01*
X56715219Y-28068600D01*
X56715215Y-28068600D01*
X56685625Y-28071374D01*
X56560998Y-28114984D01*
X56454764Y-28193388D01*
X56454763Y-28193389D01*
X56376359Y-28299623D01*
X56332749Y-28424250D01*
X56329975Y-28453839D01*
X24376500Y-28453839D01*
X24376500Y-25850847D01*
X58407325Y-25850847D01*
X58407325Y-27490352D01*
X58418956Y-27548829D01*
X58418957Y-27548830D01*
X58463272Y-27615152D01*
X58529594Y-27659467D01*
X58529595Y-27659468D01*
X58588072Y-27671099D01*
X58588075Y-27671100D01*
X58588077Y-27671100D01*
X59327575Y-27671100D01*
X59327576Y-27671099D01*
X59342393Y-27668152D01*
X59386054Y-27659468D01*
X59386054Y-27659467D01*
X59386056Y-27659467D01*
X59452377Y-27615152D01*
X59496692Y-27548831D01*
X59496692Y-27548829D01*
X59496693Y-27548829D01*
X59508324Y-27490352D01*
X59508325Y-27490350D01*
X59508325Y-26035565D01*
X59528010Y-25968526D01*
X59544644Y-25947884D01*
X59871545Y-25620983D01*
X60842314Y-24650214D01*
X60901623Y-24547487D01*
X60901624Y-24547486D01*
X60932325Y-24432909D01*
X60932325Y-22417239D01*
X60943531Y-22365727D01*
X61005490Y-22230056D01*
X61010587Y-22194605D01*
X61025972Y-22087600D01*
X61005490Y-21945143D01*
X60945702Y-21814227D01*
X60851453Y-21705457D01*
X60730378Y-21627647D01*
X60730376Y-21627646D01*
X60730374Y-21627645D01*
X60730375Y-21627645D01*
X60592288Y-21587100D01*
X60592286Y-21587100D01*
X60448364Y-21587100D01*
X60448361Y-21587100D01*
X60310274Y-21627645D01*
X60189198Y-21705456D01*
X60094948Y-21814226D01*
X60094947Y-21814228D01*
X60035159Y-21945143D01*
X60014678Y-22087599D01*
X60030063Y-22194605D01*
X60031325Y-22212252D01*
X60031325Y-24135635D01*
X60011640Y-24202674D01*
X59995006Y-24223316D01*
X58597338Y-25620983D01*
X58597334Y-25620989D01*
X58593576Y-25627498D01*
X58543007Y-25675712D01*
X58533647Y-25680054D01*
X58529593Y-25681733D01*
X58463272Y-25726047D01*
X58418957Y-25792369D01*
X58418956Y-25792370D01*
X58407325Y-25850847D01*
X24376500Y-25850847D01*
X24376500Y-18125711D01*
X35012025Y-18125711D01*
X35012025Y-18368288D01*
X35043686Y-18608785D01*
X35106472Y-18843104D01*
X35152527Y-18954290D01*
X35199301Y-19067212D01*
X35320589Y-19277289D01*
X35320591Y-19277292D01*
X35320592Y-19277293D01*
X35468258Y-19469736D01*
X35468264Y-19469743D01*
X35639781Y-19641260D01*
X35639787Y-19641265D01*
X35832236Y-19788936D01*
X36042313Y-19910224D01*
X36266425Y-20003054D01*
X36500736Y-20065838D01*
X36674029Y-20088652D01*
X36741236Y-20097500D01*
X36741237Y-20097500D01*
X36983814Y-20097500D01*
X37051021Y-20088652D01*
X37224314Y-20065838D01*
X37458625Y-20003054D01*
X37682737Y-19910224D01*
X37892814Y-19788936D01*
X38085263Y-19641265D01*
X38256790Y-19469738D01*
X38404461Y-19277289D01*
X38468368Y-19166599D01*
X43743896Y-19166599D01*
X43743896Y-19166600D01*
X43763569Y-19378910D01*
X43821921Y-19583992D01*
X43821921Y-19583994D01*
X43916957Y-19774853D01*
X44019184Y-19910222D01*
X44045453Y-19945007D01*
X44203023Y-20088652D01*
X44384306Y-20200898D01*
X44583127Y-20277921D01*
X44792715Y-20317100D01*
X44792717Y-20317100D01*
X45005933Y-20317100D01*
X45005935Y-20317100D01*
X45215523Y-20277921D01*
X45414344Y-20200898D01*
X45595627Y-20088652D01*
X45753197Y-19945007D01*
X45881691Y-19774855D01*
X45948210Y-19641266D01*
X45976728Y-19583994D01*
X45976728Y-19583993D01*
X45976730Y-19583989D01*
X46035081Y-19378910D01*
X46045854Y-19262647D01*
X46071640Y-19197711D01*
X46113947Y-19167404D01*
X46222455Y-19167404D01*
X46258828Y-19188268D01*
X46291018Y-19250281D01*
X46292796Y-19262648D01*
X46303569Y-19378910D01*
X46361921Y-19583992D01*
X46361921Y-19583994D01*
X46456957Y-19774853D01*
X46559184Y-19910222D01*
X46585453Y-19945007D01*
X46743023Y-20088652D01*
X46924306Y-20200898D01*
X47123127Y-20277921D01*
X47332715Y-20317100D01*
X47332717Y-20317100D01*
X47545933Y-20317100D01*
X47545935Y-20317100D01*
X47755523Y-20277921D01*
X47954344Y-20200898D01*
X48135627Y-20088652D01*
X48293197Y-19945007D01*
X48421691Y-19774855D01*
X48488210Y-19641266D01*
X48516728Y-19583994D01*
X48516728Y-19583993D01*
X48516730Y-19583989D01*
X48575081Y-19378910D01*
X48585854Y-19262647D01*
X48611640Y-19197711D01*
X48653947Y-19167404D01*
X48762455Y-19167404D01*
X48798828Y-19188268D01*
X48831018Y-19250281D01*
X48832796Y-19262648D01*
X48843569Y-19378910D01*
X48901921Y-19583992D01*
X48901921Y-19583994D01*
X48996957Y-19774853D01*
X49099184Y-19910222D01*
X49125453Y-19945007D01*
X49283023Y-20088652D01*
X49464306Y-20200898D01*
X49663127Y-20277921D01*
X49872715Y-20317100D01*
X49872717Y-20317100D01*
X50085933Y-20317100D01*
X50085935Y-20317100D01*
X50295523Y-20277921D01*
X50494344Y-20200898D01*
X50675627Y-20088652D01*
X50833197Y-19945007D01*
X50961691Y-19774855D01*
X51028210Y-19641266D01*
X51056728Y-19583994D01*
X51056728Y-19583993D01*
X51056730Y-19583989D01*
X51115081Y-19378910D01*
X51125854Y-19262647D01*
X51151640Y-19197711D01*
X51193947Y-19167404D01*
X51302455Y-19167404D01*
X51338828Y-19188268D01*
X51371018Y-19250281D01*
X51372796Y-19262648D01*
X51383569Y-19378910D01*
X51441921Y-19583992D01*
X51441921Y-19583994D01*
X51536957Y-19774853D01*
X51639184Y-19910222D01*
X51665453Y-19945007D01*
X51823023Y-20088652D01*
X52004306Y-20200898D01*
X52203127Y-20277921D01*
X52412715Y-20317100D01*
X52412717Y-20317100D01*
X52625933Y-20317100D01*
X52625935Y-20317100D01*
X52835523Y-20277921D01*
X53034344Y-20200898D01*
X53215627Y-20088652D01*
X53373197Y-19945007D01*
X53501691Y-19774855D01*
X53568210Y-19641266D01*
X53596728Y-19583994D01*
X53596728Y-19583993D01*
X53596730Y-19583989D01*
X53655081Y-19378910D01*
X53665854Y-19262647D01*
X53691640Y-19197711D01*
X53733947Y-19167404D01*
X53842455Y-19167404D01*
X53878828Y-19188268D01*
X53911018Y-19250281D01*
X53912796Y-19262648D01*
X53923569Y-19378910D01*
X53981921Y-19583992D01*
X53981921Y-19583994D01*
X54076957Y-19774853D01*
X54179184Y-19910222D01*
X54205453Y-19945007D01*
X54363023Y-20088652D01*
X54544306Y-20200898D01*
X54743127Y-20277921D01*
X54952715Y-20317100D01*
X54952717Y-20317100D01*
X55165933Y-20317100D01*
X55165935Y-20317100D01*
X55375523Y-20277921D01*
X55574344Y-20200898D01*
X55755627Y-20088652D01*
X55913197Y-19945007D01*
X56041691Y-19774855D01*
X56108210Y-19641266D01*
X56136728Y-19583994D01*
X56136728Y-19583993D01*
X56136730Y-19583989D01*
X56195081Y-19378910D01*
X56205854Y-19262647D01*
X56231640Y-19197711D01*
X56273947Y-19167404D01*
X56382455Y-19167404D01*
X56418828Y-19188268D01*
X56451018Y-19250281D01*
X56452796Y-19262648D01*
X56463569Y-19378910D01*
X56521921Y-19583992D01*
X56521921Y-19583994D01*
X56616957Y-19774853D01*
X56719184Y-19910222D01*
X56745453Y-19945007D01*
X56903023Y-20088652D01*
X57084306Y-20200898D01*
X57283127Y-20277921D01*
X57492715Y-20317100D01*
X57492717Y-20317100D01*
X57705933Y-20317100D01*
X57705935Y-20317100D01*
X57915523Y-20277921D01*
X58114344Y-20200898D01*
X58295627Y-20088652D01*
X58453197Y-19945007D01*
X58581691Y-19774855D01*
X58648210Y-19641266D01*
X58676728Y-19583994D01*
X58676728Y-19583993D01*
X58676730Y-19583989D01*
X58735081Y-19378910D01*
X58745854Y-19262647D01*
X58771640Y-19197711D01*
X58813947Y-19167404D01*
X58922455Y-19167404D01*
X58958828Y-19188268D01*
X58991018Y-19250281D01*
X58992796Y-19262648D01*
X59003569Y-19378910D01*
X59061921Y-19583992D01*
X59061921Y-19583994D01*
X59156957Y-19774853D01*
X59259184Y-19910222D01*
X59285453Y-19945007D01*
X59443023Y-20088652D01*
X59624306Y-20200898D01*
X59823127Y-20277921D01*
X60032715Y-20317100D01*
X60032717Y-20317100D01*
X60245933Y-20317100D01*
X60245935Y-20317100D01*
X60455523Y-20277921D01*
X60654344Y-20200898D01*
X60835627Y-20088652D01*
X60993197Y-19945007D01*
X61121691Y-19774855D01*
X61188210Y-19641266D01*
X61216728Y-19583994D01*
X61216728Y-19583993D01*
X61216730Y-19583989D01*
X61275081Y-19378910D01*
X61285854Y-19262647D01*
X61311640Y-19197711D01*
X61353947Y-19167404D01*
X61462455Y-19167404D01*
X61498828Y-19188268D01*
X61531018Y-19250281D01*
X61532796Y-19262648D01*
X61543569Y-19378910D01*
X61601921Y-19583992D01*
X61601921Y-19583994D01*
X61696957Y-19774853D01*
X61799184Y-19910222D01*
X61825453Y-19945007D01*
X61983023Y-20088652D01*
X62164306Y-20200898D01*
X62363127Y-20277921D01*
X62572715Y-20317100D01*
X62572717Y-20317100D01*
X62785933Y-20317100D01*
X62785935Y-20317100D01*
X62995523Y-20277921D01*
X63194344Y-20200898D01*
X63375627Y-20088652D01*
X63533197Y-19945007D01*
X63661691Y-19774855D01*
X63728210Y-19641266D01*
X63756728Y-19583994D01*
X63756728Y-19583993D01*
X63756730Y-19583989D01*
X63815081Y-19378910D01*
X63834754Y-19166600D01*
X63834754Y-19166599D01*
X69143896Y-19166599D01*
X69143896Y-19166600D01*
X69163569Y-19378910D01*
X69221921Y-19583992D01*
X69221921Y-19583994D01*
X69316957Y-19774853D01*
X69419184Y-19910222D01*
X69445453Y-19945007D01*
X69603023Y-20088652D01*
X69784306Y-20200898D01*
X69983127Y-20277921D01*
X70192715Y-20317100D01*
X70192717Y-20317100D01*
X70405933Y-20317100D01*
X70405935Y-20317100D01*
X70615523Y-20277921D01*
X70814344Y-20200898D01*
X70995627Y-20088652D01*
X71153197Y-19945007D01*
X71281691Y-19774855D01*
X71348210Y-19641266D01*
X71376728Y-19583994D01*
X71376728Y-19583993D01*
X71376730Y-19583989D01*
X71435081Y-19378910D01*
X71445854Y-19262647D01*
X71471640Y-19197711D01*
X71513947Y-19167404D01*
X71622455Y-19167404D01*
X71658828Y-19188268D01*
X71691018Y-19250281D01*
X71692796Y-19262648D01*
X71703569Y-19378910D01*
X71761921Y-19583992D01*
X71761921Y-19583994D01*
X71856957Y-19774853D01*
X71959184Y-19910222D01*
X71985453Y-19945007D01*
X72143023Y-20088652D01*
X72324306Y-20200898D01*
X72523127Y-20277921D01*
X72732715Y-20317100D01*
X72732717Y-20317100D01*
X72945933Y-20317100D01*
X72945935Y-20317100D01*
X73155523Y-20277921D01*
X73354344Y-20200898D01*
X73535627Y-20088652D01*
X73693197Y-19945007D01*
X73821691Y-19774855D01*
X73888210Y-19641266D01*
X73916728Y-19583994D01*
X73916728Y-19583993D01*
X73916730Y-19583989D01*
X73975081Y-19378910D01*
X73994754Y-19166600D01*
X73975081Y-18954290D01*
X73916730Y-18749211D01*
X73916728Y-18749206D01*
X73916728Y-18749205D01*
X73821692Y-18558346D01*
X73693197Y-18388193D01*
X73671362Y-18368288D01*
X73535627Y-18244548D01*
X73354344Y-18132302D01*
X73354342Y-18132301D01*
X73337331Y-18125711D01*
X97501225Y-18125711D01*
X97501225Y-18368288D01*
X97532886Y-18608785D01*
X97595672Y-18843104D01*
X97641727Y-18954290D01*
X97688501Y-19067212D01*
X97809789Y-19277289D01*
X97809791Y-19277292D01*
X97809792Y-19277293D01*
X97957458Y-19469736D01*
X97957464Y-19469743D01*
X98128981Y-19641260D01*
X98128987Y-19641265D01*
X98321436Y-19788936D01*
X98531513Y-19910224D01*
X98755625Y-20003054D01*
X98989936Y-20065838D01*
X99163229Y-20088652D01*
X99230436Y-20097500D01*
X99230437Y-20097500D01*
X99473014Y-20097500D01*
X99540221Y-20088652D01*
X99713514Y-20065838D01*
X99947825Y-20003054D01*
X100171937Y-19910224D01*
X100382014Y-19788936D01*
X100574463Y-19641265D01*
X100745990Y-19469738D01*
X100893661Y-19277289D01*
X101014949Y-19067212D01*
X101107779Y-18843100D01*
X101170563Y-18608789D01*
X101202225Y-18368288D01*
X101202225Y-18125712D01*
X101170563Y-17885211D01*
X101107779Y-17650900D01*
X101014949Y-17426788D01*
X100893661Y-17216711D01*
X100745990Y-17024262D01*
X100745985Y-17024256D01*
X100574468Y-16852739D01*
X100574461Y-16852733D01*
X100382018Y-16705067D01*
X100382017Y-16705066D01*
X100382014Y-16705064D01*
X100171937Y-16583776D01*
X100171930Y-16583773D01*
X99947829Y-16490947D01*
X99713510Y-16428161D01*
X99473014Y-16396500D01*
X99473013Y-16396500D01*
X99230437Y-16396500D01*
X99230436Y-16396500D01*
X98989939Y-16428161D01*
X98755620Y-16490947D01*
X98531519Y-16583773D01*
X98531510Y-16583777D01*
X98321431Y-16705067D01*
X98128988Y-16852733D01*
X98128981Y-16852739D01*
X97957464Y-17024256D01*
X97957458Y-17024263D01*
X97809792Y-17216706D01*
X97688502Y-17426785D01*
X97688498Y-17426794D01*
X97595672Y-17650895D01*
X97532886Y-17885214D01*
X97501225Y-18125711D01*
X73337331Y-18125711D01*
X73254933Y-18093790D01*
X73155523Y-18055279D01*
X72945935Y-18016100D01*
X72732715Y-18016100D01*
X72523127Y-18055279D01*
X72523124Y-18055279D01*
X72523124Y-18055280D01*
X72324307Y-18132301D01*
X72324305Y-18132302D01*
X72143024Y-18244547D01*
X71985452Y-18388193D01*
X71856957Y-18558346D01*
X71761921Y-18749205D01*
X71761921Y-18749207D01*
X71703569Y-18954289D01*
X71692796Y-19070551D01*
X71667010Y-19135488D01*
X71622455Y-19167404D01*
X71513947Y-19167404D01*
X71516194Y-19165794D01*
X71479822Y-19144931D01*
X71447632Y-19082918D01*
X71445854Y-19070551D01*
X71445174Y-19063213D01*
X71435081Y-18954290D01*
X71376730Y-18749211D01*
X71376728Y-18749206D01*
X71376728Y-18749205D01*
X71281692Y-18558346D01*
X71153197Y-18388193D01*
X71131362Y-18368288D01*
X70995627Y-18244548D01*
X70814344Y-18132302D01*
X70814342Y-18132301D01*
X70714933Y-18093790D01*
X70615523Y-18055279D01*
X70405935Y-18016100D01*
X70192715Y-18016100D01*
X69983127Y-18055279D01*
X69983124Y-18055279D01*
X69983124Y-18055280D01*
X69784307Y-18132301D01*
X69784305Y-18132302D01*
X69603024Y-18244547D01*
X69445452Y-18388193D01*
X69316957Y-18558346D01*
X69221921Y-18749205D01*
X69221921Y-18749207D01*
X69163569Y-18954289D01*
X69143896Y-19166599D01*
X63834754Y-19166599D01*
X63815081Y-18954290D01*
X63756730Y-18749211D01*
X63756728Y-18749206D01*
X63756728Y-18749205D01*
X63661692Y-18558346D01*
X63533197Y-18388193D01*
X63511362Y-18368288D01*
X63375627Y-18244548D01*
X63194344Y-18132302D01*
X63194342Y-18132301D01*
X63094933Y-18093790D01*
X62995523Y-18055279D01*
X62785935Y-18016100D01*
X62572715Y-18016100D01*
X62363127Y-18055279D01*
X62363124Y-18055279D01*
X62363124Y-18055280D01*
X62164307Y-18132301D01*
X62164305Y-18132302D01*
X61983024Y-18244547D01*
X61825452Y-18388193D01*
X61696957Y-18558346D01*
X61601921Y-18749205D01*
X61601921Y-18749207D01*
X61543569Y-18954289D01*
X61532796Y-19070551D01*
X61507010Y-19135488D01*
X61462455Y-19167404D01*
X61353947Y-19167404D01*
X61356194Y-19165794D01*
X61319822Y-19144931D01*
X61287632Y-19082918D01*
X61285854Y-19070551D01*
X61285174Y-19063213D01*
X61275081Y-18954290D01*
X61216730Y-18749211D01*
X61216728Y-18749206D01*
X61216728Y-18749205D01*
X61121692Y-18558346D01*
X60993197Y-18388193D01*
X60971362Y-18368288D01*
X60835627Y-18244548D01*
X60654344Y-18132302D01*
X60654342Y-18132301D01*
X60554933Y-18093790D01*
X60455523Y-18055279D01*
X60245935Y-18016100D01*
X60032715Y-18016100D01*
X59823127Y-18055279D01*
X59823124Y-18055279D01*
X59823124Y-18055280D01*
X59624307Y-18132301D01*
X59624305Y-18132302D01*
X59443024Y-18244547D01*
X59285452Y-18388193D01*
X59156957Y-18558346D01*
X59061921Y-18749205D01*
X59061921Y-18749207D01*
X59003569Y-18954289D01*
X58992796Y-19070551D01*
X58967010Y-19135488D01*
X58922455Y-19167404D01*
X58813947Y-19167404D01*
X58816194Y-19165794D01*
X58779822Y-19144931D01*
X58747632Y-19082918D01*
X58745854Y-19070551D01*
X58745174Y-19063213D01*
X58735081Y-18954290D01*
X58676730Y-18749211D01*
X58676728Y-18749206D01*
X58676728Y-18749205D01*
X58581692Y-18558346D01*
X58453197Y-18388193D01*
X58431362Y-18368288D01*
X58295627Y-18244548D01*
X58114344Y-18132302D01*
X58114342Y-18132301D01*
X58014933Y-18093790D01*
X57915523Y-18055279D01*
X57705935Y-18016100D01*
X57492715Y-18016100D01*
X57283127Y-18055279D01*
X57283124Y-18055279D01*
X57283124Y-18055280D01*
X57084307Y-18132301D01*
X57084305Y-18132302D01*
X56903024Y-18244547D01*
X56745452Y-18388193D01*
X56616957Y-18558346D01*
X56521921Y-18749205D01*
X56521921Y-18749207D01*
X56463569Y-18954289D01*
X56452796Y-19070551D01*
X56427010Y-19135488D01*
X56382455Y-19167404D01*
X56273947Y-19167404D01*
X56276194Y-19165794D01*
X56239822Y-19144931D01*
X56207632Y-19082918D01*
X56205854Y-19070551D01*
X56205174Y-19063213D01*
X56195081Y-18954290D01*
X56136730Y-18749211D01*
X56136728Y-18749206D01*
X56136728Y-18749205D01*
X56041692Y-18558346D01*
X55913197Y-18388193D01*
X55891362Y-18368288D01*
X55755627Y-18244548D01*
X55574344Y-18132302D01*
X55574342Y-18132301D01*
X55474933Y-18093790D01*
X55375523Y-18055279D01*
X55165935Y-18016100D01*
X54952715Y-18016100D01*
X54743127Y-18055279D01*
X54743124Y-18055279D01*
X54743124Y-18055280D01*
X54544307Y-18132301D01*
X54544305Y-18132302D01*
X54363024Y-18244547D01*
X54205452Y-18388193D01*
X54076957Y-18558346D01*
X53981921Y-18749205D01*
X53981921Y-18749207D01*
X53923569Y-18954289D01*
X53912796Y-19070551D01*
X53887010Y-19135488D01*
X53842455Y-19167404D01*
X53733947Y-19167404D01*
X53736194Y-19165794D01*
X53699822Y-19144931D01*
X53667632Y-19082918D01*
X53665854Y-19070551D01*
X53665174Y-19063213D01*
X53655081Y-18954290D01*
X53596730Y-18749211D01*
X53596728Y-18749206D01*
X53596728Y-18749205D01*
X53501692Y-18558346D01*
X53373197Y-18388193D01*
X53351362Y-18368288D01*
X53215627Y-18244548D01*
X53034344Y-18132302D01*
X53034342Y-18132301D01*
X52934933Y-18093790D01*
X52835523Y-18055279D01*
X52625935Y-18016100D01*
X52412715Y-18016100D01*
X52203127Y-18055279D01*
X52203124Y-18055279D01*
X52203124Y-18055280D01*
X52004307Y-18132301D01*
X52004305Y-18132302D01*
X51823024Y-18244547D01*
X51665452Y-18388193D01*
X51536957Y-18558346D01*
X51441921Y-18749205D01*
X51441921Y-18749207D01*
X51383569Y-18954289D01*
X51372796Y-19070551D01*
X51347010Y-19135488D01*
X51302455Y-19167404D01*
X51193947Y-19167404D01*
X51196194Y-19165794D01*
X51159822Y-19144931D01*
X51127632Y-19082918D01*
X51125854Y-19070551D01*
X51125174Y-19063213D01*
X51115081Y-18954290D01*
X51056730Y-18749211D01*
X51056728Y-18749206D01*
X51056728Y-18749205D01*
X50961692Y-18558346D01*
X50833197Y-18388193D01*
X50811362Y-18368288D01*
X50675627Y-18244548D01*
X50494344Y-18132302D01*
X50494342Y-18132301D01*
X50394933Y-18093790D01*
X50295523Y-18055279D01*
X50085935Y-18016100D01*
X49872715Y-18016100D01*
X49663127Y-18055279D01*
X49663124Y-18055279D01*
X49663124Y-18055280D01*
X49464307Y-18132301D01*
X49464305Y-18132302D01*
X49283024Y-18244547D01*
X49125452Y-18388193D01*
X48996957Y-18558346D01*
X48901921Y-18749205D01*
X48901921Y-18749207D01*
X48843569Y-18954289D01*
X48832796Y-19070551D01*
X48807010Y-19135488D01*
X48762455Y-19167404D01*
X48653947Y-19167404D01*
X48656194Y-19165794D01*
X48619822Y-19144931D01*
X48587632Y-19082918D01*
X48585854Y-19070551D01*
X48585174Y-19063213D01*
X48575081Y-18954290D01*
X48516730Y-18749211D01*
X48516728Y-18749206D01*
X48516728Y-18749205D01*
X48421692Y-18558346D01*
X48293197Y-18388193D01*
X48271362Y-18368288D01*
X48135627Y-18244548D01*
X47954344Y-18132302D01*
X47954342Y-18132301D01*
X47854933Y-18093790D01*
X47755523Y-18055279D01*
X47545935Y-18016100D01*
X47332715Y-18016100D01*
X47123127Y-18055279D01*
X47123124Y-18055279D01*
X47123124Y-18055280D01*
X46924307Y-18132301D01*
X46924305Y-18132302D01*
X46743024Y-18244547D01*
X46585452Y-18388193D01*
X46456957Y-18558346D01*
X46361921Y-18749205D01*
X46361921Y-18749207D01*
X46303569Y-18954289D01*
X46292796Y-19070551D01*
X46267010Y-19135488D01*
X46222455Y-19167404D01*
X46113947Y-19167404D01*
X46116194Y-19165794D01*
X46079822Y-19144931D01*
X46047632Y-19082918D01*
X46045854Y-19070551D01*
X46045174Y-19063213D01*
X46035081Y-18954290D01*
X45976730Y-18749211D01*
X45976728Y-18749206D01*
X45976728Y-18749205D01*
X45881692Y-18558346D01*
X45753197Y-18388193D01*
X45731362Y-18368288D01*
X45595627Y-18244548D01*
X45414344Y-18132302D01*
X45414342Y-18132301D01*
X45314933Y-18093790D01*
X45215523Y-18055279D01*
X45005935Y-18016100D01*
X44792715Y-18016100D01*
X44583127Y-18055279D01*
X44583124Y-18055279D01*
X44583124Y-18055280D01*
X44384307Y-18132301D01*
X44384305Y-18132302D01*
X44203024Y-18244547D01*
X44045452Y-18388193D01*
X43916957Y-18558346D01*
X43821921Y-18749205D01*
X43821921Y-18749207D01*
X43763569Y-18954289D01*
X43743896Y-19166599D01*
X38468368Y-19166599D01*
X38525749Y-19067212D01*
X38618579Y-18843100D01*
X38681363Y-18608789D01*
X38713025Y-18368288D01*
X38713025Y-18125712D01*
X38681363Y-17885211D01*
X38618579Y-17650900D01*
X38525749Y-17426788D01*
X38404461Y-17216711D01*
X38256790Y-17024262D01*
X38256785Y-17024256D01*
X38085268Y-16852739D01*
X38085261Y-16852733D01*
X37892818Y-16705067D01*
X37892817Y-16705066D01*
X37892814Y-16705064D01*
X37682737Y-16583776D01*
X37682730Y-16583773D01*
X37458629Y-16490947D01*
X37224310Y-16428161D01*
X36983814Y-16396500D01*
X36983813Y-16396500D01*
X36741237Y-16396500D01*
X36741236Y-16396500D01*
X36500739Y-16428161D01*
X36266420Y-16490947D01*
X36042319Y-16583773D01*
X36042310Y-16583777D01*
X35832231Y-16705067D01*
X35639788Y-16852733D01*
X35639781Y-16852739D01*
X35468264Y-17024256D01*
X35468258Y-17024263D01*
X35320592Y-17216706D01*
X35199302Y-17426785D01*
X35199298Y-17426794D01*
X35106472Y-17650895D01*
X35043686Y-17885214D01*
X35012025Y-18125711D01*
X24376500Y-18125711D01*
X24376500Y-15523900D01*
X24396185Y-15456861D01*
X24448989Y-15411106D01*
X24500500Y-15399900D01*
X111135500Y-15399900D01*
X111202539Y-15419585D01*
G37*
%TD.AperFunction*%
%TD*%
M02*
