%TF.GenerationSoftware,KiCad,Pcbnew,8.0.6*%
%TF.CreationDate,2025-10-30T19:34:05+01:00*%
%TF.ProjectId,middle_PCB,6d696464-6c65-45f5-9043-422e6b696361,rev?*%
%TF.SameCoordinates,Original*%
%TF.FileFunction,Soldermask,Bot*%
%TF.FilePolarity,Negative*%
%FSLAX46Y46*%
G04 Gerber Fmt 4.6, Leading zero omitted, Abs format (unit mm)*
G04 Created by KiCad (PCBNEW 8.0.6) date 2025-10-30 19:34:05*
%MOMM*%
%LPD*%
G01*
G04 APERTURE LIST*
G04 Aperture macros list*
%AMRoundRect*
0 Rectangle with rounded corners*
0 $1 Rounding radius*
0 $2 $3 $4 $5 $6 $7 $8 $9 X,Y pos of 4 corners*
0 Add a 4 corners polygon primitive as box body*
4,1,4,$2,$3,$4,$5,$6,$7,$8,$9,$2,$3,0*
0 Add four circle primitives for the rounded corners*
1,1,$1+$1,$2,$3*
1,1,$1+$1,$4,$5*
1,1,$1+$1,$6,$7*
1,1,$1+$1,$8,$9*
0 Add four rect primitives between the rounded corners*
20,1,$1+$1,$2,$3,$4,$5,0*
20,1,$1+$1,$4,$5,$6,$7,0*
20,1,$1+$1,$6,$7,$8,$9,0*
20,1,$1+$1,$8,$9,$2,$3,0*%
G04 Aperture macros list end*
%ADD10C,3.200000*%
%ADD11C,2.100000*%
%ADD12C,2.000000*%
%ADD13C,2.104000*%
%ADD14RoundRect,0.102000X0.350000X-0.800000X0.350000X0.800000X-0.350000X0.800000X-0.350000X-0.800000X0*%
%ADD15RoundRect,0.250000X-0.650000X0.412500X-0.650000X-0.412500X0.650000X-0.412500X0.650000X0.412500X0*%
%ADD16RoundRect,0.237500X-0.237500X0.250000X-0.237500X-0.250000X0.237500X-0.250000X0.237500X0.250000X0*%
%ADD17RoundRect,0.237500X-0.237500X0.300000X-0.237500X-0.300000X0.237500X-0.300000X0.237500X0.300000X0*%
G04 APERTURE END LIST*
D10*
%TO.C,REF\u002A\u002A*%
X36862525Y-18247000D03*
%TD*%
%TO.C,REF\u002A\u002A*%
X27940000Y-34747000D03*
%TD*%
D11*
%TO.C,J6*%
X96461325Y-44138600D03*
X96461325Y-49138600D03*
X99961325Y-44138600D03*
X99961325Y-49138600D03*
%TD*%
D10*
%TO.C,REF\u002A\u002A*%
X107950000Y-34747000D03*
%TD*%
%TO.C,REF\u002A\u002A*%
X99351725Y-18247000D03*
%TD*%
D11*
%TO.C,J7*%
X26726000Y-44211000D03*
X26726000Y-49211000D03*
X30226000Y-44211000D03*
X30226000Y-49211000D03*
%TD*%
D12*
%TO.C,J2*%
X45366925Y-44189400D03*
X45366925Y-49189400D03*
X48866925Y-44189400D03*
X48866925Y-49189400D03*
X52366925Y-44189400D03*
X52366925Y-49189400D03*
%TD*%
%TO.C,J4*%
X71204125Y-44087800D03*
X71204125Y-49087800D03*
X74704125Y-44087800D03*
X74704125Y-49087800D03*
X78204125Y-44087800D03*
X78204125Y-49087800D03*
%TD*%
D13*
%TO.C,U3*%
X72839325Y-19166600D03*
X70299325Y-19166600D03*
X67759325Y-19166600D03*
X65219325Y-19166600D03*
X62679325Y-19166600D03*
X60139325Y-19166600D03*
X57599325Y-19166600D03*
X55059325Y-19166600D03*
X52519325Y-19166600D03*
X49979325Y-19166600D03*
X47439325Y-19166600D03*
X44899325Y-19166600D03*
X72839325Y-34406600D03*
X70299325Y-34406600D03*
X67759325Y-34406600D03*
X65219325Y-34406600D03*
X62679325Y-34406600D03*
X60139325Y-34406600D03*
X57599325Y-34406600D03*
X55059325Y-34406600D03*
X52519325Y-34406600D03*
X49979325Y-34406600D03*
X47439325Y-34406600D03*
X44899325Y-34406600D03*
%TD*%
D11*
%TO.C,J1*%
X36110925Y-44211000D03*
X36110925Y-49211000D03*
X39610925Y-44211000D03*
X39610925Y-49211000D03*
%TD*%
D12*
%TO.C,J3*%
X58350525Y-44104200D03*
X58350525Y-49104200D03*
X61850525Y-44104200D03*
X61850525Y-49104200D03*
X65350525Y-44104200D03*
X65350525Y-49104200D03*
%TD*%
%TO.C,J5*%
X83964525Y-44138600D03*
X83964525Y-49138600D03*
X87464525Y-44138600D03*
X87464525Y-49138600D03*
X90964525Y-44138600D03*
X90964525Y-49138600D03*
%TD*%
D11*
%TO.C,J8*%
X105410000Y-44138600D03*
X105410000Y-49138600D03*
X108910000Y-44138600D03*
X108910000Y-49138600D03*
%TD*%
D14*
%TO.C,U2*%
X62767825Y-26670600D03*
X61497825Y-26670600D03*
X60227825Y-26670600D03*
X58957825Y-26670600D03*
%TD*%
D15*
%TO.C,C17*%
X59139075Y-28944800D03*
X59139075Y-32069800D03*
%TD*%
D16*
%TO.C,R23*%
X57005475Y-28756600D03*
X57005475Y-30581600D03*
%TD*%
D17*
%TO.C,C16*%
X61218425Y-28818600D03*
X61218425Y-30543600D03*
%TD*%
M02*
