%TF.GenerationSoftware,KiCad,Pcbnew,8.0.6*%
%TF.CreationDate,2025-10-30T19:34:05+01:00*%
%TF.ProjectId,middle_PCB,6d696464-6c65-45f5-9043-422e6b696361,rev?*%
%TF.SameCoordinates,Original*%
%TF.FileFunction,Soldermask,Top*%
%TF.FilePolarity,Negative*%
%FSLAX46Y46*%
G04 Gerber Fmt 4.6, Leading zero omitted, Abs format (unit mm)*
G04 Created by KiCad (PCBNEW 8.0.6) date 2025-10-30 19:34:05*
%MOMM*%
%LPD*%
G01*
G04 APERTURE LIST*
G04 Aperture macros list*
%AMRoundRect*
0 Rectangle with rounded corners*
0 $1 Rounding radius*
0 $2 $3 $4 $5 $6 $7 $8 $9 X,Y pos of 4 corners*
0 Add a 4 corners polygon primitive as box body*
4,1,4,$2,$3,$4,$5,$6,$7,$8,$9,$2,$3,0*
0 Add four circle primitives for the rounded corners*
1,1,$1+$1,$2,$3*
1,1,$1+$1,$4,$5*
1,1,$1+$1,$6,$7*
1,1,$1+$1,$8,$9*
0 Add four rect primitives between the rounded corners*
20,1,$1+$1,$2,$3,$4,$5,0*
20,1,$1+$1,$4,$5,$6,$7,0*
20,1,$1+$1,$6,$7,$8,$9,0*
20,1,$1+$1,$8,$9,$2,$3,0*%
G04 Aperture macros list end*
%ADD10C,3.200000*%
%ADD11RoundRect,0.237500X0.237500X-0.300000X0.237500X0.300000X-0.237500X0.300000X-0.237500X-0.300000X0*%
%ADD12C,2.100000*%
%ADD13RoundRect,0.150000X-0.150000X0.825000X-0.150000X-0.825000X0.150000X-0.825000X0.150000X0.825000X0*%
%ADD14RoundRect,0.237500X0.300000X0.237500X-0.300000X0.237500X-0.300000X-0.237500X0.300000X-0.237500X0*%
%ADD15C,2.000000*%
%ADD16RoundRect,0.237500X-0.237500X0.250000X-0.237500X-0.250000X0.237500X-0.250000X0.237500X0.250000X0*%
%ADD17RoundRect,0.237500X0.237500X-0.250000X0.237500X0.250000X-0.237500X0.250000X-0.237500X-0.250000X0*%
%ADD18RoundRect,0.150000X0.512500X0.150000X-0.512500X0.150000X-0.512500X-0.150000X0.512500X-0.150000X0*%
%ADD19C,2.104000*%
%ADD20RoundRect,0.237500X-0.300000X-0.237500X0.300000X-0.237500X0.300000X0.237500X-0.300000X0.237500X0*%
%ADD21R,0.300000X0.500000*%
%ADD22RoundRect,0.250000X-0.650000X0.412500X-0.650000X-0.412500X0.650000X-0.412500X0.650000X0.412500X0*%
%ADD23RoundRect,0.102000X-0.125000X-0.137500X0.125000X-0.137500X0.125000X0.137500X-0.125000X0.137500X0*%
%ADD24RoundRect,0.102000X-0.137500X-0.125000X0.137500X-0.125000X0.137500X0.125000X-0.137500X0.125000X0*%
%ADD25RoundRect,0.237500X-0.237500X0.300000X-0.237500X-0.300000X0.237500X-0.300000X0.237500X0.300000X0*%
G04 APERTURE END LIST*
D10*
%TO.C,REF\u002A\u002A*%
X36862525Y-18247000D03*
%TD*%
%TO.C,REF\u002A\u002A*%
X27940000Y-34747000D03*
%TD*%
D11*
%TO.C,C19*%
X86199725Y-26432100D03*
X86199725Y-24707100D03*
%TD*%
D12*
%TO.C,J6*%
X96461325Y-44138600D03*
X96461325Y-49138600D03*
X99961325Y-44138600D03*
X99961325Y-49138600D03*
%TD*%
D10*
%TO.C,REF\u002A\u002A*%
X107950000Y-34747000D03*
%TD*%
%TO.C,REF\u002A\u002A*%
X99351725Y-18247000D03*
%TD*%
D13*
%TO.C,U6*%
X41571925Y-23295600D03*
X40301925Y-23295600D03*
X39031925Y-23295600D03*
X37761925Y-23295600D03*
X37761925Y-28245600D03*
X39031925Y-28245600D03*
X40301925Y-28245600D03*
X41571925Y-28245600D03*
%TD*%
D12*
%TO.C,J7*%
X26726000Y-44211000D03*
X26726000Y-49211000D03*
X30226000Y-44211000D03*
X30226000Y-49211000D03*
%TD*%
D14*
%TO.C,C2*%
X92396225Y-33543000D03*
X90671225Y-33543000D03*
%TD*%
D11*
%TO.C,C18*%
X86961725Y-29885400D03*
X86961725Y-28160400D03*
%TD*%
D15*
%TO.C,J2*%
X45366925Y-44189400D03*
X45366925Y-49189400D03*
X48866925Y-44189400D03*
X48866925Y-49189400D03*
X52366925Y-44189400D03*
X52366925Y-49189400D03*
%TD*%
D16*
%TO.C,R1*%
X76852525Y-25516600D03*
X76852525Y-27341600D03*
%TD*%
D17*
%TO.C,R2*%
X76852525Y-30950300D03*
X76852525Y-29125300D03*
%TD*%
D15*
%TO.C,J4*%
X71204125Y-44087800D03*
X71204125Y-49087800D03*
X74704125Y-44087800D03*
X74704125Y-49087800D03*
X78204125Y-44087800D03*
X78204125Y-49087800D03*
%TD*%
D18*
%TO.C,U5*%
X94652425Y-37134600D03*
X94652425Y-36184600D03*
X94652425Y-35234600D03*
X92377425Y-35234600D03*
X92377425Y-37134600D03*
%TD*%
D19*
%TO.C,U3*%
X72839325Y-19166600D03*
X70299325Y-19166600D03*
X67759325Y-19166600D03*
X65219325Y-19166600D03*
X62679325Y-19166600D03*
X60139325Y-19166600D03*
X57599325Y-19166600D03*
X55059325Y-19166600D03*
X52519325Y-19166600D03*
X49979325Y-19166600D03*
X47439325Y-19166600D03*
X44899325Y-19166600D03*
X72839325Y-34406600D03*
X70299325Y-34406600D03*
X67759325Y-34406600D03*
X65219325Y-34406600D03*
X62679325Y-34406600D03*
X60139325Y-34406600D03*
X57599325Y-34406600D03*
X55059325Y-34406600D03*
X52519325Y-34406600D03*
X49979325Y-34406600D03*
X47439325Y-34406600D03*
X44899325Y-34406600D03*
%TD*%
D20*
%TO.C,C15*%
X80002125Y-35067000D03*
X81727125Y-35067000D03*
%TD*%
D21*
%TO.C,U1*%
X81170525Y-32244600D03*
X80370525Y-32244600D03*
X80370525Y-33644600D03*
X81170525Y-33644600D03*
%TD*%
D12*
%TO.C,J1*%
X36110925Y-44211000D03*
X36110925Y-49211000D03*
X39610925Y-44211000D03*
X39610925Y-49211000D03*
%TD*%
D15*
%TO.C,J3*%
X58350525Y-44104200D03*
X58350525Y-49104200D03*
X61850525Y-44104200D03*
X61850525Y-49104200D03*
X65350525Y-44104200D03*
X65350525Y-49104200D03*
%TD*%
D22*
%TO.C,C3*%
X89857325Y-36755700D03*
X89857325Y-39880700D03*
%TD*%
D23*
%TO.C,U4*%
X85026825Y-27947600D03*
X84526825Y-27947600D03*
D24*
X84014325Y-28210100D03*
X84014325Y-28710100D03*
X84014325Y-29210100D03*
D23*
X84526825Y-29472600D03*
X85026825Y-29472600D03*
D24*
X85539325Y-29210100D03*
X85539325Y-28710100D03*
X85539325Y-28210100D03*
%TD*%
D15*
%TO.C,J5*%
X83964525Y-44138600D03*
X83964525Y-49138600D03*
X87464525Y-44138600D03*
X87464525Y-49138600D03*
X90964525Y-44138600D03*
X90964525Y-49138600D03*
%TD*%
D12*
%TO.C,J8*%
X105410000Y-44138600D03*
X105410000Y-49138600D03*
X108910000Y-44138600D03*
X108910000Y-49138600D03*
%TD*%
D25*
%TO.C,C1*%
X41851325Y-30445300D03*
X41851325Y-32170300D03*
%TD*%
M02*
