M48
; DRILL file {KiCad 8.0.6} date 2025-10-30T19:34:12+0100
; FORMAT={-:-/ absolute / metric / decimal}
; #@! TF.CreationDate,2025-10-30T19:34:12+01:00
; #@! TF.GenerationSoftware,Kicad,Pcbnew,8.0.6
; #@! TF.FileFunction,Plated,1,2,PTH
FMAT,2
METRIC
; #@! TA.AperFunction,Plated,PTH,ViaDrill
T1C0.300
; #@! TA.AperFunction,Plated,PTH,ComponentDrill
T2C1.000
; #@! TA.AperFunction,Plated,PTH,ComponentDrill
T3C1.100
%
G90
G05
T1
X37.762Y-28.246
X41.851Y-32.17
X57.005Y-30.582
X60.52Y-22.088
X62.756Y-21.783
X80.104Y-27.342
X80.104Y-30.139
X81.727Y-35.067
X83.066Y-28.042
X83.117Y-29.718
X86.2Y-24.707
X86.962Y-29.885
X89.857Y-39.881
X90.671Y-33.543
X94.652Y-36.185
T2
X44.899Y-19.167
X44.899Y-34.407
X47.439Y-19.167
X47.439Y-34.407
X49.979Y-19.167
X49.979Y-34.407
X52.519Y-19.167
X52.519Y-34.407
X55.059Y-19.167
X55.059Y-34.407
X57.599Y-19.167
X57.599Y-34.407
X60.139Y-19.167
X60.139Y-34.407
X62.679Y-19.167
X62.679Y-34.407
X65.219Y-19.167
X65.219Y-34.407
X67.759Y-19.167
X67.759Y-34.407
X70.299Y-19.167
X70.299Y-34.407
X72.839Y-19.167
X72.839Y-34.407
T3
X26.726Y-44.211
X26.726Y-49.211
X30.226Y-44.211
X30.226Y-49.211
X36.111Y-44.211
X36.111Y-49.211
X39.611Y-44.211
X39.611Y-49.211
X45.367Y-44.189
X45.367Y-49.189
X48.867Y-44.189
X48.867Y-49.189
X52.367Y-44.189
X52.367Y-49.189
X58.351Y-44.104
X58.351Y-49.104
X61.851Y-44.104
X61.851Y-49.104
X65.351Y-44.104
X65.351Y-49.104
X71.204Y-44.088
X71.204Y-49.088
X74.704Y-44.088
X74.704Y-49.088
X78.204Y-44.088
X78.204Y-49.088
X83.965Y-44.139
X83.965Y-49.139
X87.465Y-44.139
X87.465Y-49.139
X90.965Y-44.139
X90.965Y-49.139
X96.461Y-44.139
X96.461Y-49.139
X99.961Y-44.139
X99.961Y-49.139
X105.41Y-44.139
X105.41Y-49.139
X108.91Y-44.139
X108.91Y-49.139
M30
